<svg xmlns="http://www.w3.org/2000/svg" xmlns:xlink="http://www.w3.org/1999/xlink" width="22" height="22" viewBox="0 0 22 22">
  <defs>
    <clipPath id="clip-path">
      <rect id="사각형_294" data-name="사각형 294" width="22" height="22" transform="translate(1 1)" fill="#6d6f85"/>
    </clipPath>
  </defs>
  <g id="icon" transform="translate(-1 -1)" clip-path="url(#clip-path)">
    <path id="패스_63881" data-name="패스 63881" d="M12.625,5h.719c1.191,0,2.156.247,2.156,1.438V20.094c0,1.191-.965,1.438-2.156,1.438h-.719c-1.191,0-2.156-.247-2.156-1.437V6.438c0-1.191.965-1.437,2.156-1.437m4.313,9.344v5.75c0,1.191.965,1.438,2.156,1.438h.719c1.191,0,2.156-.247,2.156-1.437v-5.75c0-1.191-.965-1.438-2.156-1.438h-.719c-1.191,0-2.156.247-2.156,1.438m2.156,5.75a3.38,3.38,0,0,1-.719-.058V14.4a3.32,3.32,0,0,1,.719-.059h.719a3.334,3.334,0,0,1,.714.058l0,5.633a3.32,3.32,0,0,1-.719.059ZM9.031,10.031V20.094c0,1.191-.965,1.438-2.156,1.438H6.156C4.965,21.531,4,21.285,4,20.094V10.031c0-1.191.965-1.437,2.156-1.437h.719c1.191,0,2.156.247,2.156,1.438m-2.156,0H6.233l1.356,1.356v-1.3a3.32,3.32,0,0,0-.714-.058m.719,9.986v-1.14L5.438,16.721v1.14Zm0-2.158v-1.14L5.438,14.564V15.7Zm0-2.158V14.562L5.438,12.408v1.14Zm0-2.157V12.405L5.438,10.252v1.14ZM6.156,20.094h.5L5.438,18.877v1.159a3.38,3.38,0,0,0,.719.058" transform="translate(-1.125 -1.406)" fill="#6d6f85"/>
  </g>
</svg>
