<svg id="icon" xmlns="http://www.w3.org/2000/svg" width="20" height="20" viewBox="0 0 20 20">
  <rect id="area" width="20" height="20" fill="none"/>
  <g id="그룹_365" data-name="그룹 365" transform="translate(0 2.667)">
    <path id="패스_63885" data-name="패스 63885" d="M13.365.139a1.4,1.4,0,0,0-1.529.207A11.491,11.491,0,0,1,8.114,2.369a8.164,8.164,0,0,1-1.751.375l-.039,0A9.216,9.216,0,0,1,5.4,2.8H3.571A3.62,3.62,0,0,0,0,6.454,3.68,3.68,0,0,0,1.047,9.04a3.528,3.528,0,0,0,1.707.976l1.2,4.678a.66.66,0,0,0,.167.3.63.63,0,0,0,.454.193h2.22a.64.64,0,0,0,.512-.261.677.677,0,0,0,.106-.576L6.259,10.155a8.2,8.2,0,0,1,1.854.385,11.473,11.473,0,0,1,3.721,2.022,1.42,1.42,0,0,0,.923.347,1.4,1.4,0,0,0,.606-.139,1.426,1.426,0,0,0,.806-1.3V1.442a1.429,1.429,0,0,0-.806-1.3M5.763,8.8c-.111,0-.222-.006-.333-.006H3.569A2.242,2.242,0,0,1,1.954,8.11a2.356,2.356,0,0,1-.67-1.656A2.318,2.318,0,0,1,3.571,4.112H5.4c.122,0,.243,0,.363-.007Zm-.85,1.309,1.032,3.756H5.068l-.961-3.756ZM7.048,3.98a9.3,9.3,0,0,0,1.467-.36,12.775,12.775,0,0,0,4.144-2.262.144.144,0,0,1,.166-.024.122.122,0,0,1,.033.024h0a.111.111,0,0,1,.029.086V11.466a.113.113,0,0,1-.066.112.143.143,0,0,1-.162-.027A12.745,12.745,0,0,0,8.514,9.289a9.313,9.313,0,0,0-1.466-.36Z" transform="translate(0 0.001)" fill="#fff"/>
    <path id="패스_63886" data-name="패스 63886" d="M193.459,11.244h0a.634.634,0,0,0,.844.057l2.654-2.081a.67.67,0,0,0,.121-.92.64.64,0,0,0-.9-.125l-2.654,2.082a.671.671,0,0,0-.12.921.623.623,0,0,0,.058.067" transform="translate(-177.696 -7.378)" fill="#fff"/>
    <path id="패스_63887" data-name="패스 63887" d="M196.961,109.419l-2.655-2.081a.635.635,0,0,0-.9.124.673.673,0,0,0,.056.864h0a.686.686,0,0,0,.064.058l2.655,2.081a.629.629,0,0,0,.388.134.639.639,0,0,0,.512-.258.67.67,0,0,0-.121-.923" transform="translate(-177.7 -98.351)" fill="#fff"/>
    <path id="패스_63888" data-name="패스 63888" d="M197.059,70.206h-3.141a.63.63,0,0,0-.454.193.67.67,0,0,0,0,.931.63.63,0,0,0,.454.193h3.141a.658.658,0,0,0,0-1.316" transform="translate(-177.701 -64.409)" fill="#fff"/>
  </g>
</svg>
