<svg xmlns="http://www.w3.org/2000/svg" xmlns:xlink="http://www.w3.org/1999/xlink" width="13.741" height="16.074" viewBox="0 0 13.741 16.074">
  <defs>
    <clipPath id="clip-path">
      <rect id="사각형_23974" data-name="사각형 23974" width="13.741" height="16.074" fill="none" stroke="#fff" stroke-width="1.3"/>
    </clipPath>
  </defs>
  <g id="그룹_5346" data-name="그룹 5346" transform="translate(1.472 1.963)">
    <path id="합치기_4" data-name="합치기 4" d="M1.68,1.32,0,.061,1.68,1.32v0l.01.007L1.68,1.32v0ZM3.412,0,1.69,1.328Z" transform="translate(4.173 4.578)" fill="none" stroke="#fff" stroke-linecap="round" stroke-linejoin="round" stroke-width="1.3"/>
    <line id="선_100" data-name="선 100" x2="3.67" transform="translate(4.008 10.301)" fill="none" stroke="#fff" stroke-linecap="round" stroke-linejoin="round" stroke-width="1.3"/>
    <g id="그룹_5345" data-name="그룹 5345" transform="translate(-1.472 -1.963)">
      <g id="그룹_5344" data-name="그룹 5344" transform="translate(0 0)" clip-path="url(#clip-path)">
        <path id="패스_64647" data-name="패스 64647" d="M17.962,12.848a4.993,4.993,0,0,0-9.912-.7,4.789,4.789,0,0,0,2.1,4.686A1.657,1.657,0,0,1,10.93,18.2v.741a1.631,1.631,0,0,0,1.653,1.608h.8a1.631,1.631,0,0,0,1.653-1.608v-.711a1.6,1.6,0,0,1,.706-1.347A4.805,4.805,0,0,0,17.962,12.848Z" transform="translate(-5.843 -6.08)" fill="none" stroke="#fff" stroke-linecap="round" stroke-linejoin="round" stroke-width="1.3"/>
      </g>
    </g>
  </g>
</svg>
