<svg xmlns="http://www.w3.org/2000/svg" width="20" height="20" viewBox="0 0 20 20">
  <g id="icon" transform="translate(-28.164 43)">
    <rect id="사각형_23996" data-name="사각형 23996" width="20" height="20" transform="translate(28.164 -43)" fill="none"/>
    <g id="그룹_5430" data-name="그룹 5430" transform="translate(-14261.851 -12775.947)">
      <path id="패스_65145" data-name="패스 65145" d="M14328.807,12792.42h2.726a.682.682,0,0,0,0-1.363h-2.726a.682.682,0,0,0,0,1.363Z" transform="translate(-32.198 -50.154)" fill="#169d73"/>
      <path id="패스_65146" data-name="패스 65146" d="M14335.62,12819.541h-6.813a.682.682,0,0,0,0,1.363h6.813a.682.682,0,0,0,0-1.363Z" transform="translate(-32.198 -75.912)" fill="#169d73"/>
      <path id="패스_65148" data-name="패스 65148" d="M14304.784,12735.451h-2.726a1.361,1.361,0,0,0-1.362-1.362h-1.363a1.352,1.352,0,0,0-.762.232,1.376,1.376,0,0,0-.368.368,1.352,1.352,0,0,0-.232.762h-2.726a2.725,2.725,0,0,0-2.726,2.726v10.9a2.725,2.725,0,0,0,2.726,2.726h9.539a2.725,2.725,0,0,0,2.726-2.726v-10.9A2.725,2.725,0,0,0,14304.784,12735.451Zm-5.451,0h1.363v1.363h-1.363Zm5.451,14.991h-9.539a1.364,1.364,0,0,1-1.363-1.362h12.266A1.364,1.364,0,0,1,14304.784,12750.442Zm1.363-2.726h-12.266v-9.54a1.364,1.364,0,0,1,1.363-1.362h2.726a1.362,1.362,0,0,0,1.362,1.362h1.363a1.362,1.362,0,0,0,1.362-1.362h2.726a1.364,1.364,0,0,1,1.363,1.362Z" fill="#169d73"/>
    </g>
  </g>
</svg>
