<svg id="그룹_5365" data-name="그룹 5365" xmlns="http://www.w3.org/2000/svg" xmlns:xlink="http://www.w3.org/1999/xlink" width="19" height="19" viewBox="0 0 19 19">
  <defs>
    <clipPath id="clip-path">
      <rect id="사각형_23983" data-name="사각형 23983" width="19" height="19" fill="#6e7177" stroke="#888c94" stroke-width="0.2"/>
    </clipPath>
  </defs>
  <g id="그룹_5364" data-name="그룹 5364" clip-path="url(#clip-path)">
    <path id="패스_64665" data-name="패스 64665" d="M18.744,1H.75a.734.734,0,1,0,0,1.467H1.5v7.987c0,2.365,1.331,3.668,3.749,3.668H9V15.93L6.332,17.669a.724.724,0,0,0-.2,1.02.76.76,0,0,0,1.027.2L9.747,17.2l2.583,1.685a.76.76,0,0,0,1.042-.191.724.724,0,0,0-.2-1.02l-.014-.01L10.5,15.932V14.122h3.749c2.418,0,3.749-1.3,3.749-3.668V2.467h.75a.734.734,0,1,0,0-1.467m-2.249,9.454c0,1.543-.673,2.2-2.249,2.2h-9C3.672,12.655,3,12,3,10.454V2.467h13.5Zm-11-.489V7.113a.75.75,0,0,1,1.5,0V9.965a.75.75,0,0,1-1.5,0m3.5,0V5.157a.75.75,0,0,1,1.5,0V9.965a.75.75,0,0,1-1.5,0m3.5,0V8.009a.75.75,0,0,1,1.5,0V9.965a.75.75,0,0,1-1.5,0" transform="translate(-0.131 0.211)" fill="#6e7177" stroke="#888c94" stroke-width="0.2"/>
  </g>
</svg>
