<svg xmlns="http://www.w3.org/2000/svg" xmlns:xlink="http://www.w3.org/1999/xlink" width="22" height="22" viewBox="0 0 22 22">
  <defs>
    <clipPath id="clip-path">
      <rect id="사각형_293" data-name="사각형 293" width="22" height="22" fill="#6d6f85"/>
    </clipPath>
  </defs>
  <g id="icon" clip-path="url(#clip-path)">
    <path id="패스_63879" data-name="패스 63879" d="M17.864,4.651a3.219,3.219,0,0,1-2.53-1.461L14.35,1.461C13.894.657,14.285,0,15.22,0H15.6a4.544,4.544,0,0,1,2.549.744,1.6,1.6,0,0,0,1.889,0A5.541,5.541,0,0,1,22.774,0h.566c.935,0,1.253.611.707,1.359L22.634,3.292a3.757,3.757,0,0,1-2.693,1.359Z" transform="translate(-8.083 1)" fill="#6d6f85"/>
    <path id="패스_63880" data-name="패스 63880" d="M18.053,25l-1.514-1.937a7.622,7.622,0,0,0-2.6-1.976l-.455-.188a10.206,10.206,0,0,0-3.266-.649H8.325a7.514,7.514,0,0,0-3.167.846l-.465.268a10.061,10.061,0,0,0-2.488,2.184L.848,25.326a4.822,4.822,0,0,0-.831,3L.168,29.65a5.429,5.429,0,0,0,1.408,2.832l2.131,2.043a4.87,4.87,0,0,0,2.918,1.167h6.232a4.2,4.2,0,0,0,2.8-1.279l2.338-2.727a5.279,5.279,0,0,0,1.1-2.953V28a5.7,5.7,0,0,0-1.037-3M11.08,32.039v1.318H9.794V32.13a5.33,5.33,0,0,1-2.23-.556l.393-1.512a4.689,4.689,0,0,0,2.177.569c.748,0,1.26-.285,1.26-.8,0-.491-.419-.8-1.391-1.125-1.4-.465-2.362-1.111-2.362-2.365a2.4,2.4,0,0,1,2.217-2.3V22.811h1.285v1.137a4.784,4.784,0,0,1,1.9.426l-.38,1.461a4.409,4.409,0,0,0-1.89-.439c-.852,0-1.128.362-1.128.724,0,.426.459.7,1.574,1.112,1.562.543,2.191,1.254,2.191,2.417a2.492,2.492,0,0,1-2.334,2.391" transform="translate(1.455 -13.693)" fill="#6d6f85"/>
  </g>
</svg>
