<svg xmlns="http://www.w3.org/2000/svg" width="20" height="20" viewBox="0 0 20 20">
  <g id="icon" transform="translate(-28.164 43)">
    <rect id="사각형_23996" data-name="사각형 23996" width="20" height="20" transform="translate(28.164 -43)" fill="none"/>
    <path id="패스_65185" data-name="패스 65185" d="M103.95,67.2a3.491,3.491,0,1,0,3.491,3.491A3.5,3.5,0,0,0,103.95,67.2Zm0,1a2.494,2.494,0,1,1-2.494,2.494A2.486,2.486,0,0,1,103.95,68.2Zm5.439,5.984a.5.5,0,0,0-.452.5v1.114a4.686,4.686,0,0,0-1.177.678l-.14-.078-.008-.008-.008-.008a5.282,5.282,0,0,0-3.655-1.449c-1.556,0-3.905,1.147-4.512,2.525l-.725,2.213v1.5a.5.5,0,0,0,.5.5h3.74a.5.5,0,1,0,0-1H99.711v-.623a4.157,4.157,0,0,1,4.239-4.114,4.324,4.324,0,0,1,1.995.475l-1.067,1.854a.5.5,0,0,0,.179.678l.966.553a2.988,2.988,0,0,0,0,1.356l-.966.553a.5.5,0,0,0-.179.678l1.247,2.166a.5.5,0,0,0,.678.179l.959-.561a4.687,4.687,0,0,0,1.177.678v1.114a.5.5,0,0,0,.5.5h2.494a.5.5,0,0,0,.5-.5V84.537a4.687,4.687,0,0,0,1.177-.678l.958.561a.5.5,0,0,0,.678-.179l1.247-2.166a.5.5,0,0,0-.179-.678l-.966-.553a2.988,2.988,0,0,0,0-1.356l.966-.553a.5.5,0,0,0,.179-.678l-1.247-2.166a.5.5,0,0,0-.678-.179l-.958.561a4.686,4.686,0,0,0-1.177-.678V74.68a.5.5,0,0,0-.5-.5h-2.54Zm.545,1h1.5v.935a.5.5,0,0,0,.351.475,3.723,3.723,0,0,1,1.442.842.5.5,0,0,0,.592.062l.818-.475.748,1.309-.818.468a.5.5,0,0,0-.234.538,3.761,3.761,0,0,1,0,1.668.5.5,0,0,0,.234.538l.818.468-.748,1.309-.818-.475a.5.5,0,0,0-.592.062,3.725,3.725,0,0,1-1.442.842.5.5,0,0,0-.351.475v.935h-1.5v-.935a.5.5,0,0,0-.351-.475,3.725,3.725,0,0,1-1.442-.842.5.5,0,0,0-.592-.062l-.818.475L105.984,82l.818-.468a.5.5,0,0,0,.234-.538,3.768,3.768,0,0,1,0-1.668.5.5,0,0,0-.234-.538l-.818-.468.748-1.309.265.148.553.327a.5.5,0,0,0,.592-.062,3.723,3.723,0,0,1,1.442-.842.5.5,0,0,0,.351-.475Zm-10.5,2.275a4.979,4.979,0,0,0-.709,2.213Zm11.244.468a2.244,2.244,0,1,0,2.244,2.244A2.252,2.252,0,0,0,110.683,77.921Zm0,1a1.247,1.247,0,1,1-1.247,1.247A1.239,1.239,0,0,1,110.683,78.919Z" transform="translate(-69.47 -109.674)" fill="#169d73"/>
  </g>
</svg>
