<svg xmlns="http://www.w3.org/2000/svg" width="22.006" height="22" viewBox="0 0 22.006 22">
  <g id="icon" transform="translate(-337 -31)">
    <rect id="area" width="22" height="22" transform="translate(337 31)" fill="none"/>
    <g id="그룹_371" data-name="그룹 371" transform="translate(2.286 6.296)">
      <path id="패스_63891" data-name="패스 63891" d="M3.583,7.646Q4.792,5.358,6,3.071l.717-1.38c.219-.4.149-.581-.267-.794Q5.68.5,4.9.118c-.4-.2-.6-.137-.812.258-.344.64-.681,1.284-1.021,1.927Q1.6,5.079.128,7.856c-.206.389-.171.614.152.784q.867.455,1.753.873a.472.472,0,0,0,.684-.229Zm-.752-.541a.57.57,0,1,1,.137-.259.568.568,0,0,1-.137.259" transform="translate(334.714 27.696)" fill="#f3843a" fill-rule="evenodd"/>
      <path id="패스_63892" data-name="패스 63892" d="M62.208,9.041a.206.206,0,0,1,.118-.069c.389.807.389.807-.023,1.559a1.564,1.564,0,0,0,1.1,2.309c.222.044.323.1.371.341a1.525,1.525,0,0,0,1.833,1.243c.18-.03.273-.019.373.163a1.482,1.482,0,0,0,1.7.812c.195-.034.273.022.369.189a1.556,1.556,0,0,0,2.508.367c.159-.15.256-.138.4-.021a3.038,3.038,0,0,0,.274.189,1.541,1.541,0,0,0,2.44-1.021c.037-.189.111-.222.277-.253A1.528,1.528,0,0,0,75.3,13.486a.276.276,0,0,1,.269-.268A1.51,1.51,0,0,0,76.9,11.839a.243.243,0,0,1,.22-.24,1.545,1.545,0,0,0,1.338-1.991c-.009-.073-.037-.148.034-.2s.134-.008.192.041a.542.542,0,0,0,.654.024c.517-.26,1.037-.515,1.553-.779.425-.217.488-.415.272-.831s-.427-.805-.64-1.208Q78.884,3.564,77.251.476c-.283-.534-.429-.583-.96-.322-.353.174-.7.352-1.057.528-.9.448-.9.448-.509,1.4-.116,0-.2.006-.286,0-1.019-.091-2.038-.174-3.056-.279a2.533,2.533,0,0,0-1.848.338,2.123,2.123,0,0,1-1.484.373,4.181,4.181,0,0,0-.628,0A1.812,1.812,0,0,1,66.241,2.2c-.192-.117-.253-.214-.211-.364l-.6,1.122c.051-.084.117-.142.24-.039a2.8,2.8,0,0,0,2.093.5.64.64,0,0,1,.155.053l-.572.548a1.915,1.915,0,0,0-.41,2.082,1.658,1.658,0,0,0,2.737.25,5.314,5.314,0,0,1,.978-.949.732.732,0,0,1,.967.011c1.824,1.327,3.667,2.627,5.5,3.939a1.485,1.485,0,0,1,.356.317.6.6,0,0,1-.054.811.635.635,0,0,1-.87.1c-.615-.411-1.216-.842-1.823-1.264-.2-.141-.4-.287-.609-.42a.425.425,0,0,0-.646.1.431.431,0,0,0,.136.643c.655.461,1.314.918,1.969,1.378.438.308.544.684.295,1.028s-.643.358-1.074.057c-.626-.438-1.251-.877-1.881-1.311-.315-.217-.589-.2-.751.024s-.1.489.219.713c.543.385,1.093.76,1.635,1.146a.683.683,0,0,1,.264.982.694.694,0,0,1-1.039.1c-.325-.223-.647-.452-.971-.676-.349-.241-.6-.24-.78,0s-.1.493.242.735c.221.157.449.305.665.468a.684.684,0,0,1,.256.959.706.706,0,0,1-.993.081.744.744,0,0,1-.456-.8,1.478,1.478,0,0,0-1.319-1.533.341.341,0,0,1-.331-.337A1.49,1.49,0,0,0,68.278,11.4a.342.342,0,0,1-.343-.334,1.521,1.521,0,0,0-1.312-1.275c-.147-.026-.276-.012-.3-.228a1.465,1.465,0,0,0-1.164-1.327,1.525,1.525,0,0,0-1.694.623.985.985,0,0,1-.117.1c-.159-.385-.3-.735-.448-1.085m.412,3.958a.664.664,0,0,1-.133-.977q.5-.735,1.018-1.454a.668.668,0,0,1,1.23.372.663.663,0,0,1-.149.411c-.332.474-.66.952-1,1.422a.691.691,0,0,1-.967.226m2.611,1.347a.689.689,0,0,1-.986.247.676.676,0,0,1-.111-1c.342-.495.686-.988,1.042-1.472a.661.661,0,0,1,1.186.4.7.7,0,0,1-.158.443c-.325.461-.645.926-.974,1.385m2.663.109c-.209.332-.445.648-.676.967a.629.629,0,0,1-.544.259.64.64,0,0,1-.569-.966,9.015,9.015,0,0,1,.718-1.026.63.63,0,0,1,.891-.115.639.639,0,0,1,.179.882m.877,2.21a.661.661,0,0,1-.7-.621,1.126,1.126,0,0,1,.873-1.005.674.674,0,0,1,.676.646,1.11,1.11,0,0,1-.853.981M78,8.612c-.2.17-.311.02-.442-.073-1.837-1.308-3.679-2.608-5.5-3.931A1.473,1.473,0,0,0,70.3,4.544a4.3,4.3,0,0,0-1.223,1.112.9.9,0,0,1-.616.366c-.484.065-.755-.174-.753-.7a.941.941,0,0,1,.311-.677c.517-.457,1.015-.934,1.524-1.4a2.06,2.06,0,0,1,1.7-.53q1.8.19,3.608.317a.691.691,0,0,1,.644.434c.815,1.575,1.656,3.136,2.481,4.706.068.13.243.262.026.444m1.94-.462c-.751.384-.739.392-1.129-.349C77.78,5.841,76.749,3.881,75.7,1.93c-.163-.3-.13-.447.191-.557a4.665,4.665,0,0,0,.553-.271c.168.022.185.166.239.267q1.335,2.509,2.664,5.022c.236.446.464.9.712,1.336.112.2.117.3-.117.424" transform="translate(275.293 27.704)" fill="#0c8d62" stroke="#0c8d62" stroke-width="0.3" fill-rule="evenodd"/>
    </g>
  </g>
</svg>
