<svg xmlns="http://www.w3.org/2000/svg" xmlns:xlink="http://www.w3.org/1999/xlink" width="26" height="29" viewBox="0 0 26 29">
  <defs>
    <filter id="패스_303" x="0" y="0" width="26" height="29" filterUnits="userSpaceOnUse">
      <feOffset dy="3" input="SourceAlpha"/>
      <feGaussianBlur stdDeviation="3" result="blur"/>
      <feFlood flood-opacity="0.251"/>
      <feComposite operator="in" in2="blur"/>
      <feComposite in="SourceGraphic"/>
    </filter>
  </defs>
  <g transform="matrix(1, 0, 0, 1, 0, 0)" filter="url(#패스_303)">
    <g id="패스_303-2" data-name="패스 303" transform="translate(8.06 17.91) rotate(-90)" fill="#222">
      <path d="M 11.01722431182861 8.443647384643555 L 1.800168871879578 8.443647384643555 L 5.909017086029053 1.719347596168518 C 6.0610671043396 1.470517635345459 6.309107303619385 1.443657636642456 6.408697128295898 1.443657636642456 C 6.50827693939209 1.443657636642456 6.756317138671875 1.470517635345459 6.908377170562744 1.71935760974884 L 11.01722431182861 8.443647384643555 Z" stroke="none"/>
      <path d="M 6.408697128295898 1.943647861480713 C 6.357917308807373 1.943647861480713 6.341757297515869 1.970097541809082 6.335677146911621 1.980057716369629 L 2.691657066345215 7.943647384643555 L 10.12573719024658 7.943647384643555 L 6.481727123260498 1.980077743530273 C 6.47564697265625 1.970107555389404 6.459466934204102 1.943647861480713 6.408697128295898 1.943647861480713 M 6.408693313598633 0.9436531066894531 C 6.766962051391602 0.9436531066894531 7.125232219696045 1.115317344665527 7.33502721786499 1.458647727966309 L 11.9086971282959 8.943647384643555 L 0.9086971282958984 8.943647384643555 L 5.482367038726807 1.458647727966309 C 5.69215726852417 1.115317344665527 6.050424575805664 0.9436531066894531 6.408693313598633 0.9436531066894531 Z" stroke="none" fill="#111"/>
    </g>
  </g>
</svg>
