<svg xmlns="http://www.w3.org/2000/svg" width="20" height="20" viewBox="0 0 20 20">
  <g id="icon" transform="translate(-28.164 43)">
    <rect id="사각형_23996" data-name="사각형 23996" width="20" height="20" transform="translate(28.164 -43)" fill="none"/>
    <g id="그룹_5377" data-name="그룹 5377" transform="translate(-12964.311 -9740.58)">
      <path id="패스_65122" data-name="패스 65122" d="M0,0H12.412V1.726a.9.9,0,0,1-.946.833H.946A.9.9,0,0,1,0,1.726Z" transform="translate(12996.27 9712.833)" fill="none" stroke="#169d73" stroke-linecap="round" stroke-width="1.5"/>
      <path id="패스_65121" data-name="패스 65121" d="M13008.68,9709.567h-1.979c-3.247,0-1.939-3.267-1.939-7.513a2.287,2.287,0,1,0-4.573,0c0,4.246,1.308,7.513-1.96,7.513h-1.959a1.3,1.3,0,0,0-1.307,1.306v1.96h15.024v-1.96A1.306,1.306,0,0,0,13008.68,9709.567Z" fill="none" stroke="#169d73" stroke-linecap="round" stroke-linejoin="round" stroke-width="1.5"/>
    </g>
  </g>
</svg>
