<svg xmlns="http://www.w3.org/2000/svg" width="22" height="22" viewBox="0 0 22 22">
  <g id="icon" transform="translate(-855 -34)">
    <rect id="area" width="22" height="22" transform="translate(855 34)" fill="none"/>
    <g id="그룹_377" data-name="그룹 377" transform="translate(-14.841 -10.519)">
      <path id="패스_63837" data-name="패스 63837" d="M19.226,15.608h-.663V5.663A.663.663,0,0,0,17.9,5H15.248a.663.663,0,0,0-.663.663v9.945H11.933V9.641a.663.663,0,0,0-.663-.663H8.619a.663.663,0,0,0-.663.663v5.967H5.3V5.663A.663.663,0,0,0,4.641,5H1.989a.663.663,0,0,0-.663.663v9.945H.663a.663.663,0,0,0,0,1.326H19.226a.663.663,0,0,0,0-1.326" transform="translate(870.896 47.867)" fill="#5c5f6c"/>
      <path id="패스_63838" data-name="패스 63838" d="M2.989,3.978a1.971,1.971,0,0,0,1.258-.461L7.669,5.57a2.062,2.062,0,0,0-.04.4,1.989,1.989,0,0,0,3.978,0,2.062,2.062,0,0,0-.04-.4L14.99,3.516a1.971,1.971,0,0,0,1.258.461,1.989,1.989,0,1,0-1.989-1.989,2.062,2.062,0,0,0,.04.4L10.877,4.439a1.946,1.946,0,0,0-2.517,0L4.938,2.385a2.062,2.062,0,0,0,.04-.4A1.989,1.989,0,1,0,2.989,3.978M16.248,1.326a.663.663,0,1,1-.663.663.664.664,0,0,1,.663-.663M9.619,5.3a.663.663,0,1,1-.663.663A.663.663,0,0,1,9.619,5.3M2.989,1.326a.663.663,0,1,1-.663.663.663.663,0,0,1,.663-.663" transform="translate(871.222 46.237)" fill="#5c5f6c"/>
    </g>
  </g>
</svg>
