<svg xmlns="http://www.w3.org/2000/svg" xmlns:xlink="http://www.w3.org/1999/xlink" width="24" height="22" viewBox="0 0 24 22">
  <defs>
    <clipPath id="clip-path">
      <rect id="사각형_23985" data-name="사각형 23985" width="24" height="22" transform="translate(-1.513 -2)" fill="#585858" stroke="#fff" stroke-linecap="round" stroke-linejoin="round" stroke-width="0.3"/>
    </clipPath>
  </defs>
  <g id="그룹_5369" data-name="그룹 5369" transform="translate(1.585 2)">
    <g id="그룹_5368" data-name="그룹 5368" transform="translate(-0.073)" clip-path="url(#clip-path)">
      <path id="패스_64671" data-name="패스 64671" d="M19.4,18.375H2.552A2.368,2.368,0,0,1,0,15.823V1.021a1.021,1.021,0,0,1,2.042,0v14.8c0,.458.051.51.51.51H19.4a1.021,1.021,0,1,1,0,2.042m-7.146-5.1V9.187a1.021,1.021,0,1,0-2.042,0v4.083a1.021,1.021,0,0,0,2.042,0m4.083,1.021a1.021,1.021,0,0,1-1.021-1.021V7.146a1.021,1.021,0,1,1,2.042,0v6.125a1.021,1.021,0,0,1-1.021,1.021m-10.208,0A1.021,1.021,0,0,1,5.1,13.271V11.229a1.021,1.021,0,0,1,2.042,0v2.042a1.021,1.021,0,0,1-1.021,1.021M17.275.631A1.024,1.024,0,0,0,16.333,0H13.271a1.021,1.021,0,1,0,0,2.042h.6L11.911,4a.268.268,0,0,1-.368,0L10.369,2.826a2.3,2.3,0,0,0-3.256,0L5.4,4.535A1.021,1.021,0,0,0,6.83,6l.016-.016,1.71-1.71a.265.265,0,0,1,.369,0L10.1,5.443a2.3,2.3,0,0,0,3.255,0l1.958-1.958v.6a1.021,1.021,0,1,0,2.042,0V1.021a1.018,1.018,0,0,0-.079-.39" transform="translate(0.071)" fill="#585858"/>
    </g>
  </g>
</svg>
