<svg id="그룹_361" data-name="그룹 361" xmlns="http://www.w3.org/2000/svg" xmlns:xlink="http://www.w3.org/1999/xlink" width="18" height="18" viewBox="0 0 18 18">
  <defs>
    <clipPath id="clip-path">
      <rect id="사각형_295" data-name="사각형 295" width="18" height="18" fill="#6d6f85"/>
    </clipPath>
  </defs>
  <g id="그룹_360" data-name="그룹 360" clip-path="url(#clip-path)">
    <path id="패스_63882" data-name="패스 63882" d="M17.993,9.29C18,9.193,18,9.1,18,9A9,9,0,1,0,0,9c0,.1,0,.193.007.29A.658.658,0,0,0,0,9.363.668.668,0,0,0,.014,9.5a9,9,0,0,0,17.971,0A.668.668,0,0,0,18,9.363a.627.627,0,0,0-.007-.073M15.637,12.84a14.24,14.24,0,0,0-2.493-.379,12.494,12.494,0,0,0,.462-2.435H16.6a7.612,7.612,0,0,1-.964,2.813M9,16.669a6.374,6.374,0,0,1-2.273-2.988c.692-.027,1.452-.042,2.273-.042s1.581.015,2.273.042A6.373,6.373,0,0,1,9,16.669M9,12.31c-.555,0-1.623.009-2.783.064a11.191,11.191,0,0,1-.488-2.347h6.542a11.191,11.191,0,0,1-.488,2.347c-1.16-.055-2.228-.064-2.783-.064M1.4,10.027H4.394a12.494,12.494,0,0,0,.462,2.435,14.238,14.238,0,0,0-2.493.379A7.61,7.61,0,0,1,1.4,10.027M2.074,5.7A14.767,14.767,0,0,0,4.7,6.1,12.268,12.268,0,0,0,4.356,8.7H1.336a7.617,7.617,0,0,1,.738-3M9,1.331c.447.112,1.683,1.466,2.515,3.551-.748.031-1.587.05-2.515.05s-1.767-.018-2.515-.05C7.317,2.8,8.553,1.443,9,1.331m0,4.93c.59,0,1.723-.01,2.948-.07A10.954,10.954,0,0,1,12.317,8.7H5.683a10.962,10.962,0,0,1,.368-2.507c1.225.06,2.358.07,2.948.07M13.644,8.7A12.26,12.26,0,0,0,13.3,6.1a14.767,14.767,0,0,0,2.629-.4,7.618,7.618,0,0,1,.738,3Zm1.577-4.179a19.275,19.275,0,0,1-2.316.284,12.926,12.926,0,0,0-.927-2.027,10.839,10.839,0,0,0-.725-1.11,7.7,7.7,0,0,1,3.968,2.852M6.747,1.667a10.839,10.839,0,0,0-.725,1.11A12.915,12.915,0,0,0,5.095,4.8a19.278,19.278,0,0,1-2.316-.284A7.7,7.7,0,0,1,6.747,1.667M3.191,14a20.046,20.046,0,0,1,2.12-.245,12.783,12.783,0,0,0,.711,1.465,10.839,10.839,0,0,0,.725,1.11A7.69,7.69,0,0,1,3.191,14m8.061,2.331a10.839,10.839,0,0,0,.725-1.11,12.761,12.761,0,0,0,.711-1.465,20.041,20.041,0,0,1,2.12.245,7.69,7.69,0,0,1-3.556,2.331" fill="#6d6f85"/>
  </g>
</svg>
