<svg xmlns="http://www.w3.org/2000/svg" xmlns:xlink="http://www.w3.org/1999/xlink" width="18.419" height="20.201" viewBox="0 0 18.419 20.201">
  <defs>
    <clipPath id="clip-path">
      <rect id="사각형_257" data-name="사각형 257" width="18.419" height="20.201" transform="translate(0 0)" fill="#6d6f85"/>
    </clipPath>
  </defs>
  <g id="그룹_284" data-name="그룹 284" transform="translate(0 0)">
    <g id="그룹_283" data-name="그룹 283" transform="translate(0 0)" clip-path="url(#clip-path)">
      <path id="패스_63828" data-name="패스 63828" d="M15.151,1.782H13.665V.891a.891.891,0,1,0-1.782,0v.891H6.535V.891a.891.891,0,1,0-1.783,0v.891H3.268A3.271,3.271,0,0,0,0,5.05V16.933A3.271,3.271,0,0,0,3.268,20.2H15.151a3.271,3.271,0,0,0,3.268-3.268V5.05a3.271,3.271,0,0,0-3.268-3.268M3.268,3.565H4.753v.892a.891.891,0,0,0,1.783,0V3.565h5.347v.892a.891.891,0,1,0,1.782,0V3.565h1.486A1.487,1.487,0,0,1,16.636,5.05V6.535H1.782V5.05A1.487,1.487,0,0,1,3.268,3.565M15.151,18.419H3.268a1.487,1.487,0,0,1-1.485-1.485V8.318H16.636v8.615a1.487,1.487,0,0,1-1.485,1.485" transform="translate(0 0)" fill="#6d6f85"/>
      <rect id="사각형_251" data-name="사각형 251" width="1.782" height="1.782" transform="translate(4.753 10.695)" fill="#6d6f85"/>
      <rect id="사각형_252" data-name="사각형 252" width="1.782" height="1.782" transform="translate(8.318 10.695)" fill="#6d6f85"/>
      <rect id="사각형_253" data-name="사각형 253" width="1.782" height="1.782" transform="translate(11.883 10.695)" fill="#6d6f85"/>
      <rect id="사각형_254" data-name="사각형 254" width="1.782" height="1.782" transform="translate(4.753 14.26)" fill="#6d6f85"/>
      <rect id="사각형_255" data-name="사각형 255" width="1.782" height="1.782" transform="translate(8.318 14.26)" fill="#6d6f85"/>
      <rect id="사각형_256" data-name="사각형 256" width="1.782" height="1.782" transform="translate(11.883 14.26)" fill="#6d6f85"/>
    </g>
  </g>
</svg>
