<svg xmlns="http://www.w3.org/2000/svg" xmlns:xlink="http://www.w3.org/1999/xlink" width="28" height="22" viewBox="0 0 28 22">
  <defs>
    <clipPath id="clip-path">
      <rect id="사각형_23983" data-name="사각형 23983" width="28" height="22" fill="#fff" stroke="#fff" stroke-width="0.2"/>
    </clipPath>
  </defs>
  <g id="그룹_5406" data-name="그룹 5406" transform="translate(3)">
    <g id="그룹_5364" data-name="그룹 5364" transform="translate(-3)" clip-path="url(#clip-path)">
      <path id="패스_64665" data-name="패스 64665" d="M19.844,1H.794a.777.777,0,1,0,0,1.553h.794v8.456c0,2.5,1.409,3.883,3.969,3.883H9.525v1.914L6.7,18.647a.766.766,0,0,0-.207,1.08.8.8,0,0,0,1.088.213l2.735-1.784,2.735,1.784a.805.805,0,0,0,1.1-.2.766.766,0,0,0-.207-1.08l-.015-.01-2.822-1.839V14.893h3.969c2.56,0,3.969-1.379,3.969-3.883V2.553h.794a.777.777,0,1,0,0-1.553M17.463,11.009c0,1.633-.712,2.33-2.381,2.33H5.556c-1.669,0-2.381-.7-2.381-2.33V2.553H17.463ZM5.821,10.492V7.472a.794.794,0,0,1,1.588,0v3.02a.794.794,0,0,1-1.588,0m3.7,0V5.4a.794.794,0,0,1,1.588,0v5.091a.794.794,0,0,1-1.588,0m3.7,0V8.421a.794.794,0,0,1,1.588,0v2.071a.794.794,0,0,1-1.588,0" transform="translate(3.038 0.282)" fill="#fff" stroke="#fff" stroke-width="0.2"/>
      <path id="패스_64755" data-name="패스 64755" d="M5.5,10.6V7.42a.794.794,0,1,1,1.588,0V10.6a.794.794,0,1,1-1.588,0m3.7,0V5.24a.794.794,0,1,1,1.588,0V10.6a.794.794,0,1,1-1.588,0m3.7,0V8.418a.794.794,0,1,1,1.588,0V10.6a.794.794,0,1,1-1.588,0" transform="translate(3.36 0.265)" fill="#ff7509" stroke="#ff7509" stroke-width="0.2"/>
    </g>
  </g>
</svg>
