<svg xmlns="http://www.w3.org/2000/svg" width="20" height="20" viewBox="0 0 20 20">
  <g id="icon" transform="translate(-28.164 43)">
    <rect id="사각형_23996" data-name="사각형 23996" width="20" height="20" transform="translate(28.164 -43)" fill="none"/>
    <g id="그룹_5514" data-name="그룹 5514" transform="translate(-6548.565 -9748.99)">
      <circle id="타원_312" data-name="타원 312" cx="1.878" cy="1.878" r="1.878" transform="translate(6589.141 9712.459)" fill="none" stroke="#169d73" stroke-linecap="round" stroke-linejoin="round" stroke-width="1.5"/>
      <circle id="타원_313" data-name="타원 313" cx="1.878" cy="1.878" r="1.878" transform="translate(6583.131 9707.952)" fill="none" stroke="#169d73" stroke-linecap="round" stroke-linejoin="round" stroke-width="1.5"/>
      <path id="패스_65176" data-name="패스 65176" d="M6588.766,9769.913a34.985,34.985,0,0,1,4.292-1.5,2.207,2.207,0,0,1,1.892.561.751.751,0,0,1-.241,1.275l-8.863,3.19a2.6,2.6,0,0,1-1.995-.092l-5.171-2.42a.752.752,0,0,1-.433-.681v-4.061a.755.755,0,0,1,.829-.75,7.818,7.818,0,0,1,3.678,1.475h3.284a2.715,2.715,0,0,1,2.727,3h-6.01" transform="translate(0 -49.565)" fill="none" stroke="#169d73" stroke-linecap="round" stroke-linejoin="round" stroke-width="1.5"/>
    </g>
  </g>
</svg>
