<svg xmlns="http://www.w3.org/2000/svg" width="20" height="20" viewBox="0 0 20 20">
  <g id="icon" transform="translate(-28 -13)">
    <rect id="area" width="20" height="20" transform="translate(28 13)" fill="none"/>
    <g id="그룹_5269" data-name="그룹 5269" transform="translate(-4271.949 -7716.279)">
      <path id="패스_63907" data-name="패스 63907" d="M4313.121,7747.9h.181a2.684,2.684,0,0,1,2.683,2.684v8.048a2.683,2.683,0,0,1-2.683,2.683h-6.708a2.683,2.683,0,0,1-2.683-2.683v-8.048a2.684,2.684,0,0,1,2.683-2.684h.181" transform="translate(0 -14.658)" fill="none" stroke="#28468F" stroke-linecap="round" stroke-linejoin="round" stroke-width="1.5"/>
      <line id="선_33" data-name="선 33" x2="2.89" transform="translate(4307.214 7738.506)" fill="none" stroke="#28468F" stroke-linecap="round" stroke-linejoin="round" stroke-width="1.5"/>
      <line id="선_34" data-name="선 34" x2="6.192" transform="translate(4307.214 7741.808)" fill="none" stroke="#28468F" stroke-linecap="round" stroke-linejoin="round" stroke-width="1.5"/>
      <path id="패스_63908" data-name="패스 63908" d="M4347.937,7734.584h-2.683a1.342,1.342,0,0,1-1.342-1.342h0a1.342,1.342,0,0,1,1.342-1.341h2.683a1.343,1.343,0,0,1,1.342,1.341h0A1.343,1.343,0,0,1,4347.937,7734.584Z" transform="translate(-36.646)" fill="none" stroke="#28468F" stroke-linecap="round" stroke-linejoin="round" stroke-width="1.5"/>
    </g>
  </g>
</svg>
