<svg xmlns="http://www.w3.org/2000/svg" width="20" height="20" viewBox="0 0 20 20">
  <g id="icon" transform="translate(-28 -13)">
    <rect id="area" width="20" height="20" transform="translate(28 13)" fill="none"/>
    <g id="그룹_5307" data-name="그룹 5307" transform="translate(-1070.529 -1108.837)">
      <g id="그룹_5304" data-name="그룹 5304" transform="translate(1099.599 1123.411)">
        <g id="그룹_5303" data-name="그룹 5303" transform="translate(0 0)">
          <g id="그룹_5302" data-name="그룹 5302">
            <path id="패스_63946" data-name="패스 63946" d="M1111.871,1130.645l-3.955-6.657a1.183,1.183,0,0,0-2.033,0l-6.116,10.283a1.183,1.183,0,0,0,1.016,1.787h9.027" transform="translate(-1099.599 -1123.411)" fill="none" stroke="#28468F" stroke-linecap="round" stroke-linejoin="round" stroke-width="1.5"/>
            <path id="패스_63949" data-name="패스 63949" d="M0,0V4.242" transform="translate(7.339 3.571)" fill="none" stroke="#28468F" stroke-linecap="round" stroke-width="1.5"/>
            <line id="선_45" data-name="선 45" y2="0.41" transform="translate(7.339 10.199)" fill="none" stroke="#28468F" stroke-linecap="round" stroke-linejoin="round" stroke-width="1.5"/>
          </g>
        </g>
      </g>
      <g id="그룹_5306" data-name="그룹 5306" transform="translate(1109.948 1130.489)">
        <g id="그룹_5305" data-name="그룹 5305" transform="translate(0 0.813)">
          <path id="패스_63947" data-name="패스 63947" d="M1274.035,1257.333v.62h-7.51v-.62a.461.461,0,0,1,.111-.3l.964-1.125a.461.461,0,0,0,.111-.3v-2.343a2.569,2.569,0,0,1,2.569-2.569h0a2.569,2.569,0,0,1,2.569,2.569v2.343a.461.461,0,0,0,.111.3l.964,1.125A.461.461,0,0,1,1274.035,1257.333Z" transform="translate(-1266.525 -1250.697)" fill="none" stroke="#28468F" stroke-linecap="round" stroke-linejoin="round" stroke-width="1.5"/>
          <path id="패스_63948" data-name="패스 63948" d="M1312.043,1384.93c0,.353-.477.639-1.065.639s-1.065-.286-1.065-.639" transform="translate(-1307.223 -1376.608)" fill="none" stroke="#28468F" stroke-linecap="round" stroke-linejoin="round" stroke-width="1.5"/>
        </g>
        <line id="선_46" data-name="선 46" y1="0.813" transform="translate(3.755 0)" fill="none" stroke="#28468F" stroke-linecap="round" stroke-linejoin="round" stroke-width="1.5"/>
      </g>
    </g>
  </g>
</svg>
