<svg xmlns="http://www.w3.org/2000/svg" width="22" height="14" viewBox="0 0 22 14">
  <g id="불릿" transform="translate(-44 31)">
    <rect id="사각형_1352" data-name="사각형 1352" width="22" height="14" transform="translate(44 -31)" fill="#169d73" opacity="0"/>
    <path id="패스_951" data-name="패스 951" d="M-374.13-176.968c-.432.424-2.23,2.074-2.942,2.734-.923.866-3.7,3.333-3.929,3.544l-2.281,2.178q-.332.34-1,.923a.312.312,0,0,1-.446-.02q-.8-.825-2.374-2.5t-2.374-2.5q-.853-.878-2.607-2.578c-1.17-1.133-1.626-1.578-2.195-2.163q-.162-.166.064-.388t.7-.638q.47-.417.688-.631.249-.244.712-.75t.712-.75q.113-.111.245.04l.088.106c.861,1.007,1.765,2.085,3.538,4.06l1.933,2.005q.941.969,1.382,1.408l.191.167a.171.171,0,0,0,.223,0l.2-.192c.452-.443,3.311-3.058,4.165-3.99s2.734-2.729,3.186-3.172q.2-.2.372-.025a15.991,15.991,0,0,1,1.98,2.417.378.378,0,0,1,.07.39A2.2,2.2,0,0,1-374.13-176.968Z" transform="translate(438.629 149.763)" fill="#169d73"/>
    <path id="패스_952" data-name="패스 952" d="M-246.361,61.122a.273.273,0,0,1-.091.19c-1.134,1.029-1.879,1.645-2.467,2.162a.362.362,0,0,1-.487,0q-.707-.606-1.056-.957l-2.4-2.257c-.238-.217-3.175-2.783-4.148-3.682-.754-.683-2.649-2.4-3.1-2.836a2.237,2.237,0,0,1-.308-.328q-.085-.16.091-.387a16.5,16.5,0,0,1,2.25-2.346q.191-.168.405.041c.475.459,2.455,2.322,3.351,3.283s3.912,3.676,4.388,4.135l.206.2c.09.055.35.278.424.328.163.113,2.848,2.289,2.951,2.343Z" transform="translate(312.294 -81.293)" fill="#169d73" opacity="0.3" style="isolation: isolate"/>
  </g>
</svg>
