<svg id="icon" xmlns="http://www.w3.org/2000/svg" width="26.025" height="26" viewBox="0 0 26.025 26">
  <rect id="area" width="26" height="26" transform="translate(0.025)" fill="none"/>
  <g id="icon-2" data-name="icon" transform="translate(0 3.262)">
    <path id="패스_63729" data-name="패스 63729" d="M320.826,2558.081a4.315,4.315,0,1,0,4.286,4.314A4.3,4.3,0,0,0,320.826,2558.081Zm-.593,6.628-2.252-2.252,1.169-1.169,1.065,1.065,2.27-2.27,1.187,1.187Z" transform="translate(-308.339 -2554.653)" fill="#fff"/>
    <path id="패스_63730" data-name="패스 63730" d="M248.152,2519.531H225.521a1.191,1.191,0,0,0-1.191,1.191v14.889a1.191,1.191,0,0,0,1.191,1.191H234.4l-.447,2.68h-2.184a.893.893,0,1,0,0,1.787H241.9a.893.893,0,1,0,0-1.787h-2.184l-.447-2.68h8.884a1.191,1.191,0,0,0,1.191-1.191v-14.889A1.191,1.191,0,0,0,248.152,2519.531Zm-11.316,16.378a.893.893,0,1,1,.893-.893A.893.893,0,0,1,236.837,2535.909Zm10.124-3.276H226.712v-10.72h20.249Z" transform="translate(-224.33 -2519.531)" fill="#fff"/>
  </g>
</svg>
