<svg id="icon" xmlns="http://www.w3.org/2000/svg" width="26" height="26" viewBox="0 0 26 26">
  <rect id="area" width="26" height="26" fill="none"/>
  <g id="icon-2" data-name="icon" transform="translate(1 0.957)">
    <path id="패스_63731" data-name="패스 63731" d="M2060.351,785.077a1.436,1.436,0,0,0-2.13.11,1.492,1.492,0,0,0,.157,1.978l1.577,1.577a.8.8,0,1,1-1.126,1.127l-1.532-1.532a3.247,3.247,0,0,1-.951-2.175l.012-3.721a1.553,1.553,0,0,0-1.713-1.545,1.614,1.614,0,0,0-1.393,1.633v3.828a3.728,3.728,0,0,0,.88,2.406l3.489,4.128a.309.309,0,0,0,.237.11l6.378.009a.311.311,0,0,0,.311-.311v-1.882a3.727,3.727,0,0,0-1.092-2.635Zm16.208-4.181a1.553,1.553,0,0,0-1.713,1.545l.012,3.721a3.248,3.248,0,0,1-.951,2.175l-1.081,1.532a1.449,1.449,0,0,1-1.577,0,.8.8,0,0,1,0-1.127l1.577-1.577a1.492,1.492,0,0,0,.157-1.978,1.435,1.435,0,0,0-2.129-.11l-3.1,3.105a3.727,3.727,0,0,0-1.091,2.635V792.7a.311.311,0,0,0,.311.311l6.378-.009a.309.309,0,0,0,.237-.11l3.489-4.128a3.728,3.728,0,0,0,.88-2.406v-3.828A1.614,1.614,0,0,0,2076.559,780.9Z" transform="translate(-2053.252 -772.501)" fill="#fff"/>
    <path id="패스_63732" data-name="패스 63732" d="M2116.813,712.708h-6.378a.311.311,0,0,0-.311.311v1.242a.311.311,0,0,0,.311.311h6.378a.311.311,0,0,0,.311-.311v-1.242A.311.311,0,0,0,2116.813,712.708Zm-8.777,0h-6.378a.311.311,0,0,0-.311.311v1.242a.311.311,0,0,0,.311.311h6.378a.31.31,0,0,0,.311-.311v-1.242A.31.31,0,0,0,2108.036,712.708Z" transform="translate(-2096.885 -690.485)" fill="#fff"/>
    <path id="패스_63772" data-name="패스 63772" d="M2107.727,695.652h3.016a.307.307,0,0,0,.313-.315c-.2-3.034-1.232-4.852-1.821-4.852s-1.621,1.818-1.821,4.852A.306.306,0,0,0,2107.727,695.652Zm-4.316-.042h2.138a.309.309,0,0,0,.308-.294,14.836,14.836,0,0,1,.723-3.971.31.31,0,0,0-.442-.375,6.257,6.257,0,0,0-3.037,4.277A.312.312,0,0,0,2103.411,695.61Zm9.2-.294a.308.308,0,0,0,.307.294h2.138a.312.312,0,0,0,.31-.362,6.256,6.256,0,0,0-3.037-4.277.31.31,0,0,0-.442.375A14.855,14.855,0,0,1,2112.614,695.316Zm-.281,6.486a6.255,6.255,0,0,0,3.037-4.278.312.312,0,0,0-.31-.362h-2.138a.308.308,0,0,0-.307.294,14.856,14.856,0,0,1-.723,3.971A.31.31,0,0,0,2112.332,701.8Zm-1.589-4.682h-3.016a.306.306,0,0,0-.313.315c.2,3.034,1.232,4.852,1.821,4.852s1.621-1.818,1.821-4.852A.307.307,0,0,0,2110.743,697.12Zm-4.6,4.682a.31.31,0,0,0,.442-.375,14.837,14.837,0,0,1-.723-3.971.309.309,0,0,0-.308-.294h-2.138a.312.312,0,0,0-.31.362A6.257,6.257,0,0,0,2106.138,701.8Z" transform="translate(-2096.885 -690.485)" fill="#fff"/>
  </g>
</svg>
