<svg xmlns="http://www.w3.org/2000/svg" width="20" height="20" viewBox="0 0 20 20">
  <g id="icon" transform="translate(-32 -49)">
    <rect id="area" width="20" height="20" transform="translate(32 49)" fill="none"/>
    <path id="패스_63981" data-name="패스 63981" d="M210.75,58.941a3.254,3.254,0,1,1,.953,2.3,3.25,3.25,0,0,1-.953-2.3Zm1.224,0a2.028,2.028,0,1,0,.594-1.432,2.025,2.025,0,0,0-.594,1.432Zm-7.091,9.166a.612.612,0,0,1,.612-.612h4.361l.086-1.648h0a3.181,3.181,0,0,1,3.176-3.01h1.763a3.182,3.182,0,0,1,3.176,3.009l.086,1.649H222.5a.612.612,0,0,1,0,1.224h-.318v3.485h0a.612.612,0,1,1-1.224,0V68.72H207.037v3.486a.612.612,0,1,1-1.224,0V68.72H205.5a.612.612,0,0,1-.612-.612Zm6.2-.612h5.835l-.083-1.585h0a1.956,1.956,0,0,0-1.952-1.849h-1.764a1.956,1.956,0,0,0-1.952,1.851Z" transform="translate(-171.994 -5.254)" fill="#28468f" stroke="#28468f" stroke-width="0.2"/>
  </g>
</svg>
