<svg xmlns="http://www.w3.org/2000/svg" xmlns:xlink="http://www.w3.org/1999/xlink" width="31" height="31" viewBox="0 0 31 31">
  <defs>
    <clipPath id="clip-path">
      <rect id="사각형_23976" data-name="사각형 23976" width="13" height="17" transform="translate(-0.359 0)" fill="#08a68c"/>
    </clipPath>
  </defs>
  <g id="그룹_5343" data-name="그룹 5343" transform="translate(0.359 0)">
    <circle id="타원_8" data-name="타원 8" cx="15.5" cy="15.5" r="15.5" transform="translate(-0.359 0)" fill="#d8f5ea"/>
    <g id="그룹_5350" data-name="그룹 5350" transform="translate(9 7)">
      <g id="그룹_5349" data-name="그룹 5349" transform="translate(0)" clip-path="url(#clip-path)">
        <path id="패스_64650" data-name="패스 64650" d="M36.174,58.241h2.275a.64.64,0,0,0,0-1.273H36.174a.64.64,0,0,0,0,1.273" transform="translate(-32.435 -51.656)" fill="#08a68c"/>
        <path id="패스_64651" data-name="패스 64651" d="M41.863,85.452H36.174a.64.64,0,0,0,0,1.273h5.689a.64.64,0,0,0,0-1.273" transform="translate(-32.435 -77.594)" fill="#08a68c"/>
        <path id="패스_64652" data-name="패스 64652" d="M41.863,113.936H36.174a.64.64,0,0,0,0,1.273h5.689a.64.64,0,0,0,0-1.273" transform="translate(-32.435 -103.532)" fill="#08a68c"/>
        <path id="패스_64653" data-name="패스 64653" d="M10.24,1.273H7.964A1.376,1.376,0,0,0,7.77.561,1.221,1.221,0,0,0,7.463.217,1.05,1.05,0,0,0,6.826,0H5.689a1.05,1.05,0,0,0-.636.217,1.221,1.221,0,0,0-.307.344,1.376,1.376,0,0,0-.194.712H2.275A2.422,2.422,0,0,0,0,3.819V14a2.422,2.422,0,0,0,2.275,2.546H10.24A2.422,2.422,0,0,0,12.515,14V3.819A2.422,2.422,0,0,0,10.24,1.273m-4.551,0H6.826V2.546H5.689Zm4.551,14H2.275A1.212,1.212,0,0,1,1.138,14h10.24a1.212,1.212,0,0,1-1.138,1.273m1.138-2.546H1.138V3.819A1.212,1.212,0,0,1,2.275,2.546H4.551A1.211,1.211,0,0,0,5.689,3.819H6.826A1.211,1.211,0,0,0,7.964,2.546H10.24a1.212,1.212,0,0,1,1.138,1.273Z" transform="translate(0.325 0.22)" fill="#08a68c"/>
      </g>
    </g>
  </g>
</svg>
