<svg id="icon" xmlns="http://www.w3.org/2000/svg" width="20.935" height="25.188" viewBox="0 0 20.935 25.188">
  <path id="패스_63725" data-name="패스 63725" d="M732.8,691.406H714.478a1.308,1.308,0,0,0-1.308,1.308V705.8a1.308,1.308,0,0,0,1.308,1.308H732.8A1.308,1.308,0,0,0,734.1,705.8V692.714A1.308,1.308,0,0,0,732.8,691.406Zm-15.374,12.267a1.636,1.636,0,1,1,1.636-1.635A1.636,1.636,0,0,1,717.422,703.673Zm0-5.234a1.636,1.636,0,1,1,1.636-1.635A1.636,1.636,0,0,1,717.422,698.439Zm10.468,5.07h-5.234a.818.818,0,1,1,0-1.636h5.234a.818.818,0,1,1,0,1.636Zm2.617-3.271h-7.851a.818.818,0,1,1,0-1.636h7.851a.818.818,0,1,1,0,1.636Zm0-3.271h-7.851a.818.818,0,1,1,0-1.635h7.851a.818.818,0,1,1,0,1.635Z" transform="translate(-713.17 -691.406)" fill="#fff"/>
  <path id="패스_63726" data-name="패스 63726" d="M769.156,851.995l-.012.012h.024Zm6.61,7.5-4.105-4.105v-.878a.981.981,0,1,0-1.963,0v.878l-4.105,4.105a.981.981,0,1,0,1.388,1.388l2.718-2.718v2.351a.981.981,0,1,0,1.963,0v-2.351l2.718,2.718a.981.981,0,0,0,1.388-1.388Z" transform="translate(-760.212 -836.306)" fill="#fff"/>
</svg>
