<svg xmlns="http://www.w3.org/2000/svg" width="20" height="20" viewBox="0 0 20 20">
  <g id="icon" transform="translate(-32 -49)">
    <rect id="area" width="20" height="20" transform="translate(32 49)" fill="none"/>
    <g id="그룹_5361" data-name="그룹 5361" transform="translate(0.104 -0.578)">
      <path id="패스_64004" data-name="패스 64004" d="M154.1,273.995H135.148c.113,13.237,18.849,13.231,18.949,0Zm-16.982,4.328,1.813-.522,1.348,1.112,2.634-.612-.218,1.845c-.544.323-1.648.65-1.781,1.376l-.132.48h0a8.477,8.477,0,0,1-3.664-3.678Zm8.741,3.06,1.151-2.057,1.342.408,1.1,1.68h0a8.384,8.384,0,0,1-2.893,1.293Zm6.133-2.78-1.5-.829-.112-.8,1.217-.146.969.493a8.4,8.4,0,0,1-.577,1.287Zm.869-2.293-1.073-.546-1.727.208h0a.833.833,0,0,0-.724.938l.21,1.515,1.884,1.044a8.489,8.489,0,0,1-1.174,1.3l-1.247-1.909-1.875-.57h0a.806.806,0,0,0-.933.376l-1.513,2.7.8,1.526h0a8.391,8.391,0,0,1-3.758-.478c.057-.125.133-.715.287-.764l1.631-.844.332-2.811a.735.735,0,0,0-.891-.8l-2.552.593-.979-.808a.969.969,0,0,0-.887-.184l-1.969.567a8.357,8.357,0,0,1-.485-2.347H153.03a8.409,8.409,0,0,1-.172,1.286Zm-11.825-2.359h0Z" transform="translate(-102.752 -215.033)" fill="#28468f" stroke="#28468f" stroke-width="0.2"/>
      <g id="그룹_5360" data-name="그룹 5360" transform="translate(-5832.407 -3939.455)">
        <path id="사각형_23999" data-name="사각형 23999" d="M1,0H5.595a1,1,0,0,1,1,1V9.068a0,0,0,0,1,0,0H0a0,0,0,0,1,0,0V1A1,1,0,0,1,1,0Z" transform="translate(5869.303 3989.724)" fill="none" stroke="#28468f" stroke-linecap="round" stroke-linejoin="round" stroke-width="1.2"/>
        <path id="패스_64005" data-name="패스 64005" d="M-1,0H1.473a1,1,0,0,1,1,1V6.595H-1Z" transform="translate(5876.898 3992.197)" fill="none" stroke="#28468f" stroke-linecap="round" stroke-width="1.2"/>
        <line id="선_66" data-name="선 66" x2="1.649" transform="translate(5871.776 3992.373)" fill="none" stroke="#28468f" stroke-linecap="round" stroke-linejoin="round" stroke-width="1.2"/>
        <line id="선_67" data-name="선 67" x2="1.649" transform="translate(5871.776 3994.021)" fill="none" stroke="#28468f" stroke-linecap="round" stroke-linejoin="round" stroke-width="1.2"/>
        <line id="선_68" data-name="선 68" x2="1.649" transform="translate(5871.776 3995.67)" fill="none" stroke="#28468f" stroke-linecap="round" stroke-linejoin="round" stroke-width="1.2"/>
      </g>
    </g>
  </g>
</svg>
