<svg xmlns="http://www.w3.org/2000/svg" width="20" height="20" viewBox="0 0 20 20">
  <g id="icon" transform="translate(-32 -49)">
    <rect id="area" width="20" height="20" transform="translate(32 49)" fill="none"/>
    <g id="그룹_5335" data-name="그룹 5335" transform="translate(-8770.942 -9124.931)">
      <rect id="사각형_23993" data-name="사각형 23993" width="10.402" height="15.95" transform="translate(8810.027 9175.955)" fill="none" stroke="#95a7d8" stroke-linecap="round" stroke-linejoin="round" stroke-width="1.5"/>
      <rect id="사각형_23994" data-name="사각형 23994" width="4.573" height="11.789" transform="translate(8805.455 9180.115)" fill="none" stroke="#95a7d8" stroke-linecap="round" stroke-linejoin="round" stroke-width="1.5"/>
      <path id="사각형_23997" data-name="사각형 23997" d="M1.734,0h0A1.734,1.734,0,0,1,3.467,1.734V4.443a0,0,0,0,1,0,0H0a0,0,0,0,1,0,0V1.734A1.734,1.734,0,0,1,1.734,0Z" transform="translate(8813.494 9187.464)" fill="none" stroke="#95a7d8" stroke-linecap="round" stroke-linejoin="round" stroke-width="1.5"/>
      <line id="선_53" data-name="선 53" x2="0.693" transform="translate(8813.083 9179.012)" fill="none" stroke="#95a7d8" stroke-linecap="round" stroke-linejoin="round" stroke-width="1.5"/>
      <line id="선_54" data-name="선 54" x2="0.693" transform="translate(8816.833 9179.012)" fill="none" stroke="#95a7d8" stroke-linecap="round" stroke-linejoin="round" stroke-width="1.5"/>
      <line id="선_56" data-name="선 56" x2="0.693" transform="translate(8813.083 9181.09)" fill="none" stroke="#95a7d8" stroke-linecap="round" stroke-linejoin="round" stroke-width="1.5"/>
      <line id="선_57" data-name="선 57" x2="0.693" transform="translate(8816.833 9181.09)" fill="none" stroke="#95a7d8" stroke-linecap="round" stroke-linejoin="round" stroke-width="1.5"/>
      <line id="선_59" data-name="선 59" x2="0.693" transform="translate(8813.083 9183.172)" fill="none" stroke="#95a7d8" stroke-linecap="round" stroke-linejoin="round" stroke-width="1.5"/>
      <line id="선_60" data-name="선 60" x2="0.693" transform="translate(8816.833 9183.172)" fill="none" stroke="#95a7d8" stroke-linecap="round" stroke-linejoin="round" stroke-width="1.5"/>
    </g>
  </g>
</svg>
