<svg xmlns="http://www.w3.org/2000/svg" width="20" height="20" viewBox="0 0 20 20">
  <g id="icon" transform="translate(-28.164 43)">
    <rect id="사각형_23996" data-name="사각형 23996" width="20" height="20" transform="translate(28.164 -43)" fill="none"/>
    <path id="comments-text" d="M11492.706,2235.68a.668.668,0,0,1,.668-.668h5.934a.668.668,0,1,1,0,1.336h-5.934A.668.668,0,0,1,11492.706,2235.68Zm5.044,2.968a.668.668,0,0,0-.667-.668h-3.709a.668.668,0,0,0,0,1.336h3.709A.668.668,0,0,0,11497.75,2238.648Zm8.549,8.632a.952.952,0,0,1-.9.637c-.1,0-.2.006-.3.006a4.847,4.847,0,0,1-3.061-.926,7.735,7.735,0,0,1-2.139.288c-2.936,0-5.263-1.494-6.09-3.828a5.546,5.546,0,0,1-3.512,1.055c-.109,0-.215,0-.317-.006a1,1,0,0,1-.926-.679,1.016,1.016,0,0,1,.3-1.121,2.956,2.956,0,0,0,1.027-1.488,6.293,6.293,0,0,1-1.389-4.052c0-3.89,3.021-6.606,7.345-6.606,4.131,0,7.067,2.483,7.32,6.1a5.454,5.454,0,0,1,2.7,4.813,5.526,5.526,0,0,1-1.2,3.529,2.512,2.512,0,0,0,.844,1.2A.965.965,0,0,1,11506.3,2247.28Zm-13.111-5.062a.673.673,0,0,1,.709-.175,7.464,7.464,0,0,0,2.444.394c3.537,0,6.01-2.167,6.01-5.271s-2.473-5.271-6.01-5.271-6.01,2.167-6.01,5.271a4.93,4.93,0,0,0,1.27,3.415.673.673,0,0,1,.169.556,4.059,4.059,0,0,1-.959,2.02A3.614,3.614,0,0,0,11493.188,2242.218Zm10.586,2.7a.674.674,0,0,1,.17-.557,4.17,4.17,0,0,0,1.079-2.9,4.118,4.118,0,0,0-1.425-3.229c-.508,3.3-3.344,5.531-7.257,5.531a9.175,9.175,0,0,1-.946-.064,5.074,5.074,0,0,0,4.507,2.241,6.217,6.217,0,0,0,2.084-.336.667.667,0,0,1,.708.172,2.9,2.9,0,0,0,1.8.767A3.606,3.606,0,0,1,11503.773,2244.923Zm1.6,1.66h0Z" transform="translate(-11459.514 -2272.242)" fill="#8adcc5"/>
  </g>
</svg>
