<svg xmlns="http://www.w3.org/2000/svg" xmlns:xlink="http://www.w3.org/1999/xlink" width="22" height="24" viewBox="0 0 22 24">
  <defs>
    <clipPath id="clip-path">
      <rect id="사각형_23991" data-name="사각형 23991" width="22" height="24" fill="#fff"/>
    </clipPath>
  </defs>
  <g id="그룹_5375" data-name="그룹 5375" transform="translate(1.223 3.515)">
    <g id="그룹_5379" data-name="그룹 5379" transform="translate(-1.223 -3.515)">
      <g id="그룹_5381" data-name="그룹 5381" transform="translate(0 0)">
        <g id="그룹_5380" data-name="그룹 5380" clip-path="url(#clip-path)">
          <path id="패스_64693" data-name="패스 64693" d="M3.184,80.694a.714.714,0,0,0-.716-.71H.716a.71.71,0,1,0,0,1.42H2.467a.714.714,0,0,0,.716-.71" transform="translate(1.038 -69.79)" fill="#ff8847"/>
          <path id="패스_64694" data-name="패스 64694" d="M147.285,79.984h-1.751a.71.71,0,1,0,0,1.42h1.751a.71.71,0,1,0,0-1.42" transform="translate(-127.04 -69.79)" fill="#ff8847"/>
          <path id="패스_64695" data-name="패스 64695" d="M24.877,126.042h0l-1.238,1.227a.706.706,0,0,0,0,1,.721.721,0,0,0,1.013,0l1.238-1.227a.706.706,0,0,0,0-1,.722.722,0,0,0-1.013,0" transform="translate(-19.683 -110.387)" fill="#ff8847"/>
          <path id="패스_64696" data-name="패스 64696" d="M126.547,26.079a.716.716,0,0,0,.507-.208l1.238-1.228a.706.706,0,0,0,0-1,.722.722,0,0,0-1.013,0l-1.238,1.227a.707.707,0,0,0,0,1,.715.715,0,0,0,.507.208" transform="translate(-110.248 -19.718)" fill="#ff8847"/>
          <path id="패스_64697" data-name="패스 64697" d="M80.7,3.156a.714.714,0,0,0,.716-.71V.71a.716.716,0,0,0-1.433,0V2.446a.714.714,0,0,0,.716.71" transform="translate(-69.7 1.029)" fill="#ff8847"/>
          <path id="패스_64698" data-name="패스 64698" d="M127.053,126.038a.721.721,0,0,0-1.013,0,.706.706,0,0,0,0,1l1.238,1.227a.721.721,0,0,0,1.013,0,.706.706,0,0,0,0-1Z" transform="translate(-110.248 -110.383)" fill="#ff8847"/>
          <path id="패스_64699" data-name="패스 64699" d="M24.877,25.87h0a.721.721,0,0,0,1.013,0,.706.706,0,0,0,0-1l-1.238-1.227a.722.722,0,0,0-1.013,0,.706.706,0,0,0,0,1Z" transform="translate(-19.683 -19.717)" fill="#ff8847"/>
          <path id="패스_64700" data-name="패스 64700" d="M38.491,34.9a6.166,6.166,0,0,0-3.537,11.262V49.82c0,.03.04,3.022,3.537,3.022s3.537-2.993,3.537-3.024V46.161A6.166,6.166,0,0,0,38.491,34.9m.716,7.575,1.3-.791a.706.706,0,0,0,.237-.976.721.721,0,0,0-.985-.234l-1.27.772-1.27-.772a.72.72,0,0,0-.985.234.707.707,0,0,0,.236.977l1.3.791v3.308a4.8,4.8,0,1,1,1.433,0Zm-2.836,6.795H40.6V49.7a1.743,1.743,0,0,1-.134.672.1.1,0,0,0-.007.038,1.536,1.536,0,0,1-.313.464,1.741,1.741,0,0,1-1.288.575h-.741A1.747,1.747,0,0,1,36.371,49.7ZM40.6,47.216s0,.006,0,.009v.67H36.371v-.631a.114.114,0,0,0,.015-.057v-.314a6.272,6.272,0,0,0,4.209,0Z" transform="translate(-27.491 -29.871)" fill="#0c8d62"/>
          <line id="선_118" data-name="선 118" x2="1.615" y2="0.977" transform="translate(9.385 11.178)" fill="none" stroke="#ff8847" stroke-linecap="round" stroke-width="1.5"/>
          <line id="선_119" data-name="선 119" x1="1.615" y2="0.977" transform="translate(11 11.178)" fill="none" stroke="#ff8847" stroke-linecap="round" stroke-width="1.5"/>
          <line id="선_120" data-name="선 120" y2="3.415" transform="translate(11.059 12.032)" fill="none" stroke="#ff8847" stroke-linecap="round" stroke-width="1.5"/>
        </g>
      </g>
    </g>
  </g>
</svg>
