<svg id="icon" xmlns="http://www.w3.org/2000/svg" xmlns:xlink="http://www.w3.org/1999/xlink" width="20.743" height="19.578" viewBox="0 0 20.743 19.578">
  <defs>
    <clipPath id="clip-path">
      <rect id="사각형_23984" data-name="사각형 23984" width="20.743" height="18.502" fill="#727477"/>
    </clipPath>
  </defs>
  <rect id="area" width="19.382" height="19.382" transform="translate(1.076 0.197)" fill="none"/>
  <g id="그룹_5367" data-name="그룹 5367">
    <g id="그룹_5366" data-name="그룹 5366" clip-path="url(#clip-path)">
      <path id="패스_64666" data-name="패스 64666" d="M18.555,30.5A1.056,1.056,0,0,0,17.5,31.555v4.689a1.055,1.055,0,1,0,2.11,0V31.555A1.056,1.056,0,0,0,18.555,30.5" transform="translate(-13.397 -23.349)" fill="#727477"/>
      <path id="패스_64667" data-name="패스 64667" d="M33.555,18.5A1.056,1.056,0,0,0,32.5,19.555v7.5a1.055,1.055,0,1,0,2.11,0v-7.5A1.056,1.056,0,0,0,33.555,18.5" transform="translate(-24.88 -14.162)" fill="#727477"/>
      <path id="패스_64668" data-name="패스 64668" d="M48.555,38.5A1.056,1.056,0,0,0,47.5,39.555v2.814a1.055,1.055,0,1,0,2.11,0V39.555A1.056,1.056,0,0,0,48.555,38.5" transform="translate(-36.363 -29.473)" fill="#727477"/>
      <path id="패스_64669" data-name="패스 64669" d="M14.616,16.876c-.065,0-.128.005-.2.005H3.869c-1.726,0-2.462-.736-2.462-2.462V3.869c0-1.725.736-2.462,2.462-2.462H14.42c1.725,0,2.462.736,2.462,2.462v6.839a4.006,4.006,0,0,1,1.1-.157h0c.1,0,.205.008.307.016v-6.7C18.288,1.374,16.915,0,14.42,0H3.869C1.374,0,0,1.374,0,3.869V14.42c0,2.495,1.374,3.869,3.869,3.869H14.42a5.482,5.482,0,0,0,1.157-.118,7.28,7.28,0,0,1-.961-1.294" transform="translate(0 0)" fill="#727477"/>
      <path id="패스_64670" data-name="패스 64670" d="M67.662,50.4A2.766,2.766,0,0,0,64.9,53.161c0,1.62,1.5,3.122,2.5,3.78l.172.114a.162.162,0,0,0,.18,0l.172-.114c1-.658,2.5-2.16,2.5-3.78A2.766,2.766,0,0,0,67.662,50.4m0,3.751a.9.9,0,1,1,.9-.9.9.9,0,0,1-.9.9" transform="translate(-49.682 -38.581)" fill="#727477"/>
    </g>
  </g>
</svg>
