<svg xmlns="http://www.w3.org/2000/svg" width="20" height="20" viewBox="0 0 20 20">
  <g id="icon" transform="translate(-28.164 43)">
    <rect id="사각형_23996" data-name="사각형 23996" width="20" height="20" transform="translate(28.164 -43)" fill="none"/>
    <g id="그룹_5524" data-name="그룹 5524" transform="translate(-2721.554 -7004.354)">
      <path id="패스_65192" data-name="패스 65192" d="M2803.977,6975.966v-9.227a2.839,2.839,0,0,0-2.839-2.838h-6.387a2.839,2.839,0,0,0-2.839,2.838v8.517h4.968" transform="translate(-36.451)" fill="none" stroke="#169d73" stroke-linecap="round" stroke-linejoin="round" stroke-width="1.5"/>
      <path id="패스_65193" data-name="패스 65193" d="M2764.687,7095.45h-9.936a2.839,2.839,0,0,1-2.839-2.839h0a.71.71,0,0,1,.71-.71h8.639a.588.588,0,0,1,.588.587h0a2.919,2.919,0,0,0,2.266,2.906,2.842,2.842,0,0,0,3.411-2.783" transform="translate(0 -116.645)" fill="none" stroke="#169d73" stroke-linecap="round" stroke-linejoin="round" stroke-width="1.5"/>
      <line id="선_137" data-name="선 137" x2="4.507" transform="translate(2759.124 6967.507)" fill="none" stroke="#169d73" stroke-linecap="round" stroke-linejoin="round" stroke-width="1.5"/>
      <line id="선_138" data-name="선 138" x2="4.507" transform="translate(2759.124 6971.112)" fill="none" stroke="#169d73" stroke-linecap="round" stroke-linejoin="round" stroke-width="1.5"/>
    </g>
  </g>
</svg>
