<svg xmlns="http://www.w3.org/2000/svg" width="200" height="200" viewBox="0 0 20 20">
  <g id="icon" transform="translate(-32 -49)">
    <rect id="area" width="200" height="200" transform="translate(32 49)" fill="none"/>
    <g id="globe" transform="translate(-9885.412 -5810.299)">
      <g id="그룹_5287" data-name="그룹 5287" transform="translate(9919.124 5861.011)">
        <path id="패스_63925" data-name="패스 63925" d="M9927.412,5877.588a8.288,8.288,0,1,1,8.288-8.289A8.3,8.3,0,0,1,9927.412,5877.588Zm0-15.886a7.6,7.6,0,1,0,7.6,7.6A7.606,7.606,0,0,0,9927.412,5861.7Z" transform="translate(-9919.125 -5861.012)" fill="#95A7D8" stroke="#28468F" stroke-width="0.5"/>
      </g>
      <path id="패스_63926" data-name="패스 63926" d="M9950.637,6017.622a.347.347,0,0,1-.179-.05c-1.316-.8-11.489-.8-12.807,0a.345.345,0,0,1-.358-.59c1.517-.92,12.007-.92,13.523,0a.346.346,0,0,1-.18.641Z" transform="translate(-16.643 -143.543)" fill="#95A7D8" stroke="#28468F" stroke-width="0.5"/>
      <path id="패스_63927" data-name="패스 63927" d="M9940.253,5915.381c-3.179,0-6.358-.247-7.087-.739a.345.345,0,0,1,.387-.572c1.252.847,12.148.847,13.4,0a.345.345,0,0,1,.387.572C9946.612,5915.134,9943.433,5915.381,9940.253,5915.381Z" transform="translate(-12.841 -48.993)" fill="#95A7D8" stroke="#28468F" stroke-width="0.5"/>
      <path id="패스_63928" data-name="패스 63928" d="M9978.1,5877.588c-1.365,0-4.145-3.836-4.145-8.289s2.779-8.288,4.145-8.288,4.144,3.836,4.144,8.288S9979.461,5877.588,9978.1,5877.588Zm0-15.886c-.723,0-3.454,3.232-3.454,7.6s2.731,7.6,3.454,7.6,3.452-3.232,3.452-7.6S9978.819,5861.7,9978.1,5861.7Z" transform="translate(-50.685 0)" fill="#95A7D8" stroke="#28468F" stroke-width="0.5"/>
      <path id="패스_63929" data-name="패스 63929" d="M9935.355,5971.356H9919.47a.345.345,0,0,1,0-.69h15.886a.345.345,0,0,1,0,.69Z" transform="translate(-0.001 -101.367)" fill="#95A7D8" stroke="#28468F" stroke-width="0.5"/>
    </g>
  </g>
</svg>
