<svg xmlns="http://www.w3.org/2000/svg" width="20" height="20" viewBox="0 0 20 20">
  <g id="icon" transform="translate(0 0)">
    <rect id="사각형_304" data-name="사각형 304" width="20" height="20" transform="translate(0 0)" fill="none"/>
    <path id="패스_63889" data-name="패스 63889" d="M15.462,5.675H14.308V2.917A2.623,2.623,0,0,0,11.462,0H2.846A2.623,2.623,0,0,0,0,2.917V13.952a.71.71,0,0,0,.427.655.676.676,0,0,0,.265.054.683.683,0,0,0,.489-.208l1.951-2H5.538v1.5a2.34,2.34,0,0,0,2.538,2.6h7.1l1.643,1.684a.683.683,0,0,0,.489.208.674.674,0,0,0,.265-.054A.71.71,0,0,0,18,17.735V8.276a2.34,2.34,0,0,0-2.538-2.6M2.846,11.035a.683.683,0,0,0-.489.208l-.972,1V2.917c0-1.078.409-1.5,1.461-1.5h8.616c1.052,0,1.461.42,1.461,1.5V9.538c0,1.077-.409,1.5-1.461,1.5Zm13.77,4.988-.664-.681a.683.683,0,0,0-.489-.208H8.077c-.841,0-1.154-.32-1.154-1.182v-1.5h4.539a2.623,2.623,0,0,0,2.846-2.916V7.094h1.154c.841,0,1.154.321,1.154,1.182ZM8.095,6.385a.926.926,0,1,1-.932-.946h.009a.935.935,0,0,1,.923.946m2.769,0a.926.926,0,1,1-.932-.946h.009a.934.934,0,0,1,.923.946m-5.538,0a.926.926,0,1,1-.932-.946H4.4a.934.934,0,0,1,.923.946" transform="translate(1 0.593)" fill="#fff"/>
  </g>
</svg>
