<svg xmlns="http://www.w3.org/2000/svg" width="20" height="20" viewBox="0 0 20 20">
  <g id="icon" transform="translate(-28.164 43)">
    <rect id="사각형_23996" data-name="사각형 23996" width="20" height="20" transform="translate(28.164 -43)" fill="none"/>
    <g id="그룹_5509" data-name="그룹 5509" transform="translate(-4257.576 -7396.374)">
      <g id="그룹_5507" data-name="그룹 5507" transform="translate(4287.912 7355.9)">
        <ellipse id="타원_311" data-name="타원 311" cx="3.479" cy="4.059" rx="3.479" ry="4.059" transform="translate(2.319)" fill="none" stroke="#169d73" stroke-linecap="round" stroke-linejoin="round" stroke-width="1.5"/>
        <path id="패스_65160" data-name="패스 65160" d="M4287.912,7487.459h0a3.558,3.558,0,0,1,3.558-3.558h4.27a3.559,3.559,0,0,1,3.558,3.558h0" transform="translate(-4287.912 -7472.514)" fill="none" stroke="#169d73" stroke-linecap="round" stroke-linejoin="round" stroke-width="1.5"/>
      </g>
      <g id="그룹_5508" data-name="그룹 5508" transform="translate(4298.587 7365.152)">
        <path id="패스_65161" data-name="패스 65161" d="M4407.912,7459.9h2.846a2.135,2.135,0,0,1,2.136,2.135h0" transform="translate(-4407.912 -7459.901)" fill="none" stroke="#169d73" stroke-linecap="round" stroke-linejoin="round" stroke-width="1.5"/>
      </g>
      <path id="패스_65162" data-name="패스 65162" d="M4415.9,7380.042a1.855,1.855,0,0,1,.713-.142,2.521,2.521,0,0,1,0,4.982,1.864,1.864,0,0,1-.713-.142" transform="translate(-116.605 -21.865)" fill="none" stroke="#169d73" stroke-linecap="round" stroke-linejoin="round" stroke-width="1.5"/>
    </g>
  </g>
</svg>
