<svg xmlns="http://www.w3.org/2000/svg" width="22" height="22" viewBox="0 0 22 22">
  <g id="icon" transform="translate(-30 -22.041)">
    <rect id="area" width="22" height="22" transform="translate(30 22.041)" fill="none"/>
    <g id="그룹_5287" data-name="그룹 5287" transform="translate(-7331.398 -8889.438)">
      <path id="패스_64587" data-name="패스 64587" d="M7402.164,8917.113v-2.3a.767.767,0,0,1,.766-.768h4.6a.767.767,0,0,1,.766.768v2.3" transform="translate(-32.831)" fill="none" stroke="#00a19c" stroke-linecap="round" stroke-linejoin="round" stroke-width="1.2"/>
      <path id="패스_64588" data-name="패스 64588" d="M7370.1,8943.538h-6.131v-6.9a.766.766,0,0,1,.766-.767h15.328a.766.766,0,0,1,.766.767v6.9H7374.7" transform="translate(0 -18.761)" fill="none" stroke="#00a19c" stroke-linecap="round" stroke-linejoin="round" stroke-width="1.2"/>
      <path id="패스_64589" data-name="패스 64589" d="M7384.753,9006.808v3.065a.765.765,0,0,1-.766.766h-13.8a.766.766,0,0,1-.767-.766v-3.065" transform="translate(-4.691 -79.731)" fill="none" stroke="#00a19c" stroke-linecap="round" stroke-linejoin="round" stroke-width="1.2"/>
      <rect id="사각형_23965" data-name="사각형 23965" width="4.598" height="3.066" transform="translate(7370.099 8923.245)" fill="#fb7846" stroke="#fb7846" stroke-linecap="round" stroke-linejoin="round" stroke-width="1.2"/>
    </g>
  </g>
</svg>
