<svg xmlns="http://www.w3.org/2000/svg" width="20" height="20" viewBox="0 0 20 20">
  <g id="icon" transform="translate(-28.164 43)">
    <rect id="사각형_23996" data-name="사각형 23996" width="20" height="20" transform="translate(28.164 -43)" fill="none"/>
    <g id="그룹_5515" data-name="그룹 5515" transform="translate(-8773.582 -9216.245)">
      <rect id="사각형_24154" data-name="사각형 24154" width="9.509" height="14.58" transform="translate(8809.526 9175.955)" fill="none" stroke="#8adcc5" stroke-linecap="round" stroke-linejoin="round" stroke-width="1.5"/>
      <rect id="사각형_24155" data-name="사각형 24155" width="5.071" height="10.776" transform="translate(8804.455 9179.758)" fill="none" stroke="#8adcc5" stroke-linecap="round" stroke-linejoin="round" stroke-width="1.5"/>
      <path id="사각형_24158" data-name="사각형 24158" d="M1.585,0h0A1.585,1.585,0,0,1,3.17,1.585V3.17a0,0,0,0,1,0,0H0a0,0,0,0,1,0,0V1.585A1.585,1.585,0,0,1,1.585,0Z" transform="translate(8812.696 9187.365)" fill="none" stroke="#8adcc5" stroke-linecap="round" stroke-linejoin="round" stroke-width="1.5"/>
      <line id="선_123" data-name="선 123" x2="0.634" transform="translate(8812.379 9178.801)" fill="none" stroke="#8adcc5" stroke-linecap="round" stroke-linejoin="round" stroke-width="1.5"/>
      <line id="선_124" data-name="선 124" x2="0.634" transform="translate(8815.231 9178.801)" fill="none" stroke="#8adcc5" stroke-linecap="round" stroke-linejoin="round" stroke-width="1.5"/>
      <line id="선_126" data-name="선 126" x2="0.634" transform="translate(8812.379 9181.646)" fill="none" stroke="#8adcc5" stroke-linecap="round" stroke-linejoin="round" stroke-width="1.5"/>
      <line id="선_127" data-name="선 127" x2="0.634" transform="translate(8815.231 9181.646)" fill="none" stroke="#8adcc5" stroke-linecap="round" stroke-linejoin="round" stroke-width="1.5"/>
      <line id="선_129" data-name="선 129" x2="0.634" transform="translate(8812.379 9184.491)" fill="none" stroke="#8adcc5" stroke-linecap="round" stroke-linejoin="round" stroke-width="1.5"/>
      <line id="선_130" data-name="선 130" x2="0.634" transform="translate(8815.231 9184.491)" fill="none" stroke="#8adcc5" stroke-linecap="round" stroke-linejoin="round" stroke-width="1.5"/>
    </g>
  </g>
</svg>
