<svg xmlns="http://www.w3.org/2000/svg" width="20" height="20" viewBox="0 0 20 20">
  <g id="icon" transform="translate(-28.164 43)">
    <rect id="사각형_23996" data-name="사각형 23996" width="20" height="20" transform="translate(28.164 -43)" fill="none"/>
    <g id="그룹_5385" data-name="그룹 5385" transform="translate(-10502.24 -7657.576)">
      <path id="패스_65132" data-name="패스 65132" d="M10545.484,7618.25a.444.444,0,0,0-.625,0l-1.667,1.668h-5.574l-1.669-1.668a.444.444,0,0,0-.625,0l-4.556,4.557a.44.44,0,0,0,0,.625l1.8,1.8a.446.446,0,0,0,.627,0l.71-.711,2.026,2.278c0,.006.011.007.019.014a3.371,3.371,0,0,0,4.288,3.846,1.7,1.7,0,0,0,2.267-.125l2.76-2.762a1.709,1.709,0,0,0,.383-1.833l1.358-1.324.616.617a.443.443,0,0,0,.625,0l1.8-1.8a.441.441,0,0,0,0-.625Zm-12.605,6.042-1.174-1.172,3.934-3.932,1.171,1.173Zm3.395,1.561-1.745-1.962,3.09-3.088h3.226a.681.681,0,0,1,.146,1.345l-2.131.468a.453.453,0,0,0-.253.161l-2,2.561A3.188,3.188,0,0,0,10536.273,7625.854Zm8.363,1.292-2.758,2.759a.829.829,0,0,1-1.174-1.172l2.76-2.761a.829.829,0,0,1,1.172,1.173Zm.472-1.922a1.752,1.752,0,0,0-2.269.124l-2.758,2.759a1.71,1.71,0,0,0-.4,1.768,2.493,2.493,0,0,1-2.376-3.993l1.9-2.436,1.976-.434a1.557,1.557,0,0,0,1.229-1.528,1.526,1.526,0,0,0-.164-.681h.946l3.186,3.186Zm2.824-.932-3.934-3.931,1.172-1.173,3.933,3.932Z" transform="translate(0 0)" fill="#169d73" stroke="#169d73" stroke-width="0.2"/>
    </g>
  </g>
</svg>
