<svg id="icon" xmlns="http://www.w3.org/2000/svg" width="18" height="18.5" viewBox="0 0 18 18.5">
  <rect id="area" width="18" height="18" transform="translate(0 0.5)" fill="none"/>
  <g id="그룹_364" data-name="그룹 364" transform="translate(0.993)">
    <path id="패스_63884" data-name="패스 63884" d="M13.172,1.567H11.88V.783a.775.775,0,1,0-1.55,0v.783H5.682V.783a.775.775,0,1,0-1.55,0v.783H2.841A2.86,2.86,0,0,0,0,4.439V14.884a2.86,2.86,0,0,0,2.841,2.872H13.172a2.86,2.86,0,0,0,2.841-2.872V4.439a2.86,2.86,0,0,0-2.841-2.872M2.841,3.133H4.132v.784a.775.775,0,1,0,1.55,0V3.133h4.649v.784a.775.775,0,1,0,1.55,0V3.133h1.292a1.3,1.3,0,0,1,1.291,1.306V5.744H1.55V4.439A1.3,1.3,0,0,1,2.841,3.133M13.172,16.19H2.841A1.3,1.3,0,0,1,1.55,14.884V7.311H14.464v7.573a1.3,1.3,0,0,1-1.291,1.306" fill="#fff"/>
    <rect id="사각형_298" data-name="사각형 298" width="1.743" height="1.743" transform="translate(4.077 9.298)" fill="#fff"/>
    <rect id="사각형_299" data-name="사각형 299" width="1.743" height="1.743" transform="translate(7.135 9.298)" fill="#fff"/>
    <rect id="사각형_300" data-name="사각형 300" width="1.743" height="1.743" transform="translate(10.193 9.298)" fill="#fff"/>
    <rect id="사각형_301" data-name="사각형 301" width="1.743" height="1.743" transform="translate(4.077 12.398)" fill="#fff"/>
    <rect id="사각형_302" data-name="사각형 302" width="1.743" height="1.743" transform="translate(7.135 12.398)" fill="#fff"/>
    <rect id="사각형_303" data-name="사각형 303" width="1.743" height="1.743" transform="translate(10.193 12.398)" fill="#fff"/>
  </g>
</svg>
