<svg xmlns="http://www.w3.org/2000/svg" width="20" height="20" viewBox="0 0 20 20">
  <g id="icon" transform="translate(-32 -49)">
    <rect id="area" width="20" height="20" transform="translate(32 49)" fill="none"/>
    <g id="그룹_5292" data-name="그룹 5292" transform="translate(-4254.116 -7305.348)">
      <g id="그룹_5290" data-name="그룹 5290" transform="translate(4287.912 7357.335)">
        <ellipse id="타원_297" data-name="타원 297" cx="3.261" cy="3.842" rx="3.261" ry="3.842" transform="translate(3.261 0)" fill="none" stroke="#28468F" stroke-linecap="round" stroke-linejoin="round" stroke-width="1.5"/>
        <path id="패스_63934" data-name="패스 63934" d="M4287.912,7487.63h0a3.729,3.729,0,0,1,3.729-3.73h4.476a3.729,3.729,0,0,1,3.729,3.73h0" transform="translate(-4287.912 -7473.605)" fill="none" stroke="#28468F" stroke-linecap="round" stroke-linejoin="round" stroke-width="1.5"/>
      </g>
      <g id="그룹_5291" data-name="그룹 5291" transform="translate(4299.1 7365.393)">
        <path id="패스_63935" data-name="패스 63935" d="M4407.912,7459.9h2.983a2.236,2.236,0,0,1,2.238,2.236h0" transform="translate(-4407.912 -7459.901)" fill="none" stroke="#28468F" stroke-linecap="round" stroke-linejoin="round" stroke-width="1.5"/>
      </g>
      <path id="패스_63936" data-name="패스 63936" d="M4415.9,7380.049a1.956,1.956,0,0,1,.746-.148,2.642,2.642,0,0,1,0,5.221,1.955,1.955,0,0,1-.747-.149" transform="translate(-116.059 -21.966)" fill="none" stroke="#28468F" stroke-linecap="round" stroke-linejoin="round" stroke-width="1.5"/>
    </g>
  </g>
</svg>
