<?xml version="1.0" encoding="UTF-8"?>
<svg id="_그룹_288" data-name="그룹 288" xmlns="http://www.w3.org/2000/svg" viewBox="0 0 18 18">
  <defs>
    <style>
      .cls-1 {
        fill: #fff;
      }
    </style>
  </defs>
  <path class="cls-1" d="m2,9C2,5,5,2,9,2s5,1,6,3h-2c0,0,0,0,0,0s0,0,0,0h4c0,0,0,0,0,0h0s0,0,0,0v-3c0,0,0,0,0,0s0,0,0,0h0c-2-1-4-2-7-2S0,4,0,9s0,0,0,0,0,0,0,0Z"/>
  <path class="cls-1" d="m18,8c0,0,0,0,0,0,0,4-3,7-7,7s-5-1-6-3h2c0,0,0,0,0,0s0,0,0,0H2c0,0,0,0,0,0h0s0,0,0,0v3c0,0,0,0,0,0s0,0,0,0h0c2,1,4,2,7,2s9-4,9-9,0,0,0,0Z"/>
</svg>