<svg xmlns="http://www.w3.org/2000/svg" width="20" height="20" viewBox="0 0 20 20">
  <g id="icon" transform="translate(-32 -49)">
    <rect id="area" width="20" height="20" transform="translate(32 49)" fill="none"/>
    <g id="그룹_5301" data-name="그룹 5301" transform="translate(-2825.288 -339.703)">
      <g id="그룹_5296" data-name="그룹 5296" transform="translate(2857.618 391.13)">
        <path id="패스_63941" data-name="패스 63941" d="M2867.287,402.4a2.594,2.594,0,0,1-1.258-.327l-7.845-4.345a1.1,1.1,0,0,1,0-1.922l7.845-4.345a2.582,2.582,0,0,1,2.517,0l7.845,4.345a1.1,1.1,0,0,1,0,1.922l-7.845,4.345A2.594,2.594,0,0,1,2867.287,402.4Zm0-10.287a1.615,1.615,0,0,0-.783.2l-7.845,4.345a.119.119,0,0,0,0,.207l7.845,4.345a1.608,1.608,0,0,0,1.567,0l7.844-4.345a.118.118,0,0,0,0-.207l-7.845-4.345A1.614,1.614,0,0,0,2867.287,392.111Z" transform="translate(-2857.618 -391.13)" fill="#95A7D8" stroke="#95A7D8" stroke-width="0.3"/>
      </g>
      <path id="패스_63942" data-name="패스 63942" d="M2990.085,642.034a7.682,7.682,0,0,1-2.818-.523,5.5,5.5,0,0,1-2.061-1.382,3.053,3.053,0,0,1-.859-2.391l.264-2.449a.49.49,0,0,1,.975.105l-.264,2.449a2.14,2.14,0,0,0,.614,1.631,5.682,5.682,0,0,0,4.15,1.58,4.892,4.892,0,0,0,3.671-1.378,2.332,2.332,0,0,0,.644-1.833l-.265-2.449a.49.49,0,0,1,.975-.105l.265,2.449a3.328,3.328,0,0,1-.889,2.593A5.86,5.86,0,0,1,2990.085,642.034Z" transform="translate(-122.574 -235.757)" fill="#95A7D8" stroke="#95A7D8" stroke-width="0.3"/>
      <path id="패스_63943" data-name="패스 63943" d="M3146.464,554.222a.49.49,0,0,1-.49-.49v-2.921l-7-1.272a.49.49,0,1,1,.175-.964l7.4,1.345a.49.49,0,0,1,.4.482v3.33A.49.49,0,0,1,3146.464,554.222Z" transform="translate(-271.778 -152.292)" fill="#95A7D8" stroke="#95A7D8" stroke-width="0.3"/>
      <circle id="타원_300" data-name="타원 300" cx="0.98" cy="0.98" r="0.98" transform="translate(2866.307 395.784)" fill="#fff" stroke="#95A7D8" stroke-width="0.3"/>
      <path id="패스_63944" data-name="패스 63944" d="M3110.048,521.509a1.47,1.47,0,1,1,1.47-1.47A1.472,1.472,0,0,1,3110.048,521.509Zm0-1.96a.49.49,0,1,0,.49.49A.491.491,0,0,0,3110.048,519.548Z" transform="translate(-242.761 -123.274)" fill="#95A7D8" stroke="#95A7D8" stroke-width="0.3"/>
      <path id="패스_63945" data-name="패스 63945" d="M3341.645,695.795a1.3,1.3,0,0,1-1.217-1.742l.757-2.064a.49.49,0,0,1,.92,0l.757,2.064a1.3,1.3,0,0,1-1.217,1.742Zm0-2.214-.3.809a.316.316,0,1,0,.593,0Z" transform="translate(-466.96 -290.717)" fill="#95A7D8" stroke="#95A7D8" stroke-width="0.3"/>
    </g>
  </g>
</svg>
