<svg xmlns="http://www.w3.org/2000/svg" width="20" height="20" viewBox="0 0 20 20">
  <g id="icon" transform="translate(-28.164 43)">
    <rect id="사각형_23996" data-name="사각형 23996" width="20" height="20" transform="translate(28.164 -43)" fill="none"/>
    <g id="noun-process-1196298" transform="translate(-89.374 -90.539)">
      <path id="패스_65149" data-name="패스 65149" d="M119.957,53.188v.6a.548.548,0,1,0,1.1,0v-.6a2.7,2.7,0,0,0,.96-.4l.428.428a.548.548,0,1,0,.776-.774l-.43-.428a2.732,2.732,0,0,0,.4-.961h.6a.548.548,0,1,0,0-1.1h-.6a2.733,2.733,0,0,0-.4-.961l.428-.428a.548.548,0,0,0-.774-.774l-.428.428a2.7,2.7,0,0,0-.96-.4v-.6a.548.548,0,0,0-1.1,0v.6a2.7,2.7,0,0,0-.96.4l-.429-.428a.548.548,0,1,0-.774.774l.428.428a2.751,2.751,0,0,0-.4.961h-.6a.548.548,0,0,0,0,1.1h.6a2.733,2.733,0,0,0,.4.961l-.429.428a.548.548,0,0,0,.776.774l.428-.428a2.691,2.691,0,0,0,.959.4Zm.548-4.326a1.643,1.643,0,1,1-1.643,1.643A1.645,1.645,0,0,1,120.5,48.862Z" transform="translate(2 2)" fill="#169d73" stroke="#169d73" stroke-width="0.3"/>
      <path id="패스_65150" data-name="패스 65150" d="M427.124,353.286h-.6a2.733,2.733,0,0,0-.4-.961l.428-.428a.548.548,0,1,0-.774-.774l-.428.428a2.7,2.7,0,0,0-.96-.4v-.6a.548.548,0,1,0-1.1,0v.6a2.7,2.7,0,0,0-.96.4l-.428-.428a.548.548,0,1,0-.774.774l.428.428a2.732,2.732,0,0,0-.4.961h-.6a.548.548,0,1,0,0,1.1h.6a2.731,2.731,0,0,0,.4.961l-.428.428a.548.548,0,0,0,.776.774l.428-.428a2.7,2.7,0,0,0,.96.4v.6a.548.548,0,0,0,1.1,0v-.6a2.7,2.7,0,0,0,.96-.4l.428.428a.548.548,0,1,0,.776-.774l-.428-.428a2.733,2.733,0,0,0,.4-.961h.6a.548.548,0,1,0,0-1.1Zm-3.286,2.191a1.643,1.643,0,1,1,1.643-1.643A1.645,1.645,0,0,1,423.838,355.477Z" transform="translate(-291.266 -291.262)" fill="#169d73" stroke="#169d73" stroke-width="0.3"/>
      <path id="패스_65151" data-name="패스 65151" d="M375.356,95.7l-.161-.16H378.8v4.929a.548.548,0,1,0,1.1,0V95a.548.548,0,0,0-.548-.548H375.2l.16-.16a.548.548,0,1,0-.774-.774l-1.1,1.1a.548.548,0,0,0,0,.774l1.1,1.1a.548.548,0,0,0,.775-.776Z" transform="translate(-245.736 -43.534)" fill="#169d73" stroke="#169d73" stroke-width="0.3"/>
      <path id="패스_65152" data-name="패스 65152" d="M191.989,307.869a.548.548,0,1,0-.774.774l.16.161h-3.607v-4.929a.548.548,0,1,0-1.1,0v5.477a.548.548,0,0,0,.548.548h4.155l-.16.16a.548.548,0,0,0,0,.774.542.542,0,0,0,.387.161.551.551,0,0,0,.388-.16l1.1-1.1a.548.548,0,0,0,0-.774Z" transform="translate(-65.758 -245.737)" fill="#169d73" stroke="#169d73" stroke-width="0.3"/>
    </g>
  </g>
</svg>
