<svg id="그룹_303" data-name="그룹 303" xmlns="http://www.w3.org/2000/svg" xmlns:xlink="http://www.w3.org/1999/xlink" width="18" height="18" viewBox="0 0 18 18">
  <defs>
    <clipPath id="clip-path">
      <rect id="사각형_266" data-name="사각형 266" width="18" height="18" fill="#fff"/>
    </clipPath>
  </defs>
  <g id="그룹_302" data-name="그룹 302" clip-path="url(#clip-path)">
    <path id="패스_63845" data-name="패스 63845" d="M15.462,5.538H14.308V2.846A2.591,2.591,0,0,0,11.462,0H2.846A2.591,2.591,0,0,0,0,2.846V13.615a.692.692,0,0,0,1.182.489l1.951-1.951H5.538v1.462a2.311,2.311,0,0,0,2.538,2.538h7.1L16.818,17.8A.692.692,0,0,0,18,17.308V8.077a2.311,2.311,0,0,0-2.538-2.538M2.846,10.769a.692.692,0,0,0-.489.2l-.972.972v-9.1c0-1.052.409-1.462,1.461-1.462h8.616c1.052,0,1.461.41,1.461,1.462V9.308c0,1.051-.409,1.461-1.461,1.461Zm13.77,4.867-.664-.664a.692.692,0,0,0-.489-.2H8.077c-.841,0-1.154-.313-1.154-1.154V12.154h4.539a2.591,2.591,0,0,0,2.846-2.846V6.923h1.154c.841,0,1.154.313,1.154,1.154ZM8.095,6.231a.925.925,0,1,1-.932-.923h.009a.923.923,0,0,1,.923.923m2.769,0a.925.925,0,1,1-.932-.923h.009a.923.923,0,0,1,.923.923m-5.538,0a.925.925,0,1,1-.932-.923H4.4a.923.923,0,0,1,.923.923" transform="translate(0 0)" fill="#fff"/>
  </g>
</svg>
