<svg xmlns="http://www.w3.org/2000/svg" xmlns:xlink="http://www.w3.org/1999/xlink" width="14.685" height="13.555" viewBox="0 0 14.685 13.555">
  <defs>
    <clipPath id="clip-path">
      <rect id="사각형_23975" data-name="사각형 23975" width="14.685" height="13.555" fill="#fff" stroke="#fff" stroke-width="0.2"/>
    </clipPath>
  </defs>
  <g id="그룹_5348" data-name="그룹 5348" transform="translate(1)">
    <g id="그룹_5347" data-name="그룹 5347" transform="translate(-1)" clip-path="url(#clip-path)">
      <path id="패스_64648" data-name="패스 64648" d="M60.023,45.541a.557.557,0,0,0,.793,0l2.991-3.017a.569.569,0,0,0,0-.8.557.557,0,0,0-.793,0l-2.594,2.617-1.1-1.108a.557.557,0,0,0-.793,0,.569.569,0,0,0,0,.8Z" transform="translate(-53.581 -37.914)" fill="#fff" stroke="#fff" stroke-width="0.2"/>
      <path id="패스_64649" data-name="패스 64649" d="M13.012,7.657V2.735A2.726,2.726,0,0,0,10.3,0H2.711A2.726,2.726,0,0,0,0,2.735V7.657a2.726,2.726,0,0,0,2.711,2.735H5.964v.684H4.88a.547.547,0,0,0,0,1.094H8.133a.547.547,0,0,0,0-1.094H7.048v-.684H10.3a2.719,2.719,0,0,0,2.6-1.967.479.479,0,0,0,.048-.189,2.759,2.759,0,0,0,.062-.579M1.084,2.735A1.636,1.636,0,0,1,2.711,1.094H10.3a1.636,1.636,0,0,1,1.627,1.641V7.657c0,.026,0,.053,0,.079H1.086c0-.026,0-.052,0-.079ZM10.3,9.3H2.711a1.619,1.619,0,0,1-1.26-.605H11.562A1.619,1.619,0,0,1,10.3,9.3" transform="translate(0.827 0.803)" fill="#fff" stroke="#fff" stroke-width="0.2"/>
    </g>
  </g>
</svg>
