<svg xmlns="http://www.w3.org/2000/svg" xmlns:xlink="http://www.w3.org/1999/xlink" width="23" height="23" viewBox="0 0 23 23">
  <defs>
    <clipPath id="clip-path">
      <rect id="사각형_23986" data-name="사각형 23986" width="20" height="20" transform="translate(0 0)" fill="#686868"/>
    </clipPath>
  </defs>
  <g id="icon" transform="translate(-721 -26)">
    <rect id="area" width="22" height="22" transform="translate(721 26)" fill="none"/>
    <g id="그룹_5371" data-name="그룹 5371" transform="translate(724.27 29.274)">
      <g id="그룹_5370" data-name="그룹 5370" transform="translate(-0.27 -0.274)" clip-path="url(#clip-path)">
        <path id="패스_64672" data-name="패스 64672" d="M28.4,18.627H26.034a.828.828,0,0,0,0,1.656h.408L25.289,21.47l-1.031-1.031a1.485,1.485,0,0,0-2.1,0l-1.918,1.918a.828.828,0,1,0,1.172,1.169L23.173,21.7l1.031,1.03a1.484,1.484,0,0,0,2.1,0l1.272-1.272v.367a.828.828,0,0,0,1.656,0V19.454a.833.833,0,0,0-.828-.827" transform="translate(-14.756 -13.699)" fill="#686868"/>
        <path id="패스_64673" data-name="패스 64673" d="M17.858,0H.828a.828.828,0,0,0,0,1.656h.591v8.633a3.307,3.307,0,0,0,3.666,3.666h3.43v1.567L6.046,17.168a.826.826,0,0,0,.448,1.519.859.859,0,0,0,.469-.141l2.379-1.586,2.38,1.587a.828.828,0,0,0,.917-1.378l-2.47-1.645V13.955H13.6a3.307,3.307,0,0,0,3.666-3.666V1.656h.591a.828.828,0,0,0,0-1.656M13.6,12.3H5.085c-1.428,0-2.011-.583-2.011-2.01V1.656H15.611v8.633c0,1.428-.582,2.01-2.011,2.01" transform="translate(0.516 0.523)" fill="#686868"/>
      </g>
    </g>
  </g>
</svg>
