<svg xmlns="http://www.w3.org/2000/svg" width="12" height="11" viewBox="0 0 12 11">
  <g id="다각형_1" data-name="다각형 1" fill="#fff">
    <path d="M 10.31546020507812 10.74999618530273 L 1.684540033340454 10.74999618530273 C 1.417179942131042 10.74999618530273 1.176090002059937 10.6127462387085 1.039620041847229 10.38284587860107 C 0.9031400084495544 10.15295600891113 0.8981000185012817 9.875576019287109 1.026119947433472 9.64085578918457 L 5.341569900512695 1.729185938835144 C 5.475069999694824 1.484445929527283 5.72121000289917 1.338335871696472 6 1.338335871696472 C 6.27878999710083 1.338335871696472 6.524930000305176 1.484445929527283 6.658430099487305 1.729185938835144 L 10.97387981414795 9.64085578918457 C 11.10190010070801 9.875576019287109 11.0968599319458 10.15295600891113 10.9603796005249 10.38284587860107 C 10.82390975952148 10.6127462387085 10.58281993865967 10.74999618530273 10.31546020507812 10.74999618530273 Z" stroke="none"/>
    <path d="M 6 1.588325500488281 C 5.910759925842285 1.588325500488281 5.689330101013184 1.613716125488281 5.561049938201904 1.848905563354492 L 1.245599746704102 9.760576248168945 C 1.122570037841797 9.986116409301758 1.21090030670166 10.18163585662842 1.254590034484863 10.25523567199707 C 1.298279762268066 10.32882595062256 1.427630424499512 10.49999618530273 1.684539794921875 10.49999618530273 L 10.31546020507812 10.49999618530273 C 10.5723705291748 10.49999618530273 10.70172023773193 10.32882595062256 10.74540996551514 10.25523567199707 C 10.78909969329834 10.18163585662842 10.8774299621582 9.986116409301758 10.7544002532959 9.760576248168945 L 6.438950061798096 1.848905563354492 C 6.310669898986816 1.613716125488281 6.089240074157715 1.588325500488281 6 1.588325500488281 M 6 1.08833122253418 C 6.344194889068604 1.08833122253418 6.688389778137207 1.262045860290527 6.877900123596191 1.609476089477539 L 11.19334983825684 9.521145820617676 C 11.55683040618896 10.18752574920654 11.07452011108398 10.99999618530273 10.31546020507812 10.99999618530273 L 1.684539794921875 10.99999618530273 C 0.9254798889160156 10.99999618530273 0.4431695938110352 10.18752574920654 0.8066501617431641 9.521145820617676 L 5.122099876403809 1.609476089477539 C 5.311610221862793 1.262045860290527 5.655805110931396 1.08833122253418 6 1.08833122253418 Z" stroke="none" fill="#c7d4ec"/>
  </g>
</svg>
