<svg id="icon" xmlns="http://www.w3.org/2000/svg" width="24" height="24" viewBox="0 0 24 24">
  <rect id="area" width="24" height="24" fill="none"/>
  <g id="그룹_366" data-name="그룹 366" transform="translate(-1658.47 -23.233)">
    <path id="패스_63890" data-name="패스 63890" d="M21.536,28.488l-1.268-1.145a2.448,2.448,0,0,0-3.322.037L15.7,28.553,12.51,27.059l.105-1.705a2.448,2.448,0,0,0-2.1-2.574L8.823,22.54,8,19.11l1.4-.981a2.448,2.448,0,0,0,.7-3.247L9.234,13.41,11.4,10.628l1.639.482a2.448,2.448,0,0,0,2.977-1.475l.61-1.6L20.155,8,20.8,9.582A2.448,2.448,0,0,0,23.81,10.99l1.628-.519,2.23,2.733L26.833,14.7a2.448,2.448,0,0,0,.775,3.231l1.42.95-.747,3.447L26.6,22.6a2.448,2.448,0,0,0-2.043,2.621l.143,1.7Z" transform="translate(1651.956 16.956)" fill="none" stroke="#65677d" stroke-linecap="round" stroke-linejoin="round" stroke-width="2"/>
    <ellipse id="타원_278" data-name="타원 278" cx="3.823" cy="3.823" rx="3.823" ry="3.823" transform="translate(1666.649 31.222)" fill="none" stroke="#65677d" stroke-linecap="round" stroke-linejoin="round" stroke-width="2"/>
  </g>
</svg>
