<svg id="icon" xmlns="http://www.w3.org/2000/svg" width="18" height="18" viewBox="0 0 18 18">
  <rect id="area" width="18" height="18" fill="none"/>
  <path id="Icon_simple-microsoftexcel" data-name="Icon simple-microsoftexcel" d="M14.459,2.1H9.523v.913h1.455V4.457H9.523v.46h1.455V6.364H9.523v.473h1.455V8.206H9.523v.548h1.455v1.371H9.523v.548h1.455v1.379H9.523v1.006h4.936c.078-.023.143-.115.2-.275a1.346,1.346,0,0,0,.079-.39V2.265c0-.079-.027-.126-.079-.142A.675.675,0,0,0,14.459,2.1Zm-.64,9.953H11.451V10.673h2.368v1.379Zm0-1.926H11.451V8.753h2.368Zm0-1.92H11.451V6.843h2.368V8.206Zm0-1.842H11.451V4.918h2.368V6.364h0Zm0-1.915H11.451V3.012h2.368V4.449ZM0,1.871V13.289l8.692,1.5V.329L0,1.875Zm5.152,8.638q-.05-.134-.465-1.144C4.411,8.692,4.245,8.3,4.2,8.189H4.181l-.932,2.219L2,10.324,3.481,7.561,2.127,4.8,3.4,4.732l.84,2.161h.017L5.2,4.634l1.313-.083L4.952,7.54l1.611,3.05-1.411-.083Z" transform="translate(2 1.672)" fill="#fff"/>
</svg>
