<svg width="42" height="42" viewBox="0 0 32 32" fill="none" xmlns="http://www.w3.org/2000/svg">
<rect width="32" height="32" rx="16" fill="#0475f4"/>
<path d="M24.25 20.875C24.25 21.7048 23.9443 22.5055 23.3914 23.1241C22.8384 23.7428 22.0769 24.1361 21.2524 24.2289C20.4278 24.3217 19.5979 24.1074 18.9213 23.6271C18.2447 23.1468 17.7688 22.434 17.5844 21.625H14.4156C14.2312 22.434 13.7553 23.1467 13.0787 23.6271C12.402 24.1074 11.5722 24.3216 10.7476 24.2288C9.92309 24.1361 9.1616 23.7428 8.60864 23.1241C8.05569 22.5054 7.75001 21.7048 7.75001 20.875C7.75001 20.0452 8.05569 19.2445 8.60864 18.6259C9.1616 18.0072 9.92309 17.6139 10.7476 17.5212C11.5722 17.4284 12.402 17.6426 13.0787 18.1229C13.7553 18.6032 14.2312 19.316 14.4156 20.125H17.5844C17.7688 19.316 18.2447 18.6032 18.9213 18.1229C19.5979 17.6426 20.4278 17.4283 21.2524 17.5211C22.0769 17.6139 22.8384 18.0072 23.3914 18.6258C23.9443 19.2445 24.25 20.0452 24.25 20.875ZM27.25 14.5H24.6437L20.2469 8.21874C20.1058 8.01919 19.9184 7.85688 19.7007 7.74575C19.4831 7.63463 19.2417 7.57802 18.9973 7.58079C18.7529 7.58355 18.5129 7.64561 18.2978 7.76164C18.0827 7.87766 17.899 8.04417 17.7625 8.24687L16 10.9L14.2375 8.24687C14.101 8.04417 13.9173 7.87766 13.7022 7.76164C13.4871 7.64561 13.2471 7.58355 13.0027 7.58079C12.7583 7.57802 12.5169 7.63463 12.2993 7.74575C12.0816 7.85688 11.8942 8.01919 11.7531 8.21874L7.35625 14.5H4.75C4.55109 14.5 4.36032 14.579 4.21967 14.7197C4.07902 14.8603 4 15.0511 4 15.25C4 15.4489 4.07902 15.6397 4.21967 15.7803C4.36032 15.921 4.55109 16 4.75 16H27.25C27.4489 16 27.6397 15.921 27.7803 15.7803C27.921 15.6397 28 15.4489 28 15.25C28 15.0511 27.921 14.8603 27.7803 14.7197C27.6397 14.579 27.4489 14.5 27.25 14.5Z" fill="#FFFFFF" />
</svg>
