<svg width="42" height="42" viewBox="0 0 32 32" fill="none" xmlns="http://www.w3.org/2000/svg">
<rect width="32" height="32" rx="16" fill="#0475f4"/>
<path fill-rule="evenodd" clip-rule="evenodd" d="M24.25 6.25C24.25 5.836 23.914 5.5 23.5 5.5H8.5C8.086 5.5 7.75 5.836 7.75 6.25V25.75C7.75 26.164 8.086 26.5 8.5 26.5H23.5C23.914 26.5 24.25 26.164 24.25 25.75V6.25ZM22.75 7V25H9.25V7H22.75ZM12.25 23.5H19.75C20.164 23.5 20.5 23.164 20.5 22.75C20.5 22.336 20.164 22 19.75 22H12.25C11.836 22 11.5 22.336 11.5 22.75C11.5 23.164 11.836 23.5 12.25 23.5ZM13.75 21.25H18.25C18.664 21.25 19 20.914 19 20.5C19 20.086 18.664 19.75 18.25 19.75H13.75C13.336 19.75 13 20.086 13 20.5C13 20.914 13.336 21.25 13.75 21.25ZM15.9662 18.625H16.0338C18.916 18.607 21.25 16.261 21.25 13.375C21.25 10.489 18.916 8.143 16.0338 8.125H15.9662C13.084 8.143 10.75 10.489 10.75 13.375C10.75 16.261 13.084 18.607 15.9662 18.625ZM16 14.5C16.414 14.5 16.75 14.836 16.75 15.25C16.75 15.664 16.414 16 16 16C15.586 16 15.25 15.664 15.25 15.25C15.25 14.836 15.586 14.5 16 14.5ZM15.25 11.5V13C15.25 13.414 15.586 13.75 16 13.75C16.414 13.75 16.75 13.414 16.75 13V11.5C16.75 11.086 16.414 10.75 16 10.75C15.586 10.75 15.25 11.086 15.25 11.5Z" fill="#FFFFFF"/>
</svg>
