<svg width="32" height="32" viewBox="0 0 32 32" fill="none" xmlns="http://www.w3.org/2000/svg">
<rect width="32" height="32" rx="16" fill="#5B89FF"/>
<path d="M27.1404 16.411C26.8922 17.0725 26.2772 17.5 25.5729 17.5H24.9999V25.75C24.9999 26.164 24.6639 26.5 24.2499 26.5H19.7499V21.25C19.7499 19.1823 18.0677 17.5 15.9999 17.5C13.9322 17.5 12.2499 19.1823 12.2499 21.25V26.5H7.74993C7.33593 26.5 6.99993 26.164 6.99993 25.75V17.5H6.42618C5.72193 17.5 5.10693 17.0733 4.85868 16.4118C4.61043 15.7503 4.79268 15.0228 5.32368 14.5593L14.0829 6.26426C15.1584 5.24651 16.8422 5.24651 17.9169 6.26426L26.6972 14.5788C27.2057 15.022 27.3887 15.7495 27.1404 16.411Z" fill="#FFFFFF"/>
</svg>
