<svg width="32" height="32" viewBox="0 0 32 32" fill="none" xmlns="http://www.w3.org/2000/svg">
<rect width="32" height="32" rx="16" fill="#FF5500"/>
<g clip-path="url(#clip0_278_2006)">
<path fill-rule="evenodd" clip-rule="evenodd" d="M13 9.05415C12.9353 10.6965 13 21.0271 13 21.0271C13.1602 21.0271 13.3204 21.0528 13.4743 21.1041L19 22.946V10.973C18.8398 10.973 18.6796 10.9474 18.5257 10.896L13 9.05415ZM12.5257 7.10407C12.8336 7.00144 13.1664 7.00144 13.4743 7.10407L19 8.94596L24.2889 7.18299C25.1307 6.9024 26 7.52896 26 8.41628V21.6397C26 22.2853 25.5869 22.8585 24.9743 23.0627L19.4743 24.896C19.1664 24.9987 18.8336 24.9987 18.5257 24.896L13 23.0541L7.7111 24.8171C6.86931 25.0977 6 24.4712 6 23.5838V10.3604C6 9.71479 6.41315 9.14158 7.02566 8.93741L12.5257 7.10407Z" fill="#FFFFFF"/>
</g>
<defs>
<clipPath id="clip0_278_2006">
<rect width="24" height="24" fill="white" transform="translate(4 4)"/>
</clipPath>
</defs>
</svg>
