<svg width="24" height="24" viewBox="0 0 24 24" fill="none" xmlns="http://www.w3.org/2000/svg">
<path d="M5.5 3.00001C4.946 3.00001 4.5 3.44601 4.5 4C4.5 4 4.5 14.6667 4.5 20C4.5 20.5 5 21 5.5 21C7.16667 21 10.5 21 10.5 21V18C10.5 17.446 11.0286 17 11.5 17H12.5C12.9714 17 13.5 17.446 13.5 18C13.5 19 13.5 20 13.5 21C13.5 21 16.8333 21 18.5 21C19 21 19.5 20.5 19.5 20C19.5 14.6667 19.5 4 19.5 4C19.5 3.44601 19.054 3.00001 18.5 3.00001H5.5ZM7.5 6H10.5V8.00001H7.5V6ZM13.5 6H16.5V8.00001H13.5V6ZM7.5 12H10.5V14H7.5V12ZM13.5 12H16.5V14H13.5V12Z" fill="#737373"/>
</svg>
