<svg width="32" height="32" viewBox="0 0 32 32" fill="none" xmlns="http://www.w3.org/2000/svg">
<rect width="32" height="32" rx="16" fill="#00c56d"/>
<path d="M17.5909 20.0325C17.5909 20.2834 17.3875 20.487 17.1364 20.487H14.8637C14.6127 20.487 14.4091 20.2834 14.4091 20.0325V18.4357L6 16.5252V24.1378C6 24.6398 6.40706 25.0468 6.90909 25.0468H25.0909C25.593 25.0468 26 24.6398 26 24.1378V16.533L17.5909 18.4368V20.0325Z" fill="#FFFFFF"/>
<path d="M25.0909 11.4105H6.90909C6.40706 11.4105 6 11.8175 6 12.3195V15.3602L14.4091 17.2705V16.3961C14.4091 16.1452 14.6127 15.9416 14.8636 15.9416H17.1363C17.3875 15.9416 17.5909 16.1452 17.5909 16.3961V17.2716L26 15.3677V12.3195C26 11.8175 25.5929 11.4105 25.0909 11.4105Z" fill="#FFFFFF"/>
<path d="M12.4925 9.30046C12.4925 8.62137 13.0449 8.06886 13.7238 8.06886H18.2763C18.9554 8.06886 19.5079 8.62134 19.5079 9.30046V10.5011H20.5768V9.30046C20.5768 8.03183 19.5449 7 18.2763 7H13.7238C12.4554 7 11.4233 8.03183 11.4233 9.30046V10.5011H12.4924L12.4925 9.30046Z" fill="#FFFFFF"/>
</svg>
