<svg width="42" height="42" viewBox="0 0 32 32" fill="none" xmlns="http://www.w3.org/2000/svg">
<rect width="32" height="32" rx="16" fill="#0475f4"/>
<g clip-path="url(#clip0_278_2056)">
<path d="M20.8551 12.6653C21.4478 13.2581 22.4086 13.2579 23.0012 12.6653C23.594 12.0728 23.5941 11.1118 23.0012 10.5191L16.9269 4.44448C16.3341 3.85168 15.3732 3.85192 14.7804 4.44448C14.1878 5.03704 14.1878 5.998 14.7804 6.59068L20.8551 12.6653Z" fill="#FFFFFF"/>
<path d="M6.59044 14.7809C5.99788 14.1881 5.03692 14.1881 4.44436 14.7809C3.85168 15.3735 3.85144 16.3343 4.44436 16.9271L10.5186 23.0014C11.1114 23.5942 12.0722 23.5942 12.6651 23.0014C13.2579 22.4089 13.2579 21.4479 12.6651 20.8551L6.59044 14.7809Z" fill="#FFFFFF"/>
<path d="M27.2325 24.1515L18.2253 16.4723C18.6318 16.0041 19.017 15.5166 19.3728 15.0064L19.5587 14.74C19.9429 14.189 19.8768 13.4416 19.4017 12.9665L14.4792 8.04401C14.0041 7.56893 13.2568 7.50293 12.7057 7.88717L12.2716 8.18993C10.6811 9.29921 9.29931 10.681 8.18991 12.2714L7.88703 12.7056C7.50267 13.2568 7.56866 14.0043 8.04374 14.4793L12.9665 19.4018C13.4416 19.8769 14.1888 19.943 14.7399 19.5586L15.0063 19.3727C15.5163 19.0171 16.0037 18.6321 16.4718 18.2258L24.1511 27.2327C24.5467 27.6968 25.1183 27.9745 25.7274 27.9983C26.3369 28.0226 26.9286 27.7913 27.3598 27.3603C27.7912 26.9291 28.0224 26.3375 27.9982 25.7281C27.9741 25.1186 27.6964 24.5473 27.2325 24.1515Z" fill="#FFFFFF"/>
</g>
<defs>
<clipPath id="clip0_278_2056">
<rect width="24" height="24" fill="white" transform="translate(4 4)"/>
</clipPath>
</defs>
</svg>
