<svg width="32" height="32" viewBox="0 0 32 32" fill="none" xmlns="http://www.w3.org/2000/svg">
<g clip-path="url(#clip0_113_1611)">
<path d="M17.9091 20.8109C17.9091 21.112 17.665 21.3564 17.3636 21.3564H14.6364C14.3353 21.3564 14.0909 21.112 14.0909 20.8109V18.8947L4 16.6022V25.7372C4 26.3397 4.48847 26.8281 5.0909 26.8281H26.9091C27.5116 26.8281 28 26.3397 28 25.7372V16.6115L17.9091 18.8961V20.8109Z" fill="#737373"/>
<path d="M26.9091 10.4645H5.0909C4.48847 10.4645 4 10.9529 4 11.5554V15.2042L14.0909 17.4965V16.4473C14.0909 16.1462 14.3353 15.9019 14.6364 15.9019H17.3636C17.665 15.9019 17.9091 16.1462 17.9091 16.4473V17.4979L28 15.2132V11.5554C28 10.9529 27.5115 10.4645 26.9091 10.4645Z" fill="#737373"/>
<path d="M11.7908 7.93248C11.7908 7.11758 12.4537 6.45456 13.2684 6.45456H18.7314C19.5463 6.45456 20.2093 7.11754 20.2093 7.93248V9.37331H21.4919V7.93248C21.4919 6.41013 20.2537 5.17194 18.7314 5.17194H13.2684C11.7463 5.17194 10.5078 6.41013 10.5078 7.93248V9.37331H11.7907L11.7908 7.93248Z" fill="#737373"/>
</g>
<defs>
<clipPath id="clip0_113_1611">
<rect width="24" height="24" fill="white" transform="translate(4 4)"/>
</clipPath>
</defs>
</svg>
