<svg width="32" height="32" viewBox="0 0 32 32" fill="none" xmlns="http://www.w3.org/2000/svg">
<g clip-path="url(#clip0_113_674)">
<g clip-path="url(#clip1_113_674)">
<path d="M22.4735 11.5538C23.2637 12.3442 24.5448 12.3439 25.3349 11.5538C26.1253 10.7637 26.1254 9.48241 25.3349 8.69217L17.2358 0.592649C16.4454 -0.197751 15.1643 -0.197431 14.3739 0.592649C13.5837 1.38273 13.5837 2.66401 14.3739 3.45425L22.4735 11.5538Z" fill="white"/>
<path d="M3.454 14.3746C2.66392 13.5842 1.38264 13.5842 0.592556 14.3746C-0.197684 15.1646 -0.198004 16.4458 0.592556 17.2362L8.6916 25.3352C9.482 26.1256 10.763 26.1256 11.5535 25.3352C12.3439 24.5451 12.3439 23.2638 11.5535 22.4734L3.454 14.3746Z" fill="white"/>
<path d="M30.9767 26.8687L18.9671 16.6298C19.5092 16.0054 20.0228 15.3555 20.4972 14.6752L20.745 14.32C21.2573 13.5853 21.1692 12.5888 20.5357 11.9554L13.9724 5.39202C13.3389 4.75858 12.3425 4.67057 11.6077 5.18289L11.0289 5.58658C8.90823 7.06562 7.06582 8.90801 5.58662 11.0285L5.18278 11.6075C4.6703 12.3424 4.7583 13.3391 5.39174 13.9723L11.9554 20.5357C12.5889 21.1691 13.5852 21.2573 14.3199 20.7448L14.6751 20.497C15.3551 20.0227 16.005 19.5094 16.6292 18.9677L26.8682 30.977C27.3957 31.5957 28.1578 31.9659 28.97 31.9978C29.7826 32.0301 30.5716 31.7218 31.1465 31.1471C31.7217 30.5722 32.03 29.7834 31.9977 28.9707C31.9655 28.1581 31.5953 27.3963 30.9767 26.8687Z" fill="white"/>
</g>
</g>
<defs>
<clipPath id="clip0_113_674">
<rect width="32" height="32" fill="white"/>
</clipPath>
<clipPath id="clip1_113_674">
<rect width="32" height="32" fill="white"/>
</clipPath>
</defs>
</svg>
