<svg width="26" height="27" viewBox="0 0 26 27" fill="none" xmlns="http://www.w3.org/2000/svg">
<g clip-path="url(#clip0_779_9857)">
<g clip-path="url(#clip1_779_9857)">
<path d="M11.2321 7.53906H9.38574V11.2318H11.2321V7.53906Z" fill="white"/>
<path d="M18.6175 14.9248H14.9248V16.7712H18.6175V14.9248Z" fill="white"/>
<path d="M11.2321 14.9245V13.0781H9.38574V16.7709H13.0785V14.9245H11.2321Z" fill="white"/>
<path d="M24.1563 2H13.0781V13.0782H24.1563V2Z" fill="white"/>
<path d="M14.8184 26L9.21837 22.4411L2 24.1462V2H11.2318V5.69273H9.38547V3.84637H3.84637V21.8124L9.55256 20.4646L15.0307 23.9468L19.3725 22.31H22.31V16.7709H20.4637V14.9246H24.1564V24.1564H19.7085L14.8184 26Z" fill="white"/>
</g>
</g>
<defs>
<clipPath id="clip0_779_9857">
<rect width="26" height="26" fill="white" transform="translate(0 0.5)"/>
</clipPath>
<clipPath id="clip1_779_9857">
<rect width="26" height="26" fill="white" transform="translate(0 1)"/>
</clipPath>
</defs>
</svg>
