<svg width="81" height="76" viewBox="0 0 81 76" fill="none" xmlns="http://www.w3.org/2000/svg">
<path d="M51.5738 19.7925C48.0566 17.3777 43.5463 18.3769 41.1877 21.9992C39.2015 25.0385 36.2222 25.4132 35.0636 25.4132C31.2982 25.4132 28.7327 22.7486 27.9465 20.0007C27.9465 19.9591 27.9465 19.9591 27.9465 19.9174C27.9465 19.8758 27.9465 19.8758 27.9051 19.8342C27.6154 18.6684 27.5327 18.1271 27.5327 16.9197C27.5327 10.2997 34.2774 2.97199 43.9601 2.97199C53.891 2.97199 59.5599 10.5912 61.0082 14.7963C60.9668 14.7131 60.9668 14.6298 60.9254 14.5881C58.1116 6.34442 50.3324 0.390625 41.1463 0.390625C29.6016 0.390625 20.25 9.80013 20.25 21.4163C20.25 31.7834 27.6982 40.6933 38.0015 40.6933C46.2359 40.6933 51.7807 36.0302 54.3048 29.66C55.7531 26.0378 54.76 21.9575 51.5738 19.7925Z" fill="#CDCDCD"/>
<path d="M61.1732 15.1294C59.9732 11.0075 54.2216 2.88867 43.9596 2.88867C34.277 2.88867 27.5322 10.2164 27.5322 16.8364C27.5322 18.0438 27.615 18.6267 27.9046 19.7508C27.7805 19.2512 27.6977 18.7516 27.6977 18.252C27.6977 11.3822 34.5252 6.63582 41.5597 6.63582C51.0768 6.63582 58.7733 14.3799 58.7733 23.956C58.7733 31.4503 54.4699 37.9453 48.2216 41.0679C56.2491 38.1535 62.0008 30.4094 62.0008 21.2913C62.0836 19.1679 61.7939 17.2944 61.1732 15.1294Z" fill="#8F8F8F"/>
<path d="M0.95916 67.0408V61.6729H11.1792V62.9983H2.61289V63.6941H11.113V64.9864H2.61289V65.7154H11.2453V67.0408H6.91258V67.9023H12.1714V69.2608H0V67.9023H5.25885V67.0408H0.95916ZM9.29395 72.475C9.29395 72.8726 9.2278 73.2371 9.06243 73.6016C8.89705 73.9661 8.66553 74.2643 8.40093 74.5294C8.10326 74.7945 7.73944 75.0264 7.34255 75.1589C6.94565 75.3246 6.51568 75.3909 6.08572 75.3909C5.65575 75.3909 5.22578 75.3246 4.82888 75.1589C4.43199 74.9933 4.10124 74.7945 3.80357 74.5294C3.5059 74.2643 3.27438 73.9661 3.10901 73.6016C2.94363 73.2371 2.87748 72.8726 2.87748 72.475C2.87748 72.0774 2.94363 71.6797 3.10901 71.3484C3.27438 71.017 3.5059 70.6857 3.80357 70.4206C4.10124 70.1555 4.43199 69.9567 4.82888 69.791C5.22578 69.6253 5.65575 69.5591 6.08572 69.5591C6.54876 69.5591 6.97873 69.6253 7.34255 69.791C7.73944 69.9567 8.07019 70.1555 8.40093 70.4206C8.69861 70.6857 8.89705 71.017 9.06243 71.3484C9.2278 71.6797 9.29395 72.0442 9.29395 72.475ZM7.6733 72.4418C7.6733 72.0111 7.50792 71.6466 7.21025 71.3152C6.8795 71.017 6.51568 70.8513 6.08572 70.8513C5.65575 70.8513 5.25885 71.017 4.96118 71.3152C4.63044 71.6135 4.46506 72.0111 4.46506 72.4418C4.46506 72.8726 4.63044 73.2371 4.96118 73.5684C5.29193 73.8667 5.65575 74.0323 6.08572 74.0323C6.51568 74.0323 6.91258 73.8667 7.21025 73.5684C7.50792 73.2702 7.6733 72.8726 7.6733 72.4418Z" fill="#A9A9A9"/>
<path d="M21.3342 62.3689V63.7274H13.5947V62.3689H16.6376V61.2754H18.3905V62.3689H21.3342ZM14.3885 69.758H16.0092V70.7521H23.021V69.758H24.6416V74.5627H14.4216L14.3885 69.758ZM20.5404 66.8421C20.5404 67.2398 20.4742 67.6042 20.3089 67.9356C20.1435 68.267 19.912 68.5652 19.6474 68.8303C19.3828 69.0953 19.052 69.2941 18.6882 69.4267C18.3244 69.5592 17.9275 69.6586 17.5306 69.6586C17.1337 69.6586 16.7368 69.5924 16.3399 69.4267C15.943 69.261 15.6454 69.0622 15.3808 68.8303C15.1162 68.5983 14.8846 68.3001 14.7193 67.9356C14.5539 67.6042 14.4877 67.2398 14.4877 66.8421C14.4877 66.4445 14.5539 66.08 14.7193 65.7487C14.8846 65.4173 15.1162 65.1191 15.3808 64.854C15.6454 64.6221 15.9761 64.4232 16.3399 64.2576C16.7037 64.0919 17.1006 64.0256 17.5306 64.0256C17.9606 64.0256 18.3244 64.0919 18.6882 64.2576C19.052 64.3901 19.3828 64.5889 19.6474 64.854C19.912 65.1191 20.1435 65.4173 20.3089 65.7487C20.4742 66.1132 20.5404 66.4776 20.5404 66.8421ZM22.9879 71.9781H15.9761V73.2373H22.9879V71.9781ZM18.9528 66.8421C18.9528 66.4445 18.8205 66.1132 18.5228 65.8149C18.2252 65.5167 17.8944 65.3842 17.4975 65.3842C17.1006 65.3842 16.7699 65.5167 16.4722 65.8149C16.1745 66.1132 16.0422 66.4445 16.0422 66.8421C16.0422 67.2398 16.1745 67.5711 16.4722 67.8693C16.7699 68.1675 17.1006 68.3001 17.4975 68.3001C17.8944 68.3001 18.2252 68.1675 18.5228 67.8693C18.8205 67.5711 18.9528 67.2398 18.9528 66.8421ZM24.6086 69.2279H22.9548V61.5405H24.5755V64.5227H26.4938V66.1132H24.6086V69.2279Z" fill="#A9A9A9"/>
<path d="M27.6836 63.3283V61.9035H35.2907V63.3283H32.0494L35.423 67.4371L34.2654 68.398L31.5533 64.9851L28.8743 68.63L27.6836 67.669L31.0572 63.3283H27.6836ZM38.2344 71.9766C38.2344 72.4074 38.1351 72.8382 37.9698 73.2358C37.7713 73.6334 37.5398 73.9648 37.2421 74.263C36.9445 74.5612 36.5806 74.7931 36.1507 74.9588C35.7207 75.1245 35.2907 75.2239 34.7946 75.2239C34.3316 75.2239 33.8685 75.1245 33.4716 74.9588C33.0417 74.7931 32.6779 74.5612 32.3802 74.263C32.0825 73.9648 31.8179 73.6334 31.6525 73.2358C31.4541 72.8382 31.3879 72.4405 31.3879 71.9766C31.3879 71.5127 31.4872 71.1151 31.6525 70.7175C31.851 70.3199 32.0825 69.9885 32.3802 69.6903C32.6779 69.3921 33.0417 69.1601 33.4716 68.9944C33.9016 68.8288 34.3316 68.7294 34.7946 68.7294C35.2577 68.7294 35.7207 68.8288 36.1507 68.9944C36.5806 69.1601 36.9445 69.3921 37.2421 69.6903C37.5398 69.9885 37.8044 70.3199 37.9698 70.7175C38.1351 71.1151 38.2344 71.5127 38.2344 71.9766ZM36.6137 71.9435C36.6137 71.4465 36.4484 71.0157 36.0845 70.6512C35.7207 70.2867 35.2907 70.1211 34.7946 70.1211C34.2985 70.1211 33.8685 70.2867 33.5047 70.6512C33.1409 71.0157 32.9755 71.4465 32.9755 71.9435C32.9755 72.4405 33.1409 72.8713 33.5047 73.2358C33.8685 73.6003 34.2985 73.7659 34.7946 73.7659C35.2907 73.7659 35.7207 73.6003 36.0845 73.2358C36.4153 72.9044 36.6137 72.4737 36.6137 71.9435ZM37.7052 68.5637V65.6809H35.2246V64.2561H37.7052V61.5059H39.3589V68.5306L37.7052 68.5637Z" fill="#A9A9A9"/>
<path d="M51.1668 64.1247V62.0703H52.7875V69.6583H48.4878V72.3423H53.7466V73.8002H41.5752V72.3423H46.8341V69.6583H42.5674V62.1034H44.1881V64.1578H51.1668V64.1247ZM51.1668 68.2335V65.5495H44.1881V68.2335H51.1668Z" fill="#A9A9A9"/>
<path d="M63.867 68.0346V69.4925H55.2676V68.0346H57.9466V65.0855H59.5673V68.0346H63.867ZM61.5187 66.7754V63.2299H55.8629V61.772H63.1393V66.7423H61.5187V66.7754ZM56.2267 74.5954V70.6191H57.8805V73.1374H66.8106V74.5954H56.2267ZM66.546 70.2546H64.8923V61.54H66.546V65.1187H68.2328V66.6097H66.546V70.2546Z" fill="#A9A9A9"/>
<path d="M76.8994 72.9717H69.8545V66.908H75.1134V63.8264H69.8545V62.3684H76.7671V68.3328H71.5082V71.5138H76.9325V72.9717H76.8994ZM79.3469 61.54H81.0006V74.8273H79.3469V61.54Z" fill="#A9A9A9"/>
<path d="M9.9712 53.4397L9.02375 53.9873L7.49326 51.2128L5.9992 54.0603L5.05176 53.5492L7.49326 49.1318L9.9712 53.4397ZM12.6678 56.6888C12.6678 57.0174 12.5949 57.3095 12.4856 57.6015C12.3398 57.8936 12.1576 58.1126 11.939 58.3317C11.7203 58.5507 11.4652 58.6967 11.1373 58.8428C10.8093 58.9888 10.5178 59.0253 10.1898 59.0253C9.86187 59.0253 9.53391 58.9523 9.24239 58.8428C8.95087 58.7333 8.65935 58.5507 8.44071 58.3317C8.22206 58.1126 8.03986 57.8571 7.8941 57.6015C7.74834 57.3095 7.7119 57.0174 7.7119 56.6888C7.7119 56.3603 7.78478 56.0682 7.8941 55.7762C8.03986 55.4841 8.18562 55.2651 8.44071 55.046C8.65935 54.827 8.95087 54.6809 9.24239 54.5349C9.53391 54.4254 9.86187 54.3524 10.1898 54.3524C10.5178 54.3524 10.8458 54.4254 11.1373 54.5349C11.4288 54.6444 11.6839 54.827 11.939 55.046C12.1576 55.2651 12.3398 55.5206 12.4856 55.7762C12.5949 56.0682 12.6678 56.3603 12.6678 56.6888ZM11.5017 56.6888C11.5017 56.3238 11.3559 56.0317 11.1008 55.7762C10.8458 55.5206 10.5178 55.4111 10.1534 55.4111C9.789 55.4111 9.49747 55.5206 9.24239 55.7762C8.98731 56.0317 8.84155 56.3238 8.84155 56.6888C8.84155 57.0539 8.98731 57.346 9.24239 57.6015C9.49747 57.8571 9.82544 57.9666 10.1534 57.9666C10.4814 57.9666 10.8458 57.8571 11.1008 57.6015C11.3559 57.346 11.5017 57.0539 11.5017 56.6888ZM12.522 49.1683H13.6517V54.2429H12.522V52.0889H11.5381V54.0968H10.4449V49.2049H11.5381V50.9937H12.522V49.1683Z" fill="#A9A9A9"/>
<path d="M19.5188 57.4196H15.3281V49.7531H19.4094V50.8118H16.4578V53.0387H19.4094V54.0609H16.4578V56.3609H19.5188V57.4196ZM22.5797 49.1689H23.7094V58.6973H22.5797V54.1339H21.4865V58.6973H20.3933V49.2055H21.4865V53.1117H22.5797V49.1689Z" fill="#A9A9A9"/>
<path d="M29.1008 57.4561H27.9712V50.8483H25.0195V49.7896H29.1008V57.4561ZM30.5949 49.2055H31.6881V58.6973H30.5949V55.3387H29.5381V54.3165H30.5949V52.6371H29.5381V51.6149H30.5949V49.2055ZM32.5627 49.1689H33.6923V58.6973H32.5627V49.1689Z" fill="#A9A9A9"/>
<path d="M43.1678 57.4561H41.9653V50.8483H38.3213V49.7896H43.1678V57.4561ZM45.5365 49.1689H46.739V58.6973H45.5365V49.1689Z" fill="#A9A9A9"/>
<path d="M48.3428 56.5785V55.5563H57.0884V56.5785H53.2987V58.7324H52.1326V56.5785H48.3428ZM56.5054 50.0802V51.1024H54.6469C54.7927 51.2484 54.902 51.431 55.0113 51.65C55.1571 51.9421 55.1935 52.2341 55.1935 52.5262C55.1935 52.8182 55.1207 53.1103 55.0113 53.4024C54.902 53.6944 54.7198 53.9135 54.5012 54.1325C54.2825 54.315 54.0275 54.4976 53.7359 54.6071C53.4444 54.7166 53.1164 54.7896 52.7885 54.7896C52.4605 54.7896 52.1326 54.7166 51.841 54.6071C51.5495 54.4976 51.2944 54.315 51.0758 54.1325C50.8572 53.9135 50.675 53.6944 50.5656 53.4024C50.4563 53.1103 50.3834 52.8182 50.3834 52.5262C50.3834 52.2341 50.4563 51.9421 50.5656 51.65C50.675 51.4675 50.7843 51.2849 50.93 51.1024H49.0716V50.0802H52.2054V49.0215H53.4809V50.0802H56.5054ZM54.0275 52.4897C54.0275 52.1246 53.9181 51.8325 53.6631 51.577C53.408 51.3214 53.1165 51.2119 52.7521 51.2119C52.3876 51.2119 52.0961 51.3214 51.841 51.577C51.586 51.8325 51.4766 52.1246 51.4766 52.4897C51.4766 52.8547 51.586 53.1468 51.841 53.4024C52.0961 53.6579 52.3876 53.7674 52.7521 53.7674C53.1165 53.7674 53.408 53.6579 53.6631 53.4024C53.9181 53.1468 54.0275 52.8547 54.0275 52.4897Z" fill="#A9A9A9"/>
<path d="M58.5107 49.7531H62.5192V50.8118H59.7133V56.3609H62.6649V57.3831H58.5472V49.7531H58.5107ZM65.7259 49.1689H66.8556V58.6973H65.7259V54.1339H64.4505V58.6973H63.3573V49.2055H64.4505V53.1117H65.7259V49.1689Z" fill="#A9A9A9"/>
<path d="M77.0572 54.4625H68.3115V53.4403H77.0572V54.4625ZM75.0165 50.8848C75.0165 51.1768 74.9437 51.4689 74.8343 51.7244C74.725 51.98 74.5428 52.199 74.3242 52.4181C74.1055 52.6006 73.8504 52.7832 73.5589 52.8927C73.2674 53.0022 72.9759 53.0752 72.6479 53.0752C72.32 53.0752 72.0284 53.0022 71.7369 52.8927C71.4454 52.7832 71.1903 52.6371 70.9717 52.4181C70.753 52.2355 70.6073 51.98 70.4615 51.7244C70.3157 51.4689 70.2793 51.1768 70.2793 50.8848C70.2793 50.5927 70.3522 50.3007 70.4615 50.0451C70.5708 49.7896 70.753 49.534 70.9717 49.3515C71.1903 49.1689 71.4454 48.9864 71.7369 48.8769C72.0284 48.7674 72.32 48.6943 72.6479 48.6943C72.9759 48.6943 73.2674 48.7674 73.5589 48.8769C73.8504 48.9864 74.1055 49.1324 74.3242 49.3515C74.5428 49.534 74.6886 49.7896 74.8343 50.0451C74.9801 50.3007 75.0165 50.5927 75.0165 50.8848ZM75.0165 56.9815C75.0165 57.2735 74.9437 57.5656 74.8343 57.8212C74.725 58.0767 74.5428 58.2958 74.3242 58.5148C74.1055 58.6973 73.8504 58.8799 73.5589 58.9894C73.2674 59.0989 72.9759 59.1719 72.6479 59.1719C72.32 59.1719 72.0284 59.0989 71.7369 58.9894C71.4454 58.8799 71.1903 58.6973 70.9717 58.5148C70.753 58.3323 70.6073 58.0767 70.4615 57.8212C70.3157 57.5656 70.2793 57.2735 70.2793 56.9815C70.2793 56.6894 70.3522 56.3974 70.4615 56.1418C70.5708 55.8863 70.753 55.6672 70.9717 55.4482C71.1903 55.2656 71.4454 55.0831 71.7369 54.9736C72.0284 54.8641 72.32 54.7911 72.6479 54.7911C72.9759 54.7911 73.2674 54.8641 73.5589 54.9736C73.8504 55.0831 74.1055 55.2656 74.3242 55.4482C74.5428 55.6307 74.6886 55.8863 74.8343 56.1418C74.9801 56.3974 75.0165 56.6894 75.0165 56.9815ZM73.8505 50.8848C73.8505 50.5562 73.7411 50.2641 73.4861 50.0451C73.231 49.8261 72.9759 49.7165 72.6479 49.7165C72.32 49.7165 72.0284 49.8261 71.8098 50.0451C71.5912 50.2641 71.4454 50.5562 71.4454 50.8848C71.4454 51.2133 71.5547 51.5054 71.8098 51.7244C72.0649 51.9435 72.32 52.053 72.6479 52.053C72.9759 52.053 73.2674 51.9435 73.4861 51.7244C73.7047 51.5054 73.8505 51.2133 73.8505 50.8848ZM73.8505 56.9815C73.8505 56.6529 73.7411 56.3609 73.4861 56.1418C73.231 55.9228 72.9759 55.8133 72.6479 55.8133C72.32 55.8133 72.0284 55.9228 71.8098 56.1418C71.5912 56.3609 71.4454 56.6529 71.4454 56.9815C71.4454 57.3101 71.5547 57.6021 71.8098 57.8212C72.0649 58.0402 72.32 58.1497 72.6479 58.1497C72.9759 58.1497 73.2674 58.0402 73.4861 57.8212C73.7047 57.6021 73.8505 57.3101 73.8505 56.9815Z" fill="#A9A9A9"/>
</svg>
