<svg width="8" height="9" viewBox="0 0 8 9" fill="none" xmlns="http://www.w3.org/2000/svg">
<path d="M1.84529 7.79555C1.89921 7.82359 1.95976 7.83643 2.02042 7.83267C2.08108 7.82891 2.13958 7.8087 2.18963 7.77421L6.52296 4.77421C6.56724 4.74354 6.60342 4.70258 6.62842 4.65487C6.65341 4.60715 6.66646 4.55408 6.66646 4.50021C6.66646 4.44635 6.65341 4.39328 6.62842 4.34556C6.60342 4.29784 6.56724 4.25689 6.52296 4.22621L2.18963 1.22621C2.13962 1.19161 2.0811 1.17135 2.0204 1.16762C1.9597 1.16389 1.89914 1.17684 1.84527 1.20506C1.7914 1.23328 1.74628 1.2757 1.71479 1.32773C1.6833 1.37975 1.66665 1.4394 1.66663 1.50021V7.50021C1.66662 7.56106 1.68326 7.62075 1.71476 7.67281C1.74625 7.72487 1.79139 7.76731 1.84529 7.79555Z" fill="#CCCCCC"/>
</svg>
