<?xml version="1.0"?>
<svg width="24" height="24" xmlns="http://www.w3.org/2000/svg" xmlns:svg="http://www.w3.org/2000/svg">
 <defs>
  <clipPath id="clip0_1108_7810">
   <rect fill="white" height="24" id="svg_1" width="24"/>
  </clipPath>
 </defs>
 <g class="layer">
  <title>Layer 1</title>
  <path d="m12.5,1c-5.8,0 -10.5,4.92 -10.5,11c0,6.08 4.7,11 10.5,11c5.8,0 10.5,-4.92 10.5,-11c0,-6.08 -4.7,-11 -10.5,-11zm0.96,17.34l-1.96,0l0,-1.96l1.96,0l0,1.96zm0,-4.06l0,0.65l-1.96,0l0,-0.8c0,-2.41 2.62,-2.8 2.62,-4.51c0,-0.78 -0.67,-1.38 -1.54,-1.38c-0.91,0 -1.7,0.7 -1.7,0.7l-1.11,-1.45c0,0 1.1,-1.2 2.99,-1.2c1.8,0 3.46,1.17 3.46,3.13c0,2.75 -2.76,3.07 -2.76,4.86z" fill="#5485a8" id="svg_4" stroke="#ffffff"/>
 </g>
</svg>