<svg width="24" height="24" viewBox="0 0 24 24" fill="none" xmlns="http://www.w3.org/2000/svg">
<path d="M4.1334 2.3334L2.3334 4.1334C1.86673 4.60006 1.86673 5.40006 2.3334 5.9334L8.46673 12.0667L2.3334 18.2001C1.86673 18.6667 1.86673 19.4667 2.3334 20.0001L4.06673 21.7334C4.5334 22.2001 5.3334 22.2001 5.86673 21.7334L12.0001 15.6001L18.1334 21.7334C18.6001 22.2001 19.4001 22.2001 19.9334 21.7334L21.6667 20.0001C22.1334 19.5334 22.1334 18.7334 21.6667 18.2001L15.5334 12.0001L21.6667 5.86673C22.1334 5.40007 22.1334 4.60007 21.6667 4.06673L19.9334 2.3334C19.4667 1.86673 18.6667 1.86673 18.1334 2.3334L12.0001 8.46673L5.86673 2.3334C5.40007 1.86673 4.60006 1.86673 4.1334 2.3334Z" fill="white"/>
</svg>
