<svg width="24" height="24" viewBox="0 0 24 24" fill="none" xmlns="http://www.w3.org/2000/svg">
<g clip-path="url(#clip0_1108_7852)">
<g clip-path="url(#clip1_1108_7852)">
<path d="M16.5979 18.7496L16.0954 19.0346C15.5987 19.3201 15.0117 19.4054 14.4542 19.273C13.8967 19.1406 13.4107 18.8005 13.0954 18.3221C13.0237 18.2184 12.927 18.1346 12.8142 18.0782C12.7015 18.0218 12.5764 17.9948 12.4504 17.9996C12.2821 17.9933 12.1166 18.044 11.9805 18.1433C11.8445 18.2426 11.7458 18.3848 11.7004 18.5471C11.2096 20.0735 11.1913 21.7126 11.6479 23.2496H12.0004C13.7903 23.2461 15.5535 22.8155 17.1436 21.9938C18.7337 21.172 20.1048 19.9826 21.1429 18.5246C20.4235 18.1921 19.6343 18.0389 18.8428 18.0781C18.0512 18.1173 17.281 18.3477 16.5979 18.7496Z" fill="#5485A8"/>
<path d="M19.7775 12.045C19.7775 12.045 19.7775 12.045 19.7775 12H12.75V7.2525H14.4975C16.0225 7.25052 17.4846 6.64381 18.5629 5.56544C19.6413 4.48707 20.248 3.02505 20.25 1.5C20.25 1.30109 20.171 1.11032 20.0303 0.96967C19.8897 0.829018 19.6989 0.75 19.5 0.75H17.0025C15.9852 0.750513 14.9862 1.02081 14.1073 1.53334C13.2285 2.04587 12.5014 2.78228 12 3.6675C11.4986 2.78228 10.7715 2.04587 9.89265 1.53334C9.01385 1.02081 8.01484 0.750513 6.9975 0.75H4.5C4.30109 0.75 4.11032 0.829018 3.96967 0.96967C3.82902 1.11032 3.75 1.30109 3.75 1.5C3.75198 3.02505 4.35869 4.48707 5.43706 5.56544C6.51543 6.64381 7.97745 7.25052 9.5025 7.2525H11.25V12H8.4075C8.95688 12.7448 9.33854 13.5996 9.52627 14.5059C9.71399 15.4121 9.70332 16.3483 9.495 17.25L8.2875 22.575C8.86324 22.7799 9.45538 22.9355 10.0575 23.04C9.90446 22.3707 9.82647 21.6865 9.825 21C9.82833 20.0178 9.98004 19.0418 10.275 18.105C10.421 17.6417 10.7103 17.2367 11.1011 16.9483C11.492 16.6599 11.9643 16.5029 12.45 16.5C12.8219 16.495 13.1888 16.5855 13.5158 16.7627C13.8427 16.94 14.1188 17.1981 14.3175 17.5125C14.4226 17.6798 14.5895 17.7988 14.7819 17.8437C14.9743 17.8887 15.1766 17.8559 15.345 17.7525L15.8475 17.46C16.765 16.9183 17.803 16.6141 18.8677 16.5748C19.9324 16.5355 20.9901 16.7624 21.945 17.235C22.4456 16.2913 22.8093 15.2812 23.025 14.235H22.5525C21.9154 14.2191 21.3006 13.997 20.8003 13.6022C20.2999 13.2073 19.9411 12.661 19.7775 12.045Z" fill="#5485A8"/>
<path d="M21.375 11.9997C21.4997 12.2086 21.675 12.3827 21.8847 12.5059C22.0944 12.6291 22.3319 12.6975 22.575 12.7047H23.25C23.25 12.4647 23.2875 12.2322 23.2875 11.9922L21.375 11.9997Z" fill="#5485A8"/>
<path d="M6.855 12.4425C6.75 12.3 6.6225 12.15 6.5175 12H0.75C0.752752 14.0708 1.32699 16.1006 2.40947 17.8659C3.49194 19.6312 5.04065 21.0635 6.885 22.005L8.0325 16.9425C8.20749 16.1938 8.20645 15.4146 8.02947 14.6663C7.85248 13.9181 7.50438 13.221 7.0125 12.63L6.855 12.4425Z" fill="#5485A8"/>
</g>
</g>
<defs>
<clipPath id="clip0_1108_7852">
<rect width="24" height="24" fill="white"/>
</clipPath>
<clipPath id="clip1_1108_7852">
<rect width="24" height="24" fill="white"/>
</clipPath>
</defs>
</svg>
