<svg width="20" height="20" viewBox="0 0 20 20" fill="none" xmlns="http://www.w3.org/2000/svg">
<g clip-path="url(#clip0_1_585)">
<g clip-path="url(#clip1_1_585)">
<path d="M4 11.7143V16H8.28571L15.7857 8.5L11.5 4.21429L4 11.7143ZM14.7143 1L12.5714 3.14286L16.8571 7.42857L19 5.28571L14.7143 1Z" fill="#737373"/>
<path d="M17.4912 19.6822H0.760603C0.357746 19.6822 0.0313721 19.3556 0.0313721 18.9527V1.21143C0.0313721 0.80857 0.357526 0.482197 0.760603 0.482197H11.9942C12.3975 0.482197 12.7232 0.80857 12.7232 1.21143C12.7232 1.61406 12.3975 1.94066 11.9942 1.94066H1.48983V18.2233H17.4912C18.0608 18.2233 18.5243 17.76 18.5243 17.1901V8.04132C18.5243 7.63846 18.8505 7.31209 19.2534 7.31209C19.656 7.31209 19.9826 7.63846 19.9826 8.04132V17.1901C19.9828 18.5642 18.865 19.6822 17.4912 19.6822Z" fill="#737373"/>
</g>
</g>
<defs>
<clipPath id="clip0_1_585">
<rect width="20" height="20" fill="white"/>
</clipPath>
<clipPath id="clip1_1_585">
<rect width="20" height="20" fill="white"/>
</clipPath>
</defs>
</svg>
