<svg width="20" height="20" viewBox="0 0 20 20" fill="none" xmlns="http://www.w3.org/2000/svg">
<g clip-path="url(#clip0_4_8041)">
<path d="M17.6012 17.6011C18.3334 16.8688 18.3334 15.6903 18.3334 13.3333C18.3334 10.9763 18.3334 9.79784 17.6012 9.06559M17.6012 17.6011C16.8689 18.3333 15.6904 18.3333 13.3334 18.3333H6.66675C4.30972 18.3333 3.13121 18.3333 2.39898 17.6011M17.6012 9.06559C16.8689 8.33334 15.6904 8.33334 13.3334 8.33334H6.66675C4.30972 8.33334 3.13121 8.33334 2.39898 9.06559M2.39898 9.06559C1.66675 9.79784 1.66675 10.9763 1.66675 13.3333C1.66675 15.6903 1.66675 16.8688 2.39898 17.6011" stroke="#737373" stroke-width="1.5"/>
<path d="M17.5 17.5L2.5 9.16666" stroke="#737373" stroke-width="1.5" stroke-linecap="round"/>
<path d="M2.91675 17.5L10.0001 13.3333" stroke="#737373" stroke-width="1.5" stroke-linecap="round"/>
<path d="M14.1667 6.66666C15.5475 6.66666 16.6667 5.54738 16.6667 4.16666C16.6667 2.78595 15.5475 1.66666 14.1667 1.66666C12.786 1.66666 11.6667 2.78595 11.6667 4.16666C11.6667 5.54738 12.786 6.66666 14.1667 6.66666Z" stroke="#737373" stroke-width="1.5"/>
<path d="M14.1667 10.8333V6.66666" stroke="#737373" stroke-width="1.5" stroke-linecap="round"/>
</g>
<defs>
<clipPath id="clip0_4_8041">
<rect width="20" height="20" fill="white"/>
</clipPath>
</defs>
</svg>
