<svg width="20" height="20" viewBox="0 0 20 20" fill="none" xmlns="http://www.w3.org/2000/svg">
<path fill-rule="evenodd" clip-rule="evenodd" d="M5 6.66666C5 3.90523 7.23858 1.66666 10 1.66666C12.7614 1.66666 15 3.90523 15 6.66666C15 9.42807 12.7614 11.6667 10 11.6667C7.23858 11.6667 5 9.42807 5 6.66666Z" fill="white"/>
<path fill-rule="evenodd" clip-rule="evenodd" d="M4.52578 14.0854C5.87989 13.5178 7.68608 13.3333 10 13.3333C12.3092 13.3333 14.1126 13.517 15.4655 14.0818C16.9177 14.6879 17.809 15.7178 18.2842 17.2156C18.4607 17.7723 18.0432 18.3333 17.466 18.3333H2.52882C1.95401 18.3333 1.53899 17.7748 1.71408 17.2212C2.18781 15.7234 3.07599 14.6932 4.52578 14.0854Z" fill="white"/>
</svg>
