<svg width="8" height="10" viewBox="0 0 8 10" fill="none" xmlns="http://www.w3.org/2000/svg">
<path d="M1.84529 8.29555C1.89921 8.32359 1.95976 8.33643 2.02042 8.33267C2.08108 8.32891 2.13958 8.3087 2.18963 8.27421L6.52296 5.27421C6.56724 5.24354 6.60342 5.20258 6.62842 5.15487C6.65341 5.10715 6.66646 5.05408 6.66646 5.00021C6.66646 4.94635 6.65341 4.89328 6.62842 4.84556C6.60342 4.79784 6.56724 4.75689 6.52296 4.72621L2.18963 1.72621C2.13962 1.69161 2.0811 1.67135 2.0204 1.66762C1.9597 1.66389 1.89914 1.67684 1.84527 1.70506C1.7914 1.73328 1.74628 1.7757 1.71479 1.82773C1.6833 1.87975 1.66665 1.9394 1.66663 2.00021V8.00021C1.66662 8.06106 1.68326 8.12075 1.71476 8.17281C1.74625 8.22487 1.79139 8.26731 1.84529 8.29555Z" fill="white"/>
</svg>
