<svg width="28" height="28" viewBox="0 0 28 28" fill="none" xmlns="http://www.w3.org/2000/svg">
<g clip-path="url(#clip0_960_8576)">
<path fill-rule="evenodd" clip-rule="evenodd" d="M3.91165 9.80674L1.02637 12.7202C0.626628 13.124 0.626628 13.7804 1.02637 14.1842C1.4261 14.5879 2.07593 14.5879 2.47567 14.1842L5.35994 11.2728C6.36646 11.9975 7.59744 12.4241 8.92683 12.4241C12.3205 12.4241 15.0766 9.64109 15.0766 6.21204C15.0766 2.78403 12.3205 0 8.92683 0C5.53213 0 2.77701 2.78403 2.77701 6.21204C2.77701 7.55177 3.19725 8.79211 3.91165 9.80674Z" fill="#999999"/>
<path fill-rule="evenodd" clip-rule="evenodd" d="M21.1504 25.9343L19.1004 25.9333V13.504C19.1004 12.9325 18.6413 12.4687 18.0755 12.4687H13.9756C13.4098 12.4687 12.9506 12.9325 12.9506 13.504V25.9312H10.9007V17.6578C10.9007 17.0863 10.4415 16.6225 9.87572 16.6225H5.77584C5.21006 16.6225 4.75087 17.0863 4.75087 17.6578V25.9292H3.7751C3.20932 25.9281 2.75013 25.4653 2.75013 24.8938V17.6454C2.75013 17.0739 2.29095 16.6101 1.72516 16.6101C1.15938 16.6101 0.700195 17.0739 0.700195 17.6454V24.8938C0.700195 26.6083 2.07673 27.9988 3.77408 27.9998C9.15517 28.0009 26.2752 27.9988 26.2752 27.9988C26.841 27.9988 27.3002 27.535 27.3002 26.9635V8.32733C27.3002 7.75582 26.841 7.29199 26.2752 7.29199H22.1754C21.6096 7.29199 21.1504 7.75582 21.1504 8.32733V25.9343Z" fill="#999999"/>
</g>
<defs>
<clipPath id="clip0_960_8576">
<rect width="28" height="28" fill="white"/>
</clipPath>
</defs>
</svg>
