<svg width="24" height="24" viewBox="0 0 24 24" fill="none" xmlns="http://www.w3.org/2000/svg">
<g clip-path="url(#clip0_794_8587)">
<path d="M24.5938 6.48267C24.5938 6.01958 24.3256 5.58893 23.9031 5.38581L12.5281 -0.131049C12.195 -0.293557 11.805 -0.293557 11.4719 -0.131049L0.0968506 5.38581C-0.325609 5.58894 -0.59375 6.01958 -0.59375 6.48267C-0.59375 6.9458 -0.325609 7.37645 0.0968587 7.57958L3.52563 9.24519L0.0968587 10.9027C-0.325609 11.1058 -0.59375 11.5364 -0.59375 11.9996C-0.59375 12.4627 -0.325609 12.8933 0.0887743 13.0964L3.5175 14.762L0.0968587 16.4196C-0.325609 16.6227 -0.59375 17.0533 -0.59375 17.5164C-0.59375 17.9796 -0.325609 18.4102 0.0968587 18.6133L11.4719 24.1302C11.6344 24.2114 11.8213 24.252 12 24.252C12.1787 24.252 12.3656 24.2114 12.5281 24.1302L23.9031 18.6133C24.3256 18.4102 24.5938 17.9796 24.5938 17.5164C24.5938 17.0533 24.3256 16.6227 23.9031 16.4196L20.4825 14.762L23.9112 13.0964C24.3256 12.8933 24.5938 12.4627 24.5938 11.9996C24.5938 11.5364 24.3256 11.1058 23.9031 10.9027L20.4744 9.24518L23.9031 7.57958C24.3256 7.37645 24.5938 6.9458 24.5938 6.48267ZM20.58 17.5164L12 21.6764L3.42 17.5164L6.3125 16.1108L11.4719 18.6133C11.6344 18.6946 11.8213 18.7352 12 18.7352C12.1787 18.7352 12.3656 18.6946 12.5281 18.6133L17.6875 16.1108L20.58 17.5164ZM12 10.6427L3.42 6.48267L12 2.32267L20.58 6.48267L12 10.6427Z" fill="#5485A8"/>
</g>
<defs>
<clipPath id="clip0_794_8587">
<rect width="24" height="24" fill="white"/>
</clipPath>
</defs>
</svg>
