<svg width="8" height="10" viewBox="0 0 8 10" fill="none" xmlns="http://www.w3.org/2000/svg">
<path d="M6.15467 8.29555C6.10075 8.32359 6.0402 8.33643 5.97954 8.33267C5.91888 8.32891 5.86038 8.3087 5.81033 8.27421L1.477 5.27421C1.43272 5.24354 1.39654 5.20258 1.37154 5.15487C1.34655 5.10715 1.3335 5.05408 1.3335 5.00021C1.3335 4.94635 1.34655 4.89328 1.37154 4.84556C1.39654 4.79784 1.43272 4.75689 1.477 4.72621L5.81033 1.72621C5.86034 1.69161 5.91886 1.67135 5.97956 1.66762C6.04026 1.66389 6.10082 1.67684 6.15469 1.70506C6.20856 1.73328 6.25368 1.7757 6.28517 1.82773C6.31666 1.87975 6.33331 1.9394 6.33333 2.00021V8.00021C6.33334 8.06106 6.3167 8.12075 6.2852 8.17281C6.25371 8.22487 6.20857 8.26731 6.15467 8.29555Z" fill="white"/>
</svg>
