<svg width="22" height="13" viewBox="0 0 22 13" fill="none" xmlns="http://www.w3.org/2000/svg">
<path d="M1 9.80694L4.48757 6.28714C5.04037 5.72907 5.94939 5.75368 6.47143 6.34046L11.047 11.4847C11.8775 12.4183 13.3142 12.4842 14.2264 11.6303C15.1102 10.803 15.1694 9.42053 14.3597 8.52088L10.5587 4.29742" stroke="#999B9C" stroke-width="0.6" stroke-linecap="round" stroke-linejoin="round"/>
<path d="M21.0001 8.64248L16.3375 4.18437C15.8096 3.67961 14.9774 3.68137 14.4515 4.18876L9.12744 9.32652" stroke="#999B9C" stroke-width="0.6" stroke-linecap="round" stroke-linejoin="round"/>
<path d="M8.40852 3.29556C9.04242 3.29556 9.5563 2.78168 9.5563 2.14778C9.5563 1.51388 9.04242 1 8.40852 1C7.77462 1 7.26074 1.51388 7.26074 2.14778C7.26074 2.78168 7.77462 3.29556 8.40852 3.29556Z" stroke="#999B9C" stroke-width="0.6" stroke-linecap="round" stroke-linejoin="round"/>
</svg>
