<svg width="20" height="20" viewBox="0 0 20 20" fill="none" xmlns="http://www.w3.org/2000/svg">
<g clip-path="url(#clip0_1_609)">
<g clip-path="url(#clip1_1_609)">
<mask id="mask0_1_609" style="mask-type:luminance" maskUnits="userSpaceOnUse" x="0" y="0" width="20" height="20">
<path d="M20 0H0V20H20V0Z" fill="white"/>
</mask>
<g mask="url(#mask0_1_609)">
<path d="M8.97003 3.0723C10.7516 1.29076 11.6423 0.399994 12.7485 0.399994C13.8546 0.399994 14.7485 1.29076 16.5277 3.0723C18.3069 4.85384 19.2 5.74461 19.2 6.85153C19.2 7.95846 18.3093 8.85153 16.5277 10.63L12.0546 15.1031L4.49695 7.54538L8.97003 3.0723Z" fill="#737373"/>
<path d="M3.36615 8.67615L10.9238 16.2338L10.2315 16.9261C9.82846 17.3292 9.47154 17.6861 9.14692 17.9985H19.2C19.3051 17.9985 19.4091 18.0191 19.5061 18.0594C19.6032 18.0996 19.6914 18.1585 19.7657 18.2328C19.84 18.3071 19.8989 18.3952 19.9391 18.4923C19.9793 18.5894 20 18.6934 20 18.7985C20 18.9035 19.9793 19.0075 19.9391 19.1046C19.8989 19.2017 19.84 19.2899 19.7657 19.3641C19.6914 19.4384 19.6032 19.4974 19.5061 19.5376C19.4091 19.5778 19.3051 19.5985 19.2 19.5985H6.4C5.31615 19.5715 4.42615 18.68 2.67231 16.9261C0.890769 15.1469 0 14.2561 0 13.1492C0 12.0423 0.890769 11.1492 2.67231 9.37076L3.36615 8.67615Z" fill="#737373"/>
</g>
</g>
</g>
<defs>
<clipPath id="clip0_1_609">
<rect width="20" height="20" fill="white"/>
</clipPath>
<clipPath id="clip1_1_609">
<rect width="20" height="20" fill="white"/>
</clipPath>
</defs>
</svg>
