<svg width="24" height="24" viewBox="0 0 24 24" fill="none" xmlns="http://www.w3.org/2000/svg">
<g clip-path="url(#clip0_1108_6404)">
<g clip-path="url(#clip1_1108_6404)">
<path d="M17.077 12.8877C17.0171 12.8462 16.968 12.791 16.9338 12.7267C16.8996 12.6624 16.8813 12.5908 16.8804 12.5179V3.41052C16.8804 2.50599 16.5211 1.63851 15.8815 0.998917C15.2419 0.359321 14.3744 0 13.4699 0C12.5654 0 11.6979 0.359321 11.0583 0.998917C10.4187 1.63851 10.0594 2.50599 10.0594 3.41052V12.5179C10.0604 12.5863 10.0452 12.654 10.015 12.7154C9.98476 12.7768 9.94038 12.8301 9.88551 12.871C8.83941 13.6266 8.05766 14.6923 7.65103 15.917C7.24441 17.1418 7.23353 18.4634 7.61995 19.6946C8.00637 20.9259 8.77048 22.0043 9.804 22.777C10.8375 23.5498 12.088 23.9776 13.3783 24H13.4699C14.2764 23.9999 15.075 23.841 15.8201 23.5322C16.5652 23.2235 17.2422 22.7711 17.8125 22.2007C18.3827 21.6303 18.835 20.9532 19.1436 20.2081C19.4521 19.4629 19.6109 18.6643 19.6108 17.8577C19.609 16.8884 19.3786 15.9332 18.9383 15.0697C18.4981 14.2062 17.8604 13.4586 17.077 12.8877ZM16.9352 21.3759C16.4505 21.8543 15.872 22.2273 15.2362 22.4715C14.6003 22.7156 13.9209 22.8255 13.2405 22.7944C12.5601 22.7633 11.8935 22.5918 11.2826 22.2906C10.6717 21.9895 10.1297 21.5652 9.69063 21.0445C9.25157 20.5238 8.92497 19.918 8.73134 19.265C8.53772 18.612 8.48125 17.926 8.5655 17.2501C8.64974 16.5743 8.87288 15.9231 9.22088 15.3377C9.56889 14.7522 10.0342 14.245 10.5877 13.848C10.7971 13.6953 10.9674 13.4952 11.0846 13.264C11.2018 13.0328 11.2625 12.7771 11.2618 12.5179V3.41052C11.2618 3.12071 11.3188 2.83375 11.4297 2.56601C11.5406 2.29827 11.7032 2.05499 11.9081 1.85007C12.113 1.64515 12.3563 1.4826 12.624 1.37169C12.8918 1.26079 13.1788 1.20371 13.4686 1.20371C13.7584 1.20371 14.0453 1.26079 14.3131 1.37169C14.5808 1.4826 14.8241 1.64515 15.029 1.85007C15.2339 2.05499 15.3965 2.29827 15.5074 2.56601C15.6183 2.83375 15.6754 3.12071 15.6754 3.41052V12.5179C15.6772 12.7805 15.7409 13.039 15.8613 13.2724C15.9816 13.5058 16.1553 13.7076 16.3682 13.8614C16.9981 14.3206 17.5108 14.9218 17.8649 15.6163C18.2189 16.3107 18.4042 17.0789 18.4058 17.8584C18.4081 18.5132 18.2791 19.1619 18.0266 19.766C17.774 20.3702 17.4029 20.9176 16.9352 21.3759Z" fill="#5485A8"/>
<path d="M14.2714 14.7587V7.75781H12.6664V14.7587C11.9078 14.9541 11.2465 15.4195 10.8065 16.0677C10.3665 16.7158 10.178 17.5022 10.2765 18.2794C10.375 19.0566 10.7536 19.7712 11.3413 20.2892C11.929 20.8071 12.6855 21.0929 13.4689 21.0929C14.2523 21.0929 15.0088 20.8071 15.5965 20.2892C16.1843 19.7712 16.5629 19.0566 16.6613 18.2794C16.7598 17.5022 16.5713 16.7158 16.1313 16.0677C15.6914 15.4195 15.03 14.9541 14.2714 14.7587Z" fill="#5485A8"/>
<path d="M22.0189 1.25586H18.8311V2.32583H22.0189V1.25586Z" fill="#5485A8"/>
<path d="M23.9716 4.03613H18.8311V5.1061H23.9716V4.03613Z" fill="#5485A8"/>
<path d="M22.0189 6.81543H18.8311V7.8854H22.0189V6.81543Z" fill="#5485A8"/>
<path d="M23.9716 9.59473H18.8311V10.6647H23.9716V9.59473Z" fill="#5485A8"/>
<path d="M8.26281 7.35113C8.26281 6.84156 7.44562 6.4985 7.25972 6.05514C7.06913 5.59572 7.39346 4.7772 7.05107 4.43146C6.70869 4.08573 5.88615 4.41274 5.42673 4.22282C4.98403 4.03892 4.64031 3.21973 4.13141 3.21973C3.6225 3.21973 3.27878 4.03691 2.83541 4.22282C2.37666 4.41274 1.55747 4.08506 1.21174 4.43146C0.866003 4.77786 1.19301 5.59572 1.00309 6.05514C0.819192 6.4985 0 6.84156 0 7.35113C0 7.8607 0.817186 8.20376 1.00309 8.64646C1.19569 9.10588 0.86801 9.92373 1.21441 10.2701C1.56081 10.6165 2.37934 10.2889 2.83808 10.4788C3.28145 10.6627 3.62451 11.4819 4.13408 11.4819C4.64365 11.4819 4.98671 10.6647 5.42941 10.4788C5.88882 10.2889 6.70735 10.6165 7.05375 10.2701C7.40015 9.92373 7.0718 9.10588 7.26239 8.64646C7.44562 8.20376 8.26281 7.86003 8.26281 7.35113ZM4.13408 9.06508C3.79493 9.06508 3.4634 8.96451 3.18142 8.77607C2.89944 8.58764 2.67967 8.31981 2.54991 8.00647C2.42016 7.69312 2.38624 7.34833 2.45245 7.01571C2.51867 6.68309 2.68204 6.37757 2.9219 6.13781C3.16176 5.89804 3.46734 5.73479 3.79998 5.66871C4.13263 5.60262 4.47741 5.63667 4.7907 5.76655C5.10399 5.89643 5.37174 6.1163 5.56006 6.39836C5.74838 6.68041 5.84883 7.01198 5.8487 7.35113C5.8487 7.57627 5.80435 7.7992 5.71817 8.00719C5.63199 8.21518 5.50568 8.40415 5.34646 8.56331C5.18723 8.72248 4.99821 8.84871 4.79019 8.93481C4.58216 9.0209 4.35922 9.06517 4.13408 9.06508Z" fill="#5485A8"/>
</g>
</g>
<defs>
<clipPath id="clip0_1108_6404">
<rect width="24" height="24" fill="white"/>
</clipPath>
<clipPath id="clip1_1108_6404">
<rect width="24" height="24" fill="white"/>
</clipPath>
</defs>
</svg>
