<svg width="20" height="20" viewBox="0 0 20 20" fill="none" xmlns="http://www.w3.org/2000/svg">
<path d="M17 3.39978C17 2.6267 16.3734 2 15.6004 2H10.3996C9.62666 2 9.00003 2.62671 9.00003 3.39978V4.99338L9 4.99947L9.00003 5.00558V7.39432L9 7.40041L9.00003 7.4065V9.9924L9 9.99848L9.00003 10.0046V12.5935C9.00001 12.5955 9 12.5976 9 12.5996C9 12.6016 9.00001 12.6037 9.00003 12.6057V14.9931L9 14.9992L9.00003 15.0053V16.6002C9.00003 17.3733 9.62666 18 10.3996 18H15.6004C16.3734 18 17 17.3733 17 16.6002V3.39978ZM10.1997 13.1995H13.1989C13.5302 13.1995 13.7987 12.9309 13.7987 12.5996C13.7987 12.2683 13.5302 11.9997 13.1989 11.9997H10.1997V10.5984H12.399C12.7304 10.5984 12.9989 10.3298 12.9989 9.99848C12.9989 9.66717 12.7304 9.39857 12.399 9.39857H10.1997V8.00031H13.1989C13.5302 8.00031 13.7987 7.73173 13.7987 7.40041C13.7987 7.0691 13.5302 6.80051 13.1989 6.80051H10.1997V5.59938H12.399C12.7304 5.59938 12.9989 5.3308 12.9989 4.99947C12.9989 4.66816 12.7304 4.39957 12.399 4.39957H10.1997V3.39978C10.1997 3.28934 10.2892 3.19981 10.3996 3.19981H15.6004C15.7108 3.19981 15.8003 3.28934 15.8003 3.39978V16.6002C15.8003 16.7107 15.7108 16.8002 15.6004 16.8002H10.3996C10.2892 16.8002 10.1997 16.7107 10.1997 16.6002V15.5991H12.399C12.7304 15.5991 12.9989 15.3305 12.9989 14.9992C12.9989 14.6679 12.7304 14.3993 12.399 14.3993H10.1997V13.1995Z" fill="#737373"/>
<line x1="6.5" y1="2.5" x2="2.5" y2="2.5" stroke="#737373" stroke-linecap="round"/>
<line x1="6.5" y1="17.5" x2="2.5" y2="17.5" stroke="#737373" stroke-linecap="round"/>
<line x1="4.5" y1="2.5" x2="4.5" y2="17.5" stroke="#737373" stroke-linecap="round"/>
</svg>
