<svg width="20" height="20" viewBox="0 0 20 20" fill="none" xmlns="http://www.w3.org/2000/svg">
<g clip-path="url(#clip0_57_4180)">
<path d="M17.6012 17.6011C18.3334 16.8689 18.3334 15.6904 18.3334 13.3334C18.3334 10.9764 18.3334 9.79787 17.6012 9.06562M17.6012 17.6011C16.8689 18.3334 15.6904 18.3334 13.3334 18.3334H6.66675C4.30972 18.3334 3.13121 18.3334 2.39898 17.6011M17.6012 9.06562C16.8689 8.33337 15.6904 8.33337 13.3334 8.33337H6.66675C4.30972 8.33337 3.13121 8.33337 2.39898 9.06562M2.39898 9.06562C1.66675 9.79787 1.66675 10.9764 1.66675 13.3334C1.66675 15.6904 1.66675 16.8689 2.39898 17.6011" stroke="#5B89FF" stroke-width="1.5"/>
<path d="M17.5 17.5L2.5 9.16663" stroke="#5B89FF" stroke-width="1.5" stroke-linecap="round"/>
<path d="M2.91675 17.5L10.0001 13.3334" stroke="#5B89FF" stroke-width="1.5" stroke-linecap="round"/>
<path d="M14.1667 6.66663C15.5475 6.66663 16.6667 5.54734 16.6667 4.16663C16.6667 2.78591 15.5475 1.66663 14.1667 1.66663C12.786 1.66663 11.6667 2.78591 11.6667 4.16663C11.6667 5.54734 12.786 6.66663 14.1667 6.66663Z" stroke="#5B89FF" stroke-width="1.5"/>
<path d="M14.1667 10.8333V6.66663" stroke="#5B89FF" stroke-width="1.5" stroke-linecap="round"/>
</g>
<defs>
<clipPath id="clip0_57_4180">
<rect width="20" height="20" fill="white"/>
</clipPath>
</defs>
</svg>
