<svg width="20" height="20" viewBox="0 0 20 20" fill="none" xmlns="http://www.w3.org/2000/svg">
<g clip-path="url(#clip0_1284_10386)">
<mask id="mask0_1284_10386" style="mask-type:luminance" maskUnits="userSpaceOnUse" x="0" y="0" width="20" height="20">
<path d="M20 0H0V20H20V0Z" fill="white"/>
</mask>
<g mask="url(#mask0_1284_10386)">
<path d="M6.50023 2.18985C5.12223 2.18985 3.99023 3.32185 3.99023 4.69985C3.99023 5.50385 4.37723 6.22245 4.97223 6.68305L2.96323 10.8343C2.81058 10.8049 2.65549 10.79 2.50003 10.7897C1.12223 10.7899 -0.00976562 11.9219 -0.00976562 13.2999C-0.00976562 14.6779 1.12223 15.8099 2.50023 15.8099C3.52623 15.8099 4.40823 15.1797 4.79283 14.2893L15.0482 15.8313C15.2946 16.9571 16.3044 17.8101 17.5002 17.8101C18.8314 17.8101 19.923 16.7507 19.9962 15.4367C20.0053 15.3917 20.01 15.3458 20.0102 15.2999C20.0102 15.2529 20.0054 15.206 19.996 15.1599C19.921 13.8475 18.8302 12.7899 17.5002 12.7899C17.4734 12.7899 17.4474 12.7929 17.421 12.7937L16.0486 8.60985C16.7036 8.18445 17.1504 7.46065 17.1962 6.63645C17.2053 6.59142 17.21 6.5456 17.2102 6.49965C17.2102 6.45262 17.2054 6.40572 17.196 6.35965C17.121 5.04725 16.0302 3.98965 14.7002 3.98965C13.6878 3.98965 12.8098 4.60165 12.4142 5.47265L8.99783 4.56925C8.99718 4.56611 8.99652 4.56298 8.99583 4.55985C8.92103 3.24725 7.83023 2.18985 6.50023 2.18985ZM6.50023 3.58985C7.12163 3.58985 7.61023 4.07845 7.61023 4.69985C7.61023 5.32125 7.12163 5.80985 6.50023 5.80985C5.87883 5.80985 5.39023 5.32125 5.39023 4.69985C5.39023 4.07845 5.87883 3.58985 6.50023 3.58985ZM14.7002 5.38985C15.3216 5.38985 15.8102 5.87845 15.8102 6.49985C15.8102 7.12125 15.3216 7.60985 14.7002 7.60985C14.0788 7.60985 13.5902 7.12125 13.5902 6.49985C13.5902 5.87845 14.0788 5.38985 14.7002 5.38985ZM8.67283 5.93145L12.2206 6.86945C12.4016 8.07385 13.448 9.00985 14.7002 9.00985L14.7068 9.00945L16.0908 13.2279C15.661 13.5228 15.3325 13.9428 15.1498 14.4309L4.96663 12.9001C4.87724 12.3546 4.61114 11.8536 4.20923 11.4741L6.27763 7.19845C6.35123 7.20505 6.42503 7.20985 6.50023 7.20985C7.43063 7.20985 8.24223 6.69165 8.67283 5.93145ZM2.50023 12.1899C3.12163 12.1899 3.61023 12.6787 3.61023 13.3001C3.61023 13.9215 3.12163 14.4101 2.50023 14.4101C1.87883 14.4101 1.39023 13.9215 1.39023 13.3001C1.39023 12.6787 1.87883 12.1899 2.50023 12.1899ZM17.5002 14.1899C18.1216 14.1899 18.6102 14.6787 18.6102 15.3001C18.6102 15.9215 18.1216 16.4101 17.5002 16.4101C16.8788 16.4101 16.3902 15.9215 16.3902 15.3001C16.3902 14.6787 16.8788 14.1899 17.5002 14.1899Z" fill="white"/>
</g>
</g>
<defs>
<clipPath id="clip0_1284_10386">
<rect width="20" height="20" fill="white"/>
</clipPath>
</defs>
</svg>
