<svg width="30" height="30" viewBox="0 0 20 20" fill="none" xmlns="http://www.w3.org/2000/svg">
<g clip-path="url(#clip0_57_4044)">
<g clip-path="url(#clip1_57_4044)">
<path d="M18.4615 0H1.53846C1.13044 0 0.739122 0.162087 0.450605 0.450605C0.162087 0.739122 0 1.13044 0 1.53846V18.4615C0 18.8696 0.162087 19.2609 0.450605 19.5494C0.739122 19.8379 1.13044 20 1.53846 20H18.4615C18.8696 20 19.2609 19.8379 19.5494 19.5494C19.8379 19.2609 20 18.8696 20 18.4615V1.53846C20 1.13044 19.8379 0.739122 19.5494 0.450605C19.2609 0.162087 18.8696 0 18.4615 0ZM4.61538 13.8462H1.53846V10.7692H4.61538V13.8462ZM6.15385 15.3846H9.23077V18.4615H6.15385V15.3846ZM10.7692 15.3846H13.8462V18.4615H10.7692V15.3846ZM10.7692 9.23077V6.15385H13.8462V9.23077H10.7692ZM13.8462 4.61538H10.7692V1.53846H13.8462V4.61538ZM15.3846 6.15385H18.4615V9.23077H15.3846V6.15385ZM9.23077 1.53846V9.23077H1.53846V1.53846H9.23077ZM15.3846 18.4615V10.7692H18.4615V18.4615H15.3846Z" fill="white"/>
</g>
</g>
<defs>
<clipPath id="clip0_57_4044">
<rect width="20" height="20" fill="white"/>
</clipPath>
<clipPath id="clip1_57_4044">
<rect width="20" height="20" fill="white"/>
</clipPath>
</defs>
</svg>
