<svg width="20" height="20" viewBox="0 0 20 20" fill="none" xmlns="http://www.w3.org/2000/svg">
<g clip-path="url(#clip0_1_598)">
<g clip-path="url(#clip1_1_598)">
<mask id="mask0_1_598" style="mask-type:luminance" maskUnits="userSpaceOnUse" x="0" y="0" width="20" height="20">
<path d="M20 0H0V20H20V0Z" fill="white"/>
</mask>
<g mask="url(#mask0_1_598)">
<path d="M19.3723 17.8946L16.6669 15.2023V4.86077L15.3892 2.51077C15.295 2.33144 15.1536 2.18127 14.9803 2.0765C14.807 1.97173 14.6083 1.91635 14.4057 1.91635C14.2032 1.91635 14.0045 1.97173 13.8312 2.0765C13.6578 2.18127 13.5164 2.33144 13.4223 2.51077L12.2223 4.86616V10.7831L2.06073 0.672311C1.98305 0.593866 1.88375 0.540352 1.77551 0.518604C1.66727 0.496856 1.55501 0.507859 1.45305 0.55021C1.3511 0.59256 1.26408 0.664336 1.20311 0.756372C1.14213 0.848408 1.10997 0.956528 1.11073 1.06693V5.55539H2.31688V6.44462H1.11073V10H2.31688V10.8892H1.11073V14.5815H2.31688V15.4708H1.11073V18.2877C1.11073 18.435 1.16924 18.5763 1.2734 18.6804C1.37755 18.7846 1.51882 18.8431 1.66612 18.8431H18.9738C19.0842 18.8438 19.1923 18.8117 19.2844 18.7507C19.3764 18.6897 19.4482 18.6027 19.4905 18.5008C19.5329 18.3988 19.5439 18.2865 19.5221 18.1783C19.5004 18.0701 19.4469 17.9708 19.3684 17.8931L19.3723 17.8946ZM5.55535 14.4446V9.41077L10.5946 14.4439L5.55535 14.4446ZM15.5553 15.6169H13.333V14.2669H15.5553V15.6169ZM15.5553 13.3946H13.333V5.13923L14.41 3.04462L15.5546 5.14462L15.5553 13.3946Z" fill="#737373"/>
</g>
</g>
</g>
<defs>
<clipPath id="clip0_1_598">
<rect width="20" height="20" fill="white"/>
</clipPath>
<clipPath id="clip1_1_598">
<rect width="20" height="20" fill="white"/>
</clipPath>
</defs>
</svg>
