<svg width="20" height="20" viewBox="0 0 20 20" fill="none" xmlns="http://www.w3.org/2000/svg">
<path d="M17.185 8.6675C17.185 10.6916 16.4517 12.5236 15.2695 13.9906L19.5761 18.2972C19.9407 18.6446 19.9413 19.2279 19.5779 19.5761C19.4097 19.761 19.155 19.85 18.9375 19.85C18.7157 19.85 18.4791 19.758 18.298 19.577L13.9906 15.2695M17.185 8.6675C17.185 8.66762 17.185 8.66773 17.185 8.66785L17.085 8.6675H17.185ZM17.185 8.6675C17.2013 3.98071 13.3699 0.15 8.6675 0.15C3.96465 0.15 0.15 3.98115 0.15 8.6675C0.15 13.354 3.98102 17.185 8.6675 17.185C10.6916 17.185 12.5236 16.4517 13.9906 15.2695M13.9906 15.2695L13.9268 15.2057L13.9975 15.135L14.061 15.2122C14.0376 15.2315 14.0142 15.2506 13.9906 15.2695ZM1.975 8.6675C1.975 4.98523 4.98523 1.975 8.6675 1.975C12.3498 1.975 15.36 4.98523 15.36 8.6675C15.36 12.3498 12.3498 15.36 8.6675 15.36C4.98507 15.36 1.975 12.3659 1.975 8.6675Z" fill="white" stroke="white" stroke-width="0.2"/>
</svg>
