<svg width="32" height="32" viewBox="0 0 32 32" fill="none" xmlns="http://www.w3.org/2000/svg">
<g clip-path="url(#clip0_1254_7447)">
<path d="M29.6995 2.767C29.5925 2.317 29.1885 2 28.7275 2C28.7255 2 28.7235 2 28.7215 2C23.4545 2.033 10.6465 2.916 5.47553 10.38C2.78953 14.258 2.55853 19.293 4.78853 25.345C4.80553 25.392 4.84053 25.424 4.86353 25.467C4.06653 27.44 3.75753 28.753 3.74953 28.79C3.63353 29.33 3.97853 29.862 4.51853 29.978C4.58853 29.993 4.65853 30 4.72853 30C5.18953 30 5.60453 29.679 5.70553 29.21C5.72653 29.108 8.27453 18.837 17.2825 12.832C17.7425 12.526 17.8665 11.905 17.5595 11.445C17.2525 10.985 16.6325 10.86 16.1725 11.168C11.0645 14.573 7.91853 19.176 6.06853 22.824C4.74453 18.246 5.09153 14.447 7.12053 11.519C11.1135 5.755 20.5845 4.365 26.3015 4.071C25.0715 5.872 23.7275 9.174 23.7275 15C23.7275 18.12 22.8425 20.522 21.0985 22.14C18.3025 24.731 13.7605 24.974 10.4385 24.724C9.88653 24.679 9.40753 25.095 9.36553 25.646C9.32353 26.196 9.73653 26.676 10.2865 26.718C10.9515 26.769 11.6615 26.8 12.3995 26.8C15.7815 26.8 19.7265 26.137 22.4575 23.606C24.6275 21.595 25.7275 18.7 25.7275 15.001C25.7275 5.902 29.1575 3.905 29.1745 3.896C29.5905 3.687 29.8085 3.219 29.6995 2.767Z" fill="#999999"/>
</g>
<defs>
<clipPath id="clip0_1254_7447">
<rect width="32" height="32" fill="white"/>
</clipPath>
</defs>
</svg>
