<svg width="24" height="24" viewBox="0 0 24 24" fill="none" xmlns="http://www.w3.org/2000/svg">
<g clip-path="url(#clip0_1108_7278)">
<g clip-path="url(#clip1_1108_7278)">
<path d="M7.9998 0C6.23249 0 4.7998 1.43269 4.7998 3.2V4.8C4.7998 6.56731 6.23249 8 7.9998 8C9.76712 8 11.1998 6.56731 11.1998 4.8V3.2C11.1998 1.43269 9.76712 0 7.9998 0Z" fill="white"/>
<path d="M15.9998 0C14.2325 0 12.7998 1.43269 12.7998 3.2V4.8C12.7998 6.56731 14.2325 8 15.9998 8C17.7672 8 19.1998 6.56731 19.1998 4.8V3.2C19.1998 1.43269 17.7672 0 15.9998 0Z" fill="white"/>
<path d="M3.2 8C1.43269 8 0 9.43269 0 11.2V12C0 13.7673 1.43269 15.2 3.2 15.2C4.96731 15.2 6.4 13.7673 6.4 12V11.2C6.4 9.43269 4.96731 8 3.2 8Z" fill="white"/>
<path d="M20.7996 8C19.0322 8 17.5996 9.43269 17.5996 11.2V12C17.5996 13.7673 19.0322 15.2 20.7996 15.2C22.567 15.2 23.9996 13.7673 23.9996 12V11.2C23.9996 9.43269 22.567 8 20.7996 8Z" fill="white"/>
<path d="M15.3807 12.4459C13.629 10.3188 10.3716 10.3188 8.61993 12.4459L3.95139 18.1148C2.01854 20.4618 3.68808 23.9996 6.72856 23.9996C7.16299 23.9996 7.59145 23.8985 7.98001 23.7042L8.55548 23.4164C10.724 22.3321 13.2766 22.3321 15.4451 23.4164L16.0206 23.7042C16.4091 23.8985 16.8376 23.9996 17.272 23.9996C20.3125 23.9996 21.9821 20.4618 20.0493 18.1148L15.3807 12.4459Z" fill="white"/>
</g>
</g>
<defs>
<clipPath id="clip0_1108_7278">
<rect width="24" height="24" fill="white"/>
</clipPath>
<clipPath id="clip1_1108_7278">
<rect width="24" height="24" fill="white"/>
</clipPath>
</defs>
</svg>
