<svg width="22" height="13" viewBox="0 0 22 13" fill="none" xmlns="http://www.w3.org/2000/svg">
<path d="M3.70703 6.45776C3.70703 6.45776 6.49317 1.63037 9.37551 3.66468C9.65125 3.85942 9.89293 4.09845 10.1016 4.36394C10.6782 5.09759 12.8533 7.59311 15.3316 6.97485C15.6394 6.89815 15.9294 6.76226 16.1922 6.58472L17.077 5.98696L19.4624 8.43487C19.4624 8.43487 18.1128 11.6049 13.2167 11.3222C13.2167 11.3222 10.8626 11.1965 9.79573 9.69024C9.79573 9.69024 6.90545 5.76709 3.70703 6.45743V6.45776Z" stroke="#999B9C" stroke-width="0.6" stroke-linecap="round" stroke-linejoin="round"/>
<path d="M11.0474 5.3965C11.6117 5.48709 12.4604 5.498 13.3739 4.85693C13.3739 4.85693 15.1001 3.66438 17.0775 5.98666" stroke="#999B9C" stroke-width="0.6" stroke-linecap="round" stroke-linejoin="round"/>
<path d="M7.52042 2.49298C8.07076 2.49298 8.51691 2.04684 8.51691 1.49649C8.51691 0.946144 8.07076 0.5 7.52042 0.5C6.97007 0.5 6.52393 0.946144 6.52393 1.49649C6.52393 2.04684 6.97007 2.49298 7.52042 2.49298Z" stroke="#999B9C" stroke-width="0.6" stroke-linecap="round" stroke-linejoin="round"/>
<path d="M1.44747 9.09414C1.44747 9.09414 3.19546 6.187 5.73562 7.37194C6.16939 7.57428 6.55489 7.86688 6.87659 8.2213C7.56692 8.98173 9.53907 11.0696 10.9416 11.707H2.51471C2.51471 11.707 0.00398157 11.4875 1.44747 9.09414Z" stroke="#999B9C" stroke-width="0.6" stroke-linecap="round" stroke-linejoin="round"/>
<path d="M16.7867 11.4637C16.7867 11.4637 18.6699 10.6633 19.7527 9.12556C19.8125 8.97248 20.5254 8.47622 20.9568 10.0939C21.0253 10.3508 21.013 10.6243 20.9122 10.8702C20.7274 11.3202 20.2076 11.8733 18.7691 11.872C18.7192 11.872 18.6693 11.8743 18.6193 11.878C18.1353 11.9133 15.5849 12.0291 16.787 11.4637H16.7867Z" stroke="#999B9C" stroke-width="0.6" stroke-linecap="round" stroke-linejoin="round"/>
</svg>
