<svg width="20" height="20" viewBox="0 0 20 20" fill="none" xmlns="http://www.w3.org/2000/svg">
<path d="M17 10C17 14.4183 13.4183 18 9 18C4.58172 18 1 14.4183 1 10C1 5.58172 4.58172 2 9 2C13.4183 2 17 5.58172 17 10ZM2.2187 10C2.2187 13.7452 5.25479 16.7813 9 16.7813C12.7452 16.7813 15.7813 13.7452 15.7813 10C15.7813 6.25479 12.7452 3.2187 9 3.2187C5.25479 3.2187 2.2187 6.25479 2.2187 10Z" fill="#5B89FF"/>
<circle cx="9" cy="10" r="2" fill="#5B89FF"/>
<line x1="16" y1="10" x2="10" y2="10" stroke="#5B89FF"/>
<rect x="15.5" y="8.5" width="3" height="2.97273" rx="0.5" fill="white" stroke="#5B89FF"/>
</svg>
