<svg width="20" height="20" viewBox="0 0 20 20" fill="none" xmlns="http://www.w3.org/2000/svg">
<g clip-path="url(#clip0_4_7912)">
<mask id="mask0_4_7912" style="mask-type:luminance" maskUnits="userSpaceOnUse" x="0" y="0" width="20" height="20">
<path d="M20 0H0V20H20V0Z" fill="white"/>
</mask>
<g mask="url(#mask0_4_7912)">
<path fill-rule="evenodd" clip-rule="evenodd" d="M0.242374 1.21385C-0.00590601 1.9681 -0.0885551 2.76704 6.64182e-05 3.55615V4.23846L19.9885 2.42077C20.0006 2.00644 19.9218 1.5945 19.7578 1.21385C19.5447 0.795506 19.2046 0.455399 18.7862 0.242307C18.032 -0.00597307 17.233 -0.0886218 16.4439 -2.79397e-07H3.55545C2.76634 -0.0886218 1.9674 -0.00597307 1.21314 0.242307C0.79509 0.45553 0.455266 0.795623 0.242374 1.21385ZM20.0001 4.65154L14.5947 5.14308L17.3793 19.9946C17.8603 20.0222 18.3413 19.9415 18.787 19.7585C19.205 19.5455 19.5448 19.2057 19.7578 18.7877C20.006 18.0334 20.0887 17.2345 20.0001 16.4454V4.65154ZM15.1193 20L12.3716 5.34461L6.64182e-05 6.46923V16.4446C-0.0885551 17.2337 -0.00590601 18.0327 0.242374 18.7869C0.455397 19.2049 0.795207 19.5447 1.21314 19.7577C1.9674 20.006 2.76634 20.0886 3.55545 20H15.1193ZM10.5555 13.3662C10.5555 15.7646 8.17776 17.4492 7.14083 18.07C6.9977 18.1563 6.83374 18.2019 6.6666 18.2019C6.49947 18.2019 6.33551 18.1563 6.19237 18.07C5.15545 17.4492 2.77776 15.7623 2.77776 13.3662C2.77143 12.8521 2.86745 12.3419 3.06024 11.8652C3.25303 11.3886 3.53873 10.9551 3.90069 10.59C4.26266 10.2249 4.69365 9.93546 5.16858 9.73855C5.64351 9.54164 6.15286 9.4412 6.66699 9.44308C7.18263 9.43559 7.69449 9.53221 8.17192 9.72715C8.64935 9.92209 9.08254 10.2114 9.44558 10.5776C9.80861 10.9439 10.094 11.3796 10.2847 11.8588C10.4754 12.3379 10.5675 12.8506 10.5555 13.3662Z" fill="#737373"/>
<path d="M6.66619 14.4438C7.27965 14.4438 7.77696 13.9465 7.77696 13.3331C7.77696 12.7196 7.27965 12.2223 6.66619 12.2223C6.05273 12.2223 5.55542 12.7196 5.55542 13.3331C5.55542 13.9465 6.05273 14.4438 6.66619 14.4438Z" fill="#737373"/>
</g>
</g>
<defs>
<clipPath id="clip0_4_7912">
<rect width="20" height="20" fill="white"/>
</clipPath>
</defs>
</svg>
