<svg width="20" height="20" viewBox="0 0 20 20" fill="none" xmlns="http://www.w3.org/2000/svg">
<g clip-path="url(#clip0_4_7973)">
<path d="M1.25 6.25H8.125" stroke="#737373" stroke-width="1.5" stroke-linecap="round" stroke-linejoin="round"/>
<path d="M11.875 6.25H18.75" stroke="#737373" stroke-width="1.5" stroke-linecap="round" stroke-linejoin="round"/>
<path d="M10 8.125C11.0355 8.125 11.875 7.28553 11.875 6.25C11.875 5.21447 11.0355 4.375 10 4.375C8.96447 4.375 8.125 5.21447 8.125 6.25C8.125 7.28553 8.96447 8.125 10 8.125Z" stroke="#737373" stroke-width="1.5" stroke-linecap="round" stroke-linejoin="round"/>
<path d="M3.125 15.625C4.16053 15.625 5 14.7855 5 13.75C5 12.7145 4.16053 11.875 3.125 11.875C2.08947 11.875 1.25 12.7145 1.25 13.75C1.25 14.7855 2.08947 15.625 3.125 15.625Z" stroke="#737373" stroke-width="1.5" stroke-linecap="round" stroke-linejoin="round"/>
<path d="M16.875 15.625C17.9105 15.625 18.75 14.7855 18.75 13.75C18.75 12.7145 17.9105 11.875 16.875 11.875C15.8395 11.875 15 12.7145 15 13.75C15 14.7855 15.8395 15.625 16.875 15.625Z" stroke="#737373" stroke-width="1.5" stroke-linecap="round" stroke-linejoin="round"/>
<path d="M11.8594 6.50781C13.0967 6.85518 14.2121 7.54203 15.0792 8.49059C15.9463 9.43915 16.5305 10.6115 16.7656 11.875" stroke="#737373" stroke-width="1.5" stroke-linecap="round" stroke-linejoin="round"/>
<path d="M3.23438 11.875C3.46954 10.6115 4.05374 9.43915 4.92084 8.49059C5.78794 7.54203 6.9033 6.85518 8.14062 6.50781" stroke="#737373" stroke-width="1.5" stroke-linecap="round" stroke-linejoin="round"/>
</g>
<defs>
<clipPath id="clip0_4_7973">
<rect width="20" height="20" fill="white"/>
</clipPath>
</defs>
</svg>
