<svg width="24" height="24" viewBox="0 0 24 24" fill="none" xmlns="http://www.w3.org/2000/svg">
<path fill-rule="evenodd" clip-rule="evenodd" d="M8.00098 5.999C8.00098 3.791 9.79198 2 12 2H17.499C19.983 2 21.999 4.016 21.999 6.5V17.501C21.999 19.985 19.983 22.001 17.499 22.001H12C9.79198 22.001 8.00098 20.21 8.00098 18.002V17.003C8.00098 16.451 8.44798 16.004 8.99998 16.004C9.55198 16.004 9.99898 16.451 9.99898 17.003V17.999C9.99898 19.103 10.893 20 12 20H17.499C18.879 20 19.998 18.881 19.998 17.501V6.5C19.998 5.12 18.879 4.001 17.499 4.001H12C10.896 4.001 9.99898 4.895 9.99898 6.002V7.001C9.99898 7.553 9.55198 8 8.99998 8C8.44798 8 8.00098 7.553 8.00098 7.001V5.999Z" fill="#666666"/>
<path fill-rule="evenodd" clip-rule="evenodd" d="M12.294 8.2925C12.684 7.9025 13.317 7.9025 13.707 8.2925L16.707 11.2925C17.097 11.6825 17.097 12.3155 16.707 12.7055L13.707 15.7055C13.317 16.0955 12.684 16.0955 12.294 15.7055C11.904 15.3155 11.904 14.6825 12.294 14.2925L13.587 12.9995H5.00095C4.44895 12.9995 4.00195 12.5525 4.00195 12.0005C4.00195 11.4485 4.44895 11.0015 5.00095 11.0015H13.587L12.294 9.7085C11.901 9.3185 11.901 8.6825 12.294 8.2925Z" fill="#0082E5"/>
</svg>
