<svg width="20" height="20" viewBox="0 0 20 20" fill="none" xmlns="http://www.w3.org/2000/svg">
<path d="M14.1665 18.3333H4.1665C3.50346 18.3333 2.86758 18.0699 2.39874 17.6011C1.9299 17.1323 1.6665 16.4964 1.6665 15.8333V5.83334C1.6665 5.17029 1.9299 4.53441 2.39874 4.06557C2.86758 3.59673 3.50346 3.33334 4.1665 3.33334H7.49984C7.72085 3.33334 7.93281 3.42113 8.08909 3.57741C8.24537 3.73369 8.33317 3.94566 8.33317 4.16667C8.33317 4.38768 8.24537 4.59964 8.08909 4.75592C7.93281 4.9122 7.72085 5 7.49984 5H4.1665C3.94549 5 3.73353 5.0878 3.57725 5.24408C3.42097 5.40036 3.33317 5.61232 3.33317 5.83334V15.8333C3.33317 16.0543 3.42097 16.2663 3.57725 16.4226C3.73353 16.5789 3.94549 16.6667 4.1665 16.6667H14.1665C14.3875 16.6667 14.5995 16.5789 14.7558 16.4226C14.912 16.2663 14.9998 16.0543 14.9998 15.8333V12.5C14.9998 12.279 15.0876 12.067 15.2439 11.9107C15.4002 11.7545 15.6122 11.6667 15.8332 11.6667C16.0542 11.6667 16.2661 11.7545 16.4224 11.9107C16.5787 12.067 16.6665 12.279 16.6665 12.5V15.8333C16.6665 16.4964 16.4031 17.1323 15.9343 17.6011C15.4654 18.0699 14.8295 18.3333 14.1665 18.3333Z" fill="#737373"/>
<path d="M12.1667 4.89166L8.04172 9.05833C7.98545 9.10851 7.94736 9.1759 7.93339 9.25L7.10005 12.4333C7.07986 12.5035 7.07928 12.5779 7.09838 12.6485C7.11748 12.719 7.15552 12.7829 7.20839 12.8333C7.24902 12.8659 7.29575 12.8901 7.34583 12.9044C7.39591 12.9187 7.44834 12.9229 7.50005 12.9167C7.53579 12.9241 7.57266 12.9241 7.60839 12.9167L10.7917 12.0833C10.8658 12.0694 10.9332 12.0313 10.9834 11.975L15.1084 7.83333L12.1667 4.89166Z" fill="#737373"/>
<path d="M17.5002 3.70834L16.2918 2.5C16.055 2.26741 15.7363 2.1371 15.4043 2.1371C15.0724 2.1371 14.7537 2.26741 14.5168 2.5L13.3335 3.70834L16.2918 6.66667L17.5002 5.48334C17.7328 5.24649 17.8631 4.92779 17.8631 4.59584C17.8631 4.26388 17.7328 3.94519 17.5002 3.70834Z" fill="#737373"/>
</svg>
