<svg width="20" height="20" viewBox="0 0 20 20" fill="none" xmlns="http://www.w3.org/2000/svg">
<g clip-path="url(#clip0_4_7948)">
<path d="M6.49999 2.19C5.12199 2.19 3.98999 3.322 3.98999 4.7C3.98999 5.504 4.37699 6.2226 4.97199 6.6832L2.96299 10.8344C2.81034 10.805 2.65525 10.7901 2.49979 10.7898C1.12199 10.79 -0.0100098 11.922 -0.0100098 13.3C-0.0100098 14.678 1.12199 15.81 2.49999 15.81C3.52599 15.81 4.40799 15.1798 4.79259 14.2894L15.048 15.8314C15.2944 16.9572 16.3042 17.8102 17.5 17.8102C18.8312 17.8102 19.9228 16.7508 19.996 15.4368C20.0051 15.3918 20.0098 15.3459 20.01 15.3C20.01 15.253 20.0052 15.2061 19.9958 15.16C19.9208 13.8476 18.83 12.79 17.5 12.79C17.4732 12.79 17.4472 12.793 17.4208 12.7938L16.0484 8.61C16.7034 8.1846 17.1502 7.4608 17.196 6.6366C17.2051 6.59157 17.2098 6.54575 17.21 6.4998C17.21 6.45277 17.2052 6.40587 17.1958 6.3598C17.1208 5.0474 16.03 3.9898 14.7 3.9898C13.6876 3.9898 12.8096 4.6018 12.414 5.4728L8.99759 4.5694C8.99694 4.56626 8.99628 4.56313 8.99559 4.56C8.92079 3.2474 7.82999 2.1896 6.49999 2.1896V2.19ZM6.49999 3.59C7.12139 3.59 7.60999 4.0786 7.60999 4.7C7.60999 5.3214 7.12139 5.81 6.49999 5.81C5.87859 5.81 5.38999 5.3214 5.38999 4.7C5.38999 4.0786 5.87859 3.59 6.49999 3.59ZM14.7 5.39C15.3214 5.39 15.81 5.8786 15.81 6.5C15.81 7.1214 15.3214 7.61 14.7 7.61C14.0786 7.61 13.59 7.1214 13.59 6.5C13.59 5.8786 14.0786 5.39 14.7 5.39ZM8.67259 5.9316L12.2204 6.8696C12.4014 8.074 13.4478 9.01 14.7 9.01L14.7066 9.0096L16.0906 13.228C15.6608 13.5229 15.3323 13.9429 15.1496 14.431L4.96639 12.9002C4.877 12.3547 4.6109 11.8537 4.20899 11.4742L6.27739 7.1986C6.35099 7.2052 6.42479 7.21 6.49999 7.21C7.43039 7.21 8.24199 6.6916 8.67259 5.9314V5.9316ZM2.49999 12.19C3.12139 12.19 3.60999 12.6788 3.60999 13.3002C3.60999 13.9216 3.12139 14.4102 2.49999 14.4102C1.87859 14.4102 1.38999 13.9216 1.38999 13.3002C1.38999 12.6788 1.87859 12.19 2.49999 12.19ZM17.5 14.19C18.1214 14.19 18.61 14.6788 18.61 15.3002C18.61 15.9216 18.1214 16.4102 17.5 16.4102C16.8786 16.4102 16.39 15.9216 16.39 15.3002C16.39 14.6788 16.8786 14.19 17.5 14.19Z" fill="#737373"/>
</g>
<defs>
<clipPath id="clip0_4_7948">
<rect width="20" height="20" fill="white"/>
</clipPath>
</defs>
</svg>
