<svg width="22" height="13" viewBox="0 0 22 13" fill="none" xmlns="http://www.w3.org/2000/svg">
<path d="M2.54004 8.53499C2.54004 8.53499 3.10256 8.08503 3.57674 7.18483C3.60757 7.12649 3.63344 7.06595 3.65738 7.00457C3.84067 6.53232 4.88947 4.13418 8.35459 5.66597" stroke="#999B9C" stroke-width="0.6" stroke-linecap="round" stroke-linejoin="round"/>
<path d="M7.91162 6.92366C7.91162 6.92366 9.67982 1.03205 11.2934 2.8473C11.2934 2.8473 11.7752 3.49294 12.1881 4.34993C12.329 4.64247 12.4963 5.04125 12.5943 5.37287C12.6611 5.59936 12.8342 5.87457 13.6103 5.27985C13.806 5.12986 14.0206 5.00519 14.251 4.91768C14.8011 4.70852 15.6757 4.57835 16.1744 5.54983C16.1744 5.54983 16.7779 6.63992 18.2751 7.5825" stroke="#999B9C" stroke-width="0.6" stroke-linecap="round" stroke-linejoin="round"/>
<path d="M8.35938 7.70057C19.5069 5.38196 20.9743 9.65096 20.9743 9.65096C21.2432 11.2375 19.3071 10.4039 19.3071 10.4039C14.832 8.18549 10.6532 8.07073 7.49552 8.56334C7.49552 8.56334 7.38406 8.21493 7.86622 7.89982C7.99061 7.81864 8.2138 7.73084 8.35911 7.70085L8.35938 7.70057Z" stroke="#999B9C" stroke-width="0.6" stroke-linecap="round" stroke-linejoin="round"/>
<path d="M7.49588 8.56333L7.17967 8.61535C4.23497 9.12255 2.2411 10.1367 1.82692 10.3599C1.76059 10.3957 1.69041 10.4229 1.61693 10.4405C1.33154 10.509 0.709577 10.5872 1.15706 9.81249C1.30512 9.556 1.49969 9.32978 1.72289 9.13521C2.67097 8.30931 5.81602 6.17564 12.2209 7.11107" stroke="#999B9C" stroke-width="0.6" stroke-linecap="round" stroke-linejoin="round"/>
</svg>
