<?xml version="1.0" encoding="utf-8"?>
<!-- Generator: Adobe Illustrator 27.9.0, SVG Export Plug-In . SVG Version: 6.00 Build 0)  -->
<svg version="1.1" id="레이어_1" xmlns="http://www.w3.org/2000/svg" xmlns:xlink="http://www.w3.org/1999/xlink" x="0px"
	 y="0px" viewBox="0 0 20 20" style="enable-background:new 0 0 20 20;" xml:space="preserve">
<style type="text/css">
	.st0{fill:none;stroke:#737373;stroke-dasharray:1.5,1.5;}
	.st1{fill:#737373;}
	.st2{fill:#FFFFFF;}
</style>
<rect x="9.5" y="0.5" class="st0" width="10" height="19"/>
<rect y="0" class="st1" width="10" height="20"/>
<path class="st2" d="M6.7,20l-1,0l0,1h1V20z M6.7,18.7L6,18l-0.3,0.3l0,0.4L6.7,18.7z M9.7,15.9l0.7,0.7l0,0l0,0L9.7,15.9z
	 M9.6,12.8l0,1h0h0L9.6,12.8z M8.3,14.1v1h1l0-1L8.3,14.1z M6.6,14.1l-1,0l0,1h1V14.1z M10.4,17.2l-0.7-0.7l0,0l0,0L10.4,17.2z
	 M9.1,18.5l-0.7-0.7l-0.3,0.3v0.4H9.1z M9.1,18.5h-1v1h1V18.5z M12.7,18.5h1v-1h-1V18.5z M12.7,20v1h1v-1H12.7z M7.7,20l0-1.3l-2,0
	l0,1.3L7.7,20z M7.3,19.5l3-2.8L9,15.2L6,18L7.3,19.5z M10.4,16.6c0.7-0.7,1.5-1.5,1.5-2.6h-2c0,0.1,0,0.2-0.1,0.3
	c-0.1,0.2-0.4,0.4-0.8,0.8L10.4,16.6z M11.9,14c0-0.6-0.3-1.2-0.7-1.6c-0.5-0.4-1-0.6-1.6-0.6l0,2c0.2,0,0.3,0.1,0.3,0.1
	c0,0,0,0,0,0c0,0,0,0,0,0.1H11.9z M9.6,11.8c-0.6,0-1.2,0.2-1.7,0.6c-0.5,0.4-0.7,1.1-0.7,1.7l2,0c0-0.2,0.1-0.2,0.1-0.2
	c0,0,0.1-0.1,0.2-0.1L9.6,11.8z M8.3,13.1H6.6v2h1.7V13.1z M7.6,14.1c0-0.6,0.2-1,0.5-1.2c0.3-0.3,0.8-0.5,1.5-0.5v-2
	c-1.1,0-2.1,0.3-2.8,1C6,12.1,5.6,13,5.6,14.1L7.6,14.1z M9.6,12.4c0.7,0,1.2,0.2,1.6,0.5c0.3,0.3,0.5,0.6,0.5,1h2
	c0-1-0.4-1.9-1.2-2.6c-0.7-0.6-1.7-0.9-2.8-0.9V12.4z M11.6,13.9c0,0.5-0.1,1-1.9,2.6l1.3,1.5c1.8-1.6,2.5-2.6,2.5-4.1H11.6z
	 M9.7,16.5l-1.3,1.3l1.4,1.4l1.3-1.3L9.7,16.5z M8.1,18.5L8.1,18.5l2,0v0H8.1z M9.1,19.5h3.6v-2H9.1V19.5z M11.7,18.5V20h2v-1.5
	H11.7z M12.7,19H6.7v2h6.1V19z"/>
<path class="st1" d="M6.7,20l0-1.3l3-2.8c0.8-0.8,1.2-1.2,1.2-1.9c0-0.8-0.6-1.2-1.3-1.2c-0.8,0-1.3,0.5-1.3,1.3H6.6
	c0-1.7,1.2-2.7,3-2.7c1.8,0,3,1,3,2.5c0,1-0.5,1.8-2.2,3.3l-1.3,1.3v0h3.6V20H6.7z"/>
</svg>
