<svg width="16" height="17" viewBox="0 0 16 17" fill="none" xmlns="http://www.w3.org/2000/svg">
<g clip-path="url(#clip0_614_6755)">
<path fill-rule="evenodd" clip-rule="evenodd" d="M7.99999 2.90005C7.26459 2.90005 6.53638 3.0449 5.85696 3.32632C5.17754 3.60775 4.5602 4.02024 4.04019 4.54025C3.52018 5.06026 3.10769 5.6776 2.82626 6.35702C2.54484 7.03644 2.39999 7.76465 2.39999 8.50005C2.39999 9.23545 2.54484 9.96365 2.82626 10.6431C3.10769 11.3225 3.52018 11.9398 4.04019 12.4598C4.5602 12.9799 5.17754 13.3923 5.85696 13.6738C6.53638 13.9552 7.26459 14.1 7.99999 14.1C9.4852 14.1 10.9096 13.51 11.9598 12.4598C13.01 11.4096 13.6 9.98526 13.6 8.50005C13.6 7.01484 13.01 5.59045 11.9598 4.54025C10.9096 3.49005 9.4852 2.90005 7.99999 2.90005ZM0.799988 8.50005C0.799988 6.59049 1.55856 4.75914 2.90882 3.40888C4.25908 2.05862 6.09043 1.30005 7.99999 1.30005C9.90955 1.30005 11.7409 2.05862 13.0912 3.40888C14.4414 4.75914 15.2 6.59049 15.2 8.50005C15.2 10.4096 14.4414 12.241 13.0912 13.5912C11.7409 14.9415 9.90955 15.7 7.99999 15.7C6.09043 15.7 4.25908 14.9415 2.90882 13.5912C1.55856 12.241 0.799988 10.4096 0.799988 8.50005ZM7.19999 5.30005C7.19999 5.08788 7.28427 4.88439 7.4343 4.73436C7.58433 4.58433 7.78781 4.50005 7.99999 4.50005H8.00799C8.22016 4.50005 8.42364 4.58433 8.57367 4.73436C8.7237 4.88439 8.80799 5.08788 8.80799 5.30005C8.80799 5.51222 8.7237 5.7157 8.57367 5.86573C8.42364 6.01576 8.22016 6.10005 8.00799 6.10005H7.99999C7.78781 6.10005 7.58433 6.01576 7.4343 5.86573C7.28427 5.7157 7.19999 5.51222 7.19999 5.30005ZM7.20799 11.7C7.20799 11.9122 7.29227 12.1157 7.4423 12.2657C7.59233 12.4158 7.79581 12.5 8.00799 12.5C8.22016 12.5 8.42364 12.4158 8.57367 12.2657C8.7237 12.1157 8.80799 11.9122 8.80799 11.7V7.70005C8.80799 7.48788 8.7237 7.28439 8.57367 7.13436C8.42364 6.98433 8.22016 6.90005 8.00799 6.90005C7.79581 6.90005 7.59233 6.98433 7.4423 7.13436C7.29227 7.28439 7.20799 7.48788 7.20799 7.70005V11.7Z" fill="white"/>
</g>
<defs>
<clipPath id="clip0_614_6755">
<rect width="16" height="16" fill="white" transform="translate(0 0.5)"/>
</clipPath>
</defs>
</svg>
