<svg width="21" height="21" viewBox="0 0 21 21" fill="none" xmlns="http://www.w3.org/2000/svg">
<g clip-path="url(#clip0_599_8041)">
<path d="M16.125 2.375H6.125C5.79348 2.375 5.47554 2.5067 5.24112 2.74112C5.0067 2.97554 4.875 3.29348 4.875 3.625V5.5H3.625C3.29348 5.5 2.97554 5.6317 2.74112 5.86612C2.5067 6.10054 2.375 6.41848 2.375 6.75V14.25C2.375 14.5815 2.5067 14.8995 2.74112 15.1339C2.97554 15.3683 3.29348 15.5 3.625 15.5H4.875V17.375C4.875 17.7065 5.0067 18.0245 5.24112 18.2589C5.47554 18.4933 5.79348 18.625 6.125 18.625H16.125C16.4565 18.625 16.7745 18.4933 17.0089 18.2589C17.2433 18.0245 17.375 17.7065 17.375 17.375V3.625C17.375 3.29348 17.2433 2.97554 17.0089 2.74112C16.7745 2.5067 16.4565 2.375 16.125 2.375ZM5.90625 12.875C5.77364 12.7755 5.68597 12.6275 5.66253 12.4634C5.63909 12.2993 5.68179 12.1326 5.78125 12L6.90625 10.5L5.78125 9C5.732 8.93434 5.69617 8.85962 5.6758 8.78011C5.65543 8.7006 5.65092 8.61786 5.66253 8.53661C5.67414 8.45536 5.70164 8.37719 5.74345 8.30657C5.78527 8.23594 5.84059 8.17425 5.90625 8.125C5.97191 8.07575 6.04663 8.03992 6.12614 8.01955C6.20565 7.99918 6.28839 7.99467 6.36964 8.00628C6.45089 8.01789 6.52906 8.04539 6.59968 8.0872C6.67031 8.12902 6.732 8.18434 6.78125 8.25L7.6875 9.46094L8.59375 8.25C8.69321 8.11739 8.84127 8.02972 9.00536 8.00628C9.16946 7.98284 9.33614 8.02554 9.46875 8.125C9.60136 8.22446 9.68903 8.37252 9.71247 8.53661C9.73591 8.70071 9.69321 8.86739 9.59375 9L8.46875 10.5L9.59375 12C9.69321 12.1326 9.73591 12.2993 9.71247 12.4634C9.68903 12.6275 9.60136 12.7755 9.46875 12.875C9.3614 12.9577 9.22926 13.0018 9.09375 13C8.99672 13 8.90103 12.9774 8.81424 12.934C8.72746 12.8906 8.65197 12.8276 8.59375 12.75L7.6875 11.5391L6.78125 12.75C6.72303 12.8276 6.64754 12.8906 6.56076 12.934C6.47397 12.9774 6.37828 13 6.28125 13C6.14574 13.0018 6.0136 12.9577 5.90625 12.875ZM10.5 17.375H6.125V15.5H10.5V17.375ZM10.5 5.5H6.125V3.625H10.5V5.5ZM16.125 17.375H11.75V15.5C12.0815 15.5 12.3995 15.3683 12.6339 15.1339C12.8683 14.8995 13 14.5815 13 14.25V13.625H16.125V17.375ZM16.125 12.375H13V8.625H16.125V12.375ZM16.125 7.375H13V6.75C13 6.41848 12.8683 6.10054 12.6339 5.86612C12.3995 5.6317 12.0815 5.5 11.75 5.5V3.625H16.125V7.375Z" fill="#0082E5"/>
</g>
<defs>
<clipPath id="clip0_599_8041">
<rect width="20" height="20" fill="white" transform="translate(0.5 0.5)"/>
</clipPath>
</defs>
</svg>
