<svg width="16" height="16" viewBox="0 0 16 16" fill="none" xmlns="http://www.w3.org/2000/svg">
<g clip-path="url(#clip0_16_3375)">
<path d="M2.50009 15C2.76531 15 3.01966 14.8946 3.2072 14.7071C3.39474 14.5196 3.50009 14.2652 3.50009 14L3.50009 8.5C3.50009 7.135 4.13509 6.5 5.50009 6.5L11.5401 6.5L10.5401 7L9.25509 8.285C9.06745 8.47264 8.96204 8.72714 8.96204 8.9925C8.96204 9.25786 9.06745 9.51236 9.25509 9.7C9.44273 9.88764 9.69723 9.99306 9.96259 9.99306C10.228 9.99306 10.4825 9.88764 10.6701 9.7L14.1701 6.2C14.2631 6.10713 14.3368 5.99684 14.3872 5.87544C14.4375 5.75404 14.4634 5.62392 14.4634 5.4925C14.4634 5.36108 14.4375 5.23096 14.3872 5.10956C14.3368 4.98816 14.2631 4.87787 14.1701 4.785L10.6701 1.285C10.5772 1.19209 10.4669 1.11839 10.3455 1.06811C10.2241 1.01782 10.094 0.991945 9.96259 0.991945C9.8312 0.991945 9.70109 1.01782 9.57969 1.06811C9.4583 1.11839 9.348 1.19209 9.25509 1.285C9.16218 1.37791 9.08848 1.48821 9.0382 1.6096C8.98792 1.731 8.96203 1.86111 8.96203 1.9925C8.96204 2.1239 8.98792 2.254 9.0382 2.3754C9.08848 2.49679 9.16218 2.60709 9.25509 2.7L10.6051 4L11.5751 4.5L5.50009 4.5C3.03509 4.5 1.50009 6.035 1.50009 8.5L1.50009 14C1.50009 14.2652 1.60545 14.5196 1.79299 14.7071C1.98052 14.8946 2.23488 15 2.50009 15Z" fill="white"/>
</g>
<defs>
<clipPath id="clip0_16_3375">
<rect width="16" height="16" fill="white" transform="translate(16 16) rotate(180)"/>
</clipPath>
</defs>
</svg>
