<svg width="20" height="20" viewBox="0 0 20 20" fill="none" xmlns="http://www.w3.org/2000/svg">
<g clip-path="url(#clip0_4_7960)">
<path fill-rule="evenodd" clip-rule="evenodd" d="M16.6667 2.22222C16.053 2.22222 15.5556 2.71969 15.5556 3.33333C15.5556 3.64047 15.6787 3.91672 15.881 4.11901C16.0833 4.3213 16.3596 4.44444 16.6667 4.44444C17.2803 4.44444 17.7778 3.94698 17.7778 3.33333C17.7778 2.71969 17.2803 2.22222 16.6667 2.22222ZM13.3333 3.33333C13.3333 1.49239 14.8257 0 16.6667 0C18.5077 0 20 1.49239 20 3.33333C20 5.17428 18.5077 6.66667 16.6667 6.66667C16.1524 6.66667 15.6649 6.54978 15.2298 6.3416L6.3416 15.2298C6.54978 15.6649 6.66667 16.1524 6.66667 16.6667C6.66667 18.5077 5.17428 20 3.33333 20C1.49239 20 0 18.5077 0 16.6667C0 14.8257 1.49239 13.3333 3.33333 13.3333C3.84753 13.3333 4.33508 13.4502 4.77026 13.6584L13.6584 4.77026C13.4502 4.33508 13.3333 3.84753 13.3333 3.33333ZM3.33333 15.5556C2.71969 15.5556 2.22222 16.053 2.22222 16.6667C2.22222 17.2803 2.71969 17.7778 3.33333 17.7778C3.94698 17.7778 4.44444 17.2803 4.44444 16.6667C4.44444 16.3596 4.3213 16.0833 4.11901 15.881C3.91672 15.6787 3.64047 15.5556 3.33333 15.5556Z" fill="#737373" stroke="white" stroke-width="0.6"/>
</g>
<defs>
<clipPath id="clip0_4_7960">
<rect width="20" height="20" fill="white"/>
</clipPath>
</defs>
</svg>
