<svg width="24" height="24" viewBox="0 0 24 24" fill="none" xmlns="http://www.w3.org/2000/svg">
<path fill-rule="evenodd" clip-rule="evenodd" d="M14.565 15.366C14.712 15.075 14.712 14.697 14.712 13.935V10.233H15.795C16.593 10.233 16.995 10.233 17.184 10.074C17.349 9.936 17.439 9.729 17.424 9.513C17.409 9.264 17.133 8.976 16.581 8.397L12.786 4.416C12.513 4.128 12.375 3.984 12.216 3.933C12.075 3.885 11.925 3.885 11.784 3.933C11.625 3.987 11.487 4.128 11.214 4.416L7.41598 8.397C6.86398 8.976 6.58798 9.267 6.57298 9.513C6.56098 9.726 6.64798 9.936 6.81298 10.074C7.00198 10.233 7.40098 10.233 8.20198 10.233H9.28498V13.935C9.28498 14.694 9.28498 15.075 9.43198 15.366C9.56098 15.621 9.76798 15.828 10.026 15.96C10.317 16.107 10.695 16.107 11.457 16.107H12.543C13.302 16.107 13.683 16.107 13.974 15.96C14.229 15.828 14.436 15.621 14.565 15.366ZM5.00098 19.104C5.00098 19.656 5.44798 20.103 5.99998 20.103H18C18.552 20.103 18.999 19.656 18.999 19.104C18.999 18.552 18.552 18.105 18 18.105H5.99998C5.44798 18.105 5.00098 18.552 5.00098 19.104Z" fill="white"/>
</svg>
