<svg width="20" height="20" viewBox="0 0 20 20" fill="none" xmlns="http://www.w3.org/2000/svg">
<g clip-path="url(#clip0_57_4015)">
<g clip-path="url(#clip1_57_4015)">
<mask id="mask0_57_4015" style="mask-type:luminance" maskUnits="userSpaceOnUse" x="0" y="0" width="20" height="20">
<path d="M20 0H0V20H20V0Z" fill="white"/>
</mask>
<g mask="url(#mask0_57_4015)">
<path d="M19.3724 17.8946L16.667 15.2023V4.86074L15.3893 2.51074C15.2952 2.33141 15.1538 2.18124 14.9804 2.07647C14.8071 1.9717 14.6084 1.91632 14.4059 1.91632C14.2033 1.91632 14.0046 1.9717 13.8313 2.07647C13.6579 2.18124 13.5165 2.33141 13.4224 2.51074L12.2224 4.86613V10.7831L2.06085 0.672281C1.98317 0.593835 1.88387 0.540322 1.77563 0.518574C1.66739 0.496825 1.55513 0.507829 1.45318 0.550179C1.35122 0.59253 1.2642 0.664306 1.20323 0.756342C1.14225 0.848378 1.11009 0.956498 1.11085 1.0669V5.55536H2.31701V6.44459H1.11085V9.99997H2.31701V10.8892H1.11085V14.5815H2.31701V15.4707H1.11085V18.2877C1.11085 18.435 1.16937 18.5762 1.27352 18.6804C1.37768 18.7845 1.51894 18.8431 1.66624 18.8431H18.9739C19.0843 18.8438 19.1924 18.8116 19.2845 18.7507C19.3765 18.6897 19.4483 18.6027 19.4906 18.5007C19.533 18.3988 19.544 18.2865 19.5223 18.1783C19.5005 18.07 19.447 17.9707 19.3685 17.8931L19.3724 17.8946ZM5.55547 14.4446V9.41074L10.5947 14.4438L5.55547 14.4446ZM15.5555 15.6169H13.3332V14.2669H15.5555V15.6169ZM15.5555 13.3946H13.3332V5.1392L14.4101 3.04459L15.5547 5.14459L15.5555 13.3946Z" fill="white"/>
</g>
</g>
</g>
<defs>
<clipPath id="clip0_57_4015">
<rect width="20" height="20" fill="white"/>
</clipPath>
<clipPath id="clip1_57_4015">
<rect width="20" height="20" fill="white"/>
</clipPath>
</defs>
</svg>
