<svg width="22" height="13" viewBox="0 0 22 13" fill="none" xmlns="http://www.w3.org/2000/svg">
<path d="M1 11.438L4.81008 8.00569C5.39664 7.47728 6.29712 7.51042 6.84331 8.08071L10.0554 11.4338" stroke="#999B9C" stroke-width="0.6" stroke-linecap="round" stroke-linejoin="round"/>
<path d="M21.0001 12.1339H11.3287C10.496 12.1339 9.82085 11.4588 9.82085 10.6261C9.82085 9.79339 10.496 9.11826 11.3287 9.11826H19.38C19.7128 9.11826 19.8942 8.72933 19.68 8.47446L15.5162 3.51445L15.1996 3.13727C14.6161 2.44195 13.5463 2.44195 12.9627 3.13727L7.89307 9.1764" stroke="#999B9C" stroke-width="0.6" stroke-linecap="round" stroke-linejoin="round"/>
<path d="M6.66653 3.72955C7.55835 3.72955 8.2813 3.00659 8.2813 2.11477C8.2813 1.22296 7.55835 0.5 6.66653 0.5C5.77472 0.5 5.05176 1.22296 5.05176 2.11477C5.05176 3.00659 5.77472 3.72955 6.66653 3.72955Z" stroke="#999B9C" stroke-width="0.6" stroke-linecap="round" stroke-linejoin="round"/>
<path d="M12.3804 4.87375L12.6491 4.80446C12.7262 4.78458 12.7967 4.74872 12.8543 4.69962L13.0413 4.54085C13.207 4.40047 13.4622 4.37817 13.6565 4.48753L13.7439 4.53664C13.9069 4.62822 14.116 4.62882 14.2795 4.53814L14.3669 4.48964C14.5615 4.37908 14.8179 4.40107 14.9842 4.54206L15.1698 4.69962C15.2273 4.74842 15.2978 4.78458 15.3749 4.80446L15.6437 4.87375" stroke="#999B9C" stroke-width="0.6" stroke-linecap="round" stroke-linejoin="round"/>
<path d="M4.21094 9.34601L4.45376 9.28335C4.52335 9.26527 4.58721 9.23304 4.63903 9.18875L4.80804 9.04535C4.95777 8.91852 5.18824 8.89833 5.36387 8.99715L5.44281 9.04143C5.58982 9.12398 5.77902 9.12458 5.92664 9.04294L6.00557 8.99925C6.1812 8.89954 6.41287 8.91912 6.5632 9.04655L6.73101 9.18875C6.78313 9.23304 6.84669 9.26527 6.91628 9.28335L7.1591 9.34601" stroke="#999B9C" stroke-width="0.6" stroke-linecap="round" stroke-linejoin="round"/>
<path d="M10.7363 10.6312L10.8954 10.589C11.0855 10.5384 11.297 10.5477 11.4768 10.6146L11.7989 10.7339C11.9869 10.8035 12.2089 10.8104 12.4047 10.7526L12.9319 10.5965C13.119 10.5411 13.3305 10.5447 13.5137 10.6068L14.078 10.7972C14.2617 10.8592 14.4741 10.8625 14.6615 10.8068L15.3659 10.5968C15.552 10.5414 15.7626 10.5444 15.9455 10.605L16.5326 10.7999C16.714 10.8601 16.9228 10.8634 17.1078 10.8095L17.8196 10.6013C18.0182 10.5432 18.2432 10.5516 18.4321 10.6242L18.8042 10.7673C19.0114 10.8469 19.2606 10.849 19.4703 10.7728L19.7944 10.655C20.0388 10.5661 20.3331 10.5845 20.5518 10.7023" stroke="#999B9C" stroke-width="0.6" stroke-linecap="round" stroke-linejoin="round"/>
</svg>
