<svg width="16" height="17" viewBox="0 0 16 17" fill="none" xmlns="http://www.w3.org/2000/svg">
<g clip-path="url(#clip0_614_6737)">
<path fill-rule="evenodd" clip-rule="evenodd" d="M0 8.5C0 4.72876 -9.53674e-08 2.84314 1.17158 1.67158C2.34314 0.5 4.22876 0.5 8 0.5C11.7712 0.5 13.6569 0.5 14.8284 1.67158C16 2.84314 16 4.72876 16 8.5C16 12.2712 16 14.1569 14.8284 15.3284C13.6569 16.5 11.7712 16.5 8 16.5C4.22876 16.5 2.34314 16.5 1.17158 15.3284C-9.53674e-08 14.1569 0 12.2712 0 8.5ZM8 3.9C8.33136 3.9 8.6 4.16863 8.6 4.5V8.65144L9.97576 7.27576C10.2101 7.04144 10.5899 7.04144 10.8242 7.27576C11.0586 7.51008 11.0586 7.88992 10.8242 8.12424L8.42424 10.5242C8.31176 10.6368 8.15912 10.7 8 10.7C7.84088 10.7 7.68824 10.6368 7.57576 10.5242L5.17574 8.12424C4.94142 7.88992 4.94142 7.51008 5.17574 7.27576C5.41005 7.04144 5.78995 7.04144 6.02426 7.27576L7.4 8.65144V4.5C7.4 4.16863 7.66864 3.9 8 3.9ZM4.8 11.9C4.46863 11.9 4.2 12.1686 4.2 12.5C4.2 12.8314 4.46863 13.1 4.8 13.1H11.2C11.5314 13.1 11.8 12.8314 11.8 12.5C11.8 12.1686 11.5314 11.9 11.2 11.9H4.8Z" fill="white"/>
</g>
<defs>
<clipPath id="clip0_614_6737">
<rect width="16" height="16" fill="white" transform="translate(0 0.5)"/>
</clipPath>
</defs>
</svg>
