<svg width="24" height="24" viewBox="0 0 24 24" fill="none" xmlns="http://www.w3.org/2000/svg">
<path d="M6.22542 4.81108C5.83489 4.42056 5.20173 4.42056 4.8112 4.81108C4.42068 5.20161 4.42068 5.83477 4.8112 6.2253L10.5859 12L4.81126 17.7747C4.42074 18.1652 4.42074 18.7984 4.81126 19.1889C5.20179 19.5794 5.83495 19.5794 6.22547 19.1889L12.0001 13.4142L17.7748 19.1889C18.1653 19.5794 18.7985 19.5794 19.189 19.1889C19.5795 18.7984 19.5795 18.1652 19.189 17.7747L13.4143 12L19.1891 6.2253C19.5796 5.83477 19.5796 5.20161 19.1891 4.81108C18.7986 4.42056 18.1654 4.42056 17.7749 4.81108L12.0001 10.5858L6.22542 4.81108Z" fill="#5B89FF"/>
</svg>
