<svg width="16" height="17" viewBox="0 0 16 17" fill="none" xmlns="http://www.w3.org/2000/svg">
<g clip-path="url(#clip0_560_6695)">
<path d="M0.194917 6.14245L7.78996 10.8709C7.85381 10.9112 7.92775 10.9314 8.00168 10.9314C8.07561 10.9314 8.14955 10.9112 8.2134 10.8709L15.8084 6.14245C15.9261 6.06851 16 5.94081 16 5.79966C16 5.66188 15.9294 5.53081 15.8084 5.45688L8.2134 0.72846C8.08234 0.647805 7.91767 0.647805 7.7866 0.72846L0.191556 5.45688C0.073934 5.53081 0 5.65852 0 5.79966C0.00336064 5.94081 0.0739341 6.06851 0.194917 6.14245ZM8.00168 1.5451L14.8339 5.79966L8.00168 10.0542L1.1695 5.79966L8.00168 1.5451Z" fill="white"/>
<path d="M15.5967 8.09839C15.4892 8.09839 15.385 8.14208 15.3111 8.21601C15.2371 8.28995 15.1935 8.39412 15.1935 8.50167C15.1935 8.60921 15.2371 8.71339 15.3111 8.78732C15.385 8.86125 15.4892 8.90494 15.5967 8.90494C15.7043 8.90494 15.8084 8.86125 15.8824 8.78732C15.9563 8.71339 16 8.60921 16 8.50167C16 8.39412 15.9563 8.28995 15.8824 8.21601C15.8084 8.14208 15.7043 8.09839 15.5967 8.09839Z" fill="white"/>
<path d="M14.1181 8.94846C13.9299 9.06608 13.8694 9.31477 13.9904 9.50297C14.0676 9.62395 14.1987 9.69452 14.3331 9.69452C14.4071 9.69452 14.481 9.67436 14.5449 9.63403C14.7331 9.51641 14.7902 9.26772 14.6726 9.07953C14.5549 8.88797 14.3063 8.83084 14.1181 8.94846Z" fill="white"/>
<path d="M10.3205 11.3112C10.1323 11.4288 10.0718 11.6775 10.1928 11.8657C10.2701 11.99 10.4012 12.0572 10.5356 12.0572C10.6095 12.0572 10.6835 12.0371 10.7473 11.9968C10.9355 11.8791 10.9926 11.6304 10.875 11.4423C10.7574 11.2541 10.5087 11.1936 10.3205 11.3112Z" fill="white"/>
<path d="M9.05355 12.1008C8.86535 12.2184 8.80822 12.4671 8.92584 12.6553C9.00314 12.7797 9.1342 12.8469 9.26863 12.8469C9.34256 12.8469 9.4165 12.8267 9.48035 12.7864C9.66854 12.6688 9.72567 12.4201 9.60805 12.2319C9.49043 12.0403 9.2451 11.9832 9.05355 12.1008Z" fill="white"/>
<path d="M11.5875 10.5246C11.3993 10.6423 11.3388 10.8909 11.4564 11.0791C11.5337 11.2035 11.6648 11.2707 11.7992 11.2707C11.8731 11.2707 11.9471 11.2505 12.0109 11.2102C12.1991 11.0926 12.2563 10.8439 12.1386 10.6557C12.0244 10.4641 11.7757 10.407 11.5875 10.5246Z" fill="white"/>
<path d="M12.8511 9.73826C12.6629 9.85588 12.6058 10.1046 12.7234 10.2928C12.8007 10.4137 12.9317 10.4843 13.0662 10.4843C13.1401 10.4843 13.214 10.4642 13.2779 10.4238C13.4661 10.3062 13.5232 10.0575 13.4056 9.86932C13.288 9.67777 13.0426 9.62063 12.8511 9.73826Z" fill="white"/>
<path d="M7.71601 12.9443C7.64208 13.0182 7.59839 13.1224 7.59839 13.2299C7.59839 13.3375 7.64208 13.4417 7.71601 13.5156C7.78995 13.5895 7.89412 13.6332 8.00167 13.6332C8.10921 13.6332 8.21339 13.5895 8.28732 13.5156C8.36125 13.4417 8.40494 13.3375 8.40494 13.2299C8.40494 13.1224 8.36125 13.0182 8.28732 12.9443C8.21339 12.8703 8.10921 12.8267 8.00167 12.8267C7.89412 12.8267 7.79331 12.8703 7.71601 12.9443Z" fill="white"/>
<path d="M6.39194 12.2286C6.27431 12.4168 6.33145 12.6655 6.51964 12.7831C6.58685 12.8234 6.66079 12.8436 6.73136 12.8436C6.86579 12.8436 6.99685 12.7764 7.07415 12.652C7.19177 12.4638 7.13464 12.2152 6.94308 12.0975C6.75825 11.9833 6.50956 12.0404 6.39194 12.2286Z" fill="white"/>
<path d="M1.33081 9.07629C1.21319 9.26448 1.27032 9.51317 1.45851 9.63079C1.52573 9.67112 1.59966 9.69128 1.67023 9.69128C1.80466 9.69128 1.93573 9.62407 2.01302 9.49973C2.13064 9.31153 2.07351 9.06284 1.88532 8.94522C1.69712 8.8276 1.44843 8.88809 1.33081 9.07629Z" fill="white"/>
<path d="M5.12833 11.4423C5.0107 11.6304 5.06783 11.8791 5.25603 11.9968C5.32324 12.0371 5.39718 12.0572 5.46775 12.0572C5.60218 12.0572 5.73324 11.99 5.81054 11.8657C5.92816 11.6775 5.87103 11.4288 5.68283 11.3112C5.49464 11.1936 5.24595 11.2541 5.12833 11.4423Z" fill="white"/>
<path d="M3.86139 10.6524C3.74377 10.8406 3.8009 11.0893 3.98909 11.2069C4.05631 11.2473 4.13024 11.2674 4.20081 11.2674C4.33524 11.2674 4.4663 11.2002 4.5436 11.0759C4.66122 10.8877 4.60409 10.639 4.41253 10.5214C4.2277 10.4071 3.97901 10.4642 3.86139 10.6524Z" fill="white"/>
<path d="M2.59442 9.86605C2.4768 10.0543 2.53393 10.3029 2.72213 10.4206C2.78934 10.4609 2.86327 10.4811 2.93385 10.4811C3.06827 10.4811 3.19934 10.4138 3.27663 10.2895C3.39425 10.1013 3.33712 9.85261 3.14893 9.73499C2.96073 9.62073 2.71204 9.67786 2.59442 9.86605Z" fill="white"/>
<path d="M0.406634 8.90494C0.514174 8.90494 0.618354 8.86125 0.692288 8.78732C0.766222 8.71339 0.80991 8.60921 0.80991 8.50167C0.80991 8.39412 0.766222 8.28995 0.692288 8.21601C0.618354 8.14208 0.514174 8.09839 0.406634 8.09839C0.299093 8.09839 0.194913 8.14208 0.120979 8.21601C0.0470452 8.28995 0.00335693 8.39412 0.00335693 8.50167C0.00335693 8.60921 0.0470452 8.71339 0.120979 8.78732C0.198274 8.86461 0.299093 8.90494 0.406634 8.90494Z" fill="white"/>
<path d="M15.385 10.8607L8.00167 15.4581L0.618348 10.8607C0.430152 10.7431 0.181465 10.8002 0.0638423 10.9884C-0.05378 11.1766 0.00335082 11.4253 0.191547 11.5429L7.78659 16.2713C7.85044 16.3117 7.92438 16.3318 7.99831 16.3318C8.07224 16.3318 8.14618 16.3117 8.21003 16.2713L15.8051 11.5429C15.9933 11.4253 16.0504 11.1766 15.9328 10.9884C15.8219 10.8002 15.5732 10.7431 15.385 10.8607Z" fill="white"/>
</g>
<defs>
<clipPath id="clip0_560_6695">
<rect width="16" height="16" fill="white" transform="translate(0 0.5)"/>
</clipPath>
</defs>
</svg>
