<svg width="20" height="20" viewBox="0 0 20 20" fill="none" xmlns="http://www.w3.org/2000/svg">
<g clip-path="url(#clip0_1_645)">
<path d="M4.98218 15.9466V19.363C4.98218 19.5765 5.12453 19.7189 5.33805 19.7189H14.6619C14.8754 19.7189 15.0178 19.5765 15.0178 19.363V15.9466V13.8114C15.0178 13.5979 14.8754 13.4555 14.6619 13.4555H5.33805C5.12453 13.4555 4.98218 13.5979 4.98218 13.8114V15.9466ZM6.26332 14.6655H13.7366V15.8754H6.26332V14.6655ZM6.26332 17.1566H13.7366V18.3666H6.26332V17.1566Z" fill="#737373"/>
<path d="M14.9466 4.70107V1H4.98218V4.70107V7.19217H14.9466V4.70107Z" fill="#737373"/>
<path d="M17.4377 4.70107H16.1566V7.19217V8.47331H3.77224V7.19217V4.70107H2.4911C1.13879 4.70107 0 5.83986 0 7.19217V13.4555C0 14.8078 1.13879 15.9466 2.4911 15.9466H3.77224V13.4555V12.1744H16.2278V13.4555V15.9466H17.5089C18.8612 15.9466 20 14.8078 20 13.4555V7.26334C19.9288 5.83985 18.79 4.70107 17.4377 4.70107Z" fill="#737373"/>
</g>
<defs>
<clipPath id="clip0_1_645">
<rect width="20" height="20" fill="white"/>
</clipPath>
</defs>
</svg>
