<svg width="32" height="32" viewBox="0 0 32 32" fill="none" xmlns="http://www.w3.org/2000/svg">
<path d="M16 2.6665C12.324 2.6665 9.33331 5.65717 9.33331 9.33317V13.3332H7.99998C7.29274 13.3332 6.61446 13.6141 6.11436 14.1142C5.61426 14.6143 5.33331 15.2926 5.33331 15.9998V26.6665C5.33331 27.3737 5.61426 28.052 6.11436 28.5521C6.61446 29.0522 7.29274 29.3332 7.99998 29.3332H24C24.7072 29.3332 25.3855 29.0522 25.8856 28.5521C26.3857 28.052 26.6666 27.3737 26.6666 26.6665V15.9998C26.6666 15.2926 26.3857 14.6143 25.8856 14.1142C25.3855 13.6141 24.7072 13.3332 24 13.3332H22.6666V9.33317C22.6666 5.65717 19.676 2.6665 16 2.6665ZM12 9.33317C12 7.12784 13.7946 5.33317 16 5.33317C18.2053 5.33317 20 7.12784 20 9.33317V13.3332H12V9.33317ZM17.3333 23.6305V26.6665H14.6666V23.6305C14.2005 23.3636 13.8262 22.9616 13.5931 22.4776C13.36 21.9937 13.279 21.4504 13.3609 20.9195C13.4428 20.3886 13.6836 19.895 14.0517 19.5037C14.4197 19.1125 14.8977 18.842 15.4226 18.7278C15.8125 18.6416 16.2168 18.644 16.6056 18.7349C16.9945 18.8257 17.358 19.0027 17.6693 19.2527C17.9806 19.5028 18.2319 19.8195 18.4045 20.1796C18.5771 20.5396 18.6667 20.9339 18.6666 21.3332C18.6659 21.7995 18.5422 22.2574 18.3082 22.6607C18.0741 23.064 17.7378 23.3985 17.3333 23.6305Z" fill="#999999"/>
</svg>
