<svg width="24" height="24" viewBox="0 0 24 24" fill="none" xmlns="http://www.w3.org/2000/svg">
<g clip-path="url(#clip0_1108_7810)">
<path d="M23.3333 0C23.26 0 23.1933 0.00666679 23.1267 0.0333335L16 2.8L8 0L0.486667 2.53333C0.206667 2.62667 0 2.86667 0 3.17333V23.3333C0 23.7 0.3 24 0.666667 24C0.74 24 0.806667 23.9933 0.873333 23.9667L8 21.2L16 24L23.52 21.4733C23.8 21.3733 24 21.1333 24 20.8267V0.666667C24 0.3 23.7 0 23.3333 0ZM16 21.3333L8 18.5267V2.66667L16 5.47333V21.3333Z" fill="#5485A8"/>
</g>
<defs>
<clipPath id="clip0_1108_7810">
<rect width="24" height="24" fill="white"/>
</clipPath>
</defs>
</svg>
