<svg width="30" height="40" viewBox="0 0 30 40" fill="none" xmlns="http://www.w3.org/2000/svg">
<g clip-path="url(#clip0_1527_11346)">
<path d="M13.664 39.0507C11.6334 36.1069 9.90031 33.638 8.42283 31.5332C5.76464 27.7464 3.93387 25.1383 2.68668 23.0645C1.71962 21.4565 1.11291 20.1844 0.746299 18.9465C0.380259 17.7104 0.25 16.4963 0.25 15C0.25 6.85377 6.85377 0.25 15 0.25C23.1462 0.25 29.75 6.85377 29.75 15C29.75 16.4963 29.6197 17.7104 29.2537 18.9465C28.8871 20.1844 28.2804 21.4565 27.3133 23.0645C26.0661 25.1383 24.2354 27.7464 21.5772 31.5332C20.0997 33.638 18.3666 36.1069 16.336 39.0507C15.6905 39.9832 14.3094 39.9831 13.664 39.0507Z" fill="#0082E5" stroke="#003E6C" stroke-width="0.5"/>
<rect x="6.44141" y="5.4881" width="17.119" height="17.119" rx="8.55952" fill="white"/>
<rect x="6.44141" y="5.4881" width="17.119" height="17.119" rx="8.55952" stroke="#003E6C" stroke-width="0.5"/>
<path d="M14.7835 18.1726L11.3194 12.1726C11.2232 12.0059 11.3434 11.7976 11.5359 11.7976L18.4641 11.7976C18.6566 11.7976 18.7768 12.0059 18.6806 12.1726L15.2165 18.1726C15.1203 18.3393 14.8797 18.3393 14.7835 18.1726Z" fill="#0082E5" stroke="#003E6C" stroke-width="0.5"/>
</g>
<defs>
<clipPath id="clip0_1527_11346">
<rect width="30" height="40" fill="white"/>
</clipPath>
</defs>
</svg>
