<svg width="24" height="24" viewBox="0 0 24 24" fill="none" xmlns="http://www.w3.org/2000/svg">
<g clip-path="url(#clip0_794_8572)">
<g clip-path="url(#clip1_794_8572)">
<path d="M5.34048 2.07956C5.40221 2.07956 5.46245 2.08069 5.52123 2.08144C5.57443 2.08256 5.62576 2.08294 5.67596 2.08294C6.15277 2.08294 6.60099 2.22469 7.00009 2.45602C7.38695 1.99223 7.58035 1.56741 7.58035 1.24973C7.58035 0.855516 7.2608 0.535594 6.86616 0.535594C6.65115 0.535594 6.45812 0.631219 6.32719 0.782203C6.32944 0.759516 6.33095 0.737203 6.33095 0.714141C6.33095 0.319453 6.0107 0 5.61638 0C5.22212 0 4.90224 0.3195 4.90224 0.714141C4.90224 0.724922 4.90337 0.735703 4.90374 0.746156C4.79068 0.652031 4.64452 0.595125 4.48571 0.595125C4.12416 0.595125 3.83105 0.888609 3.83105 1.24973C3.83105 1.49377 3.96793 1.81552 4.2759 2.23767C4.6464 2.1127 4.99979 2.07956 5.34048 2.07956Z" fill="white"/>
<path d="M21.1123 4.56262C19.806 3.18004 17.1997 2.9323 15.5148 4.67118C13.7075 6.53727 12.801 8.31224 11.2775 8.35987C9.10568 8.42755 8.56371 6.76495 8.25424 5.28899C8.1828 5.02715 8.13668 4.69574 8.05859 4.45729C7.73984 3.47723 6.7646 2.49782 5.67884 2.49782C5.13171 2.49782 4.41827 2.4104 3.51743 3.22982C3.27077 3.49349 2.74521 4.08829 2.47184 4.5082C2.16537 4.98056 3.07587 4.89876 3.45082 4.94263C3.9693 5.00329 4.27877 5.24952 4.46923 5.59059C5.08929 6.63426 4.93526 7.46409 5.04054 9.20896C5.18337 11.5735 6.04479 12.9006 7.18301 13.8111C8.07199 14.5223 9.39949 14.9943 10.8014 15.0754V17.4318H5.34963L5.48913 16.6432C5.50591 16.5472 5.46757 16.4498 5.38985 16.3914C5.31171 16.3326 5.2076 16.3226 5.12018 16.3657L2.5503 17.6255C2.4618 17.6691 2.40527 17.7594 2.40527 17.858C2.40527 17.9566 2.4618 18.047 2.5503 18.0905L5.12018 19.3503C5.20755 19.3934 5.31171 19.3834 5.38985 19.3246C5.46757 19.2662 5.50591 19.1688 5.48913 19.0728L5.34963 18.2842H10.8014V20.8411C9.15288 21.046 7.84695 22.3505 7.64238 23.9997H14.865C14.6642 22.3824 13.4044 21.097 11.8012 20.8545V18.2844H16.0456L16.8449 19.3047H19.6997L18.7482 17.8581L19.6997 16.4115H16.8449L16.0456 17.4319H11.8012V15.0644C13.8432 14.9029 15.8611 13.8555 16.7646 11.4642C17.8916 11.7584 18.8404 9.9336 18.1022 9.2518C19.5959 9.94105 21.1273 7.97821 19.7536 7.06251C21.6558 7.38834 22.0363 5.54048 21.1123 4.56262ZM5.24365 4.52207C4.99629 4.52207 4.7951 4.32126 4.7951 4.07352C4.7951 3.82579 4.99629 3.62531 5.24365 3.62531C5.49138 3.62531 5.69224 3.82579 5.69224 4.07352C5.69224 4.32121 5.49138 4.52207 5.24365 4.52207Z" fill="white"/>
</g>
</g>
<defs>
<clipPath id="clip0_794_8572">
<rect width="24" height="24" fill="white"/>
</clipPath>
<clipPath id="clip1_794_8572">
<rect width="24" height="24" fill="white"/>
</clipPath>
</defs>
</svg>
