<svg width="34" height="34" viewBox="0 0 34 34" fill="none" xmlns="http://www.w3.org/2000/svg">
<path d="M20.2143 16.3571C20.2143 15.1183 19.774 14.0586 18.8934 13.178C18.0128 12.2974 16.9531 11.8571 15.7143 11.8571C14.4754 11.8571 13.4157 12.2974 12.5351 13.178C11.6545 14.0586 11.2143 15.1183 11.2143 16.3571C11.2143 17.596 11.6545 18.6557 12.5351 19.5363C13.4157 20.4169 14.4754 20.8571 15.7143 20.8571C16.9531 20.8571 18.0128 20.4169 18.8934 19.5363C19.774 18.6557 20.2143 17.596 20.2143 16.3571ZM25.3571 24.7143C25.3571 25.0625 25.2299 25.3638 24.9754 25.6183C24.7209 25.8728 24.4196 26 24.0714 26C23.7098 26 23.4084 25.8728 23.1674 25.6183L19.7221 22.183C18.5234 23.0134 17.1875 23.4286 15.7143 23.4286C14.7567 23.4286 13.8409 23.2428 12.967 22.8711C12.0932 22.4994 11.3398 21.9972 10.707 21.3644C10.0742 20.7316 9.57195 19.9782 9.2003 19.1044C8.82865 18.2305 8.64282 17.3147 8.64282 16.3571C8.64282 15.3996 8.82865 14.4838 9.2003 13.6099C9.57195 12.7361 10.0742 11.9827 10.707 11.3499C11.3398 10.7171 12.0932 10.2149 12.967 9.8432C13.8409 9.47155 14.7567 9.28572 15.7143 9.28572C16.6718 9.28572 17.5876 9.47155 18.4615 9.8432C19.3353 10.2149 20.0887 10.7171 20.7215 11.3499C21.3543 11.9827 21.8566 12.7361 22.2282 13.6099C22.5999 14.4838 22.7857 15.3996 22.7857 16.3571C22.7857 17.8304 22.3705 19.1663 21.5401 20.365L24.9855 23.8103C25.2332 24.058 25.3571 24.3594 25.3571 24.7143Z" fill="#5B89FF"/>
</svg>
