<svg width="30" height="30" viewBox="0 0 20 20" fill="none" xmlns="http://www.w3.org/2000/svg">
<g clip-path="url(#clip0_4_7898)">
<path d="M16 14.016C17.245 14.545 18 15.239 18 16C18 17.657 14.418 19 10 19C5.582 19 2 17.657 2 16C2 15.24 2.755 14.544 4 14.016" stroke="#aaaaaa" stroke-width="2" stroke-linecap="round" stroke-linejoin="round"/>
<path fill-rule="evenodd" clip-rule="evenodd" d="M10.738 15.675L10.743 15.67L10.755 15.656L10.8 15.606L10.966 15.42C11.7969 14.4736 12.5806 13.4868 13.314 12.463C13.956 11.563 14.614 10.543 15.115 9.53C15.605 8.54 16 7.451 16 6.444C16 2.871 13.382 0 10 0C6.618 0 4 2.87 4 6.444C4 7.451 4.395 8.54 4.885 9.53C5.386 10.543 6.045 11.563 6.685 12.463C7.46744 13.5542 8.30694 14.6033 9.2 15.606L9.245 15.656L9.257 15.67L9.262 15.675C9.3557 15.7775 9.4697 15.8593 9.59676 15.9153C9.72382 15.9713 9.86115 16.0002 10 16.0002C10.1388 16.0002 10.2762 15.9713 10.4032 15.9153C10.5303 15.8593 10.6443 15.7775 10.738 15.675ZM10 4C9.46957 4 8.96086 4.21071 8.58579 4.58579C8.21071 4.96086 8 5.46957 8 6C8 6.53043 8.21071 7.03914 8.58579 7.41421C8.96086 7.78929 9.46957 8 10 8C10.5304 8 11.0391 7.78929 11.4142 7.41421C11.7893 7.03914 12 6.53043 12 6C12 5.46957 11.7893 4.96086 11.4142 4.58579C11.0391 4.21071 10.5304 4 10 4Z" fill="#aaaaaa"/>
</g>
<defs>
<clipPath id="clip0_4_7898">
<rect width="30" height="30" fill="white"/>
</clipPath>
</defs>
</svg>
