<svg width="16" height="17" viewBox="0 0 16 17" fill="none" xmlns="http://www.w3.org/2000/svg">
<path d="M0.194917 6.28111L7.78996 10.7314C7.85381 10.7693 7.92775 10.7883 8.00168 10.7883C8.07562 10.7883 8.14955 10.7693 8.2134 10.7314L15.8084 6.28111C15.9261 6.21153 16 6.09134 16 5.95849C16 5.82881 15.9294 5.70546 15.8084 5.63587L8.2134 1.1856C8.08234 1.10968 7.91766 1.10968 7.7866 1.1856L0.191556 5.63587C0.073934 5.70546 0 5.82565 0 5.95849C0.00336064 6.09134 0.0739341 6.21153 0.194917 6.28111ZM8.00168 1.95419L14.8339 5.95849L8.00168 9.96279L1.1695 5.95849L8.00168 1.95419Z" fill="#666666"/>
<path d="M15.5967 8.12207C15.4892 8.12207 15.385 8.16319 15.311 8.23277C15.2371 8.30236 15.1934 8.40041 15.1934 8.50162C15.1934 8.60284 15.2371 8.70089 15.311 8.77048C15.385 8.84006 15.4892 8.88118 15.5967 8.88118C15.7042 8.88118 15.8084 8.84006 15.8824 8.77048C15.9563 8.70089 16 8.60284 16 8.50162C16 8.40041 15.9563 8.30236 15.8824 8.23277C15.8084 8.16319 15.7042 8.12207 15.5967 8.12207Z" fill="#666666"/>
<path d="M14.118 8.92217C13.9298 9.03287 13.8693 9.26693 13.9903 9.44406C14.0676 9.55792 14.1987 9.62434 14.3331 9.62434C14.407 9.62434 14.481 9.60537 14.5448 9.56741C14.733 9.45671 14.7902 9.22265 14.6725 9.04552C14.5549 8.86524 14.3062 8.81146 14.118 8.92217Z" fill="#666666"/>
<path d="M10.3205 11.1458C10.1323 11.2565 10.0718 11.4905 10.1928 11.6677C10.2701 11.7847 10.4012 11.848 10.5356 11.848C10.6095 11.848 10.6835 11.829 10.7473 11.791C10.9355 11.6803 10.9926 11.4463 10.875 11.2691C10.7574 11.092 10.5087 11.0351 10.3205 11.1458Z" fill="#666666"/>
<path d="M9.05355 11.889C8.86535 11.9997 8.80822 12.2337 8.92584 12.4109C9.00314 12.5279 9.1342 12.5911 9.26863 12.5911C9.34256 12.5911 9.4165 12.5722 9.48035 12.5342C9.66854 12.4235 9.72567 12.1894 9.60805 12.0123C9.49043 11.832 9.2451 11.7783 9.05355 11.889Z" fill="#666666"/>
<path d="M11.5875 10.4056C11.3993 10.5163 11.3388 10.7503 11.4564 10.9275C11.5337 11.0445 11.6648 11.1077 11.7992 11.1077C11.8731 11.1077 11.947 11.0888 12.0109 11.0508C12.1991 10.9401 12.2562 10.706 12.1386 10.5289C12.0243 10.3486 11.7757 10.2949 11.5875 10.4056Z" fill="#666666"/>
<path d="M12.8511 9.66558C12.6629 9.77628 12.6058 10.0103 12.7234 10.1875C12.8007 10.3013 12.9317 10.3678 13.0662 10.3678C13.1401 10.3678 13.214 10.3488 13.2779 10.3108C13.4661 10.2001 13.5232 9.96606 13.4056 9.78893C13.288 9.60864 13.0426 9.55487 12.8511 9.66558Z" fill="#666666"/>
<path d="M7.71601 12.683C7.64208 12.7526 7.59839 12.8506 7.59839 12.9518C7.59839 13.053 7.64208 13.1511 7.71601 13.2207C7.78995 13.2903 7.89412 13.3314 8.00167 13.3314C8.10921 13.3314 8.21339 13.2903 8.28732 13.2207C8.36125 13.1511 8.40494 13.053 8.40494 12.9518C8.40494 12.8506 8.36125 12.7526 8.28732 12.683C8.21339 12.6134 8.10921 12.5723 8.00167 12.5723C7.89412 12.5723 7.79331 12.6134 7.71601 12.683Z" fill="#666666"/>
<path d="M6.39194 12.0092C6.27431 12.1863 6.33145 12.4204 6.51964 12.5311C6.58685 12.569 6.66079 12.588 6.73136 12.588C6.86579 12.588 6.99685 12.5247 7.07415 12.4077C7.19177 12.2306 7.13464 11.9965 6.94308 11.8858C6.75825 11.7783 6.50956 11.8321 6.39194 12.0092Z" fill="#666666"/>
<path d="M1.33081 9.04233C1.21319 9.21945 1.27032 9.45351 1.45851 9.56422C1.52573 9.60217 1.59966 9.62115 1.67023 9.62115C1.80466 9.62115 1.93573 9.55789 2.01302 9.44086C2.13064 9.26374 2.07351 9.02968 1.88532 8.91897C1.69712 8.80827 1.44843 8.8652 1.33081 9.04233Z" fill="#666666"/>
<path d="M5.12833 11.2691C5.0107 11.4463 5.06783 11.6803 5.25603 11.791C5.32324 11.829 5.39718 11.848 5.46775 11.848C5.60218 11.848 5.73324 11.7847 5.81054 11.6677C5.92816 11.4905 5.87103 11.2565 5.68283 11.1458C5.49464 11.0351 5.24595 11.092 5.12833 11.2691Z" fill="#666666"/>
<path d="M3.86139 10.5258C3.74377 10.7029 3.8009 10.937 3.98909 11.0477C4.05631 11.0856 4.13024 11.1046 4.20081 11.1046C4.33524 11.1046 4.4663 11.0414 4.5436 10.9243C4.66122 10.7472 4.60409 10.5131 4.41253 10.4024C4.2277 10.2949 3.97901 10.3487 3.86139 10.5258Z" fill="#666666"/>
<path d="M2.59442 9.78556C2.4768 9.96268 2.53393 10.1967 2.72213 10.3074C2.78934 10.3454 2.86327 10.3644 2.93385 10.3644C3.06827 10.3644 3.19934 10.3011 3.27663 10.1841C3.39425 10.007 3.33712 9.7729 3.14893 9.6622C2.96073 9.55466 2.71204 9.60843 2.59442 9.78556Z" fill="#666666"/>
<path d="M0.406634 8.88118C0.514174 8.88118 0.618354 8.84006 0.692288 8.77048C0.766222 8.70089 0.80991 8.60284 0.80991 8.50162C0.80991 8.40041 0.766222 8.30236 0.692288 8.23277C0.618354 8.16319 0.514174 8.12207 0.406634 8.12207C0.299093 8.12207 0.194913 8.16319 0.120979 8.23277C0.0470452 8.30236 0.00335693 8.40041 0.00335693 8.50162C0.00335693 8.60284 0.0470452 8.70089 0.120979 8.77048C0.198274 8.84322 0.299093 8.88118 0.406634 8.88118Z" fill="#666666"/>
<path d="M15.385 10.7219L8.00167 15.0488L0.618348 10.7219C0.430152 10.6112 0.181465 10.6649 0.0638423 10.8421C-0.05378 11.0192 0.00335082 11.2532 0.191547 11.3639L7.78659 15.8142C7.85044 15.8522 7.92438 15.8712 7.99831 15.8712C8.07224 15.8712 8.14618 15.8522 8.21003 15.8142L15.8051 11.3639C15.9933 11.2532 16.0504 11.0192 15.9328 10.8421C15.8219 10.6649 15.5732 10.6112 15.385 10.7219Z" fill="#666666"/>
</svg>
