<svg width="20" height="20" viewBox="0 0 20 20" fill="none" xmlns="http://www.w3.org/2000/svg">
<g clip-path="url(#clip0_57_4002)">
<g clip-path="url(#clip1_57_4002)">
<path d="M4 11.7143V16H8.28571L15.7857 8.5L11.5 4.21429L4 11.7143ZM14.7143 1L12.5714 3.14286L16.8571 7.42857L19 5.28571L14.7143 1Z" fill="white"/>
<path d="M17.491 19.6822H0.760481C0.357624 19.6822 0.03125 19.3556 0.03125 18.9527V1.21141C0.03125 0.808551 0.357404 0.482178 0.760481 0.482178H11.9941C12.3974 0.482178 12.7231 0.808551 12.7231 1.21141C12.7231 1.61405 12.3974 1.94064 11.9941 1.94064H1.48971V18.2233H17.491C18.0607 18.2233 18.5242 17.76 18.5242 17.1901V8.0413C18.5242 7.63844 18.8504 7.31207 19.2532 7.31207C19.6559 7.31207 19.9825 7.63844 19.9825 8.0413V17.1901C19.9827 18.5642 18.8649 19.6822 17.491 19.6822Z" fill="white"/>
</g>
</g>
<defs>
<clipPath id="clip0_57_4002">
<rect width="20" height="20" fill="white"/>
</clipPath>
<clipPath id="clip1_57_4002">
<rect width="20" height="20" fill="white"/>
</clipPath>
</defs>
</svg>
