<svg width="24" height="24" viewBox="0 0 24 24" fill="none" xmlns="http://www.w3.org/2000/svg">
<path d="M19.185 10.6675C19.185 12.6916 18.4517 14.5236 17.2695 15.9906L21.5761 20.2972C21.9407 20.6446 21.9413 21.2279 21.5779 21.5761C21.4097 21.761 21.155 21.85 20.9375 21.85C20.7157 21.85 20.4791 21.758 20.298 21.577L15.9906 17.2695M19.185 10.6675C19.185 10.6676 19.185 10.6677 19.185 10.6679L19.085 10.6675H19.185ZM19.185 10.6675C19.2013 5.98071 15.3699 2.15 10.6675 2.15C5.96465 2.15 2.15 5.98115 2.15 10.6675C2.15 15.354 5.98102 19.185 10.6675 19.185C12.6916 19.185 14.5236 18.4517 15.9906 17.2695M15.9906 17.2695L15.9268 17.2057L15.9975 17.135L16.061 17.2122C16.0376 17.2315 16.0142 17.2506 15.9906 17.2695ZM3.975 10.6675C3.975 6.98523 6.98523 3.975 10.6675 3.975C14.3498 3.975 17.36 6.98523 17.36 10.6675C17.36 14.3498 14.3498 17.36 10.6675 17.36C6.98507 17.36 3.975 14.3659 3.975 10.6675Z" fill="#666666" stroke="#666666" stroke-width="0.2"/>
</svg>
