<svg width="16" height="16" viewBox="0 0 16 16" fill="none" xmlns="http://www.w3.org/2000/svg">
<path d="M0.460279 1.63049C0.596734 1.56904 0.747983 1.54813 0.89599 1.57026C1.044 1.59239 1.18251 1.65663 1.29502 1.75531L2.35601 2.69927C3.07467 1.853 3.96885 1.17323 4.97651 0.707122C5.98417 0.241012 7.08117 -0.000275063 8.19142 3.35076e-06C9.62208 -0.00132241 11.0256 0.390788 12.2484 1.13345C13.4712 1.87611 14.4662 2.94073 15.1246 4.21086C15.7831 5.48099 16.0796 6.90773 15.9817 8.33504C15.8838 9.76235 15.3954 11.1353 14.5697 12.3036C13.7441 13.472 12.613 14.3908 11.3003 14.9596C9.98755 15.5284 8.54369 15.7253 7.1266 15.5287C5.70951 15.3321 4.37377 14.7496 3.26546 13.8449C2.15715 12.9402 1.31896 11.7482 0.842546 10.3992C0.774267 10.2037 0.786458 9.98904 0.876435 9.8025C0.966412 9.61596 1.1268 9.47281 1.32233 9.40453C1.51785 9.33625 1.73249 9.34844 1.91903 9.43842C2.10557 9.5284 2.24872 9.68879 2.317 9.88431C2.69896 10.9631 3.37021 11.9162 4.25734 12.6392C5.14447 13.3622 6.21332 13.8274 7.34703 13.9838C8.48073 14.1403 9.63562 13.982 10.6854 13.5263C11.7352 13.0706 12.6395 12.335 13.2994 11.3999C13.9593 10.4649 14.3493 9.36637 14.4269 8.22456C14.5045 7.08275 14.2667 5.94158 13.7394 4.92584C13.2121 3.9101 12.4157 3.05891 11.4372 2.46533C10.4587 1.87176 9.33586 1.55866 8.19142 1.56027C7.30049 1.56002 6.42021 1.75391 5.61184 2.12846C4.80347 2.503 4.08642 3.04921 3.51061 3.72905L4.80563 4.87585C4.92496 4.98141 5.00912 5.12098 5.04677 5.27578C5.08443 5.43059 5.07378 5.59322 5.01627 5.7418C4.95969 5.88841 4.86016 6.01452 4.7307 6.10361C4.60124 6.1927 4.44789 6.24062 4.29074 6.24108H0.780135C0.573231 6.24108 0.3748 6.15889 0.228496 6.01259C0.0821924 5.86628 0 5.66785 0 5.46095V2.34041C0.000312805 2.19034 0.0439024 2.04355 0.125542 1.91763C0.207181 1.79171 0.323405 1.69201 0.460279 1.63049Z" fill="#00A486"/>
</svg>
