<svg width="32" height="32" viewBox="0 0 32 32" fill="none" xmlns="http://www.w3.org/2000/svg">
<g clip-path="url(#clip0_113_901)">
<path d="M22.4739 11.5538C23.2642 12.3442 24.5453 12.3439 25.3354 11.5538C26.1258 10.7637 26.1259 9.48241 25.3354 8.69217L17.2363 0.592649C16.4459 -0.197751 15.1648 -0.197431 14.3744 0.592649C13.5842 1.38273 13.5842 2.66401 14.3744 3.45425L22.4739 11.5538Z" fill="#1B4DCF"/>
<path d="M3.45425 14.3746C2.66417 13.5842 1.38288 13.5842 0.5928 14.3746C-0.19744 15.1646 -0.19776 16.4458 0.5928 17.2362L8.69184 25.3352C9.48224 26.1256 10.7632 26.1256 11.5538 25.3352C12.3442 24.5451 12.3442 23.2638 11.5538 22.4734L3.45425 14.3746Z" fill="#1B4DCF"/>
<path d="M30.9769 26.8687L18.9673 16.6298C19.5094 16.0054 20.023 15.3555 20.4974 14.6752L20.7453 14.32C21.2576 13.5853 21.1694 12.5888 20.536 11.9554L13.9726 5.39202C13.3392 4.75858 12.3427 4.67057 11.608 5.18289L11.0291 5.58658C8.90847 7.06562 7.06607 8.90801 5.58687 11.0285L5.18303 11.6075C4.67055 12.3424 4.75854 13.3391 5.39198 13.9723L11.9557 20.5357C12.5891 21.1691 13.5854 21.2573 14.3201 20.7448L14.6753 20.497C15.3553 20.0227 16.0053 19.5094 16.6294 18.9677L26.8685 30.977C27.396 31.5957 28.1581 31.9659 28.9702 31.9978C29.7829 32.0301 30.5718 31.7218 31.1467 31.1471C31.7219 30.5722 32.0302 29.7834 31.9979 28.9707C31.9657 28.1581 31.5955 27.3963 30.9769 26.8687Z" fill="#1B4DCF"/>
</g>
<defs>
<clipPath id="clip0_113_901">
<rect width="32" height="32" fill="white"/>
</clipPath>
</defs>
</svg>
