<svg width="40" height="40" viewBox="0 0 40 40" fill="none" xmlns="http://www.w3.org/2000/svg">
<g clip-path="url(#clip0_425_8201)">
<g clip-path="url(#clip1_425_8201)">
<path d="M37.1247 3.45875C36.9909 2.89625 36.4859 2.5 35.9097 2.5C35.9072 2.5 35.9047 2.5 35.9022 2.5C29.3184 2.54125 13.3084 3.645 6.84466 12.975C3.48716 17.8225 3.19841 24.1162 5.98591 31.6812C6.00716 31.74 6.05091 31.78 6.07966 31.8337C5.08341 34.3 4.69716 35.9412 4.68716 35.9875C4.54216 36.6625 4.97341 37.3275 5.64841 37.4725C5.73591 37.4912 5.82341 37.5 5.91091 37.5C6.48716 37.5 7.00591 37.0987 7.13216 36.5125C7.15841 36.385 10.3434 23.5462 21.6034 16.04C22.1784 15.6575 22.3334 14.8812 21.9497 14.3062C21.5659 13.7312 20.7909 13.575 20.2159 13.96C13.8309 18.2163 9.89841 23.97 7.58591 28.53C5.93091 22.8075 6.36466 18.0588 8.90091 14.3988C13.8922 7.19375 25.7309 5.45625 32.8772 5.08875C31.3397 7.34 29.6597 11.4675 29.6597 18.75C29.6597 22.65 28.5534 25.6525 26.3734 27.675C22.8784 30.9137 17.2009 31.2175 13.0484 30.905C12.3584 30.8488 11.7597 31.3687 11.7072 32.0575C11.6547 32.745 12.1709 33.345 12.8584 33.3975C13.6897 33.4613 14.5772 33.5 15.4997 33.5C19.7272 33.5 24.6584 32.6713 28.0722 29.5075C30.7847 26.9938 32.1597 23.375 32.1597 18.7513C32.1597 7.3775 36.4472 4.88125 36.4684 4.87C36.9884 4.60875 37.2609 4.02375 37.1247 3.45875Z" fill="#999999"/>
</g>
</g>
<defs>
<clipPath id="clip0_425_8201">
<rect width="40" height="40" fill="white"/>
</clipPath>
<clipPath id="clip1_425_8201">
<rect width="40" height="40" fill="white"/>
</clipPath>
</defs>
</svg>
