<svg width="20" height="20" viewBox="0 0 20 20" fill="none" xmlns="http://www.w3.org/2000/svg">
<g clip-path="url(#clip0_57_4135)">
<path d="M6.49999 2.18998C5.12199 2.18998 3.98999 3.32198 3.98999 4.69998C3.98999 5.50398 4.37699 6.22258 4.97199 6.68318L2.96299 10.8344C2.81034 10.805 2.65525 10.79 2.49979 10.7898C1.12199 10.79 -0.0100098 11.922 -0.0100098 13.3C-0.0100098 14.678 1.12199 15.81 2.49999 15.81C3.52599 15.81 4.40799 15.1798 4.79259 14.2894L15.048 15.8314C15.2944 16.9572 16.3042 17.8102 17.5 17.8102C18.8312 17.8102 19.9228 16.7508 19.996 15.4368C20.0051 15.3917 20.0098 15.3459 20.01 15.3C20.01 15.253 20.0052 15.206 19.9958 15.16C19.9208 13.8476 18.83 12.79 17.5 12.79C17.4732 12.79 17.4472 12.793 17.4208 12.7938L16.0484 8.60997C16.7034 8.18457 17.1502 7.46077 17.196 6.63658C17.2051 6.59155 17.2098 6.54572 17.21 6.49978C17.21 6.45275 17.2052 6.40585 17.1958 6.35978C17.1208 5.04738 16.03 3.98978 14.7 3.98978C13.6876 3.98978 12.8096 4.60178 12.414 5.47278L8.99759 4.56938C8.99694 4.56624 8.99628 4.5631 8.99559 4.55998C8.92079 3.24738 7.82999 2.18958 6.49999 2.18958V2.18998ZM6.49999 3.58998C7.12139 3.58998 7.60999 4.07858 7.60999 4.69998C7.60999 5.32138 7.12139 5.80998 6.49999 5.80998C5.87859 5.80998 5.38999 5.32138 5.38999 4.69998C5.38999 4.07858 5.87859 3.58998 6.49999 3.58998ZM14.7 5.38998C15.3214 5.38998 15.81 5.87858 15.81 6.49998C15.81 7.12138 15.3214 7.60998 14.7 7.60998C14.0786 7.60998 13.59 7.12138 13.59 6.49998C13.59 5.87858 14.0786 5.38998 14.7 5.38998ZM8.67259 5.93158L12.2204 6.86958C12.4014 8.07398 13.4478 9.00997 14.7 9.00997L14.7066 9.00957L16.0906 13.228C15.6608 13.5228 15.3323 13.9429 15.1496 14.431L4.96639 12.9002C4.877 12.3547 4.6109 11.8537 4.20899 11.4742L6.27739 7.19858C6.35099 7.20518 6.42479 7.20998 6.49999 7.20998C7.43039 7.20998 8.24199 6.69158 8.67259 5.93138V5.93158ZM2.49999 12.19C3.12139 12.19 3.60999 12.6788 3.60999 13.3002C3.60999 13.9216 3.12139 14.4102 2.49999 14.4102C1.87859 14.4102 1.38999 13.9216 1.38999 13.3002C1.38999 12.6788 1.87859 12.19 2.49999 12.19ZM17.5 14.19C18.1214 14.19 18.61 14.6788 18.61 15.3002C18.61 15.9216 18.1214 16.4102 17.5 16.4102C16.8786 16.4102 16.39 15.9216 16.39 15.3002C16.39 14.6788 16.8786 14.19 17.5 14.19Z" fill="#5B89FF"/>
</g>
<defs>
<clipPath id="clip0_57_4135">
<rect width="20" height="20" fill="white"/>
</clipPath>
</defs>
</svg>
