<svg width="8" height="9" viewBox="0 0 8 9" fill="none" xmlns="http://www.w3.org/2000/svg">
<path d="M6.15471 7.79555C6.10079 7.82359 6.04024 7.83643 5.97958 7.83267C5.91892 7.82891 5.86042 7.8087 5.81037 7.77421L1.47704 4.77421C1.43276 4.74354 1.39658 4.70258 1.37158 4.65487C1.34659 4.60715 1.33354 4.55408 1.33354 4.50021C1.33354 4.44635 1.34659 4.39328 1.37158 4.34556C1.39658 4.29784 1.43276 4.25689 1.47704 4.22621L5.81037 1.22621C5.86038 1.19161 5.9189 1.17135 5.9796 1.16762C6.0403 1.16389 6.10086 1.17684 6.15473 1.20506C6.2086 1.23328 6.25372 1.2757 6.28521 1.32773C6.3167 1.37975 6.33335 1.4394 6.33337 1.50021V7.50021C6.33338 7.56106 6.31674 7.62075 6.28524 7.67281C6.25375 7.72487 6.20861 7.76731 6.15471 7.79555Z" fill="#CCCCCC"/>
</svg>
