<svg width="86" height="86" viewBox="0 0 86 86" fill="none" xmlns="http://www.w3.org/2000/svg">
<g clip-path="url(#clip0_116_1880)">
<path d="M74.936 44.1782C74.2244 46.0745 72.4614 47.3 70.4425 47.3H68.7999V70.95C68.7999 72.1368 67.8367 73.1 66.6499 73.1H53.7499V58.05C53.7499 52.1224 48.9275 47.3 42.9999 47.3C37.0724 47.3 32.2499 52.1224 32.2499 58.05V73.1H19.3499C18.1631 73.1 17.1999 72.1368 17.1999 70.95V47.3H15.5552C13.5363 47.3 11.7733 46.0766 11.0617 44.1803C10.35 42.284 10.8725 40.1985 12.3947 38.8698L37.5045 15.0908C40.5876 12.1733 45.4144 12.1733 48.4953 15.0908L73.6654 38.9257C75.1231 40.1964 75.6477 42.2819 74.936 44.1782Z" fill="#E9F3FF"/>
</g>
<defs>
<clipPath id="clip0_116_1880">
<rect width="68.8" height="68.8" fill="white" transform="translate(8.6001 8.59998)"/>
</clipPath>
</defs>
</svg>
