<svg width="86" height="86" viewBox="0 0 86 86" fill="none" xmlns="http://www.w3.org/2000/svg">
<g clip-path="url(#clip0_16_3167)">
<path d="M48.1307 55.9293C48.1307 56.7385 47.4747 57.3952 46.6648 57.3952H39.3353C38.5261 57.3952 37.8694 56.7385 37.8694 55.9293V50.7795L10.75 44.6184V69.1688C10.75 70.7879 12.0628 72.1006 13.6818 72.1006H72.3182C73.9373 72.1006 75.25 70.7878 75.25 69.1688V44.6433L48.1307 50.7832V55.9293Z" fill="#E9F3FF"/>
<path d="M72.3182 28.1233H13.6818C12.0628 28.1233 10.75 29.4359 10.75 31.0551V40.8613L37.8693 47.0218V44.2021C37.8693 43.3929 38.526 42.7362 39.3352 42.7362H46.6647C47.4746 42.7362 48.1306 43.3929 48.1306 44.2021V47.0255L75.25 40.8854V31.0551C75.25 29.4359 73.9372 28.1233 72.3182 28.1233Z" fill="#E9F3FF"/>
<path d="M31.6877 21.3185C31.6877 19.1285 33.4694 17.3466 35.6588 17.3466H50.3406C52.5306 17.3466 54.3125 19.1284 54.3125 21.3185V25.1907H57.7596V21.3185C57.7596 17.2272 54.4319 13.8995 50.3406 13.8995H35.6587C31.5681 13.8995 28.2397 17.2272 28.2397 21.3185V25.1907H31.6875L31.6877 21.3185Z" fill="#E9F3FF"/>
</g>
<defs>
<clipPath id="clip0_16_3167">
<rect width="64.5" height="64.5" fill="white" transform="translate(10.75 10.75)"/>
</clipPath>
</defs>
</svg>
