<svg width="404" height="404" viewBox="0 0 404 404" fill="none" xmlns="http://www.w3.org/2000/svg">
<path d="M363.52 321.983H336.758V322.185H363.52V321.983Z" fill="#EBEBEB"/>
<path d="M267.626 324.176H260.602V324.378H267.626V324.176Z" fill="#EBEBEB"/>
<path d="M335.949 314.48H320.441V314.682H335.949V314.48Z" fill="#EBEBEB"/>
<path d="M77.2867 315.838H42.3867V316.04H77.2867V315.838Z" fill="#EBEBEB"/>
<path d="M89.5975 315.838H84.4805V316.04H89.5975V315.838Z" fill="#EBEBEB"/>
<path d="M181.919 319.25H106.229V319.452H181.919V319.25Z" fill="#EBEBEB"/>
<path d="M117.414 215.195C117.414 208.129 113.361 205.786 110.24 205.364C105.125 204.67 101.471 208.563 101.471 208.563C101.471 208.563 98.6918 199.19 88.6435 199.19C78.5961 199.19 75.5038 209.428 75.5038 209.428C75.5038 209.428 71.5963 206.325 65.9694 207.265C62.0248 207.923 59.6759 210.832 57.1348 215.195H117.414Z" fill="#F5F5F5"/>
<path d="M228.885 97.1765C228.885 88.0526 223.652 85.0266 219.621 84.4804C213.018 83.5852 208.3 88.6109 208.3 88.6109C208.3 88.6109 204.71 76.5079 191.736 76.5079C178.762 76.5079 174.768 89.7284 174.768 89.7284C174.768 89.7284 169.723 85.7215 162.457 86.9351C157.363 87.786 154.33 91.5415 151.049 97.1757L228.885 97.1765Z" fill="#F5F5F5"/>
<path d="M308.275 212.093C308.275 212.093 310.514 206.554 316.057 205.949C321.601 205.343 324.266 209.021 324.266 209.021C324.266 209.021 328.606 201.296 337.058 202.4C346.332 203.611 345.8 212.093 345.8 212.093H308.275Z" fill="#F5F5F5"/>
<path d="M175.527 306.781C175.527 306.781 178.866 298.52 187.134 297.616C195.403 296.713 199.378 302.198 199.378 302.198C199.378 302.198 205.852 290.677 218.459 292.324C232.293 294.131 231.498 306.781 231.498 306.781H175.527Z" fill="#F5F5F5"/>
<path d="M95.943 80.7168C95.943 74.0839 90.5657 68.7067 83.9328 68.7067C82.3395 68.7067 80.822 69.0242 79.4307 69.5874C78.2033 66.1332 74.9156 63.6559 71.0404 63.6559C66.1181 63.6559 62.1282 67.6458 62.1282 72.5681C62.1282 74.3417 62.6526 75.99 63.5454 77.3781C60.3441 78.6604 58.0801 81.7858 58.0801 85.4452C58.0801 90.2463 61.9722 94.1385 66.7734 94.1385C67.8924 94.1385 68.9582 93.9195 69.9399 93.5349C71.0558 96.4607 73.8797 98.5421 77.1974 98.5421C80.8269 98.5421 83.8666 96.051 84.7223 92.6873C90.9851 92.2793 95.943 87.083 95.943 80.7168Z" fill="#E0E0E0"/>
<path d="M244.98 289.814C247.144 296.084 253.981 299.413 260.252 297.249C261.758 296.729 263.089 295.934 264.221 294.947C266.507 297.812 270.425 299.081 274.087 297.817C278.74 296.211 281.21 291.137 279.604 286.485C279.026 284.808 277.992 283.421 276.695 282.4C279.303 280.143 280.424 276.45 279.229 272.991C277.663 268.452 272.714 266.043 268.175 267.61C267.117 267.975 266.182 268.529 265.379 269.214C263.369 266.812 260.021 265.766 256.885 266.848C253.454 268.032 251.394 271.379 251.682 274.837C245.894 277.267 242.902 283.795 244.98 289.814Z" fill="#E0E0E0"/>
<path d="M150.768 121.567C151.28 124.683 154.222 126.795 157.339 126.282C158.088 126.159 158.776 125.893 159.386 125.521C160.23 127.049 161.966 127.96 163.787 127.66C166.099 127.28 167.666 125.097 167.286 122.784C167.149 121.951 166.775 121.217 166.248 120.634C167.654 119.784 168.476 118.14 168.193 116.421C167.822 114.165 165.693 112.636 163.437 113.007C162.911 113.093 162.428 113.278 161.996 113.535C161.245 112.247 159.758 111.487 158.199 111.743C156.493 112.024 155.258 113.429 155.116 115.075C152.205 115.752 150.276 118.576 150.768 121.567Z" fill="#E0E0E0"/>
<path d="M214.789 323.358C214.789 320.199 212.229 317.639 209.07 317.639C208.312 317.639 207.589 317.79 206.927 318.058C206.343 316.414 204.777 315.233 202.931 315.233C200.587 315.233 198.688 317.134 198.688 319.477C198.688 320.321 198.937 321.106 199.362 321.767C197.838 322.378 196.76 323.867 196.76 325.609C196.76 327.895 198.613 329.748 200.899 329.748C201.432 329.748 201.939 329.644 202.407 329.46C202.939 330.853 204.283 331.845 205.863 331.845C207.591 331.845 209.038 330.659 209.445 329.057C212.428 328.863 214.789 326.389 214.789 323.358Z" fill="#E0E0E0"/>
<path d="M288.914 207.55C288.914 203.348 285.507 199.941 281.305 199.941C280.296 199.941 279.334 200.142 278.453 200.5C277.676 198.311 275.593 196.742 273.138 196.742C270.02 196.742 267.492 199.269 267.492 202.387C267.492 203.511 267.824 204.555 268.39 205.434C266.362 206.246 264.928 208.226 264.928 210.545C264.928 213.586 267.394 216.052 270.435 216.052C271.144 216.052 271.819 215.913 272.441 215.67C273.148 217.522 274.937 218.842 277.039 218.842C279.338 218.842 281.264 217.264 281.806 215.133C285.773 214.875 288.914 211.584 288.914 207.55Z" fill="#E0E0E0"/>
<path d="M149.823 174.807C149.268 169.815 145.038 165.932 139.898 165.932C134.38 165.932 129.906 170.406 129.906 175.924C129.906 177.589 130.319 179.155 131.039 180.535C130.494 181.321 130.173 182.273 130.173 183.301C130.173 185.986 132.35 188.164 135.035 188.164C136.678 188.164 138.128 187.347 139.008 186.099C140.379 187.273 142.156 187.988 144.103 187.988C148.43 187.988 151.939 184.479 151.939 180.151C151.94 178.083 151.132 176.208 149.823 174.807Z" fill="#E0E0E0"/>
<path d="M153.521 277.053C148.55 276.338 143.729 279.456 142.438 284.431C141.052 289.772 144.258 295.226 149.599 296.612C151.21 297.03 152.83 297.024 154.347 296.673C154.971 297.398 155.811 297.948 156.807 298.206C159.406 298.881 162.059 297.321 162.734 294.721C163.147 293.131 162.719 291.522 161.733 290.357C163.215 289.326 164.352 287.785 164.84 285.901C165.928 281.712 163.413 277.435 159.224 276.347C157.223 275.829 155.206 276.138 153.521 277.053Z" fill="#E0E0E0"/>
<path d="M348.798 226.762C345.652 226.309 342.601 228.283 341.784 231.431C340.907 234.81 342.937 238.261 346.316 239.139C347.336 239.403 348.362 239.4 349.321 239.178C349.716 239.637 350.248 239.984 350.878 240.148C352.523 240.575 354.202 239.587 354.629 237.943C354.89 236.936 354.62 235.919 353.996 235.181C354.933 234.528 355.653 233.554 355.962 232.361C356.651 229.71 355.059 227.004 352.408 226.316C351.141 225.986 349.864 226.183 348.798 226.762Z" fill="#E0E0E0"/>
<path d="M352.129 69.8516C350.563 67.085 347.137 65.8779 344.146 67.1569C340.935 68.5297 339.445 72.2457 340.817 75.4567C341.232 76.4255 341.861 77.2343 342.624 77.8581C342.503 78.4503 342.552 79.0846 342.808 79.6825C343.476 81.2452 345.285 81.97 346.847 81.3026C347.803 80.8937 348.444 80.0574 348.645 79.1129C349.735 79.4555 350.946 79.4288 352.079 78.9448C354.598 77.8686 355.766 74.9541 354.69 72.4356C354.175 71.2317 353.239 70.3412 352.129 69.8516Z" fill="#E0E0E0"/>
<path d="M247.977 104.446C246.975 111.707 251.566 118.715 258.837 120.558C266.643 122.536 274.574 117.81 276.552 110.004C277.148 107.649 277.126 105.286 276.602 103.075C277.654 102.159 278.45 100.927 278.819 99.4729C279.781 95.6745 277.481 91.8146 273.683 90.8523C271.358 90.2633 269.015 90.9 267.322 92.3495C265.805 90.1962 263.547 88.5495 260.793 87.8514C254.671 86.3 248.45 90.0055 246.899 96.1286C246.158 99.0535 246.628 101.996 247.977 104.446Z" fill="#E0E0E0"/>
<path d="M43.8157 249.436C42.8129 256.697 47.404 263.705 54.6752 265.548C62.4813 267.526 70.4126 262.8 72.3906 254.994C72.9869 252.639 72.9643 250.276 72.4407 248.065C73.4927 247.149 74.2886 245.917 74.657 244.463C75.6194 240.664 73.3198 236.805 69.5214 235.842C67.1968 235.253 64.8536 235.89 63.1608 237.339C61.6434 235.186 59.385 233.539 56.6314 232.841C50.5091 231.29 44.2883 234.995 42.737 241.118C41.9961 244.043 42.4655 246.985 43.8157 249.436Z" fill="#E0E0E0"/>
<path d="M235.281 124.779L237.092 121.145L236.333 125.66L237.179 129.028L242.825 127.72L245.861 125.34L243.228 128.635L241.102 129.367L243.125 130.309L245.951 130.077L243.089 130.883L239.828 129.806L237.072 130.756L233.773 137.461L230.426 135.692L235.433 129.304L234.936 125.992L232.954 124.347L232.607 120.867L233.663 123.766L235.281 124.779Z" fill="#407BFF"/>
<path d="M123.638 220.265L119.588 220.554L124.052 221.573L126.843 223.639L123.483 228.359L120.125 230.26L124.174 229.082L125.662 227.395L125.762 229.624L124.469 232.149L126.307 229.809L126.552 226.385L128.481 224.198L135.938 223.704L135.577 219.933L127.763 222.129L124.892 220.408L124.124 217.949L121.04 216.302L123.318 218.383L123.638 220.265Z" fill="#407BFF"/>
<path d="M275.041 249.068L278.034 251.812L275.707 247.869L275.291 244.422L281.03 243.62L284.718 244.753L281.079 242.622L278.831 242.7H278.832L280.382 241.095L283.105 240.299L280.143 240.572L277.485 242.746L274.571 242.848L269.089 237.768L266.598 240.621L273.561 244.79L274.284 248.06L273.024 250.306L273.946 253.68L273.894 250.594L275.041 249.068Z" fill="#407BFF"/>
<path d="M253.092 147.54L259.013 143.682L259.519 136.755L257.395 134.841L257.519 132.541L258.074 134.274L259.781 135.734L261.357 133.068L260.736 136.321L260.693 139.775L262.604 140.13L264.063 138.471L263.269 140.617L265.273 141.409L262.713 140.958L260.679 140.922L260.881 143.813L263.39 145.121L264.764 143.849L264.171 145.279L266.657 145.812L269.141 144.669L266.646 146.748L263.184 146.574L260.557 145.738L255.69 150.832L253.092 147.54Z" fill="#407BFF"/>
<path d="M168.097 139.806L164.145 133.946L166.375 127.37L169.076 126.432L169.857 124.266L168.672 125.646L166.531 126.325L166.118 123.257L165.423 126.494L164.118 129.694L162.219 129.276L161.522 127.18L161.417 129.466L159.263 129.415L161.796 129.997L163.685 130.755L162.373 133.34L159.553 133.568L158.783 131.86L158.772 133.41L156.274 132.933L154.432 130.912L155.921 133.799L159.177 134.986L161.922 135.238L164.423 141.826L168.097 139.806Z" fill="#407BFF"/>
<path d="M175.407 269.327L172.811 275.9L176.407 281.841L179.246 282.175L180.476 284.122L179.022 283.029L176.784 282.828L177.041 285.914L175.666 282.901L173.702 280.059L171.938 280.875L171.708 283.073L171.114 280.863L169.021 281.377L171.368 280.263L173.049 279.116L171.212 276.875L168.409 277.26L168.024 279.092L167.68 277.583L165.344 278.586L163.98 280.956L164.811 277.817L167.736 275.956L170.362 275.117L171.384 268.146L175.407 269.327Z" fill="#407BFF"/>
<path d="M272.267 182.031L278.726 179.162L284.813 182.507L289.265 182.26L284.65 181.536L282.918 179.878L283.66 178.082L285.846 177.761L283.613 177.259L284.039 175.146L283.024 177.538L281.949 179.266L279.633 177.524L279.9 174.707L281.716 174.246L280.191 173.966L281.097 171.589L283.407 170.128L280.307 171.09L278.569 174.089L277.841 176.748L270.918 178.061L272.267 182.031Z" fill="#407BFF"/>
<path d="M143.839 245.809L138.73 250.693L131.871 249.604L127.764 251.341L132.353 250.463L134.543 251.437L134.452 253.378L132.503 254.419L134.774 254.137L135.087 256.269L135.233 253.674L135.662 251.685L138.431 252.542L139.131 255.283L137.578 256.33L139.107 256.079L139.059 258.622L137.378 260.778L139.972 258.824L140.592 255.414L140.379 252.665L146.45 249.09L143.839 245.809Z" fill="#407BFF"/>
<path d="M127.986 212.549C127.646 210.031 127.434 207.53 127.343 205.046C126.558 183.778 134.673 163.863 148.623 149.316C160.185 137.258 175.761 128.884 193.605 126.479C194.068 126.416 194.531 126.36 194.988 126.303C204.543 125.19 213.901 125.892 222.712 128.136L222.718 128.135C249.652 135.009 271.509 156.306 278.24 184.396C278.841 186.912 279.322 189.48 279.675 192.098C280.528 198.421 280.581 204.665 279.912 210.728C277.944 228.697 269.658 245.112 257.056 257.328C245.722 268.306 230.903 275.897 214.056 278.168C205.031 279.385 196.161 278.975 187.749 277.166C157.092 270.579 132.416 245.412 127.986 212.549Z" fill="#407BFF"/>
<g opacity="0.5">
<path d="M127.986 212.549C127.646 210.031 127.434 207.53 127.343 205.046C126.558 183.778 134.673 163.863 148.623 149.316C160.185 137.258 175.761 128.884 193.605 126.479C194.068 126.416 194.531 126.36 194.988 126.303C204.543 125.19 213.901 125.892 222.712 128.136L222.718 128.135C249.652 135.009 271.509 156.306 278.24 184.396C278.841 186.912 279.322 189.48 279.675 192.098C280.528 198.421 280.581 204.665 279.912 210.728C277.944 228.697 269.658 245.112 257.056 257.328C245.722 268.306 230.903 275.897 214.056 278.168C205.031 279.385 196.161 278.975 187.749 277.166C157.092 270.579 132.416 245.412 127.986 212.549Z" fill="white"/>
</g>
<path d="M188.142 260.528C186.734 260.848 186.317 262.681 186.209 264.147C186.052 266.346 185.889 268.546 185.731 270.745C188.5 271.637 188.689 274.851 187.748 277.167C157.092 270.579 132.416 245.413 127.986 212.55C127.647 210.032 127.434 207.531 127.344 205.047C127.4 205 127.462 204.957 127.524 204.915C129.469 203.674 131.327 205.234 133.014 206.034C133.395 206.214 138.226 207.844 138.208 207.221C138.269 209.231 138.634 211.232 139.284 213.135C139.334 213.279 139.395 213.436 139.531 213.505C139.853 213.67 140.136 213.218 140.2 212.863C140.365 211.952 140.366 211.014 140.584 210.115C140.803 209.216 141.298 208.316 142.138 207.928C142.983 207.539 143.984 207.743 144.881 207.498C145.977 207.2 146.801 206.254 147.239 205.207C147.663 204.197 147.776 203.076 147.918 202.006C149.295 204.25 151.827 202.435 153.671 204.156C154.263 204.708 154.995 205.521 155.702 205.126C156.374 204.75 156.301 203.529 157.047 203.337C157.57 203.204 158.033 203.737 158.178 204.257C158.325 204.776 158.311 205.353 158.597 205.81C158.997 206.453 159.988 206.625 160.581 206.153C161.114 205.729 161.247 204.991 161.536 204.374C161.824 203.758 162.537 203.179 163.132 203.509C163.272 203.587 163.385 203.707 163.475 203.84C164.132 204.787 163.692 206.093 163.101 207.083C162.51 208.072 161.754 209.082 161.824 210.233C162.271 210.473 162.903 210.255 163.105 209.789C163.175 209.627 163.201 209.439 163.321 209.309C163.582 209.026 164.043 209.205 164.39 209.371C166.02 210.152 167.968 210.247 169.666 209.627C169.502 207.296 169.337 204.966 169.172 202.635C169.694 202.551 170.004 202.477 170.133 201.914C172.085 203.382 173.907 205 176.015 206.279C176.268 206.433 176.538 206.6 176.652 206.873C176.77 207.158 176.688 207.486 176.746 207.788C176.936 208.79 178.324 208.882 179.332 208.727C179.646 208.853 179.539 209.356 179.266 209.557C178.993 209.758 178.628 209.82 178.389 210.06C178.032 210.419 178.102 211.022 178.308 211.485C179.025 213.093 181.198 213.849 182.759 213.035C182.944 212.939 183.128 212.815 183.223 212.628C183.43 212.217 183.124 211.747 183.02 211.298C182.606 209.53 184.594 209.7 185.549 210.081C186.844 210.599 187.75 212.295 188.138 213.541C188.593 214.997 190.98 224.743 194.106 222.954C194.4 222.786 194.588 222.479 194.707 222.163C195.07 221.205 194.898 220.127 195.125 219.129C195.352 218.129 196.327 217.121 197.279 217.502C197.66 217.655 197.935 217.999 198.304 218.18C199.332 218.684 200.586 217.762 201.68 218.1C202.182 218.256 202.568 218.657 203.037 218.897C203.505 219.137 204.194 219.145 204.443 218.681C204.723 218.162 204.233 217.495 204.446 216.946C204.671 216.369 205.595 216.365 205.973 216.857C206.349 217.348 206.252 218.074 205.933 218.603C205.766 218.88 205.538 219.144 205.511 219.467C205.464 220.045 206.058 220.446 206.573 220.713C207.392 221.138 208.211 221.564 209.031 221.988C209.048 222.515 208.586 222.943 208.1 223.149C207.615 223.355 207.075 223.418 206.596 223.648C204.288 224.759 204.755 228.334 201.503 228.036C201.571 227.062 200.435 226.225 199.524 226.576C198.402 227.009 197.863 228.755 196.674 228.576C196.26 228.513 195.911 228.204 195.496 228.16C194.346 228.038 194.019 229.821 193.799 230.591C193.068 233.144 194.723 233.23 194.934 235.399C195.031 236.391 194.405 237.319 194.347 238.314C194.294 239.23 194.726 240.116 194.719 241.033C194.703 243.556 191.229 242.47 189.739 242.368C190.709 243.673 189.751 245.531 188.594 246.669C186.816 248.417 187.137 248.245 187.167 250.436C187.175 251.015 186.921 251.635 186.406 251.896C185.506 252.35 184.471 251.536 183.465 251.566C182.982 251.581 182.516 251.793 182.033 251.773C180.765 251.722 180.138 250.256 179.207 249.395C178.392 248.642 177.193 248.327 176.113 248.583C176.105 249.231 176.186 249.879 176.35 250.507C177.1 250.847 177.85 251.187 178.6 251.528C179.263 251.83 179.951 252.15 180.409 252.715C180.667 253.032 180.85 253.425 181.192 253.647C181.872 254.09 182.751 253.658 183.547 253.504C185.478 253.129 188.802 253.938 190.757 254.314C192.839 254.716 193.719 256.04 195.644 256.439C195.983 256.509 196.116 256.971 195.961 257.281C195.806 257.591 195.467 257.763 195.137 257.866C194.369 258.105 193.52 258.074 192.772 257.78C193.754 258.165 191.355 260.721 190.884 260.893C190.112 261.173 188.966 260.71 188.152 260.773C186.133 260.927 185.022 261.474 186.617 263.487C187.228 264.257 187.951 265.246 187.5 266.118C186.941 265.965 186.341 266.366 186.107 266.897C185.873 267.426 185.928 268.04 186.066 268.603C186.16 268.982 186.305 269.377 186.62 269.608C186.789 269.731 186.999 269.802 187.136 269.96C187.582 270.474 186.892 271.188 186.293 271.511" fill="#407BFF"/>
<path d="M277.288 180.806C269.799 155.094 248.652 134.755 222.719 128.136C222.232 129.325 221.746 130.514 221.008 131.56C219.593 133.547 216.917 135.401 217.526 138.164C217.606 138.526 221.708 144.128 220.248 144.353C219.333 144.494 218.339 144.676 217.729 145.373C217.531 145.599 217.385 145.87 217.168 146.078C216.481 146.733 215.391 146.552 214.443 146.601C213.495 146.651 212.347 147.396 212.681 148.284C212.924 148.928 213.885 149.393 213.594 150.016C213.473 150.274 213.169 150.398 213.019 150.639C212.694 151.16 213.242 151.829 213.133 152.433C212.98 153.276 211.779 153.362 210.977 153.06C210.174 152.757 209.262 152.285 208.524 152.721C208.487 153.497 208.61 154.502 209.363 154.689C209.61 154.751 209.871 154.698 210.127 154.696C212.238 154.677 212.129 157.437 212.423 158.896C212.482 159.191 212.55 159.502 212.751 159.725C213.457 160.504 214.888 159.516 215.77 160.087C216.664 160.667 216.127 162.151 216.71 163.042C217.438 162.098 218.685 161.582 219.867 161.737C220.24 161.786 220.705 162.121 220.5 162.437C219.786 162.99 218.678 162.736 217.954 163.277C216.439 164.408 218.266 166.247 217.499 167.484C216.334 169.365 214.006 167.27 213.768 165.644C213.729 165.38 213.723 165.103 213.593 164.87C213.19 164.145 212.096 164.422 211.355 164.793C211.818 165.165 211.434 165.979 210.871 166.17C210.309 166.361 209.695 166.192 209.1 166.187C208.506 166.182 207.8 166.474 207.734 167.065C207.709 167.295 207.79 167.522 207.81 167.752C207.886 168.611 207.065 169.347 206.21 169.462C205.356 169.577 204.509 169.228 203.751 168.818C203.437 168.647 203.113 168.448 202.949 168.13C202.734 167.709 202.856 167.204 202.934 166.738C203.039 166.113 203.057 165.474 202.986 164.844C202.917 164.227 202.536 163.458 201.926 163.579C201.396 163.686 201.254 164.377 201.296 164.916C201.338 165.456 201.413 166.093 201.001 166.444C199.584 166.264 198.148 167.476 198.086 168.903C198.076 169.145 198.098 169.399 198.006 169.625C197.717 170.336 196.591 170.261 196.148 170.887C195.793 171.387 196.034 172.076 196.284 172.636C196.75 173.68 196.996 175.461 197.533 176.915C198.042 178.291 198.814 179.373 200.281 179.255C201.622 179.147 202.714 178.153 203.388 177.053C203.473 177.427 205.538 180.348 205.972 180.533C206.878 180.92 208.581 179.241 209.303 181.017C209.44 181.351 209.45 181.724 209.561 182.067C209.727 182.582 210.158 183.026 210.692 183.12C211.225 183.214 211.826 182.89 211.964 182.366C212.029 182.121 211.995 181.859 212.043 181.611C212.322 180.193 215.249 180.045 216.196 179.447C216.814 179.057 217.301 178.497 217.878 178.05C218.015 177.943 218.166 177.84 218.339 177.816C218.932 177.736 219.196 178.531 219.237 179.128C220.373 179.608 221.798 178.344 221.456 177.158C222.769 176.991 224.161 176.525 225.419 176.818C224.866 175.894 224.979 174.873 224.914 173.823C224.848 172.752 226.028 171.978 226.973 172.438C227.864 172.872 227.721 173.839 227.986 174.609C228.621 176.455 228.283 176.156 227.825 178.017C226.94 181.608 230.169 185.611 233.973 183.096C235.061 182.376 235.801 181.165 236.995 180.646C237.686 180.343 238.515 180.271 239.014 179.716C239.528 179.153 239.51 178.305 239.465 177.551C239.332 175.43 239.123 173.122 237.646 171.596C237.288 171.225 236.885 170.76 236.538 170.249C236.43 170.195 236.321 170.141 236.218 170.078C236.009 169.928 235.849 169.736 235.738 169.504C235.626 169.263 235.581 169.011 235.605 168.746C235.611 168.67 235.636 168.6 235.653 168.528C235.501 167.405 235.618 166.174 235.277 165.085C235.846 165.242 236.421 165.377 236.998 165.502C237.125 165.456 237.254 165.419 237.387 165.394C237.317 164.746 236.078 164.289 236.469 163.731C237.049 163.629 237.627 163.529 238.205 163.427C238.377 163.397 238.57 163.372 238.71 163.475C238.849 163.576 238.884 163.765 238.907 163.934C238.968 164.357 239.029 164.78 239.09 165.202C239.423 165.338 239.765 165.64 239.915 165.997C240.199 166.033 240.484 166.066 240.77 166.094C240.822 166.086 240.873 166.074 240.924 166.064C241.074 165.945 241.219 165.821 241.359 165.701C241.605 165.49 241.891 165.286 242.192 165.142C242.495 164.869 242.809 164.609 243.17 164.412C243.177 162.999 243.542 161.588 244.256 160.37C244.444 160.045 244.678 159.718 245.038 159.607C245.37 159.505 245.732 159.621 246.065 159.734C246.868 160.017 247.673 160.3 248.476 160.584C249.214 160.841 250.042 161.179 250.34 161.909C250.599 162.526 250.387 163.224 250.172 163.86C249.658 165.387 249.143 166.92 248.63 168.453C248.38 169.202 248.121 169.979 248.222 170.766C248.48 172.807 250.856 173.809 251.911 175.573C250.448 176.382 248.75 177.672 249.113 179.307C249.409 180.657 250.945 181.284 251.837 182.344C252.557 183.196 252.134 184.283 252.965 185.065C253.452 185.524 254.082 185.857 254.415 186.437C254.748 187.018 254.53 187.977 253.862 188.023C255.287 188.277 256.721 188.532 258.073 189.049C259.708 189.674 261.433 190.692 263.087 190.118C263.88 189.842 264.509 189.23 265.046 188.583C265.501 188.033 266.198 187.376 266.812 187.743C266.726 188.09 267.075 188.393 267.412 188.512C267.75 188.631 268.137 188.679 268.38 188.943C268.816 189.416 268.765 190.489 269.404 190.416C271.853 189.107 269.814 186 271.877 184.375C273.502 183.097 276.363 184.049 278.157 184.317C277.999 183.147 277.623 181.959 277.288 180.806Z" fill="#407BFF"/>
<path d="M156.999 183.499C156.344 184.109 155.866 184.974 155.934 185.866C155.976 186.416 156.219 186.93 156.324 187.472C156.429 188.013 156.354 188.658 155.909 188.983C155.339 189.398 154.547 189.072 153.926 188.741C153.421 188.471 152.875 188.154 152.69 187.612C152.555 187.216 152.645 186.776 152.556 186.367C152.381 185.558 151.582 185.074 150.929 184.564C150.275 184.054 149.667 183.198 150.035 182.456C150.278 181.967 150.867 181.732 151.133 181.257C151.784 180.096 150.174 178.793 150.701 177.745C151.326 176.504 153.314 176.844 154.445 177.287C155.591 177.735 156.507 178.72 157.391 179.541C159.888 181.862 159.081 181.561 156.999 183.499Z" fill="#407BFF"/>
<path d="M148.682 149.287C159.977 136.648 176.98 128.721 193.605 126.48C194.067 126.417 194.53 126.361 194.988 126.304C197.5 128.5 199.262 133.04 195.024 134.471C195.082 134.946 195.371 135.029 195.659 135.378C196.111 135.926 195.579 136.756 194.962 137.109C192.939 138.263 190.338 138.543 191.047 141.393C191.893 144.793 193.242 142.389 195.193 143.41C195.476 143.557 195.665 143.833 195.903 144.045C196.777 144.822 198.112 144.644 199.26 144.42C198.883 143.778 199.221 142.834 199.918 142.577C200.181 142.48 200.488 142.463 200.692 142.271C201.132 141.858 200.66 141.078 200.078 140.921C199.497 140.764 198.874 140.94 198.279 140.846C197.684 140.753 197.074 140.139 197.36 139.609C197.48 139.387 197.72 139.261 197.957 139.175C198.95 138.814 200.118 138.983 200.967 139.611C201.088 139.037 201.633 138.582 202.219 138.564C202.805 138.547 203.376 138.969 203.531 139.535C203.757 140.362 203.325 141.581 204.129 141.88C203.438 141.79 202.71 142.126 202.329 142.711C200.834 145.011 202.525 149.924 197.777 149.67C197.014 149.629 196.26 149.403 195.499 149.46C194.737 149.516 193.915 149.978 193.808 150.735C192.652 149.445 190.19 150.066 189.167 148.669C188.685 148.011 188.739 147.016 189.289 146.414C189.381 146.314 189.488 146.217 189.521 146.086C189.589 145.818 189.328 145.586 189.257 145.32C189.132 144.857 189.596 144.426 189.599 143.946C189.602 143.277 188.785 142.955 188.121 142.871C187.458 142.786 186.643 142.65 186.429 142.016C186.356 141.8 186.374 141.562 186.301 141.345C186.154 140.91 185.661 140.668 185.2 140.668C184.74 140.667 184.303 140.856 183.882 141.04C183.616 141.332 183.813 141.819 184.116 142.072C184.419 142.324 184.813 142.466 185.075 142.762C185.22 142.928 185.118 146.94 185.402 146.799C184.056 147.464 181.062 147.919 181.937 149.944C182.245 150.659 182.776 151.378 182.593 152.134C183.546 151.73 184.505 151.337 185.468 150.954C185.75 151.243 185.408 151.731 185.032 151.878C184.655 152.025 184.192 152.07 183.967 152.405C183.809 152.64 183.822 152.948 183.843 153.23C183.908 154.151 183.975 155.072 184.04 155.993C184.111 156.992 184.124 158.146 183.373 158.809C182.52 159.564 181.134 159.226 180.245 158.514C180.031 158.343 179.795 158.141 179.524 158.174C179.278 158.204 179.104 158.417 178.942 158.603C178.088 159.588 176.806 160.279 175.51 160.141C174.214 160.004 173.012 158.871 173.061 157.569C173.079 157.067 173.215 156.44 172.795 156.166C172.548 156.006 172.164 156.031 172.028 155.77C171.859 155.44 172.267 155.135 172.535 154.878C173.018 154.414 173.108 153.596 172.737 153.039C172.547 152.754 169.661 151.977 169.261 152.239C168.344 152.839 168.851 155.437 168.858 156.463C168.861 156.86 168.844 157.303 168.559 157.578C168.113 158.008 167.353 157.718 166.911 157.285C166.468 156.853 166.11 156.279 165.523 156.083C165.182 155.969 164.811 156.003 164.453 156.037C163.728 156.108 162.919 156.223 162.474 156.801C162.266 157.071 162.168 157.413 161.961 157.683C161.488 158.3 160.579 158.389 159.819 158.222C159.059 158.055 158.347 157.689 157.577 157.585C155.937 157.364 154.218 158.347 152.663 157.78C151.911 157.506 151.275 156.564 151.761 155.93C152.181 155.381 153.237 155.332 153.279 154.642C153.32 153.982 151.621 153.253 151.272 152.724C150.995 152.306 151.37 151.414 150.755 150.65C150.257 150.031 149.223 149.953 148.682 149.287Z" fill="#407BFF"/>
<path d="M255.777 246.096C256.602 245.376 257.57 244.899 257.726 243.618C257.939 241.874 256.935 241.269 255.334 242.111C255.192 242.186 255.037 242.265 254.878 242.236C254.373 242.144 254.625 241.382 254.89 240.942C255.511 239.913 255.401 238.652 254.88 237.614C254.756 237.369 259.475 236.656 260.032 236.874C261.984 237.64 261.292 241.683 263.325 240.756C263.279 239.258 263.005 237.736 262.818 236.24C263.536 236.12 264.253 236.001 264.97 235.882C264.436 235.97 264.403 233.171 264.547 232.846C265.108 231.584 267.364 231.803 266.886 229.613C266.282 226.844 260.784 226.967 261.844 230.097C260.272 230.941 258.358 231.329 256.584 231.502C256.616 232.077 256.654 232.656 256.692 233.229C256.314 233.535 255.779 233.648 255.307 233.512C254.265 232.183 254.145 230.198 255.016 228.747C254.275 227.877 254.875 226.559 255.487 225.592C253.317 224.393 253.417 220.63 255.648 219.546C257.884 218.462 260.899 220.715 260.497 223.164C261.653 223.15 262.807 223.51 263.748 224.178C263.492 221.183 265.383 218.126 268.178 217.023C269.584 216.465 271.31 216.267 272.156 215.013C272.534 214.457 272.669 213.769 273.01 213.19C273.788 211.894 275.418 211.442 276.907 211.167C277.903 210.987 278.905 210.841 279.911 210.728C277.943 228.697 269.657 245.112 257.055 257.328C256.529 257.415 255.981 257.478 255.491 257.294C254.582 256.946 254.18 255.906 253.885 254.976C252.728 251.36 252.817 249.004 255.538 246.316C255.616 246.241 255.696 246.167 255.777 246.096Z" fill="#407BFF"/>
<g opacity="0.1">
<path d="M127.572 208.786C127.68 210.035 127.818 211.295 127.989 212.549C132.42 245.41 157.09 270.581 187.752 277.164C196.159 278.977 205.033 279.382 214.06 278.165C230.9 275.897 245.721 268.306 257.055 257.331C269.659 245.11 277.947 228.697 279.912 210.728C280.584 204.665 280.527 198.423 279.675 192.101C279.318 189.477 278.843 186.915 278.242 184.399C271.506 156.305 249.654 135.007 222.722 128.134L222.714 128.133C221.748 127.893 220.78 127.66 219.801 127.46C248.424 138.162 267.578 166.978 264.722 198.895C261.293 237.209 227.456 265.487 189.143 262.059C158.512 259.32 134.301 237.146 127.572 208.786Z" fill="black"/>
</g>
<g opacity="0.3">
<path d="M188.142 260.528C186.734 260.848 186.317 262.681 186.209 264.147C186.052 266.346 185.889 268.546 185.731 270.745C188.5 271.637 188.689 274.851 187.748 277.167C157.092 270.579 132.416 245.413 127.986 212.55C127.647 210.032 127.434 207.531 127.344 205.047C127.4 205 127.462 204.957 127.524 204.915C129.469 203.674 131.327 205.234 133.014 206.034C133.395 206.214 138.226 207.844 138.208 207.221C138.269 209.231 138.634 211.232 139.284 213.135C139.334 213.279 139.395 213.436 139.531 213.505C139.853 213.67 140.136 213.218 140.2 212.863C140.365 211.952 140.366 211.014 140.584 210.115C140.803 209.216 141.298 208.316 142.138 207.928C142.983 207.539 143.984 207.743 144.881 207.498C145.977 207.2 146.801 206.254 147.239 205.207C147.663 204.197 147.776 203.076 147.918 202.006C149.295 204.25 151.827 202.435 153.671 204.156C154.263 204.708 154.995 205.521 155.702 205.126C156.374 204.75 156.301 203.529 157.047 203.337C157.57 203.204 158.033 203.737 158.178 204.257C158.325 204.776 158.311 205.353 158.597 205.81C158.997 206.453 159.988 206.625 160.581 206.153C161.114 205.729 161.247 204.991 161.536 204.374C161.824 203.758 162.537 203.179 163.132 203.509C163.272 203.587 163.385 203.707 163.475 203.84C164.132 204.787 163.692 206.093 163.101 207.083C162.51 208.072 161.754 209.082 161.824 210.233C162.271 210.473 162.903 210.255 163.105 209.789C163.175 209.627 163.201 209.439 163.321 209.309C163.582 209.026 164.043 209.205 164.39 209.371C166.02 210.152 167.968 210.247 169.666 209.627C169.502 207.296 169.337 204.966 169.172 202.635C169.694 202.551 170.004 202.477 170.133 201.914C172.085 203.382 173.907 205 176.015 206.279C176.268 206.433 176.538 206.6 176.652 206.873C176.77 207.158 176.688 207.486 176.746 207.788C176.936 208.79 178.324 208.882 179.332 208.727C179.646 208.853 179.539 209.356 179.266 209.557C178.993 209.758 178.628 209.82 178.389 210.06C178.032 210.419 178.102 211.022 178.308 211.485C179.025 213.093 181.198 213.849 182.759 213.035C182.944 212.939 183.128 212.815 183.223 212.628C183.43 212.217 183.124 211.747 183.02 211.298C182.606 209.53 184.594 209.7 185.549 210.081C186.844 210.599 187.75 212.295 188.138 213.541C188.593 214.997 190.98 224.743 194.106 222.954C194.4 222.786 194.588 222.479 194.707 222.163C195.07 221.205 194.898 220.127 195.125 219.129C195.352 218.129 196.327 217.121 197.279 217.502C197.66 217.655 197.935 217.999 198.304 218.18C199.332 218.684 200.586 217.762 201.68 218.1C202.182 218.256 202.568 218.657 203.037 218.897C203.505 219.137 204.194 219.145 204.443 218.681C204.723 218.162 204.233 217.495 204.446 216.946C204.671 216.369 205.595 216.365 205.973 216.857C206.349 217.348 206.252 218.074 205.933 218.603C205.766 218.88 205.538 219.144 205.511 219.467C205.464 220.045 206.058 220.446 206.573 220.713C207.392 221.138 208.211 221.564 209.031 221.988C209.048 222.515 208.586 222.943 208.1 223.149C207.615 223.355 207.075 223.418 206.596 223.648C204.288 224.759 204.755 228.334 201.503 228.036C201.571 227.062 200.435 226.225 199.524 226.576C198.402 227.009 197.863 228.755 196.674 228.576C196.26 228.513 195.911 228.204 195.496 228.16C194.346 228.038 194.019 229.821 193.799 230.591C193.068 233.144 194.723 233.23 194.934 235.399C195.031 236.391 194.405 237.319 194.347 238.314C194.294 239.23 194.726 240.116 194.719 241.033C194.703 243.556 191.229 242.47 189.739 242.368C190.709 243.673 189.751 245.531 188.594 246.669C186.816 248.417 187.137 248.245 187.167 250.436C187.175 251.015 186.921 251.635 186.406 251.896C185.506 252.35 184.471 251.536 183.465 251.566C182.982 251.581 182.516 251.793 182.033 251.773C180.765 251.722 180.138 250.256 179.207 249.395C178.392 248.642 177.193 248.327 176.113 248.583C176.105 249.231 176.186 249.879 176.35 250.507C177.1 250.847 177.85 251.187 178.6 251.528C179.263 251.83 179.951 252.15 180.409 252.715C180.667 253.032 180.85 253.425 181.192 253.647C181.872 254.09 182.751 253.658 183.547 253.504C185.478 253.129 188.802 253.938 190.757 254.314C192.839 254.716 193.719 256.04 195.644 256.439C195.983 256.509 196.116 256.971 195.961 257.281C195.806 257.591 195.467 257.763 195.137 257.866C194.369 258.105 193.52 258.074 192.772 257.78C193.754 258.165 191.355 260.721 190.884 260.893C190.112 261.173 188.966 260.71 188.152 260.773C186.133 260.927 185.022 261.474 186.617 263.487C187.228 264.257 187.951 265.246 187.5 266.118C186.941 265.965 186.341 266.366 186.107 266.897C185.873 267.426 185.928 268.04 186.066 268.603C186.16 268.982 186.305 269.377 186.62 269.608C186.789 269.731 186.999 269.802 187.136 269.96C187.582 270.474 186.892 271.188 186.293 271.511" fill="white"/>
<path d="M277.288 180.806C269.799 155.094 248.652 134.755 222.719 128.136C222.232 129.325 221.746 130.514 221.008 131.56C219.593 133.547 216.917 135.401 217.526 138.164C217.606 138.526 221.708 144.128 220.248 144.353C219.333 144.494 218.339 144.676 217.729 145.373C217.531 145.599 217.385 145.87 217.168 146.078C216.481 146.733 215.391 146.552 214.443 146.601C213.495 146.651 212.347 147.396 212.681 148.284C212.924 148.928 213.885 149.393 213.594 150.016C213.473 150.274 213.169 150.398 213.019 150.639C212.694 151.16 213.242 151.829 213.133 152.433C212.98 153.276 211.779 153.362 210.977 153.06C210.174 152.757 209.262 152.285 208.524 152.721C208.487 153.497 208.61 154.502 209.363 154.689C209.61 154.751 209.871 154.698 210.127 154.696C212.238 154.677 212.129 157.437 212.423 158.896C212.482 159.191 212.55 159.502 212.751 159.725C213.457 160.504 214.888 159.516 215.77 160.087C216.664 160.667 216.127 162.151 216.71 163.042C217.438 162.098 218.685 161.582 219.867 161.737C220.24 161.786 220.705 162.121 220.5 162.437C219.786 162.99 218.678 162.736 217.954 163.277C216.439 164.408 218.266 166.247 217.499 167.484C216.334 169.365 214.006 167.27 213.768 165.644C213.729 165.38 213.723 165.103 213.593 164.87C213.19 164.145 212.096 164.422 211.355 164.793C211.818 165.165 211.434 165.979 210.871 166.17C210.309 166.361 209.695 166.192 209.1 166.187C208.506 166.182 207.8 166.474 207.734 167.065C207.709 167.295 207.79 167.522 207.81 167.752C207.886 168.611 207.065 169.347 206.21 169.462C205.356 169.577 204.509 169.228 203.751 168.818C203.437 168.647 203.113 168.448 202.949 168.13C202.734 167.709 202.856 167.204 202.934 166.738C203.039 166.113 203.057 165.474 202.986 164.844C202.917 164.227 202.536 163.458 201.926 163.579C201.396 163.686 201.254 164.377 201.296 164.916C201.338 165.456 201.413 166.093 201.001 166.444C199.584 166.264 198.148 167.476 198.086 168.903C198.076 169.145 198.098 169.399 198.006 169.625C197.717 170.336 196.591 170.261 196.148 170.887C195.793 171.387 196.034 172.076 196.284 172.636C196.75 173.68 196.996 175.461 197.533 176.915C198.042 178.291 198.814 179.373 200.281 179.255C201.622 179.147 202.714 178.153 203.388 177.053C203.473 177.427 205.538 180.348 205.972 180.533C206.878 180.92 208.581 179.241 209.303 181.017C209.44 181.351 209.45 181.724 209.561 182.067C209.727 182.582 210.158 183.026 210.692 183.12C211.225 183.214 211.826 182.89 211.964 182.366C212.029 182.121 211.995 181.859 212.043 181.611C212.322 180.193 215.249 180.045 216.196 179.447C216.814 179.057 217.301 178.497 217.878 178.05C218.015 177.943 218.166 177.84 218.339 177.816C218.932 177.736 219.196 178.531 219.237 179.128C220.373 179.608 221.798 178.344 221.456 177.158C222.769 176.991 224.161 176.525 225.419 176.818C224.866 175.894 224.979 174.873 224.914 173.823C224.848 172.752 226.028 171.978 226.973 172.438C227.864 172.872 227.721 173.839 227.986 174.609C228.621 176.455 228.283 176.156 227.825 178.017C226.94 181.608 230.169 185.611 233.973 183.096C235.061 182.376 235.801 181.165 236.995 180.646C237.686 180.343 238.515 180.271 239.014 179.716C239.528 179.153 239.51 178.305 239.465 177.551C239.332 175.43 239.123 173.122 237.646 171.596C237.288 171.225 236.885 170.76 236.538 170.249C236.43 170.195 236.321 170.141 236.218 170.078C236.009 169.928 235.849 169.736 235.738 169.504C235.626 169.263 235.581 169.011 235.605 168.746C235.611 168.67 235.636 168.6 235.653 168.528C235.501 167.405 235.618 166.174 235.277 165.085C235.846 165.242 236.421 165.377 236.998 165.502C237.125 165.456 237.254 165.419 237.387 165.394C237.317 164.746 236.078 164.289 236.469 163.731C237.049 163.629 237.627 163.529 238.205 163.427C238.377 163.397 238.57 163.372 238.71 163.475C238.849 163.576 238.884 163.765 238.907 163.934C238.968 164.357 239.029 164.78 239.09 165.202C239.423 165.338 239.765 165.64 239.915 165.997C240.199 166.033 240.484 166.066 240.77 166.094C240.822 166.086 240.873 166.074 240.924 166.064C241.074 165.945 241.219 165.821 241.359 165.701C241.605 165.49 241.891 165.286 242.192 165.142C242.495 164.869 242.809 164.609 243.17 164.412C243.177 162.999 243.542 161.588 244.256 160.37C244.444 160.045 244.678 159.718 245.038 159.607C245.37 159.505 245.732 159.621 246.065 159.734C246.868 160.017 247.673 160.3 248.476 160.584C249.214 160.841 250.042 161.179 250.34 161.909C250.599 162.526 250.387 163.224 250.172 163.86C249.658 165.387 249.143 166.92 248.63 168.453C248.38 169.202 248.121 169.979 248.222 170.766C248.48 172.807 250.856 173.809 251.911 175.573C250.448 176.382 248.75 177.672 249.113 179.307C249.409 180.657 250.945 181.284 251.837 182.344C252.557 183.196 252.134 184.283 252.965 185.065C253.452 185.524 254.082 185.857 254.415 186.437C254.748 187.018 254.53 187.977 253.862 188.023C255.287 188.277 256.721 188.532 258.073 189.049C259.708 189.674 261.433 190.692 263.087 190.118C263.88 189.842 264.509 189.23 265.046 188.583C265.501 188.033 266.198 187.376 266.812 187.743C266.726 188.09 267.075 188.393 267.412 188.512C267.75 188.631 268.137 188.679 268.38 188.943C268.816 189.416 268.765 190.489 269.404 190.416C271.853 189.107 269.814 186 271.877 184.375C273.502 183.097 276.363 184.049 278.157 184.317C277.999 183.147 277.623 181.959 277.288 180.806Z" fill="white"/>
<path d="M156.999 183.499C156.344 184.109 155.866 184.974 155.934 185.866C155.976 186.416 156.219 186.93 156.324 187.472C156.429 188.013 156.354 188.658 155.909 188.983C155.339 189.398 154.547 189.072 153.926 188.741C153.421 188.471 152.875 188.154 152.69 187.612C152.555 187.216 152.645 186.776 152.556 186.367C152.381 185.558 151.582 185.074 150.929 184.564C150.275 184.054 149.667 183.198 150.035 182.456C150.278 181.967 150.867 181.732 151.133 181.257C151.784 180.096 150.174 178.793 150.701 177.745C151.326 176.504 153.314 176.844 154.445 177.287C155.591 177.735 156.507 178.72 157.391 179.541C159.888 181.862 159.081 181.561 156.999 183.499Z" fill="white"/>
<path d="M148.682 149.287C159.977 136.648 176.98 128.721 193.605 126.48C194.067 126.417 194.53 126.361 194.988 126.304C197.5 128.5 199.262 133.04 195.024 134.471C195.082 134.946 195.371 135.029 195.659 135.378C196.111 135.926 195.579 136.756 194.962 137.109C192.939 138.263 190.338 138.543 191.047 141.393C191.893 144.793 193.242 142.389 195.193 143.41C195.476 143.557 195.665 143.833 195.903 144.045C196.777 144.822 198.112 144.644 199.26 144.42C198.883 143.778 199.221 142.834 199.918 142.577C200.181 142.48 200.488 142.463 200.692 142.271C201.132 141.858 200.66 141.078 200.078 140.921C199.497 140.764 198.874 140.94 198.279 140.846C197.684 140.753 197.074 140.139 197.36 139.609C197.48 139.387 197.72 139.261 197.957 139.175C198.95 138.814 200.118 138.983 200.967 139.611C201.088 139.037 201.633 138.582 202.219 138.564C202.805 138.547 203.376 138.969 203.531 139.535C203.757 140.362 203.325 141.581 204.129 141.88C203.438 141.79 202.71 142.126 202.329 142.711C200.834 145.011 202.525 149.924 197.777 149.67C197.014 149.629 196.26 149.403 195.499 149.46C194.737 149.516 193.915 149.978 193.808 150.735C192.652 149.445 190.19 150.066 189.167 148.669C188.685 148.011 188.739 147.016 189.289 146.414C189.381 146.314 189.488 146.217 189.521 146.086C189.589 145.818 189.328 145.586 189.257 145.32C189.132 144.857 189.596 144.426 189.599 143.946C189.602 143.277 188.785 142.955 188.121 142.871C187.458 142.786 186.643 142.65 186.429 142.016C186.356 141.8 186.374 141.562 186.301 141.345C186.154 140.91 185.661 140.668 185.2 140.668C184.74 140.667 184.303 140.856 183.882 141.04C183.616 141.332 183.813 141.819 184.116 142.072C184.419 142.324 184.813 142.466 185.075 142.762C185.22 142.928 185.118 146.94 185.402 146.799C184.056 147.464 181.062 147.919 181.937 149.944C182.245 150.659 182.776 151.378 182.593 152.134C183.546 151.73 184.505 151.337 185.468 150.954C185.75 151.243 185.408 151.731 185.032 151.878C184.655 152.025 184.192 152.07 183.967 152.405C183.809 152.64 183.822 152.948 183.843 153.23C183.908 154.151 183.975 155.072 184.04 155.993C184.111 156.992 184.124 158.146 183.373 158.809C182.52 159.564 181.134 159.226 180.245 158.514C180.031 158.343 179.795 158.141 179.524 158.174C179.278 158.204 179.104 158.417 178.942 158.603C178.088 159.588 176.806 160.279 175.51 160.141C174.214 160.004 173.012 158.871 173.061 157.569C173.079 157.067 173.215 156.44 172.795 156.166C172.548 156.006 172.164 156.031 172.028 155.77C171.859 155.44 172.267 155.135 172.535 154.878C173.018 154.414 173.108 153.596 172.737 153.039C172.547 152.754 169.661 151.977 169.261 152.239C168.344 152.839 168.851 155.437 168.858 156.463C168.861 156.86 168.844 157.303 168.559 157.578C168.113 158.008 167.353 157.718 166.911 157.285C166.468 156.853 166.11 156.279 165.523 156.083C165.182 155.969 164.811 156.003 164.453 156.037C163.728 156.108 162.919 156.223 162.474 156.801C162.266 157.071 162.168 157.413 161.961 157.683C161.488 158.3 160.579 158.389 159.819 158.222C159.059 158.055 158.347 157.689 157.577 157.585C155.937 157.364 154.218 158.347 152.663 157.78C151.911 157.506 151.275 156.564 151.761 155.93C152.181 155.381 153.237 155.332 153.279 154.642C153.32 153.982 151.621 153.253 151.272 152.724C150.995 152.306 151.37 151.414 150.755 150.65C150.257 150.031 149.223 149.953 148.682 149.287Z" fill="white"/>
<path d="M255.777 246.096C256.602 245.376 257.57 244.899 257.726 243.618C257.939 241.874 256.935 241.269 255.334 242.111C255.192 242.186 255.037 242.265 254.878 242.236C254.373 242.144 254.625 241.382 254.89 240.942C255.511 239.913 255.401 238.652 254.88 237.614C254.756 237.369 259.475 236.656 260.032 236.874C261.984 237.64 261.292 241.683 263.325 240.756C263.279 239.258 263.005 237.736 262.818 236.24C263.536 236.12 264.253 236.001 264.97 235.882C264.436 235.97 264.403 233.171 264.547 232.846C265.108 231.584 267.364 231.803 266.886 229.613C266.282 226.844 260.784 226.967 261.844 230.097C260.272 230.941 258.358 231.329 256.584 231.502C256.616 232.077 256.654 232.656 256.692 233.229C256.314 233.535 255.779 233.648 255.307 233.512C254.265 232.183 254.145 230.198 255.016 228.747C254.275 227.877 254.875 226.559 255.487 225.592C253.317 224.393 253.417 220.63 255.648 219.546C257.884 218.462 260.899 220.715 260.497 223.164C261.653 223.15 262.807 223.51 263.748 224.178C263.492 221.183 265.383 218.126 268.178 217.023C269.584 216.465 271.31 216.267 272.156 215.013C272.534 214.457 272.669 213.769 273.01 213.19C273.788 211.894 275.418 211.442 276.907 211.167C277.903 210.987 278.905 210.841 279.911 210.728C277.943 228.697 269.657 245.112 257.055 257.328C256.529 257.415 255.981 257.478 255.491 257.294C254.582 256.946 254.18 255.906 253.885 254.976C252.728 251.36 252.817 249.004 255.538 246.316C255.616 246.241 255.696 246.167 255.777 246.096Z" fill="white"/>
</g>
<path d="M226.762 242.939C226.762 242.939 238.334 263.22 227.573 263.642C216.811 264.063 226.762 242.939 226.762 242.939Z" fill="white"/>
<path d="M268.305 184.265C268.305 184.265 277.076 199.639 268.919 199.958C260.761 200.277 268.305 184.265 268.305 184.265Z" fill="white"/>
<path d="M136.652 195.312C136.652 195.312 145.423 210.686 137.266 211.005C129.109 211.324 136.652 195.312 136.652 195.312Z" fill="white"/>
<path d="M165.318 242.937C165.318 242.937 174.09 258.31 165.933 258.629C157.775 258.948 165.318 242.937 165.318 242.937Z" fill="white"/>
<path d="M262.912 226.81C262.912 226.81 267.661 235.134 263.244 235.306C258.828 235.479 262.912 226.81 262.912 226.81Z" fill="white"/>
<path d="M154.159 158.7C154.159 158.7 159.413 167.908 154.527 168.099C149.641 168.29 154.159 158.7 154.159 158.7Z" fill="white"/>
<path d="M194.788 235.457C194.788 235.457 200.041 244.666 195.156 244.857C190.27 245.047 194.788 235.457 194.788 235.457Z" fill="white"/>
<path d="M247.636 152.987C247.636 152.987 252.89 162.195 248.004 162.386C243.117 162.576 247.636 152.987 247.636 152.987Z" fill="white"/>
<path d="M190.933 65.1959L142.734 148.679C137.225 158.22 144.111 170.144 155.127 170.144H251.524C262.54 170.144 269.426 158.218 263.917 148.679L215.718 65.1959C210.211 55.6546 196.44 55.6546 190.933 65.1959Z" fill="#407BFF"/>
<path d="M249.559 165.931H157.088C153.029 165.931 149.393 163.832 147.363 160.314C145.332 156.799 145.332 152.6 147.363 149.085L193.597 69.002C195.626 65.4863 199.262 63.3888 203.324 63.3888C207.385 63.3888 211.021 65.4879 213.05 69.002L259.286 149.085C261.317 152.6 261.317 156.799 259.286 160.314C257.256 163.83 253.62 165.931 249.559 165.931ZM203.324 65.074C199.873 65.074 196.782 66.8576 195.058 69.8454L148.823 149.928C147.097 152.916 147.097 156.483 148.823 159.471C150.549 162.46 153.638 164.244 157.088 164.244H249.559C253.011 164.244 256.1 162.459 257.826 159.471C259.55 156.483 259.55 152.914 257.826 149.927L211.59 69.8438C209.865 66.8576 206.775 65.074 203.324 65.074Z" fill="white"/>
<path d="M196.334 143.928C196.334 140.214 199.247 137.446 203.326 137.446C207.406 137.446 210.319 140.214 210.319 143.928C210.319 147.57 207.406 150.556 203.326 150.556C199.247 150.556 196.334 147.571 196.334 143.928ZM196.553 98.9875H210.1L207.843 132.273H198.811L196.553 98.9875Z" fill="white"/>
</svg>
