<svg width="86" height="86" viewBox="0 0 86 86" fill="none" xmlns="http://www.w3.org/2000/svg">
<g clip-path="url(#clip0_113_1222)">
<g clip-path="url(#clip1_113_1222)">
<g clip-path="url(#clip2_113_1222)">
<path fill-rule="evenodd" clip-rule="evenodd" d="M32.2498 18.1107C32.0182 23.9957 32.2498 61.0138 32.2498 61.0138C32.8239 61.0138 33.3979 61.1059 33.9496 61.2897L53.7498 67.8898V24.9866C53.1758 24.9866 52.6017 24.8947 52.0503 24.7108L32.2498 18.1107ZM30.5501 11.1229C31.6534 10.7552 32.8462 10.7552 33.9496 11.1229L53.7498 17.723L72.7017 11.4057C75.7182 10.4003 78.8332 12.6454 78.8332 15.825V63.2089C78.8332 65.5223 77.3529 67.5763 75.1577 68.308L55.4494 74.8773C54.3461 75.2453 53.1536 75.2453 52.0503 74.8773L32.2498 68.2772L13.2979 74.5946C10.2815 75.6001 7.1665 73.3551 7.1665 70.1753V22.7915C7.1665 20.478 8.64696 18.424 10.8418 17.6924L30.5501 11.1229Z" fill="#E9F3FF"/>
</g>
</g>
</g>
<defs>
<clipPath id="clip0_113_1222">
<rect width="86" height="86" fill="white"/>
</clipPath>
<clipPath id="clip1_113_1222">
<rect width="86" height="86" fill="white"/>
</clipPath>
<clipPath id="clip2_113_1222">
<rect width="86" height="86" fill="white"/>
</clipPath>
</defs>
</svg>
