<svg width="86" height="86" viewBox="0 0 86 86" fill="none" xmlns="http://www.w3.org/2000/svg">
<g clip-path="url(#clip0_113_93)">
<path fill-rule="evenodd" clip-rule="evenodd" d="M72.5625 8.0625C72.5625 6.579 71.3585 5.375 69.875 5.375H16.125C14.6415 5.375 13.4375 6.579 13.4375 8.0625V77.9375C13.4375 79.421 14.6415 80.625 16.125 80.625H69.875C71.3585 80.625 72.5625 79.421 72.5625 77.9375V8.0625ZM67.1875 10.75V75.25H18.8125V10.75H67.1875ZM29.5625 69.875H56.4375C57.921 69.875 59.125 68.671 59.125 67.1875C59.125 65.704 57.921 64.5 56.4375 64.5H29.5625C28.079 64.5 26.875 65.704 26.875 67.1875C26.875 68.671 28.079 69.875 29.5625 69.875ZM34.9375 61.8125H51.0625C52.546 61.8125 53.75 60.6085 53.75 59.125C53.75 57.6415 52.546 56.4375 51.0625 56.4375H34.9375C33.454 56.4375 32.25 57.6415 32.25 59.125C32.25 60.6085 33.454 61.8125 34.9375 61.8125ZM42.8791 52.4062H43.1209C53.449 52.3418 61.8125 43.9352 61.8125 33.5938C61.8125 23.2523 53.449 14.8457 43.1209 14.7812H42.8791C32.551 14.8457 24.1875 23.2523 24.1875 33.5938C24.1875 43.9352 32.551 52.3418 42.8791 52.4062ZM43 37.625C44.4835 37.625 45.6875 38.829 45.6875 40.3125C45.6875 41.796 44.4835 43 43 43C41.5165 43 40.3125 41.796 40.3125 40.3125C40.3125 38.829 41.5165 37.625 43 37.625ZM40.3125 26.875V32.25C40.3125 33.7335 41.5165 34.9375 43 34.9375C44.4835 34.9375 45.6875 33.7335 45.6875 32.25V26.875C45.6875 25.3915 44.4835 24.1875 43 24.1875C41.5165 24.1875 40.3125 25.3915 40.3125 26.875Z" fill="#FFFFFF"/>
</g>
<defs>
<clipPath id="clip0_113_93">
<rect width="86" height="86" fill="white"/>
</clipPath>
</defs>
</svg>
