<svg width="86" height="86" viewBox="0 0 86 86" fill="none" xmlns="http://www.w3.org/2000/svg">
<g clip-path="url(#clip0_113_916)">
<g clip-path="url(#clip1_113_916)">
<path d="M72.5625 60.4688C72.5626 63.4421 71.4672 66.3113 69.4858 68.5282C67.5044 70.7451 64.7757 72.1544 61.821 72.4869C58.8663 72.8193 55.8926 72.0516 53.4681 70.3305C51.0435 68.6093 49.338 66.0553 48.6773 63.1562H37.3227C36.6619 66.0552 34.9564 68.6092 32.5319 70.3303C30.1073 72.0515 27.1337 72.8191 24.1791 72.4867C21.2244 72.1542 18.4957 70.7449 16.5143 68.5281C14.5329 66.3112 13.4375 63.4421 13.4375 60.4688C13.4375 57.4954 14.5329 54.6263 16.5143 52.4094C18.4957 50.1925 21.2244 48.7833 24.1791 48.4508C27.1337 48.1184 30.1073 48.886 32.5319 50.6072C34.9564 52.3283 36.6619 54.8823 37.3227 57.7812H48.6773C49.338 54.8822 51.0435 52.3282 53.4681 50.607C55.8926 48.8858 58.8663 48.1182 61.821 48.4506C64.7757 48.7831 67.5044 50.1924 69.4858 52.4093C71.4672 54.6262 72.5626 57.4954 72.5625 60.4688ZM83.3125 37.625H73.9734L58.218 15.1172C57.7124 14.4021 57.0409 13.8205 56.2609 13.4223C55.481 13.0241 54.616 12.8213 53.7403 12.8312C52.8647 12.8411 52.0045 13.0635 51.2338 13.4792C50.4631 13.895 49.8048 14.4916 49.3156 15.218L43 24.725L36.6844 15.218C36.1952 14.4916 35.5369 13.895 34.7662 13.4792C33.9955 13.0635 33.1353 12.8411 32.2597 12.8312C31.384 12.8213 30.519 13.0241 29.7391 13.4223C28.9591 13.8205 28.2876 14.4021 27.782 15.1172L12.0266 37.625H2.6875C1.97473 37.625 1.29115 37.9081 0.787151 38.4122C0.283147 38.9162 0 39.5997 0 40.3125C0 41.0253 0.283147 41.7088 0.787151 42.2128C1.29115 42.7169 1.97473 43 2.6875 43H83.3125C84.0253 43 84.7088 42.7169 85.2129 42.2128C85.7169 41.7088 86 41.0253 86 40.3125C86 39.5997 85.7169 38.9162 85.2129 38.4122C84.7088 37.9081 84.0253 37.625 83.3125 37.625Z" fill="#FFFFFF"/>
</g>
</g>
<defs>
<clipPath id="clip0_113_916">
<rect width="86" height="86" fill="white"/>
</clipPath>
<clipPath id="clip1_113_916">
<rect width="86" height="86" fill="white"/>
</clipPath>
</defs>
</svg>
