<svg width="79" height="70" viewBox="0 0 79 70" fill="none" xmlns="http://www.w3.org/2000/svg">
<path d="M41.5116 13.6406C26.28 13.6406 13.8901 26.0283 13.8901 41.2621C13.8901 56.4937 26.2799 68.8858 41.5116 68.8858C56.741 68.8858 69.1353 56.4916 69.1353 41.2621C69.1353 26.0305 56.741 13.6406 41.5116 13.6406ZM41.5116 63.4694C29.2649 63.4694 19.3021 53.5066 19.3021 41.2556C19.3021 29.0111 29.2649 19.0483 41.5116 19.0483C53.7604 19.0483 63.7232 29.0133 63.7232 41.2556C63.7232 53.5066 53.7604 63.4694 41.5116 63.4694Z" fill="white" stroke="white" stroke-width="0.5"/>
<path d="M8.36899 41.0252C12.5763 41.0252 15.9871 37.6145 15.9871 33.4071C15.9871 29.1998 12.5763 25.7891 8.36899 25.7891C4.16164 25.7891 0.750916 29.1998 0.750916 33.4071C0.750916 37.6145 4.16164 41.0252 8.36899 41.0252Z" fill="white" stroke="white" stroke-width="0.5"/>
<path d="M66.1067 20.5558C69.356 20.5558 71.9901 17.9218 71.9901 14.6724C71.9901 11.4231 69.356 8.78906 66.1067 8.78906C62.8574 8.78906 60.2233 11.4231 60.2233 14.6724C60.2233 17.9218 62.8574 20.5558 66.1067 20.5558Z" fill="white" stroke="white" stroke-width="0.5"/>
<path d="M74.4685 8.67701C76.5564 8.67701 78.2489 6.98447 78.2489 4.89661C78.2489 2.80875 76.5564 1.11621 74.4685 1.11621C72.3807 1.11621 70.6881 2.80875 70.6881 4.89661C70.6881 6.98447 72.3807 8.67701 74.4685 8.67701Z" fill="white" stroke="white" stroke-width="0.5"/>
<path d="M29.1857 9.29125C30.8499 9.29125 32.199 7.94215 32.199 6.27795C32.199 4.61375 30.8499 3.26465 29.1857 3.26465C27.5215 3.26465 26.1724 4.61375 26.1724 6.27795C26.1724 7.94215 27.5215 9.29125 29.1857 9.29125Z" fill="white" stroke="white" stroke-width="0.5"/>
</svg>
