<svg width="175" height="180" viewBox="0 0 175 180" fill="none" xmlns="http://www.w3.org/2000/svg">
<g filter="url(#filter0_b_731_9701)">
<g clip-path="url(#clip0_731_9701)">
<path d="M91.5 181L48 90.5L125 30.5L184.5 96V121L186 168.5L191 181H91.5Z" fill="#186677"/>
<g style="mix-blend-mode:multiply">
<path d="M112.52 85.9199V109.17" stroke="#D3E6FE" stroke-width="4" stroke-linecap="round" stroke-linejoin="round"/>
</g>
<g style="mix-blend-mode:multiply">
<path d="M93.97 110.42C93.78 110.42 93.5899 110.38 93.4199 110.29C90.6599 108.94 88.95 106.21 88.95 103.17V102.21C88.95 100.12 89.7899 98.1002 91.2599 96.6102C91.3399 96.4802 91.4399 96.3702 91.57 96.2802C91.56 96.2802 93.2299 94.5702 93.2299 87.3502V86.9302C93.2299 79.7802 91.58 78.0302 91.52 77.9602C89.9 76.5002 88.95 74.3502 88.95 72.1202V71.1602C88.95 68.1202 90.6599 65.3902 93.4199 64.0402C93.5899 63.9502 93.78 63.9102 93.97 63.9102C94.2 63.9102 94.43 63.9702 94.63 64.1002C95 64.3302 95.22 64.7302 95.22 65.1602V71.1002C95.22 71.1502 95.26 71.1902 95.31 71.1902H98.9799C99.03 71.1902 99.07 71.1502 99.07 71.1002V65.2002C99.07 64.7702 99.2999 64.3602 99.6699 64.1302C99.8699 64.0102 100.1 63.9502 100.32 63.9502C100.51 63.9502 100.71 63.9902 100.88 64.0802C103.58 65.4502 105.26 68.1602 105.26 71.1602V72.1202C105.26 74.2002 104.47 76.1402 103.04 77.6202C102.96 77.7702 102.85 77.9002 102.7 78.0002C102.71 78.0002 101.04 79.7102 101.04 86.9302V87.3502C101.04 94.6302 102.75 96.3102 102.76 96.3202C102.95 96.4602 103.09 96.6402 103.17 96.8402C104.5 98.3002 105.26 100.22 105.26 102.2V103.16C105.26 106.16 103.58 108.87 100.88 110.24C100.7 110.33 100.51 110.37 100.32 110.37C100.09 110.37 99.8699 110.31 99.6699 110.18C99.2999 109.95 99.07 109.55 99.07 109.12V103.22C99.07 103.17 99.03 103.13 98.9799 103.13H95.31C95.26 103.13 95.22 103.17 95.22 103.22V109.16C95.22 109.59 95 109.99 94.63 110.22C94.43 110.35 94.2 110.41 93.97 110.41V110.42Z" fill="#D3E6FE"/>
</g>
<g style="mix-blend-mode:multiply">
<path d="M93.97 65.1602V71.1002C93.97 71.8402 94.57 72.4402 95.31 72.4402H98.9799C99.7199 72.4402 100.32 71.8402 100.32 71.1002V65.2002C102.5 66.3102 104.02 68.5502 104.02 71.1602V72.1202C104.02 74.0402 103.21 75.7702 101.91 76.9902H101.98C101.98 76.9902 99.7999 78.5702 99.7999 86.9302V87.3502C99.7999 95.7002 101.98 97.2902 101.98 97.2902H101.86C103.19 98.5102 104.02 100.26 104.02 102.21V103.17C104.02 105.78 102.51 108.03 100.32 109.13V103.23C100.32 102.49 99.7199 101.89 98.9799 101.89H95.31C94.57 101.89 93.97 102.49 93.97 103.23V109.17C91.75 108.08 90.2 105.81 90.2 103.17V102.21C90.2 100.26 91.04 98.5102 92.36 97.2902H92.31C92.31 97.2902 94.49 95.7102 94.49 87.3502V86.9302C94.49 79.6502 92.84 77.5102 92.41 77.0802C91.06 75.8502 90.2 74.0902 90.2 72.1202V71.1602C90.2 68.5102 91.75 66.2502 93.97 65.1602ZM93.97 62.6602C93.59 62.6602 93.2199 62.7402 92.8699 62.9202C89.6799 64.4802 87.7 67.6402 87.7 71.1702V72.1302C87.7 74.6802 88.7699 77.1202 90.6399 78.8602C90.7599 79.0202 91.99 80.8302 91.99 86.9402V87.3602C91.99 93.3502 90.8 95.2102 90.63 95.4502C90.5 95.5702 90.38 95.7102 90.27 95.8502C88.63 97.5602 87.7 99.8502 87.7 102.22V103.18C87.7 106.7 89.6799 109.86 92.8699 111.43C93.2199 111.6 93.6 111.69 93.97 111.69C94.43 111.69 94.89 111.56 95.29 111.31C96.02 110.85 96.47 110.05 96.47 109.19V104.41H97.83V109.15C97.83 110.02 98.28 110.83 99.02 111.28C99.42 111.53 99.87 111.65 100.33 111.65C100.72 111.65 101.1 111.56 101.46 111.38C104.59 109.8 106.53 106.66 106.53 103.19V102.23C106.53 99.9602 105.68 97.7702 104.17 96.0902C104.04 95.8602 103.87 95.6402 103.67 95.4602C103.5 95.2202 102.31 93.3702 102.31 87.3702V86.9502C102.31 80.9602 103.5 79.1002 103.67 78.8702C103.83 78.7302 103.97 78.5602 104.08 78.3902C105.64 76.7002 106.53 74.4602 106.53 72.1502V71.1902C106.53 67.7202 104.59 64.5802 101.46 63.0002C101.1 62.8202 100.72 62.7302 100.33 62.7302C99.87 62.7302 99.42 62.8502 99.02 63.1002C98.28 63.5502 97.83 64.3602 97.83 65.2302V69.9702H96.47V65.1902C96.47 64.3302 96.02 63.5202 95.29 63.0702C94.89 62.8202 94.43 62.6902 93.97 62.6902V62.6602Z" fill="#D3E6FE"/>
</g>
<g style="mix-blend-mode:multiply">
<path d="M55.25 35.25H127.85C128.95 35.25 129.85 36.15 129.85 37.25V93.55C129.85 94.65 128.95 95.55 127.85 95.55H55.25C54.15 95.55 53.25 94.65 53.25 93.55V37.25C53.25 36.15 54.15 35.25 55.25 35.25Z" fill="#D3E6FE"/>
</g>
<path d="M124.85 42.25H48.25V89.75H124.85V42.25Z" fill="white"/>
<path d="M124.85 30.25H48.25V90.55H124.85V30.25Z" stroke="#47458E" stroke-width="2.5" stroke-linecap="round" stroke-linejoin="round"/>
<path d="M124.85 30.25H48.25V41.81H124.85V30.25Z" fill="#D1E5FD" stroke="#47458E" stroke-width="2.5" stroke-linecap="round" stroke-linejoin="round"/>
<path d="M70.58 30.25H48.25V41.81H70.58V30.25Z" fill="#D1E5FD" stroke="#47458E" stroke-width="2.5" stroke-linecap="round" stroke-linejoin="round"/>
<path d="M74.92 36.04H118.92" stroke="#47458E" stroke-width="2.5" stroke-linecap="round" stroke-linejoin="round"/>
<path d="M55.14 34.6299H52.33V37.4499H55.14V34.6299Z" fill="#47458E"/>
<path d="M60.83 34.6299H58.01V37.4499H60.83V34.6299Z" fill="#47458E"/>
<path d="M66.57 34.6299H63.75V37.4499H66.57V34.6299Z" fill="#47458E"/>
<path d="M56.3 48.8398H70.45" stroke="#47458E" stroke-width="2.5" stroke-linecap="round" stroke-linejoin="round"/>
<path d="M61.74 54.8203H75.29" stroke="#47458E" stroke-width="2.5" stroke-linecap="round" stroke-linejoin="round"/>
<path d="M80.01 54.8203H87.03" stroke="#47458E" stroke-width="2.5" stroke-linecap="round" stroke-linejoin="round"/>
<path d="M91.6799 54.8203H94.5399" stroke="#47458E" stroke-width="2.5" stroke-linecap="round" stroke-linejoin="round"/>
<path d="M61.74 61.04H67.52" stroke="#47458E" stroke-width="2.5" stroke-linecap="round" stroke-linejoin="round"/>
<path d="M72.21 61.04H82.51" stroke="#47458E" stroke-width="2.5" stroke-linecap="round" stroke-linejoin="round"/>
<path d="M61.74 66.79H73.21" stroke="#47458E" stroke-width="2.5" stroke-linecap="round" stroke-linejoin="round"/>
<path d="M56.3 73.8398H70.45" stroke="#47458E" stroke-width="2.5" stroke-linecap="round" stroke-linejoin="round"/>
<path d="M61.74 79.8203H66.6" stroke="#47458E" stroke-width="2.5" stroke-linecap="round" stroke-linejoin="round"/>
<path d="M72.21 79.8203H75.64" stroke="#47458E" stroke-width="2.5" stroke-linecap="round" stroke-linejoin="round"/>
<path d="M89.97 106.42C89.78 106.42 89.5899 106.38 89.4199 106.29C86.6599 104.94 84.95 102.21 84.95 99.1702V98.2102C84.95 96.1202 85.7899 94.1002 87.2599 92.6102C87.3399 92.4802 87.4399 92.3702 87.57 92.2802C87.56 92.2802 89.2299 90.5702 89.2299 83.3502V82.9302C89.2299 75.7802 87.58 74.0302 87.52 73.9602C85.9 72.5002 84.95 70.3502 84.95 68.1202V67.1602C84.95 64.1202 86.6599 61.3902 89.4199 60.0402C89.5899 59.9502 89.78 59.9102 89.97 59.9102C90.2 59.9102 90.43 59.9702 90.63 60.1002C91 60.3302 91.22 60.7302 91.22 61.1602V67.1002C91.22 67.1502 91.26 67.1902 91.31 67.1902H94.9799C95.03 67.1902 95.07 67.1502 95.07 67.1002V61.2002C95.07 60.7702 95.2999 60.3602 95.6699 60.1302C95.8699 60.0102 96.0999 59.9502 96.32 59.9502C96.5099 59.9502 96.71 59.9902 96.88 60.0802C99.58 61.4502 101.26 64.1602 101.26 67.1602V68.1202C101.26 70.2002 100.47 72.1402 99.04 73.6202C98.96 73.7702 98.85 73.9002 98.7 74.0002C98.71 74.0002 97.04 75.7102 97.04 82.9302V83.3502C97.04 90.6302 98.7499 92.3102 98.7599 92.3202C98.9499 92.4602 99.0899 92.6402 99.1699 92.8402C100.5 94.3002 101.26 96.2202 101.26 98.2002V99.1602C101.26 102.16 99.58 104.87 96.88 106.24C96.7 106.33 96.5099 106.37 96.32 106.37C96.09 106.37 95.8699 106.31 95.6699 106.18C95.2999 105.95 95.07 105.55 95.07 105.12V99.2202C95.07 99.1702 95.03 99.1302 94.9799 99.1302H91.31C91.26 99.1302 91.22 99.1702 91.22 99.2202V105.16C91.22 105.59 91 105.99 90.63 106.22C90.43 106.35 90.2 106.41 89.97 106.41V106.42Z" fill="#F2F4FF"/>
<path d="M89.97 61.1602V67.1002C89.97 67.8402 90.57 68.4402 91.31 68.4402H94.9799C95.7199 68.4402 96.32 67.8402 96.32 67.1002V61.2002C98.5 62.3102 100.02 64.5502 100.02 67.1602V68.1202C100.02 70.0402 99.21 71.7702 97.91 72.9902H97.9799C97.9799 72.9902 95.7999 74.5702 95.7999 82.9302V83.3502C95.7999 91.7002 97.9799 93.2902 97.9799 93.2902H97.86C99.19 94.5102 100.02 96.2602 100.02 98.2102V99.1702C100.02 101.78 98.51 104.03 96.32 105.13V99.2302C96.32 98.4902 95.7199 97.8902 94.9799 97.8902H91.31C90.57 97.8902 89.97 98.4902 89.97 99.2302V105.17C87.75 104.08 86.2 101.81 86.2 99.1702V98.2102C86.2 96.2602 87.04 94.5102 88.36 93.2902H88.31C88.31 93.2902 90.49 91.7102 90.49 83.3502V82.9302C90.49 75.6502 88.84 73.5102 88.41 73.0802C87.06 71.8502 86.2 70.0902 86.2 68.1202V67.1602C86.2 64.5102 87.75 62.2502 89.97 61.1602ZM89.97 58.6602C89.59 58.6602 89.2199 58.7402 88.8699 58.9202C85.6799 60.4802 83.7 63.6402 83.7 67.1702V68.1302C83.7 70.6802 84.7699 73.1202 86.6399 74.8602C86.7599 75.0202 87.99 76.8302 87.99 82.9402V83.3602C87.99 89.3502 86.8 91.2102 86.63 91.4502C86.5 91.5702 86.38 91.7102 86.27 91.8502C84.63 93.5602 83.7 95.8502 83.7 98.2202V99.1802C83.7 102.7 85.6799 105.86 88.8699 107.43C89.2199 107.6 89.6 107.69 89.97 107.69C90.43 107.69 90.89 107.56 91.29 107.31C92.02 106.85 92.47 106.05 92.47 105.19V100.41H93.83V105.15C93.83 106.02 94.28 106.83 95.02 107.28C95.42 107.53 95.87 107.65 96.33 107.65C96.72 107.65 97.0999 107.56 97.4599 107.38C100.59 105.8 102.53 102.66 102.53 99.1902V98.2302C102.53 95.9602 101.68 93.7702 100.17 92.0902C100.04 91.8602 99.8699 91.6402 99.6699 91.4602C99.4999 91.2202 98.31 89.3702 98.31 83.3702V82.9502C98.31 76.9602 99.4999 75.1002 99.6699 74.8702C99.8299 74.7302 99.97 74.5602 100.08 74.3902C101.64 72.7002 102.53 70.4602 102.53 68.1502V67.1902C102.53 63.7202 100.59 60.5802 97.4599 59.0002C97.0999 58.8202 96.72 58.7302 96.33 58.7302C95.87 58.7302 95.42 58.8502 95.02 59.1002C94.28 59.5502 93.83 60.3602 93.83 61.2302V65.9702H92.47V61.1902C92.47 60.3302 92.02 59.5202 91.29 59.0702C90.89 58.8202 90.43 58.6902 89.97 58.6902V58.6602Z" fill="#47458E"/>
<path d="M107.1 81.1702C105.51 81.1702 104.22 79.8802 104.22 78.2902V77.3702C104.22 76.1802 104.94 75.1402 106.01 74.7102C106.24 74.3702 106.56 73.5602 105.73 72.2702C104.75 71.1502 104.22 69.7202 104.22 68.2402V53.0502C104.22 49.6602 106.98 46.9102 110.36 46.9102H110.67C114.06 46.9102 116.81 49.6702 116.81 53.0502V68.2402C116.81 69.7402 116.26 71.1702 115.27 72.3002C114.48 73.5502 114.78 74.3502 115.01 74.7002C116.09 75.1302 116.81 76.1702 116.81 77.3702V78.2902C116.81 79.8802 115.52 81.1702 113.93 81.1702H107.1Z" fill="#F2F4FF"/>
<path d="M110.67 48.1604C113.37 48.1604 115.56 50.3504 115.56 53.0504V68.2404C115.56 69.5104 115.07 70.6704 114.27 71.5404C112.55 74.1504 114.25 75.7504 114.28 75.7804C115.01 75.9404 115.55 76.5904 115.55 77.3704V78.2904C115.55 79.1904 114.82 79.9204 113.92 79.9204H107.09C106.19 79.9204 105.46 79.1904 105.46 78.2904V77.3704C105.46 76.6004 106 75.9504 106.72 75.7904C106.72 75.7904 108.49 74.1704 106.72 71.5204C105.94 70.6504 105.46 69.5104 105.46 68.2504V53.0604C105.46 50.3604 107.65 48.1704 110.35 48.1704H110.66M110.67 45.6604H110.36C106.28 45.6604 102.97 48.9804 102.97 53.0504V68.2404C102.97 69.9904 103.59 71.6704 104.71 73.0004C104.83 73.2004 105.01 73.5404 105.01 73.8004C103.77 74.5204 102.97 75.8604 102.97 77.3604V78.2804C102.97 80.5604 104.82 82.4104 107.1 82.4104H113.93C116.21 82.4104 118.06 80.5604 118.06 78.2804V77.3604C118.06 75.8504 117.26 74.5104 116.01 73.7904C116.01 73.5404 116.17 73.2304 116.29 73.0304C117.44 71.6904 118.07 69.9904 118.07 68.2304V53.0404C118.07 48.9604 114.75 45.6504 110.68 45.6504L110.67 45.6604Z" fill="#47458E"/>
<path d="M110.52 81.9199V107.17" stroke="#47458E" stroke-width="2.5" stroke-linecap="round" stroke-linejoin="round"/>
<path d="M110.52 53.9297V67.1597" stroke="#47458E" stroke-width="2.5" stroke-linecap="round" stroke-linejoin="round"/>
</g>
</g>
<defs>
<filter id="filter0_b_731_9701" x="-8" y="-8" width="191" height="196" filterUnits="userSpaceOnUse" color-interpolation-filters="sRGB">
<feFlood flood-opacity="0" result="BackgroundImageFix"/>
<feGaussianBlur in="BackgroundImageFix" stdDeviation="4"/>
<feComposite in2="SourceAlpha" operator="in" result="effect1_backgroundBlur_731_9701"/>
<feBlend mode="normal" in="SourceGraphic" in2="effect1_backgroundBlur_731_9701" result="shape"/>
</filter>
<clipPath id="clip0_731_9701">
<rect width="175" height="180" rx="15" fill="white"/>
</clipPath>
</defs>
</svg>
