<svg width="195" height="212" viewBox="0 0 195 212" fill="none" xmlns="http://www.w3.org/2000/svg">
<g filter="url(#filter0_d_385_24851)">
<g clip-path="url(#clip0_385_24851)">
<path d="M82.5 180L41 86.5L110.5 35L175.5 95V120L177 167.5L182 180H82.5Z" fill="#008ACC"/>
<path d="M108.846 91.6441H123.613C142.089 91.6441 136.21 69.6857 127.342 69.6857C128.822 51.0306 116.744 37.6166 104.916 33.9719C90.8493 29.6244 70.8633 32.4558 68.2939 55.1471C57.796 52.617 48.7378 60.1573 48.4479 70.0572C36.6003 70.0572 35.9704 91.6541 47.838 91.6441H108.846Z" fill="white"/>
<path d="M91.0693 89.4854V106.745" stroke="#47458E" stroke-width="2.5" stroke-linecap="round" stroke-linejoin="round"/>
<path d="M98.4878 89.4854V100.319H118.934V106.745" stroke="#47458E" stroke-width="2.5" stroke-linecap="round" stroke-linejoin="round"/>
<path d="M83.6208 89.4854V100.319H63.4548V106.745" stroke="#47458E" stroke-width="2.5" stroke-linecap="round" stroke-linejoin="round"/>
<path d="M91.0793 65.5492V61.1113" stroke="#D7D6F9" stroke-width="3" stroke-miterlimit="10"/>
<path d="M83.6406 65.5492V61.1113" stroke="#D7D6F9" stroke-width="3" stroke-miterlimit="10"/>
<path d="M98.5078 65.5492V61.1113" stroke="#D7D6F9" stroke-width="3" stroke-miterlimit="10"/>
<path d="M74.7227 77.5176H79.1518" stroke="#D7D6F9" stroke-width="3" stroke-miterlimit="10"/>
<path d="M74.7227 70.0571H79.1518" stroke="#D7D6F9" stroke-width="3" stroke-miterlimit="10"/>
<path d="M74.7227 84.9775H79.1518" stroke="#D7D6F9" stroke-width="3" stroke-miterlimit="10"/>
<path d="M111.855 55.1475H114.854" stroke="#D7D6F9" stroke-width="3" stroke-miterlimit="10"/>
<path d="M96.998 55.1475H99.9974" stroke="#D7D6F9" stroke-width="3" stroke-miterlimit="10"/>
<path d="M89.5796 55.1475H92.569" stroke="#D7D6F9" stroke-width="3" stroke-miterlimit="10"/>
<path d="M82.1511 55.1475H85.1405" stroke="#D7D6F9" stroke-width="3" stroke-miterlimit="10"/>
<path d="M74.7227 55.1475H77.7221" stroke="#D7D6F9" stroke-width="3" stroke-miterlimit="10"/>
<path d="M104.427 55.1475H107.426" stroke="#D7D6F9" stroke-width="3" stroke-miterlimit="10"/>
<path d="M119.284 55.1475H122.283" stroke="#D7D6F9" stroke-width="3" stroke-miterlimit="10"/>
<path d="M111.855 62.6074H114.854" stroke="#D7D6F9" stroke-width="3" stroke-miterlimit="10"/>
<path d="M67.2939 62.6074H70.2933" stroke="#D7D6F9" stroke-width="3" stroke-miterlimit="10"/>
<path d="M59.8755 62.6074H62.8749" stroke="#D7D6F9" stroke-width="3" stroke-miterlimit="10"/>
<path d="M119.284 62.6074H122.283" stroke="#D7D6F9" stroke-width="3" stroke-miterlimit="10"/>
<path d="M111.855 70.0571H114.854" stroke="#D7D6F9" stroke-width="3" stroke-miterlimit="10"/>
<path d="M67.2939 70.0571H70.2933" stroke="#D7D6F9" stroke-width="3" stroke-miterlimit="10"/>
<path d="M119.284 70.0571H122.283" stroke="#D7D6F9" stroke-width="3" stroke-miterlimit="10"/>
<path d="M111.855 77.5176H114.854" stroke="#D7D6F9" stroke-width="3" stroke-miterlimit="10"/>
<path d="M67.2939 77.5176H70.2933" stroke="#D7D6F9" stroke-width="3" stroke-miterlimit="10"/>
<path d="M126.712 77.5176H129.702" stroke="#D7D6F9" stroke-width="3" stroke-miterlimit="10"/>
<path d="M119.284 77.5176H122.283" stroke="#D7D6F9" stroke-width="3" stroke-miterlimit="10"/>
<path d="M111.855 84.9775H114.854" stroke="#D7D6F9" stroke-width="3" stroke-miterlimit="10"/>
<path d="M67.2939 84.9775H70.2933" stroke="#D7D6F9" stroke-width="3" stroke-miterlimit="10"/>
<path d="M126.712 84.9775H129.702" stroke="#D7D6F9" stroke-width="3" stroke-miterlimit="10"/>
<path d="M119.284 84.9775H122.283" stroke="#D7D6F9" stroke-width="3" stroke-miterlimit="10"/>
<path d="M111.855 84.9775H114.854" stroke="#D7D6F9" stroke-width="3" stroke-miterlimit="10"/>
<path d="M111.855 47.6875H114.854" stroke="#D7D6F9" stroke-width="3" stroke-miterlimit="10"/>
<path d="M96.998 47.6875H99.9974" stroke="#D7D6F9" stroke-width="3" stroke-miterlimit="10"/>
<path d="M89.5796 47.6875H92.569" stroke="#D7D6F9" stroke-width="3" stroke-miterlimit="10"/>
<path d="M82.1511 47.6875H85.1405" stroke="#D7D6F9" stroke-width="3" stroke-miterlimit="10"/>
<path d="M74.7227 47.6875H77.7221" stroke="#D7D6F9" stroke-width="3" stroke-miterlimit="10"/>
<path d="M104.427 47.6875H107.426" stroke="#D7D6F9" stroke-width="3" stroke-miterlimit="10"/>
<path d="M111.855 55.1475H114.854" stroke="#D7D6F9" stroke-width="3" stroke-miterlimit="10"/>
<path d="M96.998 55.1475H99.9974" stroke="#D7D6F9" stroke-width="3" stroke-miterlimit="10"/>
<path d="M89.5796 55.1475H92.569" stroke="#D7D6F9" stroke-width="3" stroke-miterlimit="10"/>
<path d="M82.1511 55.1475H85.1405" stroke="#D7D6F9" stroke-width="3" stroke-miterlimit="10"/>
<path d="M74.7227 55.1475H77.7221" stroke="#D7D6F9" stroke-width="3" stroke-miterlimit="10"/>
<path d="M74.7227 62.6074H77.7221" stroke="#D7D6F9" stroke-width="3" stroke-miterlimit="10"/>
<path d="M104.427 55.1475H107.426" stroke="#D7D6F9" stroke-width="3" stroke-miterlimit="10"/>
<path d="M104.427 62.6074H107.426" stroke="#D7D6F9" stroke-width="3" stroke-miterlimit="10"/>
<path d="M119.284 55.1475H122.283" stroke="#D7D6F9" stroke-width="3" stroke-miterlimit="10"/>
<path d="M96.998 40.2271H99.9974" stroke="#D7D6F9" stroke-width="3" stroke-miterlimit="10"/>
<path d="M89.5796 40.2271H92.569" stroke="#D7D6F9" stroke-width="3" stroke-miterlimit="10"/>
<path d="M82.1511 40.2271H85.1405" stroke="#D7D6F9" stroke-width="3" stroke-miterlimit="10"/>
<path d="M104.427 40.2271H107.426" stroke="#D7D6F9" stroke-width="3" stroke-miterlimit="10"/>
<path d="M111.855 47.6875H114.854" stroke="#D7D6F9" stroke-width="3" stroke-miterlimit="10"/>
<path d="M96.998 47.6875H99.9974" stroke="#D7D6F9" stroke-width="3" stroke-miterlimit="10"/>
<path d="M89.5796 47.6875H92.569" stroke="#D7D6F9" stroke-width="3" stroke-miterlimit="10"/>
<path d="M82.1511 47.6875H85.1405" stroke="#D7D6F9" stroke-width="3" stroke-miterlimit="10"/>
<path d="M74.7227 47.6875H77.7221" stroke="#D7D6F9" stroke-width="3" stroke-miterlimit="10"/>
<path d="M104.427 47.6875H107.426" stroke="#D7D6F9" stroke-width="3" stroke-miterlimit="10"/>
<path d="M96.998 40.2271H99.9974" stroke="#D7D6F9" stroke-width="3" stroke-miterlimit="10"/>
<path d="M89.5796 40.2271H92.569" stroke="#D7D6F9" stroke-width="3" stroke-miterlimit="10"/>
<path d="M82.1511 40.2271H85.1405" stroke="#D7D6F9" stroke-width="3" stroke-miterlimit="10"/>
<path d="M104.427 40.2271H107.426" stroke="#D7D6F9" stroke-width="3" stroke-miterlimit="10"/>
<path d="M59.8755 70.0571H62.8749" stroke="#D7D6F9" stroke-width="3" stroke-miterlimit="10"/>
<path d="M52.447 70.0571H55.4464" stroke="#D7D6F9" stroke-width="3" stroke-miterlimit="10"/>
<path d="M59.8755 77.5176H62.8749" stroke="#D7D6F9" stroke-width="3" stroke-miterlimit="10"/>
<path d="M52.447 77.5176H55.4464" stroke="#D7D6F9" stroke-width="3" stroke-miterlimit="10"/>
<path d="M45.0186 77.5176H48.0179" stroke="#D7D6F9" stroke-width="3" stroke-miterlimit="10"/>
<path d="M59.8755 84.9775H62.8749" stroke="#D7D6F9" stroke-width="3" stroke-miterlimit="10"/>
<path d="M52.447 84.9775H55.4464" stroke="#D7D6F9" stroke-width="3" stroke-miterlimit="10"/>
<path d="M45.0186 84.9775H48.0179" stroke="#D7D6F9" stroke-width="3" stroke-miterlimit="10"/>
<path d="M101.907 33.5403C89.9095 31.5323 79.0617 40.1771 76.3422 59.0531C76.0323 61.2117 73.8727 62.5772 71.8231 61.8543C65.7344 59.7057 54.3067 57.8582 47.918 70.6899C47.918 70.6899 49.7376 58.5109 57.826 56.061C65.9143 53.6212 67.9139 55.6293 67.9139 55.6293C67.9139 55.6293 71.3632 36.0404 86.6301 33.2893C101.907 30.5282 101.907 33.5403 101.907 33.5403Z" fill="white"/>
<g style="mix-blend-mode:darken">
<path d="M127.822 69.7159C127.952 69.9067 126.902 69.6858 126.902 69.6858C126.902 69.6858 127.732 58.1192 124.902 51.613C121.103 42.8879 113.795 37.3657 107.906 35.5483C116.884 41.5626 122.873 52.5669 121.473 68.3604C121.323 70.0874 122.213 71.7641 123.793 72.4469C124.173 72.6075 124.572 72.8083 124.972 73.0292C129.192 75.4088 128.812 81.7544 124.333 83.6018C122.593 84.3247 120.373 84.7464 117.614 84.7464H41.8392C41.0393 84.7464 40.2995 84.6661 39.6196 84.5054C40.5494 88.4413 43.2689 91.6442 47.838 91.6442H123.613C141.749 91.6442 136.42 70.479 127.822 69.7159Z" fill="#D1E5FD"/>
</g>
<path d="M105.996 68.5615H83.1509V89.4958H105.996V68.5615Z" fill="#D1E5FD" stroke="#D1E5FD" stroke-width="2.5" stroke-linecap="round" stroke-linejoin="round"/>
<path d="M102.997 77.5176H105.426" stroke="#D1E5FD" stroke-width="3" stroke-miterlimit="10"/>
<path d="M102.997 70.0571H105.426" stroke="#D1E5FD" stroke-width="3" stroke-miterlimit="10"/>
<path d="M102.997 84.9775H105.426" stroke="#D1E5FD" stroke-width="3" stroke-miterlimit="10"/>
<path d="M102.997 65.5493H79.1516V89.4957H102.997V65.5493Z" fill="white" stroke="#47458E" stroke-width="2.5" stroke-linecap="round" stroke-linejoin="round"/>
<path d="M98.0979 70.4692H84.0508V84.576H98.0979V70.4692Z" fill="#D1E5FD" stroke="#47458E" stroke-width="2.5" stroke-linecap="round" stroke-linejoin="round"/>
<path d="M108.846 91.6441H123.613C142.089 91.6441 136.21 69.6857 127.342 69.6857C128.822 51.0306 116.744 37.6166 104.916 33.9719C90.8493 29.6244 70.8633 32.4558 68.2939 55.1471C57.796 52.617 48.7378 60.1573 48.4479 70.0572C36.6003 70.0572 35.9704 91.6541 47.838 91.6441H73.3828" stroke="#47458E" stroke-width="2.5" stroke-linecap="round" stroke-linejoin="round"/>
</g>
</g>
<defs>
<filter id="filter0_d_385_24851" x="-10" y="0" width="207" height="212" filterUnits="userSpaceOnUse" color-interpolation-filters="sRGB">
<feFlood flood-opacity="0" result="BackgroundImageFix"/>
<feColorMatrix in="SourceAlpha" type="matrix" values="0 0 0 0 0 0 0 0 0 0 0 0 0 0 0 0 0 0 127 0" result="hardAlpha"/>
<feOffset dx="6" dy="16"/>
<feGaussianBlur stdDeviation="8"/>
<feComposite in2="hardAlpha" operator="out"/>
<feColorMatrix type="matrix" values="0 0 0 0 0.296875 0 0 0 0 0.40045 0 0 0 0 0.416667 0 0 0 0.2 0"/>
<feBlend mode="normal" in2="BackgroundImageFix" result="effect1_dropShadow_385_24851"/>
<feBlend mode="normal" in="SourceGraphic" in2="effect1_dropShadow_385_24851" result="shape"/>
</filter>
<clipPath id="clip0_385_24851">
<rect width="175" height="180" rx="15" fill="white"/>
</clipPath>
</defs>
</svg>
