<svg width="175" height="180" viewBox="0 0 175 180" fill="none" xmlns="http://www.w3.org/2000/svg">
<g filter="url(#filter0_b_731_9517)">
<g clip-path="url(#clip0_731_9517)">
<path d="M92 189L47 110V35L185 104V129L186.5 176.5L191.5 189H92Z" fill="#186677"/>
<path d="M89.46 66.1201L82.05 73.3301H73.58L69.03 81.8001H62.01L59.73 85.3901" stroke="#D1E5FD" stroke-width="2.5" stroke-linecap="round" stroke-linejoin="round"/>
<path d="M48.25 35.25V109.17H122.51" stroke="white" stroke-width="2.5" stroke-linecap="round" stroke-linejoin="round"/>
<path d="M48.26 97.1104H51.53" stroke="white" stroke-width="2.5" stroke-linecap="round" stroke-linejoin="round"/>
<path d="M48.26 80.8496H51.53" stroke="white" stroke-width="2.5" stroke-linecap="round" stroke-linejoin="round"/>
<path d="M48.26 64.5996H51.53" stroke="white" stroke-width="2.5" stroke-linecap="round" stroke-linejoin="round"/>
<path d="M48.26 48.3398H51.53" stroke="white" stroke-width="2.5" stroke-linecap="round" stroke-linejoin="round"/>
<path d="M109.09 109.17V105.9" stroke="white" stroke-width="2.5" stroke-linecap="round" stroke-linejoin="round"/>
<path d="M92.84 109.17V105.9" stroke="white" stroke-width="2.5" stroke-linecap="round" stroke-linejoin="round"/>
<path d="M76.58 109.17V105.9" stroke="white" stroke-width="2.5" stroke-linecap="round" stroke-linejoin="round"/>
<path d="M60.32 109.17V105.9" stroke="white" stroke-width="2.5" stroke-linecap="round" stroke-linejoin="round"/>
<path d="M94.04 68.3701C94.04 69.0601 93.48 69.6201 92.79 69.6201C92.1 69.6201 91.54 69.0601 91.54 68.3701C91.54 67.6801 92.1 67.1201 92.79 67.1201C93.48 67.1201 94.04 67.6801 94.04 68.3701Z" fill="#47458E"/>
<path d="M93.27 64.3701C93.27 65.0601 92.71 65.6201 92.02 65.6201C91.33 65.6201 90.77 65.0601 90.77 64.3701C90.77 63.6801 91.33 63.1201 92.02 63.1201C92.71 63.1201 93.27 63.6801 93.27 64.3701Z" fill="#47458E"/>
<path d="M60.15 100.44L66.97 92.3805H73.99L77.92 88.2505L85.77 91.9705L92.33 82.9805" stroke="#5B5BA3" stroke-width="2.5" stroke-linecap="round" stroke-linejoin="round"/>
<path d="M95.29 79.9805C95.29 80.6705 94.73 81.2305 94.04 81.2305C93.35 81.2305 92.79 80.6705 92.79 79.9805C92.79 79.2905 93.35 78.7305 94.04 78.7305C94.73 78.7305 95.29 79.2905 95.29 79.9805Z" fill="#47458E"/>
<path d="M99.91 81.7305C99.91 82.4205 99.35 82.9805 98.66 82.9805C97.97 82.9805 97.41 82.4205 97.41 81.7305C97.41 81.0405 97.97 80.4805 98.66 80.4805C99.35 80.4805 99.91 81.0405 99.91 81.7305Z" fill="#47458E"/>
<path d="M104.38 83.9004C104.38 84.5904 103.82 85.1504 103.13 85.1504C102.44 85.1504 101.88 84.5904 101.88 83.9004C101.88 83.2104 102.44 82.6504 103.13 82.6504C103.82 82.6504 104.38 83.2104 104.38 83.9004Z" fill="#5B5BA3"/>
<path d="M108.13 81.7305C108.13 82.4205 107.57 82.9805 106.88 82.9805C106.19 82.9805 105.63 82.4205 105.63 81.7305C105.63 81.0405 106.19 80.4805 106.88 80.4805C107.57 80.4805 108.13 81.0405 108.13 81.7305Z" fill="#7B7BB7"/>
<path d="M111.57 77.8096C111.57 78.4996 111.01 79.0596 110.32 79.0596C109.63 79.0596 109.07 78.4996 109.07 77.8096C109.07 77.1196 109.63 76.5596 110.32 76.5596C111.01 76.5596 111.57 77.1196 111.57 77.8096Z" fill="#9595D1"/>
<path d="M112.46 74.3096C112.46 74.9996 111.9 75.5596 111.21 75.5596C110.52 75.5596 109.96 74.9996 109.96 74.3096C109.96 73.6196 110.52 73.0596 111.21 73.0596C111.9 73.0596 112.46 73.6196 112.46 74.3096Z" fill="#9FA4E2"/>
<path d="M113.49 69.8496C113.49 70.5396 112.93 71.0996 112.24 71.0996C111.55 71.0996 110.99 70.5396 110.99 69.8496C110.99 69.1596 111.55 68.5996 112.24 68.5996C112.93 68.5996 113.49 69.1596 113.49 69.8496Z" fill="#D3E6FE"/>
<path d="M118.75 72.1201C118.75 72.8101 118.19 73.3701 117.5 73.3701C116.81 73.3701 116.25 72.8101 116.25 72.1201C116.25 71.4301 116.81 70.8701 117.5 70.8701C118.19 70.8701 118.75 71.4301 118.75 72.1201Z" fill="#D3E6FE"/>
<path d="M124.81 72.1201C124.81 72.8101 124.25 73.3701 123.56 73.3701C122.87 73.3701 122.31 72.8101 122.31 72.1201C122.31 71.4301 122.87 70.8701 123.56 70.8701C124.25 70.8701 124.81 71.4301 124.81 72.1201Z" fill="#D3E6FE"/>
<path d="M126.63 68.1201C126.63 68.8101 126.07 69.3701 125.38 69.3701C124.69 69.3701 124.13 68.8101 124.13 68.1201C124.13 67.4301 124.69 66.8701 125.38 66.8701C126.07 66.8701 126.63 67.4301 126.63 68.1201Z" fill="#D3E6FE"/>
<path d="M128.57 64.5C128.57 65.19 128.01 65.75 127.32 65.75C126.63 65.75 126.07 65.19 126.07 64.5C126.07 63.81 126.63 63.25 127.32 63.25C128.01 63.25 128.57 63.81 128.57 64.5Z" fill="#D3E6FE"/>
<path d="M98.66 68.3701C98.66 69.0601 98.1 69.6201 97.41 69.6201C96.72 69.6201 96.16 69.0601 96.16 68.3701C96.16 67.6801 96.72 67.1201 97.41 67.1201C98.1 67.1201 98.66 67.6801 98.66 68.3701Z" fill="#5B5BA3"/>
<path d="M101.16 64.3701C101.16 65.0601 100.6 65.6201 99.91 65.6201C99.22 65.6201 98.66 65.0601 98.66 64.3701C98.66 63.6801 99.22 63.1201 99.91 63.1201C100.6 63.1201 101.16 63.6801 101.16 64.3701Z" fill="#7B7BB7"/>
<path d="M102.3 60.5596C102.3 61.2496 101.74 61.8096 101.05 61.8096C100.36 61.8096 99.8 61.2496 99.8 60.5596C99.8 59.8696 100.36 59.3096 101.05 59.3096C101.74 59.3096 102.3 59.8696 102.3 60.5596Z" fill="#9595D1"/>
<path d="M103.67 57C103.67 57.69 103.11 58.25 102.42 58.25C101.73 58.25 101.17 57.69 101.17 57C101.17 56.31 101.73 55.75 102.42 55.75C103.11 55.75 103.67 56.31 103.67 57Z" fill="#9FA4E2"/>
<path d="M108.13 57C108.13 57.69 107.57 58.25 106.88 58.25C106.19 58.25 105.63 57.69 105.63 57C105.63 56.31 106.19 55.75 106.88 55.75C107.57 55.75 108.13 56.31 108.13 57Z" fill="#D3E6FE"/>
<path d="M112.82 57C112.82 57.69 112.26 58.25 111.57 58.25C110.88 58.25 110.32 57.69 110.32 57C110.32 56.31 110.88 55.75 111.57 55.75C112.26 55.75 112.82 56.31 112.82 57Z" fill="#D3E6FE"/>
<path d="M115.38 55.9004C116.07 55.9004 116.63 55.3407 116.63 54.6504C116.63 53.96 116.07 53.4004 115.38 53.4004C114.69 53.4004 114.13 53.96 114.13 54.6504C114.13 55.3407 114.69 55.9004 115.38 55.9004Z" fill="#D3E6FE"/>
<path d="M120 51.96C120 52.65 119.44 53.21 118.75 53.21C118.06 53.21 117.5 52.65 117.5 51.96C117.5 51.27 118.06 50.71 118.75 50.71C119.44 50.71 120 51.27 120 51.96Z" fill="#D3E6FE"/>
<path d="M122.51 47.7695C122.51 48.4595 121.95 49.0195 121.26 49.0195C120.57 49.0195 120.01 48.4595 120.01 47.7695C120.01 47.0795 120.57 46.5195 121.26 46.5195C121.95 46.5195 122.51 47.0795 122.51 47.7695Z" fill="#D3E6FE"/>
<path d="M127.32 49.79C127.32 50.48 126.76 51.04 126.07 51.04C125.38 51.04 124.82 50.48 124.82 49.79C124.82 49.1 125.38 48.54 126.07 48.54C126.76 48.54 127.32 49.1 127.32 49.79Z" fill="#D3E6FE"/>
<path d="M59.73 74.2902L65.31 59.8302L72.96 62.8602L80.6 58.1702L85.36 49.7002H87.71" stroke="#47458E" stroke-width="2.5" stroke-linecap="round" stroke-linejoin="round"/>
<path d="M92.48 49.7002C92.48 50.3902 91.92 50.9502 91.23 50.9502C90.54 50.9502 89.98 50.3902 89.98 49.7002C89.98 49.0102 90.54 48.4502 91.23 48.4502C91.92 48.4502 92.48 49.0102 92.48 49.7002Z" fill="#47458E"/>
<path d="M94.82 45.4502C94.82 46.1402 94.26 46.7002 93.57 46.7002C92.88 46.7002 92.32 46.1402 92.32 45.4502C92.32 44.7602 92.88 44.2002 93.57 44.2002C94.26 44.2002 94.82 44.7602 94.82 45.4502Z" fill="#5B5BA3"/>
<path d="M96.16 42.1699C96.16 42.8599 95.6 43.4199 94.91 43.4199C94.22 43.4199 93.66 42.8599 93.66 42.1699C93.66 41.4799 94.22 40.9199 94.91 40.9199C95.6 40.9199 96.16 41.4799 96.16 42.1699Z" fill="#7B7BB7"/>
<path d="M100.05 43.4199C100.05 44.1099 99.49 44.6699 98.8 44.6699C98.11 44.6699 97.55 44.1099 97.55 43.4199C97.55 42.7299 98.11 42.1699 98.8 42.1699C99.49 42.1699 100.05 42.7299 100.05 43.4199Z" fill="#9595D1"/>
<path d="M103.55 44.5303C103.55 45.2203 102.99 45.7803 102.3 45.7803C101.61 45.7803 101.05 45.2203 101.05 44.5303C101.05 43.8403 101.61 43.2803 102.3 43.2803C102.99 43.2803 103.55 43.8403 103.55 44.5303Z" fill="#9FA4E2"/>
<path d="M106.88 40.9199C106.88 41.6099 106.32 42.1699 105.63 42.1699C104.94 42.1699 104.38 41.6099 104.38 40.9199C104.38 40.2299 104.94 39.6699 105.63 39.6699C106.32 39.6699 106.88 40.2299 106.88 40.9199Z" fill="#D3E6FE"/>
<path d="M109.96 37.9199C109.96 38.6099 109.4 39.1699 108.71 39.1699C108.02 39.1699 107.46 38.6099 107.46 37.9199C107.46 37.2299 108.02 36.6699 108.71 36.6699C109.4 36.6699 109.96 37.2299 109.96 37.9199Z" fill="#D3E6FE"/>
<path d="M114.75 39.1699C114.75 39.8599 114.19 40.4199 113.5 40.4199C112.81 40.4199 112.25 39.8599 112.25 39.1699C112.25 38.4799 112.81 37.9199 113.5 37.9199C114.19 37.9199 114.75 38.4799 114.75 39.1699Z" fill="#D3E6FE"/>
<path d="M116 35.4199C116 36.1099 115.44 36.6699 114.75 36.6699C114.06 36.6699 113.5 36.1099 113.5 35.4199C113.5 34.7299 114.06 34.1699 114.75 34.1699C115.44 34.1699 116 34.7299 116 35.4199Z" fill="#D3E6FE"/>
<path d="M116.63 31.25C116.63 31.94 116.07 32.5 115.38 32.5C114.69 32.5 114.13 31.94 114.13 31.25C114.13 30.56 114.69 30 115.38 30C116.07 30 116.63 30.56 116.63 31.25Z" fill="#D3E6FE"/>
</g>
</g>
<defs>
<filter id="filter0_b_731_9517" x="-8" y="-8" width="191" height="196" filterUnits="userSpaceOnUse" color-interpolation-filters="sRGB">
<feFlood flood-opacity="0" result="BackgroundImageFix"/>
<feGaussianBlur in="BackgroundImageFix" stdDeviation="4"/>
<feComposite in2="SourceAlpha" operator="in" result="effect1_backgroundBlur_731_9517"/>
<feBlend mode="normal" in="SourceGraphic" in2="effect1_backgroundBlur_731_9517" result="shape"/>
</filter>
<clipPath id="clip0_731_9517">
<rect width="175" height="180" rx="15" fill="white"/>
</clipPath>
</defs>
</svg>
