<svg width="195" height="212" viewBox="0 0 195 212" fill="none" xmlns="http://www.w3.org/2000/svg">
<g filter="url(#filter0_d_394_25889)">
<g clip-path="url(#clip0_394_25889)">
<path d="M92 189L47 110V35L185 104V129L186.5 176.5L191.5 189H92Z" fill="#008ACC"/>
<path d="M89.46 66.1201L82.05 73.3301H73.58L69.03 81.8001H62.01L59.73 85.3901" stroke="#D1E5FD" stroke-width="2.5" stroke-linecap="round" stroke-linejoin="round"/>
<path d="M48.25 35.25V109.17H122.51" stroke="white" stroke-width="2.5" stroke-linecap="round" stroke-linejoin="round"/>
<path d="M48.26 97.1101H51.53" stroke="white" stroke-width="2.5" stroke-linecap="round" stroke-linejoin="round"/>
<path d="M48.26 80.8501H51.53" stroke="white" stroke-width="2.5" stroke-linecap="round" stroke-linejoin="round"/>
<path d="M48.26 64.6001H51.53" stroke="white" stroke-width="2.5" stroke-linecap="round" stroke-linejoin="round"/>
<path d="M48.26 48.3401H51.53" stroke="white" stroke-width="2.5" stroke-linecap="round" stroke-linejoin="round"/>
<path d="M109.09 109.17V105.9" stroke="white" stroke-width="2.5" stroke-linecap="round" stroke-linejoin="round"/>
<path d="M92.8401 109.17V105.9" stroke="white" stroke-width="2.5" stroke-linecap="round" stroke-linejoin="round"/>
<path d="M76.5801 109.17V105.9" stroke="white" stroke-width="2.5" stroke-linecap="round" stroke-linejoin="round"/>
<path d="M60.3201 109.17V105.9" stroke="white" stroke-width="2.5" stroke-linecap="round" stroke-linejoin="round"/>
<path d="M94.04 68.3701C94.04 69.0601 93.48 69.6201 92.79 69.6201C92.1 69.6201 91.54 69.0601 91.54 68.3701C91.54 67.6801 92.1 67.1201 92.79 67.1201C93.48 67.1201 94.04 67.6801 94.04 68.3701Z" fill="#47458E"/>
<path d="M93.27 64.3701C93.27 65.0601 92.71 65.6201 92.02 65.6201C91.33 65.6201 90.77 65.0601 90.77 64.3701C90.77 63.6801 91.33 63.1201 92.02 63.1201C92.71 63.1201 93.27 63.6801 93.27 64.3701Z" fill="#47458E"/>
<path d="M60.1499 100.44L66.9699 92.38H73.9899L77.9199 88.25L85.7699 91.97L92.3299 82.98" stroke="#5B5BA3" stroke-width="2.5" stroke-linecap="round" stroke-linejoin="round"/>
<path d="M95.29 79.98C95.29 80.67 94.73 81.23 94.04 81.23C93.35 81.23 92.79 80.67 92.79 79.98C92.79 79.29 93.35 78.73 94.04 78.73C94.73 78.73 95.29 79.29 95.29 79.98Z" fill="#47458E"/>
<path d="M99.9099 81.73C99.9099 82.42 99.3499 82.98 98.6599 82.98C97.9699 82.98 97.4099 82.42 97.4099 81.73C97.4099 81.04 97.9699 80.48 98.6599 80.48C99.3499 80.48 99.9099 81.04 99.9099 81.73Z" fill="#47458E"/>
<path d="M104.38 83.8999C104.38 84.5899 103.82 85.1499 103.13 85.1499C102.44 85.1499 101.88 84.5899 101.88 83.8999C101.88 83.2099 102.44 82.6499 103.13 82.6499C103.82 82.6499 104.38 83.2099 104.38 83.8999Z" fill="#5B5BA3"/>
<path d="M108.13 81.73C108.13 82.42 107.57 82.98 106.88 82.98C106.19 82.98 105.63 82.42 105.63 81.73C105.63 81.04 106.19 80.48 106.88 80.48C107.57 80.48 108.13 81.04 108.13 81.73Z" fill="#7B7BB7"/>
<path d="M111.57 77.8101C111.57 78.5001 111.01 79.0601 110.32 79.0601C109.63 79.0601 109.07 78.5001 109.07 77.8101C109.07 77.1201 109.63 76.5601 110.32 76.5601C111.01 76.5601 111.57 77.1201 111.57 77.8101Z" fill="#9595D1"/>
<path d="M112.46 74.3101C112.46 75.0001 111.9 75.5601 111.21 75.5601C110.52 75.5601 109.96 75.0001 109.96 74.3101C109.96 73.6201 110.52 73.0601 111.21 73.0601C111.9 73.0601 112.46 73.6201 112.46 74.3101Z" fill="#9FA4E2"/>
<path d="M113.49 69.8501C113.49 70.5401 112.93 71.1001 112.24 71.1001C111.55 71.1001 110.99 70.5401 110.99 69.8501C110.99 69.1601 111.55 68.6001 112.24 68.6001C112.93 68.6001 113.49 69.1601 113.49 69.8501Z" fill="#D3E6FE"/>
<path d="M118.75 72.1201C118.75 72.8101 118.19 73.3701 117.5 73.3701C116.81 73.3701 116.25 72.8101 116.25 72.1201C116.25 71.4301 116.81 70.8701 117.5 70.8701C118.19 70.8701 118.75 71.4301 118.75 72.1201Z" fill="#D3E6FE"/>
<path d="M124.81 72.1201C124.81 72.8101 124.25 73.3701 123.56 73.3701C122.87 73.3701 122.31 72.8101 122.31 72.1201C122.31 71.4301 122.87 70.8701 123.56 70.8701C124.25 70.8701 124.81 71.4301 124.81 72.1201Z" fill="#D3E6FE"/>
<path d="M126.63 68.1201C126.63 68.8101 126.07 69.3701 125.38 69.3701C124.69 69.3701 124.13 68.8101 124.13 68.1201C124.13 67.4301 124.69 66.8701 125.38 66.8701C126.07 66.8701 126.63 67.4301 126.63 68.1201Z" fill="#D3E6FE"/>
<path d="M128.57 64.5C128.57 65.19 128.01 65.75 127.32 65.75C126.63 65.75 126.07 65.19 126.07 64.5C126.07 63.81 126.63 63.25 127.32 63.25C128.01 63.25 128.57 63.81 128.57 64.5Z" fill="#D3E6FE"/>
<path d="M98.6599 68.3701C98.6599 69.0601 98.0999 69.6201 97.4099 69.6201C96.7199 69.6201 96.1599 69.0601 96.1599 68.3701C96.1599 67.6801 96.7199 67.1201 97.4099 67.1201C98.0999 67.1201 98.6599 67.6801 98.6599 68.3701Z" fill="#5B5BA3"/>
<path d="M101.16 64.3701C101.16 65.0601 100.6 65.6201 99.9099 65.6201C99.2199 65.6201 98.6599 65.0601 98.6599 64.3701C98.6599 63.6801 99.2199 63.1201 99.9099 63.1201C100.6 63.1201 101.16 63.6801 101.16 64.3701Z" fill="#7B7BB7"/>
<path d="M102.3 60.5601C102.3 61.2501 101.74 61.8101 101.05 61.8101C100.36 61.8101 99.8 61.2501 99.8 60.5601C99.8 59.8701 100.36 59.3101 101.05 59.3101C101.74 59.3101 102.3 59.8701 102.3 60.5601Z" fill="#9595D1"/>
<path d="M103.67 57C103.67 57.69 103.11 58.25 102.42 58.25C101.73 58.25 101.17 57.69 101.17 57C101.17 56.31 101.73 55.75 102.42 55.75C103.11 55.75 103.67 56.31 103.67 57Z" fill="#9FA4E2"/>
<path d="M108.13 57C108.13 57.69 107.57 58.25 106.88 58.25C106.19 58.25 105.63 57.69 105.63 57C105.63 56.31 106.19 55.75 106.88 55.75C107.57 55.75 108.13 56.31 108.13 57Z" fill="#D3E6FE"/>
<path d="M112.82 57C112.82 57.69 112.26 58.25 111.57 58.25C110.88 58.25 110.32 57.69 110.32 57C110.32 56.31 110.88 55.75 111.57 55.75C112.26 55.75 112.82 56.31 112.82 57Z" fill="#D3E6FE"/>
<path d="M115.38 55.8999C116.07 55.8999 116.63 55.3403 116.63 54.6499C116.63 53.9595 116.07 53.3999 115.38 53.3999C114.69 53.3999 114.13 53.9595 114.13 54.6499C114.13 55.3403 114.69 55.8999 115.38 55.8999Z" fill="#D3E6FE"/>
<path d="M120 51.96C120 52.65 119.44 53.21 118.75 53.21C118.06 53.21 117.5 52.65 117.5 51.96C117.5 51.27 118.06 50.71 118.75 50.71C119.44 50.71 120 51.27 120 51.96Z" fill="#D3E6FE"/>
<path d="M122.51 47.77C122.51 48.46 121.95 49.02 121.26 49.02C120.57 49.02 120.01 48.46 120.01 47.77C120.01 47.08 120.57 46.52 121.26 46.52C121.95 46.52 122.51 47.08 122.51 47.77Z" fill="#D3E6FE"/>
<path d="M127.32 49.79C127.32 50.48 126.76 51.04 126.07 51.04C125.38 51.04 124.82 50.48 124.82 49.79C124.82 49.1 125.38 48.54 126.07 48.54C126.76 48.54 127.32 49.1 127.32 49.79Z" fill="#D3E6FE"/>
<path d="M59.73 74.29L65.31 59.83L72.96 62.86L80.6 58.17L85.36 49.7H87.71" stroke="#47458E" stroke-width="2.5" stroke-linecap="round" stroke-linejoin="round"/>
<path d="M92.48 49.7C92.48 50.39 91.92 50.95 91.23 50.95C90.54 50.95 89.98 50.39 89.98 49.7C89.98 49.01 90.54 48.45 91.23 48.45C91.92 48.45 92.48 49.01 92.48 49.7Z" fill="#47458E"/>
<path d="M94.8201 45.45C94.8201 46.14 94.2601 46.7 93.5701 46.7C92.8801 46.7 92.3201 46.14 92.3201 45.45C92.3201 44.76 92.8801 44.2 93.5701 44.2C94.2601 44.2 94.8201 44.76 94.8201 45.45Z" fill="#5B5BA3"/>
<path d="M96.1599 42.1699C96.1599 42.8599 95.5999 43.4199 94.9099 43.4199C94.2199 43.4199 93.6599 42.8599 93.6599 42.1699C93.6599 41.4799 94.2199 40.9199 94.9099 40.9199C95.5999 40.9199 96.1599 41.4799 96.1599 42.1699Z" fill="#7B7BB7"/>
<path d="M100.05 43.4199C100.05 44.1099 99.49 44.6699 98.8 44.6699C98.11 44.6699 97.55 44.1099 97.55 43.4199C97.55 42.7299 98.11 42.1699 98.8 42.1699C99.49 42.1699 100.05 42.7299 100.05 43.4199Z" fill="#9595D1"/>
<path d="M103.55 44.53C103.55 45.22 102.99 45.78 102.3 45.78C101.61 45.78 101.05 45.22 101.05 44.53C101.05 43.84 101.61 43.28 102.3 43.28C102.99 43.28 103.55 43.84 103.55 44.53Z" fill="#9FA4E2"/>
<path d="M106.88 40.9199C106.88 41.6099 106.32 42.1699 105.63 42.1699C104.94 42.1699 104.38 41.6099 104.38 40.9199C104.38 40.2299 104.94 39.6699 105.63 39.6699C106.32 39.6699 106.88 40.2299 106.88 40.9199Z" fill="#D3E6FE"/>
<path d="M109.96 37.9199C109.96 38.6099 109.4 39.1699 108.71 39.1699C108.02 39.1699 107.46 38.6099 107.46 37.9199C107.46 37.2299 108.02 36.6699 108.71 36.6699C109.4 36.6699 109.96 37.2299 109.96 37.9199Z" fill="#D3E6FE"/>
<path d="M114.75 39.1699C114.75 39.8599 114.19 40.4199 113.5 40.4199C112.81 40.4199 112.25 39.8599 112.25 39.1699C112.25 38.4799 112.81 37.9199 113.5 37.9199C114.19 37.9199 114.75 38.4799 114.75 39.1699Z" fill="#D3E6FE"/>
<path d="M116 35.4199C116 36.1099 115.44 36.6699 114.75 36.6699C114.06 36.6699 113.5 36.1099 113.5 35.4199C113.5 34.7299 114.06 34.1699 114.75 34.1699C115.44 34.1699 116 34.7299 116 35.4199Z" fill="#D3E6FE"/>
<path d="M116.63 31.25C116.63 31.94 116.07 32.5 115.38 32.5C114.69 32.5 114.13 31.94 114.13 31.25C114.13 30.56 114.69 30 115.38 30C116.07 30 116.63 30.56 116.63 31.25Z" fill="#D3E6FE"/>
</g>
</g>
<defs>
<filter id="filter0_d_394_25889" x="-10" y="0" width="207" height="212" filterUnits="userSpaceOnUse" color-interpolation-filters="sRGB">
<feFlood flood-opacity="0" result="BackgroundImageFix"/>
<feColorMatrix in="SourceAlpha" type="matrix" values="0 0 0 0 0 0 0 0 0 0 0 0 0 0 0 0 0 0 127 0" result="hardAlpha"/>
<feOffset dx="6" dy="16"/>
<feGaussianBlur stdDeviation="8"/>
<feComposite in2="hardAlpha" operator="out"/>
<feColorMatrix type="matrix" values="0 0 0 0 0.296875 0 0 0 0 0.40045 0 0 0 0 0.416667 0 0 0 0.2 0"/>
<feBlend mode="normal" in2="BackgroundImageFix" result="effect1_dropShadow_394_25889"/>
<feBlend mode="normal" in="SourceGraphic" in2="effect1_dropShadow_394_25889" result="shape"/>
</filter>
<clipPath id="clip0_394_25889">
<rect width="175" height="180" rx="15" fill="white"/>
</clipPath>
</defs>
</svg>
