<svg width="175" height="180" viewBox="0 0 175 180" fill="none" xmlns="http://www.w3.org/2000/svg">
<g filter="url(#filter0_b_731_8913)">
<g clip-path="url(#clip0_731_8913)">
<path d="M82.5 180L41 86.5L110.5 35L175.5 95V120L177 167.5L182 180H82.5Z" fill="#186677"/>
<path d="M108.846 91.6446H123.613C142.089 91.6446 136.21 69.6862 127.342 69.6862C128.822 51.0311 116.744 37.6171 104.916 33.9724C90.8493 29.6249 70.8634 32.4563 68.2939 55.1476C57.796 52.6175 48.7378 60.1578 48.4479 70.0577C36.6003 70.0577 35.9704 91.6546 47.838 91.6446H108.846Z" fill="white"/>
<path d="M91.0693 89.4854V106.745" stroke="#47458E" stroke-width="2.5" stroke-linecap="round" stroke-linejoin="round"/>
<path d="M98.4878 89.4854V100.319H118.934V106.745" stroke="#47458E" stroke-width="2.5" stroke-linecap="round" stroke-linejoin="round"/>
<path d="M83.6208 89.4854V100.319H63.4549V106.745" stroke="#47458E" stroke-width="2.5" stroke-linecap="round" stroke-linejoin="round"/>
<path d="M91.0793 65.5492V61.1113" stroke="#D7D6F9" stroke-width="3" stroke-miterlimit="10"/>
<path d="M83.6407 65.5492V61.1113" stroke="#D7D6F9" stroke-width="3" stroke-miterlimit="10"/>
<path d="M98.5078 65.5492V61.1113" stroke="#D7D6F9" stroke-width="3" stroke-miterlimit="10"/>
<path d="M74.7226 77.5176H79.1517" stroke="#D7D6F9" stroke-width="3" stroke-miterlimit="10"/>
<path d="M74.7226 70.0566H79.1517" stroke="#D7D6F9" stroke-width="3" stroke-miterlimit="10"/>
<path d="M74.7226 84.9766H79.1517" stroke="#D7D6F9" stroke-width="3" stroke-miterlimit="10"/>
<path d="M111.855 55.1465H114.854" stroke="#D7D6F9" stroke-width="3" stroke-miterlimit="10"/>
<path d="M96.998 55.1465H99.9974" stroke="#D7D6F9" stroke-width="3" stroke-miterlimit="10"/>
<path d="M89.5796 55.1465H92.569" stroke="#D7D6F9" stroke-width="3" stroke-miterlimit="10"/>
<path d="M82.1511 55.1465H85.1405" stroke="#D7D6F9" stroke-width="3" stroke-miterlimit="10"/>
<path d="M74.7226 55.1465H77.722" stroke="#D7D6F9" stroke-width="3" stroke-miterlimit="10"/>
<path d="M104.427 55.1465H107.426" stroke="#D7D6F9" stroke-width="3" stroke-miterlimit="10"/>
<path d="M119.284 55.1465H122.283" stroke="#D7D6F9" stroke-width="3" stroke-miterlimit="10"/>
<path d="M111.855 62.6074H114.854" stroke="#D7D6F9" stroke-width="3" stroke-miterlimit="10"/>
<path d="M67.2941 62.6074H70.2935" stroke="#D7D6F9" stroke-width="3" stroke-miterlimit="10"/>
<path d="M59.8756 62.6074H62.875" stroke="#D7D6F9" stroke-width="3" stroke-miterlimit="10"/>
<path d="M119.284 62.6074H122.283" stroke="#D7D6F9" stroke-width="3" stroke-miterlimit="10"/>
<path d="M111.855 70.0566H114.854" stroke="#D7D6F9" stroke-width="3" stroke-miterlimit="10"/>
<path d="M67.2941 70.0566H70.2935" stroke="#D7D6F9" stroke-width="3" stroke-miterlimit="10"/>
<path d="M119.284 70.0566H122.283" stroke="#D7D6F9" stroke-width="3" stroke-miterlimit="10"/>
<path d="M111.855 77.5176H114.854" stroke="#D7D6F9" stroke-width="3" stroke-miterlimit="10"/>
<path d="M67.2941 77.5176H70.2935" stroke="#D7D6F9" stroke-width="3" stroke-miterlimit="10"/>
<path d="M126.712 77.5176H129.701" stroke="#D7D6F9" stroke-width="3" stroke-miterlimit="10"/>
<path d="M119.284 77.5176H122.283" stroke="#D7D6F9" stroke-width="3" stroke-miterlimit="10"/>
<path d="M111.855 84.9766H114.854" stroke="#D7D6F9" stroke-width="3" stroke-miterlimit="10"/>
<path d="M67.2941 84.9766H70.2935" stroke="#D7D6F9" stroke-width="3" stroke-miterlimit="10"/>
<path d="M126.712 84.9766H129.701" stroke="#D7D6F9" stroke-width="3" stroke-miterlimit="10"/>
<path d="M119.284 84.9766H122.283" stroke="#D7D6F9" stroke-width="3" stroke-miterlimit="10"/>
<path d="M111.855 84.9766H114.854" stroke="#D7D6F9" stroke-width="3" stroke-miterlimit="10"/>
<path d="M111.855 47.6875H114.854" stroke="#D7D6F9" stroke-width="3" stroke-miterlimit="10"/>
<path d="M96.998 47.6875H99.9974" stroke="#D7D6F9" stroke-width="3" stroke-miterlimit="10"/>
<path d="M89.5796 47.6875H92.569" stroke="#D7D6F9" stroke-width="3" stroke-miterlimit="10"/>
<path d="M82.1511 47.6875H85.1405" stroke="#D7D6F9" stroke-width="3" stroke-miterlimit="10"/>
<path d="M74.7226 47.6875H77.722" stroke="#D7D6F9" stroke-width="3" stroke-miterlimit="10"/>
<path d="M104.427 47.6875H107.426" stroke="#D7D6F9" stroke-width="3" stroke-miterlimit="10"/>
<path d="M111.855 55.1465H114.854" stroke="#D7D6F9" stroke-width="3" stroke-miterlimit="10"/>
<path d="M96.998 55.1465H99.9974" stroke="#D7D6F9" stroke-width="3" stroke-miterlimit="10"/>
<path d="M89.5796 55.1465H92.569" stroke="#D7D6F9" stroke-width="3" stroke-miterlimit="10"/>
<path d="M82.1511 55.1465H85.1405" stroke="#D7D6F9" stroke-width="3" stroke-miterlimit="10"/>
<path d="M74.7226 55.1465H77.722" stroke="#D7D6F9" stroke-width="3" stroke-miterlimit="10"/>
<path d="M74.7226 62.6074H77.722" stroke="#D7D6F9" stroke-width="3" stroke-miterlimit="10"/>
<path d="M104.427 55.1465H107.426" stroke="#D7D6F9" stroke-width="3" stroke-miterlimit="10"/>
<path d="M104.427 62.6074H107.426" stroke="#D7D6F9" stroke-width="3" stroke-miterlimit="10"/>
<path d="M119.284 55.1465H122.283" stroke="#D7D6F9" stroke-width="3" stroke-miterlimit="10"/>
<path d="M96.998 40.2266H99.9974" stroke="#D7D6F9" stroke-width="3" stroke-miterlimit="10"/>
<path d="M89.5796 40.2266H92.569" stroke="#D7D6F9" stroke-width="3" stroke-miterlimit="10"/>
<path d="M82.1511 40.2266H85.1405" stroke="#D7D6F9" stroke-width="3" stroke-miterlimit="10"/>
<path d="M104.427 40.2266H107.426" stroke="#D7D6F9" stroke-width="3" stroke-miterlimit="10"/>
<path d="M111.855 47.6875H114.854" stroke="#D7D6F9" stroke-width="3" stroke-miterlimit="10"/>
<path d="M96.998 47.6875H99.9974" stroke="#D7D6F9" stroke-width="3" stroke-miterlimit="10"/>
<path d="M89.5796 47.6875H92.569" stroke="#D7D6F9" stroke-width="3" stroke-miterlimit="10"/>
<path d="M82.1511 47.6875H85.1405" stroke="#D7D6F9" stroke-width="3" stroke-miterlimit="10"/>
<path d="M74.7226 47.6875H77.722" stroke="#D7D6F9" stroke-width="3" stroke-miterlimit="10"/>
<path d="M104.427 47.6875H107.426" stroke="#D7D6F9" stroke-width="3" stroke-miterlimit="10"/>
<path d="M96.998 40.2266H99.9974" stroke="#D7D6F9" stroke-width="3" stroke-miterlimit="10"/>
<path d="M89.5796 40.2266H92.569" stroke="#D7D6F9" stroke-width="3" stroke-miterlimit="10"/>
<path d="M82.1511 40.2266H85.1405" stroke="#D7D6F9" stroke-width="3" stroke-miterlimit="10"/>
<path d="M104.427 40.2266H107.426" stroke="#D7D6F9" stroke-width="3" stroke-miterlimit="10"/>
<path d="M59.8756 70.0566H62.875" stroke="#D7D6F9" stroke-width="3" stroke-miterlimit="10"/>
<path d="M52.4471 70.0566H55.4465" stroke="#D7D6F9" stroke-width="3" stroke-miterlimit="10"/>
<path d="M59.8756 77.5176H62.875" stroke="#D7D6F9" stroke-width="3" stroke-miterlimit="10"/>
<path d="M52.4471 77.5176H55.4465" stroke="#D7D6F9" stroke-width="3" stroke-miterlimit="10"/>
<path d="M45.0186 77.5176H48.018" stroke="#D7D6F9" stroke-width="3" stroke-miterlimit="10"/>
<path d="M59.8756 84.9766H62.875" stroke="#D7D6F9" stroke-width="3" stroke-miterlimit="10"/>
<path d="M52.4471 84.9766H55.4465" stroke="#D7D6F9" stroke-width="3" stroke-miterlimit="10"/>
<path d="M45.0186 84.9766H48.018" stroke="#D7D6F9" stroke-width="3" stroke-miterlimit="10"/>
<path d="M101.907 33.5403C89.9095 31.5323 79.0617 40.1771 76.3423 59.0531C76.0323 61.2117 73.8728 62.5772 71.8232 61.8543C65.7344 59.7057 54.3067 57.8582 47.918 70.6899C47.918 70.6899 49.7376 58.5109 57.826 56.061C65.9144 53.6212 67.914 55.6293 67.914 55.6293C67.914 55.6293 71.3633 36.0404 86.6302 33.2893C101.907 30.5282 101.907 33.5403 101.907 33.5403Z" fill="white"/>
<g style="mix-blend-mode:darken">
<path d="M127.822 69.7164C127.952 69.9072 126.902 69.6863 126.902 69.6863C126.902 69.6863 127.732 58.1197 124.902 51.6135C121.103 42.8884 113.795 37.3661 107.906 35.5488C116.884 41.563 122.873 52.5673 121.473 68.3609C121.323 70.0879 122.213 71.7646 123.793 72.4474C124.173 72.608 124.573 72.8088 124.972 73.0297C129.192 75.4093 128.812 81.7548 124.333 83.6023C122.593 84.3252 120.373 84.7469 117.614 84.7469H41.8392C41.0394 84.7469 40.2996 84.6666 39.6197 84.5059C40.5495 88.4418 43.269 91.6447 47.838 91.6447H123.613C141.749 91.6447 136.42 70.4795 127.822 69.7164Z" fill="#D1E5FD"/>
</g>
<path d="M105.996 68.5615H83.1509V89.4958H105.996V68.5615Z" fill="#D1E5FD" stroke="#D1E5FD" stroke-width="2.5" stroke-linecap="round" stroke-linejoin="round"/>
<path d="M102.997 77.5176H105.426" stroke="#D1E5FD" stroke-width="3" stroke-miterlimit="10"/>
<path d="M102.997 70.0566H105.426" stroke="#D1E5FD" stroke-width="3" stroke-miterlimit="10"/>
<path d="M102.997 84.9775H105.426" stroke="#D1E5FD" stroke-width="3" stroke-miterlimit="10"/>
<path d="M102.997 65.5488H79.1517V89.4952H102.997V65.5488Z" fill="white" stroke="#47458E" stroke-width="2.5" stroke-linecap="round" stroke-linejoin="round"/>
<path d="M98.0979 70.4688H84.0507V84.5755H98.0979V70.4688Z" fill="#D1E5FD" stroke="#47458E" stroke-width="2.5" stroke-linecap="round" stroke-linejoin="round"/>
<path d="M108.846 91.6446H123.613C142.089 91.6446 136.21 69.6862 127.342 69.6862C128.822 51.0311 116.744 37.6171 104.916 33.9724C90.8493 29.6249 70.8634 32.4563 68.2939 55.1476C57.796 52.6174 48.7378 60.1578 48.4479 70.0577C36.6003 70.0577 35.9704 91.6546 47.838 91.6446H73.3829" stroke="#47458E" stroke-width="2.5" stroke-linecap="round" stroke-linejoin="round"/>
</g>
</g>
<defs>
<filter id="filter0_b_731_8913" x="-8" y="-8" width="191" height="196" filterUnits="userSpaceOnUse" color-interpolation-filters="sRGB">
<feFlood flood-opacity="0" result="BackgroundImageFix"/>
<feGaussianBlur in="BackgroundImageFix" stdDeviation="4"/>
<feComposite in2="SourceAlpha" operator="in" result="effect1_backgroundBlur_731_8913"/>
<feBlend mode="normal" in="SourceGraphic" in2="effect1_backgroundBlur_731_8913" result="shape"/>
</filter>
<clipPath id="clip0_731_8913">
<rect width="175" height="180" rx="15" fill="white"/>
</clipPath>
</defs>
</svg>
