<svg width="32" height="32" viewBox="0 0 32 32" fill="none" xmlns="http://www.w3.org/2000/svg">
<g clip-path="url(#clip0_113_695)">
<path fill-rule="evenodd" clip-rule="evenodd" d="M27 3C27 2.448 26.552 2 26 2H6C5.448 2 5 2.448 5 3V29C5 29.552 5.448 30 6 30H26C26.552 30 27 29.552 27 29V3ZM25 4V28H7V4H25ZM11 26H21C21.552 26 22 25.552 22 25C22 24.448 21.552 24 21 24H11C10.448 24 10 24.448 10 25C10 25.552 10.448 26 11 26ZM13 23H19C19.552 23 20 22.552 20 22C20 21.448 19.552 21 19 21H13C12.448 21 12 21.448 12 22C12 22.552 12.448 23 13 23ZM15.955 19.5H16.045C19.888 19.476 23 16.348 23 12.5C23 8.652 19.888 5.524 16.045 5.5H15.955C12.112 5.524 9 8.652 9 12.5C9 16.348 12.112 19.476 15.955 19.5ZM16 14C16.552 14 17 14.448 17 15C17 15.552 16.552 16 16 16C15.448 16 15 15.552 15 15C15 14.448 15.448 14 16 14ZM15 10V12C15 12.552 15.448 13 16 13C16.552 13 17 12.552 17 12V10C17 9.448 16.552 9 16 9C15.448 9 15 9.448 15 10Z" fill="white"/>
</g>
<defs>
<clipPath id="clip0_113_695">
<rect width="32" height="32" fill="white"/>
</clipPath>
</defs>
</svg>
