<svg width="214" height="56" viewBox="0 0 214 56" fill="none" xmlns="http://www.w3.org/2000/svg">
<g clip-path="url(#clip0_859_2687)">
<path d="M32.8895 27.3671C29.1965 24.8322 24.4608 25.8811 21.9843 29.6836C19.8988 32.8741 16.7706 33.2675 15.5541 33.2675C11.6004 33.2675 8.90667 30.4703 8.08117 27.5857C8.08117 27.542 8.08117 27.542 8.08117 27.4983C8.08117 27.4545 8.08117 27.4545 8.03773 27.4108C7.7336 26.1871 7.6467 25.6189 7.6467 24.3514C7.6467 17.4021 14.7286 9.70979 24.8952 9.70979C35.3225 9.70979 41.2748 17.708 42.7955 22.1224C42.752 22.035 42.752 21.9476 42.7086 21.9038C39.7542 13.25 31.5861 7 21.9408 7C9.81906 7 0 16.8776 0 29.0717C0 39.9545 7.82049 49.3077 18.6388 49.3077C27.2848 49.3077 33.1067 44.4126 35.757 37.7255C37.2777 33.9231 36.2349 29.6399 32.8895 27.3671Z" fill="#003863"/>
<path d="M42.9692 22.4717C41.7093 18.1448 35.6701 9.62207 24.8952 9.62207C14.7286 9.62207 7.6467 17.3144 7.6467 24.2637C7.6467 25.5312 7.73359 26.143 8.03772 27.3231C7.90738 26.7986 7.82049 26.2742 7.82049 25.7497C7.82049 18.5382 14.9893 13.5556 22.3753 13.5556C32.3681 13.5556 40.4493 21.685 40.4493 31.7375C40.4493 39.6046 35.9308 46.4228 29.3703 49.7007C37.799 46.6413 43.8382 38.5119 43.8382 28.9403C43.9251 26.7112 43.621 24.7444 42.9692 22.4717Z" fill="#E4032E"/>
<path d="M54.4393 34.8412V27.7607H67.8645V29.509H56.6116V30.4268H67.7776V32.1314H56.6116V33.0929H67.9514V34.8412H62.2598V35.9775H69.1679V37.7695H53.1793V35.9775H60.0874V34.8412H54.4393ZM65.388 42.009C65.388 42.5335 65.3011 43.0142 65.0838 43.495C64.8666 43.9758 64.5625 44.3691 64.2149 44.7188C63.8239 45.0684 63.346 45.3744 62.8246 45.5492C62.3032 45.7677 61.7384 45.8551 61.1736 45.8551C60.6088 45.8551 60.044 45.7677 59.5226 45.5492C59.0012 45.3307 58.5668 45.0684 58.1757 44.7188C57.7847 44.3691 57.4806 43.9758 57.2634 43.495C57.0461 43.0142 56.9592 42.5335 56.9592 42.009C56.9592 41.4845 57.0461 40.96 57.2634 40.523C57.4806 40.0859 57.7847 39.6489 58.1757 39.2992C58.5668 38.9496 59.0012 38.6873 59.5226 38.4688C60.044 38.2503 60.6088 38.1628 61.1736 38.1628C61.7819 38.1628 62.3467 38.2503 62.8246 38.4688C63.346 38.6873 63.7804 38.9496 64.2149 39.2992C64.6059 39.6489 64.8666 40.0859 65.0838 40.523C65.3011 40.96 65.388 41.4408 65.388 42.009ZM63.2591 41.9653C63.2591 41.3971 63.0418 40.9163 62.6508 40.4793C62.2163 40.0859 61.7384 39.8674 61.1736 39.8674C60.6088 39.8674 60.0874 40.0859 59.6964 40.4793C59.2619 40.8726 59.0447 41.3971 59.0447 41.9653C59.0447 42.5335 59.2619 43.0142 59.6964 43.4513C60.1309 43.8447 60.6088 44.0632 61.1736 44.0632C61.7384 44.0632 62.2598 43.8447 62.6508 43.4513C63.0418 43.0579 63.2591 42.5335 63.2591 41.9653Z" fill="#575756"/>
<path d="M81.2027 28.6786V30.4706H71.0361V28.6786H75.0332V27.2363H77.3359V28.6786H81.2027ZM72.0788 38.4251H74.2077V39.7363H83.4185V38.4251H85.5475V44.7626H72.1223L72.0788 38.4251ZM80.16 34.579C80.16 35.1035 80.0731 35.5842 79.8559 36.0213C79.6386 36.4584 79.3345 36.8517 78.9869 37.2014C78.6394 37.551 78.2049 37.8133 77.727 37.9881C77.2491 38.1629 76.7277 38.294 76.2063 38.294C75.685 38.294 75.1636 38.2066 74.6422 37.9881C74.1209 37.7695 73.7298 37.5073 73.3823 37.2014C73.0347 36.8954 72.7305 36.5021 72.5133 36.0213C72.2961 35.5842 72.2092 35.1035 72.2092 34.579C72.2092 34.0545 72.2961 33.5737 72.5133 33.1367C72.7305 32.6996 73.0347 32.3063 73.3823 31.9566C73.7298 31.6507 74.1643 31.3884 74.6422 31.1699C75.1201 30.9514 75.6415 30.864 76.2063 30.864C76.7711 30.864 77.2491 30.9514 77.727 31.1699C78.2049 31.3447 78.6394 31.607 78.9869 31.9566C79.3345 32.3063 79.6386 32.6996 79.8559 33.1367C80.0731 33.6174 80.16 34.0982 80.16 34.579ZM83.3751 41.3535H74.1643V43.0143H83.3751V41.3535ZM78.0745 34.579C78.0745 34.0545 77.9008 33.6174 77.5097 33.2241C77.1187 32.8307 76.6842 32.6559 76.1629 32.6559C75.6415 32.6559 75.207 32.8307 74.816 33.2241C74.425 33.6174 74.2512 34.0545 74.2512 34.579C74.2512 35.1035 74.425 35.5405 74.816 35.9339C75.207 36.3272 75.6415 36.5021 76.1629 36.5021C76.6842 36.5021 77.1187 36.3272 77.5097 35.9339C77.9008 35.5405 78.0745 35.1035 78.0745 34.579ZM85.504 37.7258H83.3317V27.586H85.4606V31.5195H87.9805V33.6174H85.504V37.7258Z" fill="#575756"/>
<path d="M89.5446 29.9458V28.0665H99.5374V29.9458H95.2796L99.7112 35.3654L98.1906 36.6329L94.6279 32.1312L91.1087 36.9388L89.5446 35.6714L93.9762 29.9458H89.5446ZM103.404 41.3532C103.404 41.9214 103.274 42.4895 103.057 43.014C102.796 43.5385 102.492 43.9756 102.101 44.3689C101.71 44.7623 101.232 45.0682 100.667 45.2867C100.102 45.5053 99.5374 45.6364 98.8857 45.6364C98.2775 45.6364 97.6692 45.5053 97.1478 45.2867C96.583 45.0682 96.1051 44.7623 95.7141 44.3689C95.3231 43.9756 94.9755 43.5385 94.7582 43.014C94.4976 42.4895 94.4107 41.9651 94.4107 41.3532C94.4107 40.7413 94.541 40.2168 94.7582 39.6923C95.0189 39.1679 95.3231 38.7308 95.7141 38.3374C96.1051 37.9441 96.583 37.6381 97.1478 37.4196C97.7126 37.2011 98.2775 37.07 98.8857 37.07C99.494 37.07 100.102 37.2011 100.667 37.4196C101.232 37.6381 101.71 37.9441 102.101 38.3374C102.492 38.7308 102.839 39.1679 103.057 39.6923C103.274 40.2168 103.404 40.7413 103.404 41.3532ZM101.275 41.3095C101.275 40.6539 101.058 40.0857 100.58 39.6049C100.102 39.1242 99.5374 38.9056 98.8857 38.9056C98.234 38.9056 97.6692 39.1242 97.1913 39.6049C96.7134 40.0857 96.4961 40.6539 96.4961 41.3095C96.4961 41.9651 96.7134 42.5333 97.1913 43.014C97.6692 43.4948 98.234 43.7133 98.8857 43.7133C99.5374 43.7133 100.102 43.4948 100.58 43.014C101.015 42.577 101.275 42.0088 101.275 41.3095ZM102.709 36.8514V33.049H99.4505V31.1696H102.709V27.542H104.881V36.8077L102.709 36.8514Z" fill="#575756"/>
<path d="M120.392 30.9949V28.2852H122.521V38.2939H116.873V41.8341H123.781V43.7572H107.792V41.8341H114.701V38.2939H109.096V28.3289H111.225V31.0387H120.392V30.9949ZM120.392 36.4145V32.8743H111.225V36.4145H120.392Z" fill="#575756"/>
<path d="M137.076 36.1524V38.0754H125.78V36.1524H129.299V32.2625H131.428V36.1524H137.076ZM133.991 34.4915V29.815H126.562V27.8919H136.12V34.4478H133.991V34.4915ZM127.04 44.8062V39.5615H129.212V42.8831H140.943V44.8062H127.04ZM140.595 39.0807H138.423V27.5859H140.595V32.3062H142.811V34.273H140.595V39.0807Z" fill="#575756"/>
<path d="M154.194 42.6646H144.94V34.6664H151.848V30.6017H144.94V28.6786H154.02V36.5457H147.112V40.7415H154.237V42.6646H154.194ZM157.409 27.5859H159.581V45.1122H157.409V27.5859Z" fill="#575756"/>
<path d="M167.793 27.6734L173.485 41.8342L171.573 42.6646L167.793 33.0492L164.057 42.7957L162.101 41.9216L167.793 27.6734ZM175.613 27.5859H177.786V45.1122H175.613V27.5859Z" fill="#575756"/>
<path d="M196.772 41.8784V43.8014H180.784V41.8784H196.772ZM188.734 31.2577L182.956 38.7315L181.262 37.464L188.734 27.8486L196.207 37.464L194.556 38.7315L188.734 31.2577Z" fill="#575756"/>
<path d="M206.809 35.0165V36.721H198.988V28.4168H206.635V30.2088H201.073V31.7385H206.591V33.3993H201.073V35.0165H206.809ZM208.72 27.8923H210.762V37.027H208.72V33.3993H207.156V31.3888H208.72V27.8923ZM212.022 27.8486H214.108V37.1144H212.022V27.8486Z" fill="#575756"/>
<path d="M200.465 38.5127H214.108V44.9812H200.465V38.5127ZM211.979 40.3921H202.638V43.1456H211.979V40.3921Z" fill="#575756"/>
<path d="M59.5661 16.965L58.4364 17.6206L56.6116 14.2989L54.8303 17.708L53.7007 17.0961L56.6116 11.8076L59.5661 16.965ZM62.7811 20.8548C62.7811 21.2482 62.6942 21.5978 62.5639 21.9475C62.3901 22.2971 62.1729 22.5594 61.9122 22.8216C61.6515 23.0838 61.3474 23.2587 60.9564 23.4335C60.5653 23.6083 60.2178 23.652 59.8267 23.652C59.4357 23.652 59.0447 23.5646 58.6971 23.4335C58.3495 23.3024 58.002 23.0838 57.7413 22.8216C57.4806 22.5594 57.2634 22.2534 57.0896 21.9475C56.9158 21.5978 56.8723 21.2482 56.8723 20.8548C56.8723 20.4615 56.9592 20.1118 57.0896 19.7622C57.2634 19.4125 57.4371 19.1503 57.7413 18.888C58.002 18.6258 58.3495 18.451 58.6971 18.2761C59.0447 18.145 59.4357 18.0576 59.8267 18.0576C60.2178 18.0576 60.6088 18.145 60.9564 18.2761C61.3039 18.4073 61.6081 18.6258 61.9122 18.888C62.1729 19.1503 62.3901 19.4562 62.5639 19.7622C62.6942 20.1118 62.7811 20.4615 62.7811 20.8548ZM61.3908 20.8548C61.3908 20.4178 61.217 20.0681 60.9129 19.7622C60.6088 19.4562 60.2178 19.3251 59.7833 19.3251C59.3488 19.3251 59.0012 19.4562 58.6971 19.7622C58.393 20.0681 58.2192 20.4178 58.2192 20.8548C58.2192 21.2919 58.393 21.6415 58.6971 21.9475C59.0012 22.2534 59.3923 22.3845 59.7833 22.3845C60.1743 22.3845 60.6088 22.2534 60.9129 21.9475C61.217 21.6415 61.3908 21.2919 61.3908 20.8548ZM62.6074 11.8513H63.9542V17.9265H62.6074V15.3478H61.4343V17.7517H60.1309V11.895H61.4343V14.0366H62.6074V11.8513Z" fill="#575756"/>
<path d="M70.9492 21.7292H65.9528V12.5509H70.8189V13.8183H67.2997V16.4844H70.8189V17.7082H67.2997V20.4617H70.9492V21.7292ZM74.5988 11.8516H75.9456V23.2589H74.5988V17.7956H73.2954V23.2589H71.9919V11.8953H73.2954V16.5718H74.5988V11.8516Z" fill="#575756"/>
<path d="M82.3758 21.7729H81.029V13.8621H77.5097V12.5946H82.3758V21.7729ZM84.1571 11.8953H85.4606V23.2589H84.1571V19.2379H82.8972V18.0141H84.1571V16.0037H82.8972V14.7799H84.1571V11.8953ZM86.5033 11.8516H87.8502V23.2589H86.5033V11.8516Z" fill="#575756"/>
<path d="M99.1464 21.7729H97.7127V13.8621H93.368V12.5946H99.1464V21.7729ZM101.97 11.8516H103.404V23.2589H101.97V11.8516Z" fill="#575756"/>
<path d="M105.316 20.724V19.5002H115.743V20.724H111.225V23.3026H109.834V20.724H105.316ZM115.048 12.9442V14.168H112.832C113.006 14.3428 113.136 14.5614 113.267 14.8236C113.441 15.1733 113.484 15.5229 113.484 15.8726C113.484 16.2222 113.397 16.5719 113.267 16.9215C113.136 17.2712 112.919 17.5334 112.658 17.7956C112.398 18.0142 112.094 18.2327 111.746 18.3638C111.399 18.4949 111.007 18.5824 110.616 18.5824C110.225 18.5824 109.834 18.4949 109.487 18.3638C109.139 18.2327 108.835 18.0142 108.574 17.7956C108.314 17.5334 108.097 17.2712 107.966 16.9215C107.836 16.5719 107.749 16.2222 107.749 15.8726C107.749 15.5229 107.836 15.1733 107.966 14.8236C108.097 14.6051 108.227 14.3865 108.401 14.168H106.185V12.9442H109.921V11.6768H111.442V12.9442H115.048ZM112.094 15.8289C112.094 15.3918 111.963 15.0421 111.659 14.7362C111.355 14.4303 111.007 14.2991 110.573 14.2991C110.139 14.2991 109.791 14.4303 109.487 14.7362C109.183 15.0421 109.052 15.3918 109.052 15.8289C109.052 16.2659 109.183 16.6156 109.487 16.9215C109.791 17.2275 110.139 17.3586 110.573 17.3586C111.007 17.3586 111.355 17.2275 111.659 16.9215C111.963 16.6156 112.094 16.2659 112.094 15.8289Z" fill="#575756"/>
<path d="M117.438 12.5509H122.217V13.8183H118.871V20.4617H122.391V21.6855H117.481V12.5509H117.438ZM126.04 11.8516H127.387V23.2589H126.04V17.7956H124.52V23.2589H123.216V11.8953H124.52V16.5718H126.04V11.8516Z" fill="#575756"/>
<path d="M139.552 18.1888H129.125V16.965H139.552V18.1888ZM137.119 13.9056C137.119 14.2552 137.032 14.6049 136.902 14.9108C136.772 15.2168 136.554 15.479 136.294 15.7412C136.033 15.9598 135.729 16.1783 135.381 16.3094C135.034 16.4405 134.686 16.528 134.295 16.528C133.904 16.528 133.557 16.4405 133.209 16.3094C132.861 16.1783 132.557 16.0035 132.297 15.7412C132.036 15.5227 131.862 15.2168 131.688 14.9108C131.515 14.6049 131.471 14.2552 131.471 13.9056C131.471 13.5559 131.558 13.2063 131.688 12.9003C131.819 12.5944 132.036 12.2884 132.297 12.0699C132.557 11.8514 132.861 11.6329 133.209 11.5017C133.557 11.3706 133.904 11.2832 134.295 11.2832C134.686 11.2832 135.034 11.3706 135.381 11.5017C135.729 11.6329 136.033 11.8077 136.294 12.0699C136.554 12.2884 136.728 12.5944 136.902 12.9003C137.076 13.2063 137.119 13.5559 137.119 13.9056ZM137.119 21.2045C137.119 21.5542 137.032 21.9038 136.902 22.2098C136.772 22.5157 136.554 22.778 136.294 23.0402C136.033 23.2587 135.729 23.4773 135.381 23.6084C135.034 23.7395 134.686 23.8269 134.295 23.8269C133.904 23.8269 133.557 23.7395 133.209 23.6084C132.861 23.4773 132.557 23.2587 132.297 23.0402C132.036 22.8217 131.862 22.5157 131.688 22.2098C131.515 21.9038 131.471 21.5542 131.471 21.2045C131.471 20.8549 131.558 20.5052 131.688 20.1993C131.819 19.8933 132.036 19.6311 132.297 19.3689C132.557 19.1503 132.861 18.9318 133.209 18.8007C133.557 18.6696 133.904 18.5822 134.295 18.5822C134.686 18.5822 135.034 18.6696 135.381 18.8007C135.729 18.9318 136.033 19.1503 136.294 19.3689C136.554 19.5874 136.728 19.8933 136.902 20.1993C137.076 20.5052 137.119 20.8549 137.119 21.2045ZM135.729 13.9056C135.729 13.5122 135.599 13.1626 135.294 12.9003C134.99 12.6381 134.686 12.507 134.295 12.507C133.904 12.507 133.557 12.6381 133.296 12.9003C133.035 13.1626 132.861 13.5122 132.861 13.9056C132.861 14.2989 132.992 14.6486 133.296 14.9108C133.6 15.1731 133.904 15.3042 134.295 15.3042C134.686 15.3042 135.034 15.1731 135.294 14.9108C135.555 14.6486 135.729 14.2989 135.729 13.9056ZM135.729 21.2045C135.729 20.8112 135.599 20.4615 135.294 20.1993C134.99 19.937 134.686 19.8059 134.295 19.8059C133.904 19.8059 133.557 19.937 133.296 20.1993C133.035 20.4615 132.861 20.8112 132.861 21.2045C132.861 21.5979 132.992 21.9475 133.296 22.2098C133.6 22.472 133.904 22.6031 134.295 22.6031C134.686 22.6031 135.034 22.472 135.294 22.2098C135.555 21.9475 135.729 21.5979 135.729 21.2045Z" fill="#575756"/>
</g>
<defs>
<clipPath id="clip0_859_2687">
<rect width="214" height="56" fill="white"/>
</clipPath>
</defs>
</svg>
