<svg width="113" height="63" viewBox="0 0 113 63" fill="none" xmlns="http://www.w3.org/2000/svg">
<path d="M64.5007 15.7405C61.6373 13.7813 57.9655 14.592 56.0454 17.5307C54.4284 19.9965 52.003 20.3005 51.0598 20.3005C47.9943 20.3005 45.9057 18.1387 45.2657 15.9093C45.2657 15.8756 45.2657 15.8756 45.2657 15.8418C45.2657 15.808 45.2657 15.808 45.232 15.7742C44.9962 14.8285 44.9288 14.3893 44.9288 13.4098C44.9288 8.03912 50.4197 2.09422 58.3024 2.09422C66.3871 2.09422 71.0022 8.27556 72.1812 11.6871C72.1475 11.6196 72.1475 11.552 72.1139 11.5182C69.8232 4.83023 63.4901 0 56.0117 0C46.6132 0 39 7.63378 39 17.0578C39 25.4685 45.0636 32.6969 53.4515 32.6969C60.1551 32.6969 64.6691 28.9138 66.724 23.7458C67.903 20.8071 67.0946 17.4969 64.5007 15.7405Z" fill="#003863"/>
<path d="M72.3139 11.9561C71.337 8.61206 66.6546 2.02539 58.3003 2.02539C50.4177 2.02539 44.9268 7.97029 44.9268 13.341C44.9268 14.3205 44.9941 14.7934 45.2299 15.7054C45.1289 15.3001 45.0615 14.8947 45.0615 14.4894C45.0615 8.91606 50.6198 5.06539 56.3465 5.06539C64.0944 5.06539 70.3601 11.3481 70.3601 19.117C70.3601 25.197 66.8567 30.4663 61.77 32.9996C68.3052 30.6352 72.9876 24.3525 72.9876 16.9552C73.055 15.2325 72.8192 13.7125 72.3139 11.9561Z" fill="#E4032E"/>
<path d="M0.884711 55.3099V50.3662H10.3115V51.5869H2.41008V52.2277H10.2505V53.4179H2.41008V54.0892H10.3725V55.3099H6.37603V56.1033H11.2267V57.3545H0V56.1033H4.85067V55.3099H0.884711ZM8.57256 60.3146C8.57256 60.6808 8.51155 61.0165 8.35901 61.3522C8.20647 61.6879 7.99292 61.9625 7.74886 62.2066C7.4743 62.4508 7.13872 62.6644 6.77263 62.7865C6.40654 62.939 6.00995 63.0001 5.61335 63.0001C5.21675 63.0001 4.82016 62.939 4.45407 62.7865C4.08798 62.6339 3.78291 62.4508 3.50834 62.2066C3.23378 61.9625 3.02023 61.6879 2.86769 61.3522C2.71515 61.0165 2.65414 60.6808 2.65414 60.3146C2.65414 59.9484 2.71515 59.5822 2.86769 59.277C3.02023 58.9719 3.23378 58.6667 3.50834 58.4226C3.78291 58.1785 4.08798 57.9954 4.45407 57.8428C4.82016 57.6902 5.21675 57.6292 5.61335 57.6292C6.04045 57.6292 6.43705 57.6902 6.77263 57.8428C7.13872 57.9954 7.44379 58.1785 7.74886 58.4226C8.02343 58.6667 8.20647 58.9719 8.35901 59.277C8.51155 59.5822 8.57256 59.9179 8.57256 60.3146ZM7.0777 60.2841C7.0777 59.8874 6.92516 59.5517 6.6506 59.2465C6.34552 58.9719 6.00995 58.8193 5.61335 58.8193C5.21675 58.8193 4.85067 58.9719 4.5761 59.2465C4.27103 59.5212 4.11849 59.8874 4.11849 60.2841C4.11849 60.6808 4.27103 61.0165 4.5761 61.3217C4.88118 61.5963 5.21675 61.7489 5.61335 61.7489C6.00995 61.7489 6.37603 61.5963 6.6506 61.3217C6.92516 61.047 7.0777 60.6808 7.0777 60.2841Z" fill="#575756"/>
<path d="M19.6788 51.007V52.2582H12.54V51.007H15.3467V50H16.9636V51.007H19.6788ZM13.2722 57.8122H14.7671V58.7277H21.2346V57.8122H22.7295V62.2371H13.3027L13.2722 57.8122ZM18.9466 55.1268C18.9466 55.493 18.8856 55.8287 18.733 56.1338C18.5805 56.439 18.3669 56.7136 18.1229 56.9578C17.8788 57.2019 17.5738 57.385 17.2382 57.5071C16.9026 57.6291 16.5365 57.7207 16.1704 57.7207C15.8043 57.7207 15.4382 57.6597 15.0721 57.5071C14.7061 57.3545 14.4315 57.1714 14.1874 56.9578C13.9434 56.7442 13.7298 56.4695 13.5773 56.1338C13.4248 55.8287 13.3637 55.493 13.3637 55.1268C13.3637 54.7606 13.4248 54.4249 13.5773 54.1197C13.7298 53.8146 13.9434 53.5399 14.1874 53.2958C14.4315 53.0822 14.7366 52.8991 15.0721 52.7465C15.4077 52.5939 15.7738 52.5329 16.1704 52.5329C16.567 52.5329 16.9026 52.5939 17.2382 52.7465C17.5738 52.8686 17.8788 53.0517 18.1229 53.2958C18.3669 53.5399 18.5805 53.8146 18.733 54.1197C18.8856 54.4554 18.9466 54.7911 18.9466 55.1268ZM21.2041 59.8569H14.7366V61.0165H21.2041V59.8569ZM17.4822 55.1268C17.4822 54.7606 17.3602 54.4554 17.0856 54.1808C16.8111 53.9061 16.506 53.7841 16.1399 53.7841C15.7738 53.7841 15.4687 53.9061 15.1942 54.1808C14.9196 54.4554 14.7976 54.7606 14.7976 55.1268C14.7976 55.493 14.9196 55.7981 15.1942 56.0728C15.4687 56.3474 15.7738 56.4695 16.1399 56.4695C16.506 56.4695 16.8111 56.3474 17.0856 56.0728C17.3602 55.7981 17.4822 55.493 17.4822 55.1268ZM22.699 57.324H21.1736V50.2441H22.6685V52.9906H24.4379V54.4554H22.699V57.324Z" fill="#575756"/>
<path d="M25.5342 51.8913V50.5791H32.5509V51.8913H29.5611L32.6729 55.6754L31.6051 56.5603L29.1035 53.4171L26.6324 56.774L25.5342 55.889L28.6459 51.8913H25.5342ZM35.266 59.8561C35.266 60.2528 35.1745 60.6496 35.022 61.0158C34.8389 61.382 34.6254 61.6871 34.3508 61.9618C34.0762 62.2364 33.7407 62.45 33.3441 62.6026C32.9475 62.7552 32.5509 62.8468 32.0933 62.8468C31.6662 62.8468 31.239 62.7552 30.873 62.6026C30.4764 62.45 30.1408 62.2364 29.8662 61.9618C29.5917 61.6871 29.3476 61.382 29.1951 61.0158C29.012 60.6496 28.951 60.2834 28.951 59.8561C28.951 59.4289 29.0425 59.0627 29.1951 58.6965C29.3781 58.3303 29.5917 58.0251 29.8662 57.7505C30.1408 57.4758 30.4764 57.2622 30.873 57.1096C31.2696 56.9571 31.6662 56.8655 32.0933 56.8655C32.5204 56.8655 32.9475 56.9571 33.3441 57.1096C33.7407 57.2622 34.0762 57.4758 34.3508 57.7505C34.6254 58.0251 34.8694 58.3303 35.022 58.6965C35.1745 59.0627 35.266 59.4289 35.266 59.8561ZM33.7712 59.8256C33.7712 59.3679 33.6186 58.9711 33.283 58.6355C32.9475 58.2998 32.5509 58.1472 32.0933 58.1472C31.6356 58.1472 31.2391 58.2998 30.9035 58.6355C30.5679 58.9711 30.4154 59.3679 30.4154 59.8256C30.4154 60.2834 30.5679 60.6801 30.9035 61.0158C31.2391 61.3514 31.6356 61.504 32.0933 61.504C32.5509 61.504 32.9475 61.3514 33.283 61.0158C33.5881 60.7106 33.7712 60.3139 33.7712 59.8256ZM34.7779 56.7129V54.058H32.4899V52.7458H34.7779V50.2129H36.3033V56.6824L34.7779 56.7129Z" fill="#575756"/>
<path d="M47.1948 52.6254V50.7334H48.6897V57.7217H44.7237V60.1935H49.5744V61.5363H38.3477V60.1935H43.1983V57.7217H39.2629V50.7639H40.7577V52.6559H47.1948V52.6254ZM47.1948 56.4095V53.9376H40.7577V56.4095H47.1948Z" fill="#575756"/>
<path d="M58.9094 56.2264V57.5691H50.9775V56.2264H53.4486V53.5104H54.9435V56.2264H58.9094ZM56.7434 55.0667V51.8015H51.5267V50.4587H58.2383V55.0362H56.7434V55.0667ZM51.8623 62.2686V58.6067H53.3876V60.9259H61.6246V62.2686H51.8623ZM61.3805 58.271H59.8552V50.2451H61.3805V53.5409H62.9364V54.9142H61.3805V58.271Z" fill="#575756"/>
<path d="M70.9297 60.7733H64.4316V55.1888H69.2823V52.3508H64.4316V51.008H70.8077V56.501H65.957V59.4306H70.9602V60.7733H70.9297ZM73.1873 50.2451H74.7126V62.4823H73.1873V50.2451Z" fill="#575756"/>
<path d="M80.4789 50.3062L84.4754 60.1935L83.133 60.7733L80.4789 54.0597L77.8553 60.8649L76.4824 60.2546L80.4789 50.3062ZM85.9702 50.2451H87.4956V62.4823H85.9702V50.2451Z" fill="#575756"/>
<path d="M100.827 60.2236V61.5663H89.6006V60.2236H100.827ZM95.1834 52.808L91.126 58.0264L89.9362 57.1414L95.1834 50.4277L100.431 57.1414L99.2714 58.0264L95.1834 52.808Z" fill="#575756"/>
<path d="M107.874 55.4334V56.6236H102.383V50.8254H107.752V52.0766H103.847V53.1447H107.722V54.3043H103.847V55.4334H107.874ZM109.216 50.4592H110.65V56.8372H109.216V54.3043H108.118V52.9006H109.216V50.4592ZM111.535 50.4287H112.999V56.8982H111.535V50.4287Z" fill="#575756"/>
<path d="M103.422 57.875H113.001V62.3915H103.422V57.875ZM111.506 59.1872H104.947V61.1098H111.506V59.1872Z" fill="#575756"/>
<path d="M30.2358 43.0763L29.42 43.5467L28.1022 41.1634L26.8158 43.6094L26 43.1704L28.1022 39.376L30.2358 43.0763ZM32.5577 45.8673C32.5577 46.1495 32.4949 46.4004 32.4008 46.6512C32.2753 46.9021 32.1184 47.0903 31.9301 47.2784C31.7419 47.4666 31.5222 47.592 31.2398 47.7174C30.9575 47.8429 30.7064 47.8742 30.4241 47.8742C30.1417 47.8742 29.8593 47.8115 29.6083 47.7174C29.3573 47.6234 29.1063 47.4666 28.918 47.2784C28.7297 47.0903 28.5729 46.8707 28.4474 46.6512C28.3219 46.4004 28.2905 46.1495 28.2905 45.8673C28.2905 45.585 28.3532 45.3342 28.4474 45.0833C28.5729 44.8324 28.6984 44.6443 28.918 44.4561C29.1063 44.268 29.3573 44.1425 29.6083 44.0171C29.8593 43.923 30.1417 43.8603 30.4241 43.8603C30.7064 43.8603 30.9888 43.923 31.2398 44.0171C31.4909 44.1112 31.7105 44.268 31.9301 44.4561C32.1184 44.6443 32.2753 44.8638 32.4008 45.0833C32.4949 45.3342 32.5577 45.585 32.5577 45.8673ZM31.5536 45.8673C31.5536 45.5537 31.4281 45.3028 31.2085 45.0833C30.9888 44.8638 30.7065 44.7697 30.3927 44.7697C30.0789 44.7697 29.8279 44.8638 29.6083 45.0833C29.3886 45.3028 29.2631 45.5537 29.2631 45.8673C29.2631 46.1809 29.3886 46.4317 29.6083 46.6512C29.8279 46.8707 30.1103 46.9648 30.3927 46.9648C30.6751 46.9648 30.9888 46.8707 31.2085 46.6512C31.4281 46.4317 31.5536 46.1809 31.5536 45.8673ZM32.4322 39.4073H33.4048V43.7662H32.4322V41.916H31.585V43.6408H30.6437V39.4387H31.585V40.9753H32.4322V39.4073Z" fill="#575756"/>
<path d="M38.4589 46.4943H34.8506V39.909H38.3647V40.8184H35.8233V42.7313H38.3647V43.6093H35.8233V45.5849H38.4589V46.4943ZM41.0945 39.4072H42.0671V47.5919H41.0945V43.672H40.1532V47.5919H39.2119V39.4386H40.1532V42.794H41.0945V39.4072Z" fill="#575756"/>
<path d="M46.7075 46.5257H45.7348V40.8497H43.1934V39.9403H46.7075V46.5257ZM47.9939 39.4386H48.9352V47.5919H47.9939V44.7069H47.084V43.8288H47.9939V42.3863H47.084V41.5083H47.9939V39.4386ZM49.6883 39.4072H50.6609V47.5919H49.6883V39.4072Z" fill="#575756"/>
<path d="M58.8205 46.5257H57.7851V40.8497H54.6475V39.9403H58.8205V46.5257ZM60.86 39.4072H61.8954V47.5919H60.86V39.4072Z" fill="#575756"/>
<path d="M63.2754 45.7725V44.8945H70.8057V45.7725H67.5426V47.6227H66.5385V45.7725H63.2754ZM70.3037 40.1907V41.0687H68.7035C68.829 41.1941 68.9231 41.3509 69.0173 41.5391C69.1428 41.79 69.1741 42.0408 69.1741 42.2917C69.1741 42.5426 69.1114 42.7934 69.0173 43.0443C68.9231 43.2952 68.7662 43.4833 68.578 43.6715C68.3897 43.8283 68.1701 43.9851 67.9191 44.0792C67.6681 44.1732 67.3857 44.236 67.1033 44.236C66.8209 44.236 66.5385 44.1732 66.2875 44.0792C66.0365 43.9851 65.8169 43.8283 65.6286 43.6715C65.4404 43.4833 65.2835 43.2952 65.1893 43.0443C65.0952 42.7934 65.0325 42.5426 65.0325 42.2917C65.0325 42.0408 65.0952 41.79 65.1893 41.5391C65.2835 41.3823 65.3776 41.2255 65.5031 41.0687H63.9029V40.1907H66.6013V39.2812H67.6995V40.1907H70.3037ZM68.1701 42.2603C68.1701 41.9468 68.076 41.6959 67.8563 41.4764C67.6367 41.2569 67.3857 41.1628 67.0719 41.1628C66.7582 41.1628 66.5072 41.2569 66.2875 41.4764C66.0679 41.6959 65.9738 41.9468 65.9738 42.2603C65.9738 42.5739 66.0679 42.8248 66.2875 43.0443C66.5072 43.2638 66.7582 43.3579 67.0719 43.3579C67.3857 43.3579 67.6367 43.2638 67.8563 43.0443C68.076 42.8248 68.1701 42.5739 68.1701 42.2603Z" fill="#575756"/>
<path d="M72.0303 39.909H75.4817V40.8184H73.0657V45.5849H75.6072V46.463H72.0617V39.909H72.0303ZM78.2428 39.4072H79.2155V47.5919H78.2428V43.672H77.1446V47.5919H76.2033V39.4386H77.1446V42.794H78.2428V39.4072Z" fill="#575756"/>
<path d="M88 43.9547H80.4697V43.0767H88V43.9547ZM86.243 40.8815C86.243 41.1324 86.1802 41.3833 86.0861 41.6028C85.992 41.8223 85.8351 42.0105 85.6468 42.1986C85.4586 42.3554 85.2389 42.5122 84.9879 42.6063C84.7369 42.7003 84.4859 42.7631 84.2035 42.7631C83.9211 42.7631 83.6701 42.7003 83.4191 42.6063C83.1681 42.5122 82.9485 42.3868 82.7602 42.1986C82.5719 42.0418 82.4464 41.8223 82.3209 41.6028C82.1954 41.3833 82.164 41.1324 82.164 40.8815C82.164 40.6307 82.2268 40.3798 82.3209 40.1603C82.4151 39.9408 82.5719 39.7213 82.7602 39.5645C82.9485 39.4077 83.1681 39.2509 83.4191 39.1568C83.6701 39.0627 83.9211 39 84.2035 39C84.4859 39 84.7369 39.0627 84.9879 39.1568C85.2389 39.2509 85.4586 39.3763 85.6468 39.5645C85.8351 39.7213 85.9606 39.9408 86.0861 40.1603C86.2116 40.3798 86.243 40.6307 86.243 40.8815ZM86.243 46.1185C86.243 46.3693 86.1802 46.6202 86.0861 46.8397C85.992 47.0592 85.8351 47.2474 85.6468 47.4355C85.4586 47.5923 85.2389 47.7491 84.9879 47.8432C84.7369 47.9373 84.4859 48 84.2035 48C83.9211 48 83.6701 47.9373 83.4191 47.8432C83.1681 47.7491 82.9485 47.5923 82.7602 47.4355C82.5719 47.2787 82.4464 47.0592 82.3209 46.8397C82.1954 46.6202 82.164 46.3693 82.164 46.1185C82.164 45.8676 82.2268 45.6167 82.3209 45.3972C82.4151 45.1777 82.5719 44.9895 82.7602 44.8014C82.9485 44.6446 83.1681 44.4878 83.4191 44.3937C83.6701 44.2997 83.9211 44.2369 84.2035 44.2369C84.4859 44.2369 84.7369 44.2997 84.9879 44.3937C85.2389 44.4878 85.4586 44.6446 85.6468 44.8014C85.8351 44.9582 85.9606 45.1777 86.0861 45.3972C86.2116 45.6167 86.243 45.8676 86.243 46.1185ZM85.2389 40.8815C85.2389 40.5993 85.1448 40.3484 84.9252 40.1603C84.7055 39.9721 84.4859 39.878 84.2035 39.878C83.9211 39.878 83.6701 39.9721 83.4819 40.1603C83.2936 40.3484 83.1681 40.5993 83.1681 40.8815C83.1681 41.1638 83.2622 41.4146 83.4819 41.6028C83.7015 41.7909 83.9211 41.885 84.2035 41.885C84.4859 41.885 84.7369 41.7909 84.9252 41.6028C85.1134 41.4146 85.2389 41.1638 85.2389 40.8815ZM85.2389 46.1185C85.2389 45.8362 85.1448 45.5854 84.9252 45.3972C84.7055 45.2091 84.4859 45.115 84.2035 45.115C83.9211 45.115 83.6701 45.2091 83.4819 45.3972C83.2936 45.5854 83.1681 45.8362 83.1681 46.1185C83.1681 46.4007 83.2622 46.6516 83.4819 46.8397C83.7015 47.0279 83.9211 47.1219 84.2035 47.1219C84.4859 47.1219 84.7369 47.0279 84.9252 46.8397C85.1134 46.6516 85.2389 46.4007 85.2389 46.1185Z" fill="#575756"/>
</svg>
