<svg width="32" height="32" viewBox="0 0 32 32" fill="none" xmlns="http://www.w3.org/2000/svg">
<g clip-path="url(#clip0_113_1397)">
<g clip-path="url(#clip1_113_1397)">
<path fill-rule="evenodd" clip-rule="evenodd" d="M12.0001 6.73887C11.9139 8.92862 12.0001 22.7028 12.0001 22.7028C12.2137 22.7028 12.4273 22.7371 12.6325 22.8055L20.0001 25.2613V9.29735C19.7865 9.29735 19.5729 9.26314 19.3677 9.19471L12.0001 6.73887ZM11.3676 4.13876C11.7782 4.00192 12.222 4.00192 12.6325 4.13876L20.0001 6.59462L27.0519 4.24399C28.1743 3.86987 29.3334 4.70528 29.3334 5.88838V23.5196C29.3334 24.3804 28.7826 25.1447 27.9658 25.4169L20.6325 27.8613C20.2219 27.9983 19.7782 27.9983 19.3677 27.8613L12.0001 25.4055L4.94821 27.7561C3.82583 28.1303 2.66675 27.2949 2.66675 26.1117V8.48058C2.66675 7.61972 3.21761 6.85544 4.03429 6.58322L11.3676 4.13876Z" fill="#737373"/>
</g>
</g>
<defs>
<clipPath id="clip0_113_1397">
<rect width="32" height="32" fill="white"/>
</clipPath>
<clipPath id="clip1_113_1397">
<rect width="32" height="32" fill="white"/>
</clipPath>
</defs>
</svg>
