<svg width="32" height="32" viewBox="0 0 32 32" fill="none" xmlns="http://www.w3.org/2000/svg">
<g clip-path="url(#clip0_113_633)">
<g clip-path="url(#clip1_113_633)">
<path fill-rule="evenodd" clip-rule="evenodd" d="M11.9998 6.73887C11.9136 8.92862 11.9998 22.7028 11.9998 22.7028C12.2134 22.7028 12.427 22.7371 12.6323 22.8055L19.9998 25.2613V9.29735C19.7862 9.29735 19.5726 9.26314 19.3674 9.19471L11.9998 6.73887ZM11.3674 4.13876C11.7779 4.00192 12.2218 4.00192 12.6323 4.13876L19.9998 6.59462L27.0517 4.24399C28.1741 3.86987 29.3332 4.70528 29.3332 5.88838V23.5196C29.3332 24.3804 28.7824 25.1447 27.9656 25.4169L20.6322 27.8613C20.2217 27.9983 19.778 27.9983 19.3674 27.8613L11.9998 25.4055L4.94797 27.7561C3.82558 28.1303 2.6665 27.2949 2.6665 26.1117V8.48058C2.6665 7.61972 3.21737 6.85544 4.03405 6.58322L11.3674 4.13876Z" fill="white"/>
</g>
</g>
<defs>
<clipPath id="clip0_113_633">
<rect width="32" height="32" fill="white"/>
</clipPath>
<clipPath id="clip1_113_633">
<rect width="32" height="32" fill="white"/>
</clipPath>
</defs>
</svg>
