<svg width="40" height="40" viewBox="0 0 40 40" fill="none" xmlns="http://www.w3.org/2000/svg">
<path d="M20.0002 0C13.0502 0 7.42018 5.635 7.42018 12.58C7.37018 17.89 14.7402 31.09 18.2252 37.025C19.0202 38.385 20.9852 38.38 21.7802 37.025C25.2452 31.1 32.5802 17.935 32.5802 12.58C32.5802 5.635 26.9502 0 20.0002 0Z" fill="#F7543E"/>
<path d="M19.9999 22.475C14.3649 22.475 9.79492 17.905 9.79492 12.27C9.79492 6.62 14.3449 2.065 19.9999 2.065C25.6349 2.065 30.2049 6.635 30.2049 12.27C30.2049 17.84 25.6349 22.475 19.9999 22.475Z" fill="white"/>
</svg>
