<svg width="26" height="39" viewBox="0 0 26 39" fill="none" xmlns="http://www.w3.org/2000/svg">
<path d="M12.5803 0C5.63025 0 0.000253129 5.635 0.000253129 12.58C-0.0497469 17.89 7.32025 31.09 10.8053 37.025C11.6003 38.385 13.5653 38.38 14.3603 37.025C17.8253 31.1 25.1603 17.935 25.1603 12.58C25.1603 5.635 19.5303 0 12.5803 0Z" fill="#5B89FF"/>
<path d="M12.58 22.475C6.945 22.475 2.375 17.905 2.375 12.27C2.375 6.62 6.925 2.065 12.58 2.065C18.215 2.065 22.785 6.635 22.785 12.27C22.785 17.84 18.215 22.475 12.58 22.475Z" fill="white"/>
</svg>
