<svg width="32" height="32" viewBox="0 0 32 32" fill="none" xmlns="http://www.w3.org/2000/svg">
<g clip-path="url(#clip0_113_798)">
<path fill-rule="evenodd" clip-rule="evenodd" d="M9.28005 5.50666C9.15279 5.37989 9.06203 5.22117 9.01731 5.0472C8.97258 4.87322 8.97554 4.69041 9.02588 4.51798C9.07622 4.34555 9.17208 4.18986 9.30338 4.06727C9.43468 3.94468 9.59657 3.85973 9.77205 3.82133L16.128 2.428C16.2919 2.39215 16.462 2.39807 16.623 2.44521C16.7839 2.49235 16.9304 2.5792 17.0489 2.69777C17.1675 2.81634 17.2544 2.96282 17.3015 3.12374C17.3486 3.28466 17.3546 3.45486 17.3187 3.61866L15.9241 9.97466C15.8855 10.1497 15.8007 10.3112 15.6784 10.4422C15.556 10.5732 15.4008 10.669 15.2287 10.7194C15.0567 10.7698 14.8743 10.7731 14.7006 10.7289C14.5269 10.6847 14.3683 10.5945 14.2414 10.468L9.27872 5.50533L9.28005 5.50666ZM18.2627 30.1267C19.3589 30.1267 20.4103 29.6912 21.1854 28.916C21.9606 28.1409 22.3961 27.0896 22.3961 25.9933C22.3961 24.8971 21.9606 23.8458 21.1854 23.0706C20.4103 22.2955 19.3589 21.86 18.2627 21.86C17.1665 21.86 16.1152 22.2955 15.34 23.0706C14.5649 23.8458 14.1294 24.8971 14.1294 25.9933C14.1294 27.0896 14.5649 28.1409 15.34 28.916C16.1152 29.6912 17.1665 30.1267 18.2627 30.1267ZM9.87605 9.87066C9.62601 9.6207 9.28694 9.48028 8.93338 9.48028C8.57983 9.48028 8.24075 9.6207 7.99072 9.87066L4.92005 12.94C4.3943 13.4657 3.97725 14.0898 3.69271 14.7767C3.40817 15.4636 3.26172 16.1998 3.26172 16.9433C3.26172 17.6868 3.40817 18.423 3.69271 19.1099C3.97725 19.7968 4.3943 20.421 4.92005 20.9467L4.92538 20.9507C5.98912 22.0117 7.43044 22.6072 8.93288 22.6065C10.4353 22.6057 11.876 22.0088 12.9387 20.9467L20.9454 12.94C22.1187 11.7667 24.0187 11.7667 25.192 12.9373C26.3627 14.1053 26.364 16.0013 25.196 17.172L25.1934 17.1733L22.8334 19.5333C22.5832 19.7833 22.4426 20.1225 22.4424 20.4762C22.4423 20.8299 22.5827 21.1691 22.8327 21.4193C23.0827 21.6695 23.4219 21.8101 23.7756 21.8103C24.1293 21.8104 24.4685 21.67 24.7187 21.42L27.0787 19.06L27.084 19.0547C28.1442 17.9918 28.7388 16.5513 28.737 15.0501C28.7353 13.5488 28.1374 12.1098 27.0747 11.0493C26.011 9.9883 24.5697 9.39278 23.0672 9.39353C21.5648 9.39428 20.1241 9.99124 19.0614 11.0533L11.0534 19.06C9.88138 20.2333 7.98138 20.2333 6.80672 19.06C6.24565 18.4985 5.93048 17.7371 5.93048 16.9433C5.93048 16.1495 6.24565 15.3882 6.80672 14.8267L9.87605 11.756C10.126 11.506 10.2664 11.1669 10.2664 10.8133C10.2664 10.4598 10.126 10.1207 9.87605 9.87066Z" fill="#737373"/>
</g>
<defs>
<clipPath id="clip0_113_798">
<rect width="32" height="32" fill="white"/>
</clipPath>
</defs>
</svg>
